<svg width="60" height="53" viewBox="0 0 60 53" fill="none" xmlns="http://www.w3.org/2000/svg">
<g clip-path="url(#clip0)">
<path d="M25.3 52.9999C39.2728 52.9999 50.6 41.6727 50.6 27.6999C50.6 13.7271 39.2728 2.3999 25.3 2.3999C11.3272 2.3999 0 13.7271 0 27.6999C0 41.6727 11.3272 52.9999 25.3 52.9999Z" fill="#FF9D03"/>
<path d="M29.4 31.5002H22.5V33.9002H32.8C33.2 33.9002 33.4 34.2002 33.5 34.5002V37.1002C33.5 37.5002 33.2 37.7002 32.9 37.8002H22.5V41.7002C22.5 42.1002 22.2 42.3002 21.9 42.4002H18.5C18.1 42.4002 17.9 42.1002 17.8 41.8002V37.9002H13.2C12.8 37.9002 12.6 37.6002 12.5 37.3002V34.7002C12.5 34.3002 12.8 34.1002 13.1 34.0002H17.7V31.6002H13.1C12.7 31.6002 12.5 31.3002 12.4 31.0002V28.0002C12.4 27.6002 12.7 27.4002 13 27.3002H17.6V14.4002C17.6 14.0002 17.9 13.8002 18.2 13.7002H29.2C34.6 13.7002 38.4 17.4002 38.4 22.6002C38.4 27.8002 34.8 31.5002 29.4 31.5002ZM29 18.0002H22.5V27.1002H29C31.9 27.1002 33.8 25.3002 33.8 22.5002C33.9 20.1002 32 18.0002 29.5 17.9002C29.3 18.0002 29.2 18.0002 29 18.0002Z" fill="white"/>
<path opacity="0.1" d="M25.3 2.5C39.2 2.5 50.6 13.8 50.6 27.8C50.6 41.8 39.2 53 25.3 53" fill="black"/>
<path opacity="0.1" d="M40.6 23.4C39.7 24.1 38.3 24 37.6 23.1C37.3 22.7 37 22.3 36.9 21.7L34.3 4.5C43.4 8.3 49.8 17.3 49.8 27.8C49.8 39.3 42 49 31.4 52L32.8 50.9C34.3 50.1 35.7 49.2 37 48.2C45.4 41.4 48.2 30 44.2 20.4L40.6 23.4Z" fill="black"/>
<path d="M57.6 7.99986L40.4 0.199855C39.7 -0.100145 38.8 -0.100145 38.1 0.399855C37.4 0.899855 37.1 1.79985 37.2 2.49985L39.2 21.2999C39.2 21.8999 39.5 22.2999 39.8 22.6999C40.5 23.5999 41.9 23.8999 42.8 23.1999L46.6 20.3999C50.1 30.1999 46.9 41.4999 38.2 47.7999C36.9 48.7999 35.4 49.5999 33.9 50.2999L31.3 52.1999C36.3 51.9999 41.4 50.3999 45.8 47.1999C56.1 39.5999 59.3 26.0999 54 14.8999L58.3 11.7999C59.2 11.0999 59.5 9.69985 58.8 8.79986C58.4 8.49986 58.1 8.29986 57.6 7.99986Z" fill="#00B05A"/>
<path opacity="0.2" d="M59.1 9.99976C59 10.5998 58.8 11.1998 58.2 11.5998L53.9 14.6998C53.9 14.7998 54 14.8998 54 14.9998L58.2 11.9998C58.8 11.4998 59.1 10.6998 59.1 9.99976ZM45.7 46.8998C45.6 46.9998 45.6 46.9998 45.5 46.9998C53.8 35.1998 53.2 17.0998 42.7 2.79976C42.1 1.99976 41.5 1.09976 40.7 0.299757L40.4 0.099757C39.7 -0.200243 38.8 -0.200243 38.1 0.299757C37.4 0.799757 37.1 1.69976 37.2 2.39976L39.2 21.1998C39.2 21.7998 39.5 22.1998 39.8 22.5998C40.5 23.4998 41.9 23.7998 42.8 23.0998L46.6 20.2998C50.1 30.0998 46.9 41.3998 38.2 47.6998C36.9 48.6998 35.4 49.4998 33.9 50.1998L31.3 52.0998C36.3 51.8998 41.4 50.2998 45.8 47.0998C52.9 41.8998 56.6 33.7998 56.5 25.5998C56.4 33.8998 52.7 41.7998 45.7 46.8998Z" fill="white"/>
</g>
<defs>
<clipPath id="clip0">
<rect width="60" height="53" fill="white"/>
</clipPath>
</defs>
</svg>
