<svg width="368" height="287" viewBox="0 0 368 287" fill="none" xmlns="http://www.w3.org/2000/svg">
<path d="M187.711 338.856L137.18 292.857C123.796 280.659 115.806 263.65 114.967 245.567C114.127 227.484 120.508 209.809 132.705 196.425C132.752 196.369 132.794 196.324 132.837 196.266L39.9127 127.107C-20.1907 202.946 -11.7754 313.392 60.8467 379.57L196.008 502.385L188.451 338.195L187.711 338.856Z" fill="#1D89AA"/>
<path d="M188.403 338.824L138.266 292.86C131.653 286.809 126.297 279.516 122.506 271.396C118.714 263.277 116.56 254.491 116.166 245.539C115.773 236.588 117.149 227.647 120.214 219.227C123.279 210.807 127.975 203.072 134.031 196.466C134.044 196.451 134.128 196.431 134.141 196.418L61.8668 142.509C9.60372 207.847 15.666 303.381 78.4013 360.547L194.37 466.896L188.447 338.198L188.403 338.824Z" fill="#289CC9"/>
<path d="M188.962 338.798L138.55 292.846C131.927 286.805 126.561 279.52 122.757 271.406C118.953 263.293 116.786 254.51 116.379 245.559C115.972 236.608 117.334 227.665 120.387 219.24C123.441 210.816 128.124 203.075 134.171 196.459L134.21 196.414L106.498 175.725C89.3621 196.376 80.8373 222.824 82.6891 249.587C84.542 276.35 96.6309 301.374 116.448 319.47L191.879 388.354L189.562 338.148L188.962 338.798Z" fill="#35C3EF"/>
<path d="M108.452 60.422C88.2985 74.0432 84.3173 103.352 99.5796 125.856C114.817 148.357 143.513 155.554 163.68 141.903L190.279 123.902C210.428 110.268 202.074 90.291 186.822 67.7871C171.57 45.2832 183.25 5.57698 163.094 19.2143L108.452 60.422Z" fill="#E9B980"/>
<path opacity="0.15" d="M168.255 120.953C168.255 120.953 93.1925 79.8526 93.8563 78.3475C94.52 76.8425 144.756 27.5961 160.057 23.1248C175.357 18.6535 185.949 81.239 185.949 81.239L168.255 120.953Z" fill="black"/>
<path d="M241.825 54.2705C263.143 65.9836 269.8 94.8035 256.677 118.617C243.573 142.417 215.655 152.222 194.314 140.473L187.611 134.486C166.294 122.759 143.108 107.17 172.372 57.9369C186.256 34.5613 192.354 27.0374 213.68 38.7712L241.825 54.2705Z" fill="#FDDBA4"/>
<path d="M111.851 58.9539C109.138 57.5352 105.976 57.2347 103.043 58.1179C100.111 59.0011 97.6411 60.9966 96.1639 63.6785C94.6878 66.3592 94.3201 69.512 95.1417 72.4602C95.9633 75.4086 97.9073 77.9181 100.559 79.4507L171.326 121.184C172.674 121.951 174.162 122.442 175.702 122.629C177.243 122.817 178.805 122.696 180.298 122.274C181.791 121.853 183.185 121.139 184.4 120.174C185.614 119.209 186.625 118.012 187.373 116.653C188.121 115.294 188.59 113.8 188.754 112.258C188.918 110.717 188.774 109.157 188.33 107.672C187.887 106.186 187.15 104.803 186.167 103.604C185.183 102.405 183.971 101.413 182.6 100.687L111.851 58.9539ZM124.612 37.3539C121.893 35.857 118.689 35.5023 115.707 36.3659C112.725 37.2296 110.208 39.2424 108.71 41.9599C107.212 44.6775 106.857 47.8787 107.722 50.8588C108.586 53.8389 110.6 56.3538 113.319 57.8507L174.743 93.7639C177.462 95.2288 180.649 95.5617 183.612 94.69C186.574 93.8182 189.072 91.8126 190.562 89.1093C192.052 86.4061 192.413 83.2243 191.567 80.2562C190.721 77.2881 188.736 74.7742 186.044 73.2613L124.612 37.3539ZM144.099 19.2211C141.408 17.7449 138.246 17.3822 135.291 18.2124C132.336 19.0438 129.826 21.0002 128.301 23.6614C126.775 26.3225 126.357 29.4765 127.135 32.4439C127.912 35.4102 129.825 37.9538 132.461 39.5257L192.632 75.5148C193.966 76.2785 195.438 76.772 196.962 76.9673C198.488 77.1627 200.037 77.056 201.52 76.6532C203.004 76.2504 204.394 75.5596 205.61 74.6201C206.827 73.6806 207.846 72.5109 208.611 71.1777C209.375 69.8448 209.868 68.3743 210.064 66.8497C210.26 65.3263 210.153 63.7787 209.75 62.2955C209.346 60.8136 208.655 59.4237 207.716 58.2088C206.775 56.9929 205.605 55.9738 204.27 55.2103L144.099 19.2211ZM167.418 5.29254C166.151 4.59127 164.758 4.14678 163.318 3.98327C161.879 3.82091 160.423 3.94297 159.031 4.34369C157.639 4.74442 156.339 5.41575 155.207 6.31968C154.074 7.22246 153.132 8.33942 152.434 9.60722C151.734 10.875 151.292 12.2683 151.131 13.7066C150.971 15.146 151.097 16.6015 151.501 17.9913C151.905 19.3812 152.579 20.679 153.486 21.8074C154.391 22.9371 155.511 23.8767 156.781 24.5733L211.424 55.01C213.984 56.4183 216.999 56.7522 219.806 55.9392C222.613 55.1263 224.981 53.232 226.391 50.6745C227.8 48.1159 228.135 45.1024 227.321 42.2973C226.508 39.4934 224.612 37.1259 222.052 35.7176L167.418 5.29254Z" fill="#FDDBA4"/>
<path d="M168.679 110.196L207.021 42.8911L181.955 28.632L143.613 95.9366L168.679 110.196Z" fill="#FDDBA4"/>
<path d="M183.895 43.1553L192.252 28.4897L167.191 14.2272L158.834 28.8927L183.895 43.1553ZM169.866 133.507C169.711 130.232 171.723 127.478 174.36 127.356L219.483 125.283C222.115 125.162 224.37 127.724 224.522 130.998L224.893 139.058C225.044 142.337 223.035 145.095 220.399 145.21L175.279 147.283C172.644 147.398 170.39 144.845 170.239 141.566L169.866 133.507Z" fill="#FDDBA4"/>
<path d="M209.868 28.5387C210.56 27.3481 211.479 26.3048 212.575 25.4688C213.67 24.6328 214.919 24.0214 216.251 23.6679C217.583 23.3155 218.972 23.228 220.337 23.4122C221.703 23.5953 223.019 24.0467 224.21 24.7388C226.615 26.1344 228.366 28.427 229.08 31.1135C229.793 33.8 229.409 36.6592 228.013 39.0623L214.586 62.1765C213.189 64.5797 210.895 66.33 208.207 67.0428C205.518 67.7556 202.657 67.3721 200.252 65.9765C197.847 64.5809 196.096 62.2882 195.383 59.6017C194.669 56.9153 195.053 54.0561 196.45 51.6529L209.868 28.5387Z" fill="#E9B980"/>
<path opacity="0.15" d="M179.193 144.373C180.374 144.32 181.549 144.179 182.709 143.952C185.145 144.327 187.638 143.959 189.861 142.896C192.084 141.834 193.935 140.126 195.172 137.996L206.003 118.856C206.814 117.462 207.341 115.922 207.556 114.324C207.77 112.726 207.667 111.102 207.254 109.543C206.84 107.985 206.123 106.523 205.144 105.242C204.164 103.961 202.943 102.885 201.547 102.075C200.152 101.266 198.611 100.739 197.012 100.524C195.414 100.31 193.788 100.413 192.229 100.826C190.668 101.24 189.206 101.956 187.924 102.934C186.642 103.913 185.565 105.134 184.755 106.528L178.129 118.227C178.083 118.231 178.036 118.231 177.99 118.227L166.279 118.775C166.279 118.775 172.866 133.639 177.427 144.454L179.193 144.373Z" fill="black"/>
<path d="M191.339 15.2362C192.029 14.0444 192.949 13.0011 194.044 12.164C195.138 11.328 196.387 10.7154 197.718 10.3619C199.05 10.0084 200.439 9.91969 201.804 10.1028C203.171 10.2859 204.487 10.735 205.679 11.427C208.083 12.8238 209.836 15.1164 210.549 17.8029C211.264 20.4894 210.882 23.3485 209.488 25.754L196.058 48.8659C195.368 50.0577 194.448 51.101 193.353 51.937C192.259 52.773 191.01 53.3856 189.679 53.7391C188.347 54.0926 186.958 54.1813 185.593 53.9982C184.227 53.8151 182.911 53.3648 181.72 52.6739C179.315 51.2772 177.563 48.9822 176.85 46.2957C176.137 43.6081 176.52 40.7478 177.917 38.3435L191.339 15.2362ZM170.888 5.21809C171.579 4.02743 172.499 2.98531 173.594 2.14933C174.688 1.31448 175.937 0.703027 177.268 0.349512C178.6 -0.00284416 179.988 -0.0903532 181.353 0.0927371C182.719 0.275827 184.033 0.726069 185.225 1.41813C186.416 2.10903 187.459 3.02792 188.295 4.12185C189.13 5.21578 189.742 6.46287 190.096 7.79286C190.448 9.124 190.536 10.5104 190.353 11.8738C190.17 13.2383 189.719 14.5533 189.028 15.7428L179.787 32.0827C179.096 33.2734 178.176 34.3155 177.082 35.1503C175.987 35.9852 174.739 36.5966 173.408 36.9501C172.076 37.3025 170.689 37.39 169.324 37.2069C167.959 37.0238 166.643 36.5736 165.452 35.8827C164.261 35.1918 163.217 34.2729 162.382 33.179C161.546 32.085 160.933 30.8368 160.581 29.5057C160.227 28.1757 160.14 26.7881 160.324 25.4236C160.507 24.059 160.957 22.7452 161.65 21.5545L170.888 5.21809ZM227.937 41.2199C228.628 40.0293 229.547 38.986 230.642 38.15C231.738 37.3152 232.987 36.7026 234.319 36.3502C235.65 35.9967 237.039 35.9103 238.404 36.0934C239.77 36.2777 241.086 36.7279 242.277 37.42C243.469 38.1109 244.511 39.0298 245.348 40.1237C246.183 41.2176 246.795 42.4659 247.149 43.7958C247.502 45.127 247.589 46.5134 247.406 47.8779C247.223 49.2425 246.772 50.5563 246.08 51.747L236.837 68.0857C235.44 70.489 233.146 72.2395 230.458 72.9522C227.769 73.6649 224.908 73.2812 222.503 71.8857C220.099 70.4902 218.347 68.1974 217.634 65.5109C216.92 62.8245 217.304 59.9653 218.701 57.5621L227.937 41.2199ZM184.856 108.796C185.665 107.4 186.743 106.178 188.025 105.198C189.308 104.219 190.771 103.502 192.331 103.087C193.89 102.673 195.517 102.571 197.117 102.785C198.717 103 200.259 103.527 201.655 104.337C204.472 105.974 206.523 108.661 207.359 111.809C208.194 114.956 207.743 118.307 206.108 121.123L195.285 140.271C193.648 143.087 190.959 145.138 187.81 145.973C184.66 146.808 181.308 146.36 178.49 144.726C175.671 143.09 173.619 140.402 172.783 137.253C171.948 134.104 172.399 130.753 174.036 127.936L184.856 108.796Z" fill="#E9B980"/>
<path d="M119.956 136.272C119.624 129.054 127.322 122.836 137.143 122.381L178.098 120.499C187.915 120.051 196.153 125.539 196.482 132.756C196.814 139.975 189.118 146.192 179.301 146.641L138.346 148.524C128.525 148.974 120.288 143.492 119.956 136.272Z" fill="#E9B980"/>
<path opacity="0.15" d="M151.577 150.636C153.162 149.235 154.888 148.004 156.731 146.965L158.821 147.587L90.9648 88.3349C90.9648 88.3349 87.7441 94.1615 93.3581 113.657C98.9722 133.152 151.577 150.636 151.577 150.636Z" fill="black"/>
<path d="M126.463 191.514L158.595 148.363L80.6975 90.4382L48.5654 133.589L126.463 191.514Z" fill="#FFB6B6"/>
<path opacity="0.15" d="M206.597 148.107C205.113 146.752 201.239 147.192 201.239 147.192L199.106 145.732L261.229 80.5086C261.229 80.5086 265.451 87.2173 261.167 105.942C256.643 125.712 206.597 148.107 206.597 148.107Z" fill="black"/>
<path d="M235.355 186.508L307.606 121.688L271.649 81.6649L199.398 146.486L235.355 186.508Z" fill="#BDDDFF"/>
<path d="M223.016 69.6707C222.183 69.1745 221.457 68.5158 220.882 67.7351C220.307 66.9543 219.894 66.0665 219.668 65.1234C219.442 64.1804 219.406 63.2016 219.564 62.2447C219.723 61.2878 220.071 60.3723 220.589 59.5525C222.802 56.2753 226.926 57.3853 230.482 59.693C234.038 62.0006 235.696 64.6444 233.478 67.9216C232.309 69.521 230.559 70.599 228.604 70.9259C226.649 71.2528 224.644 70.8023 223.016 69.6707ZM201.237 63.843C200.404 63.3467 199.679 62.688 199.104 61.9073C198.529 61.1266 198.116 60.2388 197.889 59.2957C197.663 58.3537 197.628 57.375 197.785 56.4192C197.943 55.4623 198.291 54.5469 198.809 53.727C201.028 50.4487 205.146 51.5622 208.702 53.8652C212.258 56.1682 213.916 58.8167 211.698 62.0927C210.529 63.6921 208.78 64.7699 206.824 65.097C204.87 65.424 202.864 64.9738 201.237 63.843ZM183.043 50.5753C182.211 50.0767 181.487 49.4181 180.913 48.6362C180.34 47.8543 179.928 46.9665 179.702 46.0234C179.478 45.0815 179.442 44.1027 179.601 43.147C179.759 42.1901 180.107 41.2746 180.623 40.4548C182.834 37.1741 186.953 38.2888 190.51 40.5975C194.067 42.9063 195.727 45.549 193.506 48.8285C192.333 50.4245 190.584 51.5 188.629 51.8259C186.675 52.1517 184.671 51.7038 183.043 50.5753ZM165.634 33.2141C164.801 32.7166 164.076 32.058 163.501 31.2772C162.926 30.4954 162.513 29.6076 162.286 28.6645C162.059 27.7214 162.024 26.7426 162.181 25.7857C162.339 24.8288 162.686 23.9134 163.202 23.0923C165.416 19.8198 169.534 20.9298 173.089 23.2374C176.644 25.5451 178.31 28.1889 176.092 31.4626C174.924 33.0621 173.174 34.1399 171.22 34.4669C169.266 34.7951 167.261 34.3449 165.634 33.2141Z" fill="#FDDBA4"/>
<path opacity="0.15" d="M274.836 101.982C271.207 102.149 268.401 105.226 268.568 108.856C268.735 112.485 271.812 115.292 275.441 115.125C279.069 114.959 281.876 111.881 281.709 108.252C281.542 104.622 278.464 101.815 274.836 101.982Z" fill="black"/>
<path d="M268.67 111.126C268.611 109.827 268.938 108.54 269.611 107.428C270.284 106.315 271.272 105.426 272.45 104.875C273.628 104.323 274.943 104.132 276.23 104.327C277.516 104.522 278.715 105.094 279.677 105.97C280.638 106.846 281.317 107.987 281.63 109.249C281.942 110.511 281.873 111.838 281.431 113.061C280.99 114.283 280.195 115.348 279.148 116.12C278.101 116.891 276.849 117.335 275.549 117.396C274.685 117.436 273.822 117.306 273.008 117.013C272.195 116.72 271.447 116.269 270.808 115.687C270.169 115.104 269.651 114.402 269.284 113.619C268.917 112.837 268.709 111.989 268.67 111.126Z" fill="#2679B2"/>
<path opacity="0.15" d="M82.2151 103.061C82.396 102.82 82.623 102.617 82.8835 102.464C83.1439 102.311 83.4308 102.211 83.7304 102.169C84.0289 102.127 84.3331 102.145 84.6246 102.221C84.9162 102.297 85.1904 102.43 85.4312 102.612L93.7786 108.9C94.0206 109.08 94.2257 109.306 94.3801 109.565C94.5345 109.825 94.6359 110.112 94.6785 110.41C94.7212 110.709 94.7051 111.013 94.629 111.305C94.5541 111.598 94.4216 111.872 94.2395 112.113L87.9525 120.466C87.7704 120.707 87.5434 120.91 87.283 121.063C87.0237 121.216 86.7356 121.316 86.436 121.358C86.1376 121.4 85.8334 121.383 85.5407 121.307C85.248 121.231 84.9738 121.099 84.7329 120.917L76.3752 114.634C76.1344 114.453 75.9316 114.226 75.7783 113.966C75.6251 113.707 75.5248 113.419 75.4822 113.121C75.4407 112.822 75.458 112.518 75.5329 112.226C75.6089 111.934 75.7415 111.66 75.9235 111.419L82.2151 103.061Z" fill="black"/>
<path d="M82.3141 105.331C82.495 105.09 82.722 104.886 82.9824 104.732C83.2417 104.579 83.5298 104.478 83.8294 104.436C84.1278 104.394 84.4332 104.411 84.7247 104.487C85.0174 104.563 85.2916 104.696 85.5325 104.879L93.8844 111.166C94.1264 111.346 94.3304 111.573 94.4836 111.832C94.638 112.091 94.7394 112.378 94.7821 112.677C94.8247 112.975 94.8086 113.279 94.7337 113.571C94.6588 113.863 94.5263 114.138 94.3454 114.379L88.056 122.731C87.6884 123.216 87.1434 123.536 86.5407 123.621C85.9381 123.707 85.3251 123.55 84.8376 123.185L76.4799 116.9C75.9914 116.533 75.6699 115.987 75.5846 115.383C75.4993 114.778 75.6572 114.164 76.0248 113.676L82.3141 105.331Z" fill="#FFDE76"/>
<path opacity="0.15" d="M235.354 186.508L307.606 121.687L301.448 114.831L234.199 185.225L235.354 186.508ZM126.468 191.512L128.809 188.364L54.7624 125.27L48.563 133.594L126.468 191.512Z" fill="black"/>
<path d="M188.829 338.808L234.717 288.372C246.91 274.984 253.284 257.306 252.438 239.224C251.593 221.141 243.597 204.135 230.208 191.941C230.153 191.891 230.065 191.848 230.014 191.801L316.175 114.408C348.616 148.449 366.938 193.514 367.447 240.52C367.957 287.525 350.615 332.976 318.92 367.711L196.009 502.385L188.452 338.195L188.829 338.808Z" fill="#FFF2A2"/>
<path d="M188.828 338.807L234.717 288.371C246.909 274.984 253.284 257.306 252.438 239.224C251.592 221.141 243.597 204.134 230.208 191.941C230.184 191.924 230.14 191.908 230.121 191.89L297.105 131.64C355.154 191.906 357.602 287.633 300.381 350.317L194.369 466.881L188.446 338.194L188.828 338.807Z" fill="#FFD645"/>
<path d="M188.828 338.808L234.717 288.372C246.909 274.984 253.284 257.306 252.438 239.224C251.592 221.141 243.596 204.135 230.208 191.941C230.183 191.924 230.136 191.904 230.121 191.891L255.76 168.809C294.898 208.053 297.066 271.493 259.293 312.879L190.761 388.393L188.45 338.194L188.828 338.808Z" fill="#D6B13C"/>
</svg>
