<svg width="312" height="252" viewBox="0 0 312 252" fill="none" xmlns="http://www.w3.org/2000/svg">
<path d="M251.279 244V235.41H252.416V238.938H256.881V235.41H258.018V244H256.881V239.951H252.416V244H251.279ZM259.389 240.889C259.389 239.736 259.709 238.883 260.35 238.328C260.885 237.867 261.537 237.637 262.307 237.637C263.162 237.637 263.861 237.918 264.404 238.48C264.947 239.039 265.219 239.812 265.219 240.801C265.219 241.602 265.098 242.232 264.855 242.693C264.617 243.15 264.268 243.506 263.807 243.76C263.35 244.014 262.85 244.141 262.307 244.141C261.436 244.141 260.73 243.861 260.191 243.303C259.656 242.744 259.389 241.939 259.389 240.889ZM260.473 240.889C260.473 241.686 260.646 242.283 260.994 242.682C261.342 243.076 261.779 243.273 262.307 243.273C262.83 243.273 263.266 243.074 263.613 242.676C263.961 242.277 264.135 241.67 264.135 240.854C264.135 240.084 263.959 239.502 263.607 239.107C263.26 238.709 262.826 238.51 262.307 238.51C261.779 238.51 261.342 238.707 260.994 239.102C260.646 239.496 260.473 240.092 260.473 240.889ZM266.039 242.143L267.082 241.979C267.141 242.396 267.303 242.717 267.568 242.939C267.838 243.162 268.213 243.273 268.693 243.273C269.178 243.273 269.537 243.176 269.771 242.98C270.006 242.781 270.123 242.549 270.123 242.283C270.123 242.045 270.02 241.857 269.812 241.721C269.668 241.627 269.309 241.508 268.734 241.363C267.961 241.168 267.424 241 267.123 240.859C266.826 240.715 266.6 240.518 266.443 240.268C266.291 240.014 266.215 239.734 266.215 239.43C266.215 239.152 266.277 238.896 266.402 238.662C266.531 238.424 266.705 238.227 266.924 238.07C267.088 237.949 267.311 237.848 267.592 237.766C267.877 237.68 268.182 237.637 268.506 237.637C268.994 237.637 269.422 237.707 269.789 237.848C270.16 237.988 270.434 238.18 270.609 238.422C270.785 238.66 270.906 238.98 270.973 239.383L269.941 239.523C269.895 239.203 269.758 238.953 269.531 238.773C269.309 238.594 268.992 238.504 268.582 238.504C268.098 238.504 267.752 238.584 267.545 238.744C267.338 238.904 267.234 239.092 267.234 239.307C267.234 239.443 267.277 239.566 267.363 239.676C267.449 239.789 267.584 239.883 267.768 239.957C267.873 239.996 268.184 240.086 268.699 240.227C269.445 240.426 269.965 240.59 270.258 240.719C270.555 240.844 270.787 241.027 270.955 241.27C271.123 241.512 271.207 241.812 271.207 242.172C271.207 242.523 271.104 242.855 270.896 243.168C270.693 243.477 270.398 243.717 270.012 243.889C269.625 244.057 269.188 244.141 268.699 244.141C267.891 244.141 267.273 243.973 266.848 243.637C266.426 243.301 266.156 242.803 266.039 242.143ZM274.764 243.057L274.916 243.988C274.619 244.051 274.354 244.082 274.119 244.082C273.736 244.082 273.439 244.021 273.229 243.9C273.018 243.779 272.869 243.621 272.783 243.426C272.697 243.227 272.654 242.811 272.654 242.178V238.598H271.881V237.777H272.654V236.236L273.703 235.604V237.777H274.764V238.598H273.703V242.236C273.703 242.537 273.721 242.73 273.756 242.816C273.795 242.902 273.855 242.971 273.938 243.021C274.023 243.072 274.145 243.098 274.301 243.098C274.418 243.098 274.572 243.084 274.764 243.057ZM282.064 240.988L283.201 241.275C282.963 242.209 282.533 242.922 281.912 243.414C281.295 243.902 280.539 244.146 279.645 244.146C278.719 244.146 277.965 243.959 277.383 243.584C276.805 243.205 276.363 242.658 276.059 241.943C275.758 241.229 275.607 240.461 275.607 239.641C275.607 238.746 275.777 237.967 276.117 237.303C276.461 236.635 276.947 236.129 277.576 235.785C278.209 235.438 278.904 235.264 279.662 235.264C280.521 235.264 281.244 235.482 281.83 235.92C282.416 236.357 282.824 236.973 283.055 237.766L281.936 238.029C281.736 237.404 281.447 236.949 281.068 236.664C280.689 236.379 280.213 236.236 279.639 236.236C278.979 236.236 278.426 236.395 277.98 236.711C277.539 237.027 277.229 237.453 277.049 237.988C276.869 238.52 276.779 239.068 276.779 239.635C276.779 240.365 276.885 241.004 277.096 241.551C277.311 242.094 277.643 242.5 278.092 242.77C278.541 243.039 279.027 243.174 279.551 243.174C280.188 243.174 280.727 242.99 281.168 242.623C281.609 242.256 281.908 241.711 282.064 240.988ZM284.572 244V235.41H286.283L288.316 241.492C288.504 242.059 288.641 242.482 288.727 242.764C288.824 242.451 288.977 241.992 289.184 241.387L291.24 235.41H292.77V244H291.674V236.811L289.178 244H288.152L285.668 236.688V244H284.572ZM294.217 241.24L295.289 241.146C295.34 241.576 295.457 241.93 295.641 242.207C295.828 242.48 296.117 242.703 296.508 242.875C296.898 243.043 297.338 243.127 297.826 243.127C298.26 243.127 298.643 243.062 298.975 242.934C299.307 242.805 299.553 242.629 299.713 242.406C299.877 242.18 299.959 241.934 299.959 241.668C299.959 241.398 299.881 241.164 299.725 240.965C299.568 240.762 299.311 240.592 298.951 240.455C298.721 240.365 298.211 240.227 297.422 240.039C296.633 239.848 296.08 239.668 295.764 239.5C295.354 239.285 295.047 239.02 294.844 238.703C294.645 238.383 294.545 238.025 294.545 237.631C294.545 237.197 294.668 236.793 294.914 236.418C295.16 236.039 295.52 235.752 295.992 235.557C296.465 235.361 296.99 235.264 297.568 235.264C298.205 235.264 298.766 235.367 299.25 235.574C299.738 235.777 300.113 236.078 300.375 236.477C300.637 236.875 300.777 237.326 300.797 237.83L299.707 237.912C299.648 237.369 299.449 236.959 299.109 236.682C298.773 236.404 298.275 236.266 297.615 236.266C296.928 236.266 296.426 236.393 296.109 236.646C295.797 236.896 295.641 237.199 295.641 237.555C295.641 237.863 295.752 238.117 295.975 238.316C296.193 238.516 296.764 238.721 297.686 238.932C298.611 239.139 299.246 239.32 299.59 239.477C300.09 239.707 300.459 240 300.697 240.355C300.936 240.707 301.055 241.113 301.055 241.574C301.055 242.031 300.924 242.463 300.662 242.869C300.4 243.271 300.023 243.586 299.531 243.812C299.043 244.035 298.492 244.146 297.879 244.146C297.102 244.146 296.449 244.033 295.922 243.807C295.398 243.58 294.986 243.24 294.686 242.787C294.389 242.33 294.232 241.814 294.217 241.24Z" fill="black"/>
<path d="M283.905 212.941L282.238 214.598C282.11 214.725 281.96 214.789 281.786 214.789C281.611 214.789 281.461 214.725 281.333 214.598L276 209.265L270.666 214.598C270.539 214.725 270.388 214.789 270.214 214.789C270.04 214.789 269.889 214.725 269.762 214.598L268.095 212.941C267.967 212.814 267.904 212.663 267.904 212.489C267.904 212.308 267.967 212.154 268.095 212.027L275.548 204.584C275.675 204.456 275.826 204.393 276 204.393C276.174 204.393 276.325 204.456 276.452 204.584L283.905 212.027C284.032 212.154 284.096 212.308 284.096 212.489C284.096 212.663 284.032 212.814 283.905 212.941Z" fill="#F55555"/>
<path fill-rule="evenodd" clip-rule="evenodd" d="M276 228C285.941 228 294 219.941 294 210C294 200.059 285.941 192 276 192C266.059 192 258 200.059 258 210C258 219.941 266.059 228 276 228ZM276 225C284.284 225 291 218.284 291 210C291 201.716 284.284 195 276 195C267.716 195 261 201.716 261 210C261 218.284 267.716 225 276 225ZM283.905 212.941L282.238 214.598C282.11 214.725 281.96 214.789 281.786 214.789C281.611 214.789 281.461 214.725 281.333 214.598L276 209.265L270.666 214.598C270.539 214.725 270.388 214.789 270.214 214.789C270.04 214.789 269.889 214.725 269.762 214.598L268.095 212.941C267.967 212.814 267.904 212.663 267.904 212.489C267.904 212.308 267.967 212.154 268.095 212.027L275.548 204.584C275.675 204.456 275.826 204.393 276 204.393C276.174 204.393 276.325 204.456 276.452 204.584L283.905 212.027C284.032 212.154 284.096 212.308 284.096 212.489C284.096 212.663 284.032 212.814 283.905 212.941Z" fill="#F55555"/>
<path d="M136.553 235.41H137.689V240.373C137.689 241.236 137.592 241.922 137.396 242.43C137.201 242.938 136.848 243.352 136.336 243.672C135.828 243.988 135.16 244.146 134.332 244.146C133.527 244.146 132.869 244.008 132.357 243.73C131.846 243.453 131.48 243.053 131.262 242.529C131.043 242.002 130.934 241.283 130.934 240.373V235.41H132.07V240.367C132.07 241.113 132.139 241.664 132.275 242.02C132.416 242.371 132.654 242.643 132.99 242.834C133.33 243.025 133.744 243.121 134.232 243.121C135.068 243.121 135.664 242.932 136.02 242.553C136.375 242.174 136.553 241.445 136.553 240.367V235.41ZM139.553 244V235.41H141.264L143.297 241.492C143.484 242.059 143.621 242.482 143.707 242.764C143.805 242.451 143.957 241.992 144.164 241.387L146.221 235.41H147.75V244H146.654V236.811L144.158 244H143.133L140.648 236.688V244H139.553ZM149.777 244V235.41H150.914V244H149.777ZM153.088 244V242.799H154.289V244H153.088ZM162.393 240.988L163.529 241.275C163.291 242.209 162.861 242.922 162.24 243.414C161.623 243.902 160.867 244.146 159.973 244.146C159.047 244.146 158.293 243.959 157.711 243.584C157.133 243.205 156.691 242.658 156.387 241.943C156.086 241.229 155.936 240.461 155.936 239.641C155.936 238.746 156.105 237.967 156.445 237.303C156.789 236.635 157.275 236.129 157.904 235.785C158.537 235.438 159.232 235.264 159.99 235.264C160.85 235.264 161.572 235.482 162.158 235.92C162.744 236.357 163.152 236.973 163.383 237.766L162.264 238.029C162.064 237.404 161.775 236.949 161.396 236.664C161.018 236.379 160.541 236.236 159.967 236.236C159.307 236.236 158.754 236.395 158.309 236.711C157.867 237.027 157.557 237.453 157.377 237.988C157.197 238.52 157.107 239.068 157.107 239.635C157.107 240.365 157.213 241.004 157.424 241.551C157.639 242.094 157.971 242.5 158.42 242.77C158.869 243.039 159.355 243.174 159.879 243.174C160.516 243.174 161.055 242.99 161.496 242.623C161.938 242.256 162.236 241.711 162.393 240.988ZM164.9 244V235.41H166.611L168.645 241.492C168.832 242.059 168.969 242.482 169.055 242.764C169.152 242.451 169.305 241.992 169.512 241.387L171.568 235.41H173.098V244H172.002V236.811L169.506 244H168.48L165.996 236.688V244H164.9ZM174.545 241.24L175.617 241.146C175.668 241.576 175.785 241.93 175.969 242.207C176.156 242.48 176.445 242.703 176.836 242.875C177.227 243.043 177.666 243.127 178.154 243.127C178.588 243.127 178.971 243.062 179.303 242.934C179.635 242.805 179.881 242.629 180.041 242.406C180.205 242.18 180.287 241.934 180.287 241.668C180.287 241.398 180.209 241.164 180.053 240.965C179.896 240.762 179.639 240.592 179.279 240.455C179.049 240.365 178.539 240.227 177.75 240.039C176.961 239.848 176.408 239.668 176.092 239.5C175.682 239.285 175.375 239.02 175.172 238.703C174.973 238.383 174.873 238.025 174.873 237.631C174.873 237.197 174.996 236.793 175.242 236.418C175.488 236.039 175.848 235.752 176.32 235.557C176.793 235.361 177.318 235.264 177.896 235.264C178.533 235.264 179.094 235.367 179.578 235.574C180.066 235.777 180.441 236.078 180.703 236.477C180.965 236.875 181.105 237.326 181.125 237.83L180.035 237.912C179.977 237.369 179.777 236.959 179.438 236.682C179.102 236.404 178.604 236.266 177.943 236.266C177.256 236.266 176.754 236.393 176.438 236.646C176.125 236.896 175.969 237.199 175.969 237.555C175.969 237.863 176.08 238.117 176.303 238.316C176.521 238.516 177.092 238.721 178.014 238.932C178.939 239.139 179.574 239.32 179.918 239.477C180.418 239.707 180.787 240 181.025 240.355C181.264 240.707 181.383 241.113 181.383 241.574C181.383 242.031 181.252 242.463 180.99 242.869C180.729 243.271 180.352 243.586 179.859 243.812C179.371 244.035 178.82 244.146 178.207 244.146C177.43 244.146 176.777 244.033 176.25 243.807C175.727 243.58 175.314 243.24 175.014 242.787C174.717 242.33 174.561 241.814 174.545 241.24Z" fill="black"/>
<g clip-path="url(#clip0)">
<path d="M172.813 201.178C162.923 201.178 160.945 204.185 156.356 207.666C156.356 207.666 156.435 206.4 155.248 206.242C154.141 205.925 153.824 207.033 153.824 207.033C153.824 207.033 153.429 206.4 153.27 205.767C152.558 202.998 149.314 200.07 145.754 196.51C142.193 192.95 138.633 193.266 138.633 193.266L138.317 194.532C137.446 197.064 138.317 197.618 138.317 198.409C138.317 199.2 138.554 199.833 139.108 201.02C139.82 202.207 140.136 206.004 140.374 207.824C140.611 209.723 142.035 210.91 142.273 211.147C142.51 211.385 140.532 212.334 140.532 212.571V213.679C140.532 213.837 139.82 214.391 139.662 214.629C139.503 214.787 139.424 215.578 139.662 218.585C139.899 221.591 145.042 224.756 146.387 224.993C147.811 225.31 148.998 222.541 149.789 222.224C150.659 221.908 152.717 219.692 152.717 219.692C152.717 219.692 153.349 225.547 153.349 223.332C153.349 221.117 154.695 220.563 154.695 220.563L154.853 219.059C154.853 219.059 156.277 223.728 157.938 225.468C159.6 227.13 162.844 227.446 163.16 227.446C163.477 227.446 165.613 227.525 167.433 222.857C169.332 218.189 166.325 217.002 166.958 217.002C167.591 217.002 169.807 215.182 169.49 213.6C169.174 212.018 170.677 208.853 172.18 207.35C173.684 205.846 173.921 202.048 173.921 201.89C174 201.811 173.684 201.178 172.813 201.178Z" fill="url(#paint0_linear)"/>
</g>
<path d="M18.2227 244V235.41H19.3887L23.9004 242.154V235.41H24.9902V244H23.8242L19.3125 237.25V244H18.2227ZM31.0312 241.996L32.1211 242.131C31.9492 242.768 31.6309 243.262 31.166 243.613C30.7012 243.965 30.1074 244.141 29.3848 244.141C28.4746 244.141 27.752 243.861 27.2168 243.303C26.6855 242.74 26.4199 241.953 26.4199 240.941C26.4199 239.895 26.6895 239.082 27.2285 238.504C27.7676 237.926 28.4668 237.637 29.3262 237.637C30.1582 237.637 30.8379 237.92 31.3652 238.486C31.8926 239.053 32.1562 239.85 32.1562 240.877C32.1562 240.939 32.1543 241.033 32.1504 241.158H27.5098C27.5488 241.842 27.7422 242.365 28.0898 242.729C28.4375 243.092 28.8711 243.273 29.3906 243.273C29.7773 243.273 30.1074 243.172 30.3809 242.969C30.6543 242.766 30.8711 242.441 31.0312 241.996ZM27.5684 240.291H31.043C30.9961 239.768 30.8633 239.375 30.6445 239.113C30.3086 238.707 29.873 238.504 29.3379 238.504C28.8535 238.504 28.4453 238.666 28.1133 238.99C27.7852 239.314 27.6035 239.748 27.5684 240.291ZM35.7539 243.057L35.9062 243.988C35.6094 244.051 35.3438 244.082 35.1094 244.082C34.7266 244.082 34.4297 244.021 34.2188 243.9C34.0078 243.779 33.8594 243.621 33.7734 243.426C33.6875 243.227 33.6445 242.811 33.6445 242.178V238.598H32.8711V237.777H33.6445V236.236L34.6934 235.604V237.777H35.7539V238.598H34.6934V242.236C34.6934 242.537 34.7109 242.73 34.7461 242.816C34.7852 242.902 34.8457 242.971 34.9277 243.021C35.0137 243.072 35.1348 243.098 35.291 243.098C35.4082 243.098 35.5625 243.084 35.7539 243.057ZM43.0547 240.988L44.1914 241.275C43.9531 242.209 43.5234 242.922 42.9023 243.414C42.2852 243.902 41.5293 244.146 40.6348 244.146C39.709 244.146 38.9551 243.959 38.373 243.584C37.7949 243.205 37.3535 242.658 37.0488 241.943C36.748 241.229 36.5977 240.461 36.5977 239.641C36.5977 238.746 36.7676 237.967 37.1074 237.303C37.4512 236.635 37.9375 236.129 38.5664 235.785C39.1992 235.438 39.8945 235.264 40.6523 235.264C41.5117 235.264 42.2344 235.482 42.8203 235.92C43.4062 236.357 43.8145 236.973 44.0449 237.766L42.9258 238.029C42.7266 237.404 42.4375 236.949 42.0586 236.664C41.6797 236.379 41.2031 236.236 40.6289 236.236C39.9688 236.236 39.416 236.395 38.9707 236.711C38.5293 237.027 38.2188 237.453 38.0391 237.988C37.8594 238.52 37.7695 239.068 37.7695 239.635C37.7695 240.365 37.875 241.004 38.0859 241.551C38.3008 242.094 38.6328 242.5 39.082 242.77C39.5312 243.039 40.0176 243.174 40.541 243.174C41.1777 243.174 41.7168 242.99 42.1582 242.623C42.5996 242.256 42.8984 241.711 43.0547 240.988ZM49.5234 243.232C49.1328 243.564 48.7559 243.799 48.3926 243.936C48.0332 244.072 47.6465 244.141 47.2324 244.141C46.5488 244.141 46.0234 243.975 45.6562 243.643C45.2891 243.307 45.1055 242.879 45.1055 242.359C45.1055 242.055 45.1738 241.777 45.3105 241.527C45.4512 241.273 45.6328 241.07 45.8555 240.918C46.082 240.766 46.3359 240.65 46.6172 240.572C46.8242 240.518 47.1367 240.465 47.5547 240.414C48.4062 240.312 49.0332 240.191 49.4355 240.051C49.4395 239.906 49.4414 239.814 49.4414 239.775C49.4414 239.346 49.3418 239.043 49.1426 238.867C48.873 238.629 48.4727 238.51 47.9414 238.51C47.4453 238.51 47.0781 238.598 46.8398 238.773C46.6055 238.945 46.4316 239.252 46.3184 239.693L45.2871 239.553C45.3809 239.111 45.5352 238.756 45.75 238.486C45.9648 238.213 46.2754 238.004 46.6816 237.859C47.0879 237.711 47.5586 237.637 48.0938 237.637C48.625 237.637 49.0566 237.699 49.3887 237.824C49.7207 237.949 49.9648 238.107 50.1211 238.299C50.2773 238.486 50.3867 238.725 50.4492 239.014C50.4844 239.193 50.502 239.518 50.502 239.986V241.393C50.502 242.373 50.5234 242.994 50.5664 243.256C50.6133 243.514 50.7031 243.762 50.8359 244H49.7344C49.625 243.781 49.5547 243.525 49.5234 243.232ZM49.4355 240.877C49.0527 241.033 48.4785 241.166 47.7129 241.275C47.2793 241.338 46.9727 241.408 46.793 241.486C46.6133 241.564 46.4746 241.68 46.377 241.832C46.2793 241.98 46.2305 242.146 46.2305 242.33C46.2305 242.611 46.3359 242.846 46.5469 243.033C46.7617 243.221 47.0742 243.314 47.4844 243.314C47.8906 243.314 48.252 243.227 48.5684 243.051C48.8848 242.871 49.1172 242.627 49.2656 242.318C49.3789 242.08 49.4355 241.729 49.4355 241.264V240.877ZM54.4453 243.057L54.5977 243.988C54.3008 244.051 54.0352 244.082 53.8008 244.082C53.418 244.082 53.1211 244.021 52.9102 243.9C52.6992 243.779 52.5508 243.621 52.4648 243.426C52.3789 243.227 52.3359 242.811 52.3359 242.178V238.598H51.5625V237.777H52.3359V236.236L53.3848 235.604V237.777H54.4453V238.598H53.3848V242.236C53.3848 242.537 53.4023 242.73 53.4375 242.816C53.4766 242.902 53.5371 242.971 53.6191 243.021C53.7051 243.072 53.8262 243.098 53.9824 243.098C54.0996 243.098 54.2539 243.084 54.4453 243.057Z" fill="black"/>
<g clip-path="url(#clip1)">
<path fill-rule="evenodd" clip-rule="evenodd" d="M53.8485 209.157C53.1664 202.647 49.9075 197.285 44.9054 194.528L43.3896 193.685L42.2527 194.987C42.1012 195.14 41.1159 196.442 40.8885 199.43C37.9327 198.511 34.1433 198.511 31.1875 199.43C30.9601 196.442 29.9748 195.14 29.8233 194.987L28.6106 193.608L27.0948 194.451C22.0169 197.285 18.758 202.647 18.0759 209.157C17.6212 213.294 18.9096 217.2 21.638 220.264C28.9138 228.459 43.0864 228.459 50.3622 220.264C53.0906 217.2 54.3033 213.294 53.8485 209.157ZM47.1033 217.276C41.5706 223.481 30.3538 223.481 24.8212 217.276C22.9264 215.132 22.0927 212.528 22.3959 209.617C22.7748 205.711 24.3664 202.34 26.7917 200.119C26.8675 200.808 26.7917 201.574 26.7159 202.57L26.3369 206.63L29.899 204.638C33.6885 202.57 38.1601 202.57 41.9496 204.638L45.5117 206.63L45.1327 202.494C45.0569 201.498 45.0569 200.732 45.0569 200.042C47.4822 202.34 49.0738 205.634 49.4527 209.54C49.8317 212.528 48.998 215.132 47.1033 217.276Z" fill="#1F6D96"/>
</g>
<path d="M261.211 148V139.41H262.922L264.955 145.492C265.143 146.059 265.279 146.482 265.365 146.764C265.463 146.451 265.615 145.992 265.822 145.387L267.879 139.41H269.408V148H268.312V140.811L265.816 148H264.791L262.307 140.688V148H261.211ZM270.715 144.889C270.715 143.736 271.035 142.883 271.676 142.328C272.211 141.867 272.863 141.637 273.633 141.637C274.488 141.637 275.188 141.918 275.73 142.48C276.273 143.039 276.545 143.812 276.545 144.801C276.545 145.602 276.424 146.232 276.182 146.693C275.943 147.15 275.594 147.506 275.133 147.76C274.676 148.014 274.176 148.141 273.633 148.141C272.762 148.141 272.057 147.861 271.518 147.303C270.982 146.744 270.715 145.939 270.715 144.889ZM271.799 144.889C271.799 145.686 271.973 146.283 272.32 146.682C272.668 147.076 273.105 147.273 273.633 147.273C274.156 147.273 274.592 147.074 274.939 146.676C275.287 146.277 275.461 145.67 275.461 144.854C275.461 144.084 275.285 143.502 274.934 143.107C274.586 142.709 274.152 142.51 273.633 142.51C273.105 142.51 272.668 142.707 272.32 143.102C271.973 143.496 271.799 144.092 271.799 144.889ZM281.824 148V147.215C281.43 147.832 280.85 148.141 280.084 148.141C279.588 148.141 279.131 148.004 278.713 147.73C278.299 147.457 277.977 147.076 277.746 146.588C277.52 146.096 277.406 145.531 277.406 144.895C277.406 144.273 277.51 143.711 277.717 143.207C277.924 142.699 278.234 142.311 278.648 142.041C279.062 141.771 279.525 141.637 280.037 141.637C280.412 141.637 280.746 141.717 281.039 141.877C281.332 142.033 281.57 142.238 281.754 142.492V139.41H282.803V148H281.824ZM278.49 144.895C278.49 145.691 278.658 146.287 278.994 146.682C279.33 147.076 279.727 147.273 280.184 147.273C280.645 147.273 281.035 147.086 281.355 146.711C281.68 146.332 281.842 145.756 281.842 144.982C281.842 144.131 281.678 143.506 281.35 143.107C281.021 142.709 280.617 142.51 280.137 142.51C279.668 142.51 279.275 142.701 278.959 143.084C278.646 143.467 278.49 144.07 278.49 144.895ZM283.729 148L287.051 143.523L284.121 139.41H285.475L287.033 141.613C287.357 142.07 287.588 142.422 287.725 142.668C287.916 142.355 288.143 142.029 288.404 141.689L290.133 139.41H291.369L288.352 143.459L291.604 148H290.197L288.035 144.936C287.914 144.76 287.789 144.568 287.66 144.361C287.469 144.674 287.332 144.889 287.25 145.006L285.094 148H283.729Z" fill="black"/>
<path d="M285.815 110.247L292.484 99.4468H275.432L273.537 102.511L285.815 110.247Z" fill="#569CCE"/>
<path d="M261.789 96V113.234L265.427 115.532L285.36 110.936L261.789 96Z" fill="#9BC95D"/>
<path d="M288.695 132V114.766L285.739 112.851L278.084 125.26L288.695 132Z" fill="#E4473A"/>
<path d="M265.124 117.064L258 128.553H275.053L285.057 112.392L265.124 117.064Z" fill="#64B652"/>
<path d="M139.236 148V139.41H142.195C142.863 139.41 143.373 139.451 143.725 139.533C144.217 139.646 144.637 139.852 144.984 140.148C145.438 140.531 145.775 141.021 145.998 141.619C146.225 142.213 146.338 142.893 146.338 143.658C146.338 144.311 146.262 144.889 146.109 145.393C145.957 145.896 145.762 146.314 145.523 146.646C145.285 146.975 145.023 147.234 144.738 147.426C144.457 147.613 144.115 147.756 143.713 147.854C143.314 147.951 142.855 148 142.336 148H139.236ZM140.373 146.986H142.207C142.773 146.986 143.217 146.934 143.537 146.828C143.861 146.723 144.119 146.574 144.311 146.383C144.58 146.113 144.789 145.752 144.938 145.299C145.09 144.842 145.166 144.289 145.166 143.641C145.166 142.742 145.018 142.053 144.721 141.572C144.428 141.088 144.07 140.764 143.648 140.6C143.344 140.482 142.854 140.424 142.178 140.424H140.373V146.986ZM147.762 148V141.777H148.711V142.721C148.953 142.279 149.176 141.988 149.379 141.848C149.586 141.707 149.812 141.637 150.059 141.637C150.414 141.637 150.775 141.75 151.143 141.977L150.779 142.955C150.521 142.803 150.264 142.727 150.006 142.727C149.775 142.727 149.568 142.797 149.385 142.938C149.201 143.074 149.07 143.266 148.992 143.512C148.875 143.887 148.816 144.297 148.816 144.742V148H147.762ZM155.848 148V147.086C155.363 147.789 154.705 148.141 153.873 148.141C153.506 148.141 153.162 148.07 152.842 147.93C152.525 147.789 152.289 147.613 152.133 147.402C151.98 147.188 151.873 146.926 151.811 146.617C151.768 146.41 151.746 146.082 151.746 145.633V141.777H152.801V145.229C152.801 145.779 152.822 146.15 152.865 146.342C152.932 146.619 153.072 146.838 153.287 146.998C153.502 147.154 153.768 147.232 154.084 147.232C154.4 147.232 154.697 147.152 154.975 146.992C155.252 146.828 155.447 146.607 155.561 146.33C155.678 146.049 155.736 145.643 155.736 145.111V141.777H156.791V148H155.848ZM158.449 150.385V141.777H159.41V142.586C159.637 142.27 159.893 142.033 160.178 141.877C160.463 141.717 160.809 141.637 161.215 141.637C161.746 141.637 162.215 141.773 162.621 142.047C163.027 142.32 163.334 142.707 163.541 143.207C163.748 143.703 163.852 144.248 163.852 144.842C163.852 145.479 163.736 146.053 163.506 146.564C163.279 147.072 162.947 147.463 162.51 147.736C162.076 148.006 161.619 148.141 161.139 148.141C160.787 148.141 160.471 148.066 160.189 147.918C159.912 147.77 159.684 147.582 159.504 147.355V150.385H158.449ZM159.404 144.924C159.404 145.725 159.566 146.316 159.891 146.699C160.215 147.082 160.607 147.273 161.068 147.273C161.537 147.273 161.938 147.076 162.27 146.682C162.605 146.283 162.773 145.668 162.773 144.836C162.773 144.043 162.609 143.449 162.281 143.055C161.957 142.66 161.568 142.463 161.115 142.463C160.666 142.463 160.268 142.674 159.92 143.096C159.576 143.514 159.404 144.123 159.404 144.924ZM169.189 147.232C168.799 147.564 168.422 147.799 168.059 147.936C167.699 148.072 167.312 148.141 166.898 148.141C166.215 148.141 165.689 147.975 165.322 147.643C164.955 147.307 164.771 146.879 164.771 146.359C164.771 146.055 164.84 145.777 164.977 145.527C165.117 145.273 165.299 145.07 165.521 144.918C165.748 144.766 166.002 144.65 166.283 144.572C166.49 144.518 166.803 144.465 167.221 144.414C168.072 144.312 168.699 144.191 169.102 144.051C169.105 143.906 169.107 143.814 169.107 143.775C169.107 143.346 169.008 143.043 168.809 142.867C168.539 142.629 168.139 142.51 167.607 142.51C167.111 142.51 166.744 142.598 166.506 142.773C166.271 142.945 166.098 143.252 165.984 143.693L164.953 143.553C165.047 143.111 165.201 142.756 165.416 142.486C165.631 142.213 165.941 142.004 166.348 141.859C166.754 141.711 167.225 141.637 167.76 141.637C168.291 141.637 168.723 141.699 169.055 141.824C169.387 141.949 169.631 142.107 169.787 142.299C169.943 142.486 170.053 142.725 170.115 143.014C170.15 143.193 170.168 143.518 170.168 143.986V145.393C170.168 146.373 170.189 146.994 170.232 147.256C170.279 147.514 170.369 147.762 170.502 148H169.4C169.291 147.781 169.221 147.525 169.189 147.232ZM169.102 144.877C168.719 145.033 168.145 145.166 167.379 145.275C166.945 145.338 166.639 145.408 166.459 145.486C166.279 145.564 166.141 145.68 166.043 145.832C165.945 145.98 165.896 146.146 165.896 146.33C165.896 146.611 166.002 146.846 166.213 147.033C166.428 147.221 166.74 147.314 167.15 147.314C167.557 147.314 167.918 147.227 168.234 147.051C168.551 146.871 168.783 146.627 168.932 146.318C169.045 146.08 169.102 145.729 169.102 145.264V144.877ZM171.785 148V139.41H172.84V148H171.785Z" fill="black"/>
<path d="M155.129 129.616C158.273 129.616 160.821 127.09 160.821 123.974C160.821 120.857 158.273 118.331 155.129 118.331C151.985 118.331 149.436 120.857 149.436 123.974C149.436 127.09 151.985 129.616 155.129 129.616Z" fill="#2D63D7"/>
<path d="M162.184 117.219C163.868 118.967 164.91 121.351 164.91 123.974C164.91 127.311 163.227 130.252 160.661 132C165.392 130.57 169.32 127.073 171.004 122.781C173.41 116.901 171.165 112.45 167.396 108.477C167.476 109.033 167.556 109.51 167.556 110.066C167.637 113.404 165.392 116.265 162.184 117.219Z" fill="#2D63D7"/>
<path d="M160.1 114.358C162.535 114.358 164.51 112.401 164.51 109.987C164.51 107.573 162.535 105.616 160.1 105.616C157.664 105.616 155.69 107.573 155.69 109.987C155.69 112.401 157.664 114.358 160.1 114.358Z" fill="#2D63D7"/>
<path d="M147.592 130.252C146.148 128.583 145.266 126.358 145.266 123.974C145.266 118.967 149.035 114.834 153.926 114.278C153.124 113.086 152.563 111.576 152.563 110.066C152.563 105.934 155.93 102.596 160.1 102.596C160.42 102.596 160.741 102.596 161.142 102.675C158.656 100.53 156.251 98.3841 154.247 96C155.289 106.252 144.865 102.517 141.017 111.974C138.451 118.331 140.776 126.119 147.592 130.252Z" fill="#2D63D7"/>
<path d="M10.5469 143.816C10.5469 142.391 10.9297 141.275 11.6953 140.471C12.4609 139.662 13.4492 139.258 14.6602 139.258C15.4531 139.258 16.168 139.447 16.8047 139.826C17.4414 140.205 17.9258 140.734 18.2578 141.414C18.5938 142.09 18.7617 142.857 18.7617 143.717C18.7617 144.588 18.5859 145.367 18.2344 146.055C17.8828 146.742 17.3848 147.264 16.7402 147.619C16.0957 147.971 15.4004 148.146 14.6543 148.146C13.8457 148.146 13.123 147.951 12.4863 147.561C11.8496 147.17 11.3672 146.637 11.0391 145.961C10.7109 145.285 10.5469 144.57 10.5469 143.816ZM11.7188 143.834C11.7188 144.869 11.9961 145.686 12.5508 146.283C13.1094 146.877 13.8086 147.174 14.6484 147.174C15.5039 147.174 16.207 146.873 16.7578 146.271C17.3125 145.67 17.5898 144.816 17.5898 143.711C17.5898 143.012 17.4707 142.402 17.2324 141.883C16.998 141.359 16.6523 140.955 16.1953 140.67C15.7422 140.381 15.2324 140.236 14.666 140.236C13.8613 140.236 13.168 140.514 12.5859 141.068C12.0078 141.619 11.7188 142.541 11.7188 143.834ZM20.0977 150.385V141.777H21.0586V142.586C21.2852 142.27 21.541 142.033 21.8262 141.877C22.1113 141.717 22.457 141.637 22.8633 141.637C23.3945 141.637 23.8633 141.773 24.2695 142.047C24.6758 142.32 24.9824 142.707 25.1895 143.207C25.3965 143.703 25.5 144.248 25.5 144.842C25.5 145.479 25.3848 146.053 25.1543 146.564C24.9277 147.072 24.5957 147.463 24.1582 147.736C23.7246 148.006 23.2676 148.141 22.7871 148.141C22.4355 148.141 22.1191 148.066 21.8379 147.918C21.5605 147.77 21.332 147.582 21.1523 147.355V150.385H20.0977ZM21.0527 144.924C21.0527 145.725 21.2148 146.316 21.5391 146.699C21.8633 147.082 22.2559 147.273 22.7168 147.273C23.1855 147.273 23.5859 147.076 23.918 146.682C24.2539 146.283 24.4219 145.668 24.4219 144.836C24.4219 144.043 24.2578 143.449 23.9297 143.055C23.6055 142.66 23.2168 142.463 22.7637 142.463C22.3145 142.463 21.916 142.674 21.5684 143.096C21.2246 143.514 21.0527 144.123 21.0527 144.924ZM31.0371 145.996L32.127 146.131C31.9551 146.768 31.6367 147.262 31.1719 147.613C30.707 147.965 30.1133 148.141 29.3906 148.141C28.4805 148.141 27.7578 147.861 27.2227 147.303C26.6914 146.74 26.4258 145.953 26.4258 144.941C26.4258 143.895 26.6953 143.082 27.2344 142.504C27.7734 141.926 28.4727 141.637 29.332 141.637C30.1641 141.637 30.8438 141.92 31.3711 142.486C31.8984 143.053 32.1621 143.85 32.1621 144.877C32.1621 144.939 32.1602 145.033 32.1562 145.158H27.5156C27.5547 145.842 27.748 146.365 28.0957 146.729C28.4434 147.092 28.877 147.273 29.3965 147.273C29.7832 147.273 30.1133 147.172 30.3867 146.969C30.6602 146.766 30.877 146.441 31.0371 145.996ZM27.5742 144.291H31.0488C31.002 143.768 30.8691 143.375 30.6504 143.113C30.3145 142.707 29.8789 142.504 29.3438 142.504C28.8594 142.504 28.4512 142.666 28.1191 142.99C27.791 143.314 27.6094 143.748 27.5742 144.291ZM33.457 148V141.777H34.4062V142.662C34.8633 141.979 35.5234 141.637 36.3867 141.637C36.7617 141.637 37.1055 141.705 37.418 141.842C37.7344 141.975 37.9707 142.15 38.127 142.369C38.2832 142.588 38.3926 142.848 38.4551 143.148C38.4941 143.344 38.5137 143.686 38.5137 144.174V148H37.459V144.215C37.459 143.785 37.418 143.465 37.3359 143.254C37.2539 143.039 37.1074 142.869 36.8965 142.744C36.6895 142.615 36.4453 142.551 36.1641 142.551C35.7148 142.551 35.3262 142.693 34.998 142.979C34.6738 143.264 34.5117 143.805 34.5117 144.602V148H33.457ZM46.4004 144.988L47.5371 145.275C47.2988 146.209 46.8691 146.922 46.248 147.414C45.6309 147.902 44.875 148.146 43.9805 148.146C43.0547 148.146 42.3008 147.959 41.7188 147.584C41.1406 147.205 40.6992 146.658 40.3945 145.943C40.0938 145.229 39.9434 144.461 39.9434 143.641C39.9434 142.746 40.1133 141.967 40.4531 141.303C40.7969 140.635 41.2832 140.129 41.9121 139.785C42.5449 139.438 43.2402 139.264 43.998 139.264C44.8574 139.264 45.5801 139.482 46.166 139.92C46.752 140.357 47.1602 140.973 47.3906 141.766L46.2715 142.029C46.0723 141.404 45.7832 140.949 45.4043 140.664C45.0254 140.379 44.5488 140.236 43.9746 140.236C43.3145 140.236 42.7617 140.395 42.3164 140.711C41.875 141.027 41.5645 141.453 41.3848 141.988C41.2051 142.52 41.1152 143.068 41.1152 143.635C41.1152 144.365 41.2207 145.004 41.4316 145.551C41.6465 146.094 41.9785 146.5 42.4277 146.77C42.877 147.039 43.3633 147.174 43.8867 147.174C44.5234 147.174 45.0625 146.99 45.5039 146.623C45.9453 146.256 46.2441 145.711 46.4004 144.988ZM52.8691 147.232C52.4785 147.564 52.1016 147.799 51.7383 147.936C51.3789 148.072 50.9922 148.141 50.5781 148.141C49.8945 148.141 49.3691 147.975 49.002 147.643C48.6348 147.307 48.4512 146.879 48.4512 146.359C48.4512 146.055 48.5195 145.777 48.6562 145.527C48.7969 145.273 48.9785 145.07 49.2012 144.918C49.4277 144.766 49.6816 144.65 49.9629 144.572C50.1699 144.518 50.4824 144.465 50.9004 144.414C51.752 144.312 52.3789 144.191 52.7812 144.051C52.7852 143.906 52.7871 143.814 52.7871 143.775C52.7871 143.346 52.6875 143.043 52.4883 142.867C52.2188 142.629 51.8184 142.51 51.2871 142.51C50.791 142.51 50.4238 142.598 50.1855 142.773C49.9512 142.945 49.7773 143.252 49.6641 143.693L48.6328 143.553C48.7266 143.111 48.8809 142.756 49.0957 142.486C49.3105 142.213 49.6211 142.004 50.0273 141.859C50.4336 141.711 50.9043 141.637 51.4395 141.637C51.9707 141.637 52.4023 141.699 52.7344 141.824C53.0664 141.949 53.3105 142.107 53.4668 142.299C53.623 142.486 53.7324 142.725 53.7949 143.014C53.8301 143.193 53.8477 143.518 53.8477 143.986V145.393C53.8477 146.373 53.8691 146.994 53.9121 147.256C53.959 147.514 54.0488 147.762 54.1816 148H53.0801C52.9707 147.781 52.9004 147.525 52.8691 147.232ZM52.7812 144.877C52.3984 145.033 51.8242 145.166 51.0586 145.275C50.625 145.338 50.3184 145.408 50.1387 145.486C49.959 145.564 49.8203 145.68 49.7227 145.832C49.625 145.98 49.5762 146.146 49.5762 146.33C49.5762 146.611 49.6816 146.846 49.8926 147.033C50.1074 147.221 50.4199 147.314 50.8301 147.314C51.2363 147.314 51.5977 147.227 51.9141 147.051C52.2305 146.871 52.4629 146.627 52.6113 146.318C52.7246 146.08 52.7812 145.729 52.7812 145.264V144.877ZM55.4766 148V141.777H56.4258V142.721C56.668 142.279 56.8906 141.988 57.0938 141.848C57.3008 141.707 57.5273 141.637 57.7734 141.637C58.1289 141.637 58.4902 141.75 58.8574 141.977L58.4941 142.955C58.2363 142.803 57.9785 142.727 57.7207 142.727C57.4902 142.727 57.2832 142.797 57.0996 142.938C56.916 143.074 56.7852 143.266 56.707 143.512C56.5898 143.887 56.5312 144.297 56.5312 144.742V148H55.4766ZM61.7871 147.057L61.9395 147.988C61.6426 148.051 61.377 148.082 61.1426 148.082C60.7598 148.082 60.4629 148.021 60.252 147.9C60.041 147.779 59.8926 147.621 59.8066 147.426C59.7207 147.227 59.6777 146.811 59.6777 146.178V142.598H58.9043V141.777H59.6777V140.236L60.7266 139.604V141.777H61.7871V142.598H60.7266V146.236C60.7266 146.537 60.7441 146.73 60.7793 146.816C60.8184 146.902 60.8789 146.971 60.9609 147.021C61.0469 147.072 61.168 147.098 61.3242 147.098C61.4414 147.098 61.5957 147.084 61.7871 147.057Z" fill="black"/>
<path fill-rule="evenodd" clip-rule="evenodd" d="M54 114C54 123.941 45.9411 132 36 132C26.0589 132 18 123.941 18 114C18 104.059 26.0589 96 36 96C45.9411 96 54 104.059 54 114ZM40.656 117.998C41.2117 117.539 42.9119 116.1 44.8846 114.243C45.1955 113.951 45.5386 113.651 45.8835 113.35C47.5812 111.868 49.3038 110.45 47.5 109.5C46.3905 108.916 43.7763 108.483 40.5 108.5C37.3674 108.516 33.6409 108.876 30.4821 108.376C26.8244 107.945 24.9302 106.299 24.0581 105.541C23.9118 105.414 23.7942 105.312 23.702 105.245C23.725 105.283 23.7488 105.323 23.7728 105.363C24.7005 106.916 26.1645 109.981 32 110.5C34.3226 110.707 36.7702 110.582 38.6552 110.615C42.1886 110.677 44.4848 110.897 45 112C45.1646 112.627 43.9406 114.015 42.6386 115.434C41.6055 116.56 40.656 117.595 40.656 117.998ZM30.1293 123.093C31.1262 123.093 31.9344 122.285 31.9344 121.288C31.9344 120.291 31.1262 119.483 30.1293 119.483C29.1324 119.483 28.3243 120.291 28.3243 121.288C28.3243 122.285 29.1324 123.093 30.1293 123.093ZM37.8219 123.093C38.8188 123.093 39.627 122.285 39.627 121.288C39.627 120.291 38.8188 119.483 37.8219 119.483C36.825 119.483 36.0169 120.291 36.0169 121.288C36.0169 122.285 36.825 123.093 37.8219 123.093Z" fill="#29B6F6"/>
<g clip-path="url(#clip2)">
<path d="M264.488 18.1978L263.776 17.4857C261.64 15.3495 260.927 12.2637 261.798 9.57363C259.662 9.01978 258 7.12088 258 4.82637C258 2.13626 260.215 0 262.826 0C265.2 0 267.178 1.74066 267.574 4.03516C270.185 3.4022 273.033 4.11429 275.011 6.17143L275.248 6.40879L271.688 9.96923L271.451 9.65275C270.264 8.46593 268.444 8.46593 267.257 9.65275C266.07 10.8396 266.07 12.6593 267.257 13.8462L267.969 14.5582L271.53 18.1187L275.327 21.9165L271.767 25.4769L267.969 21.6791L264.488 18.1978Z" fill="#5EA131"/>
<path d="M268.444 14.1627L272.242 10.3649L275.802 6.80443L276.514 6.09235C278.651 3.95608 281.736 3.24399 284.426 4.0352C284.743 1.66158 286.8 -0.158203 289.174 -0.158203C291.864 -0.158203 294 1.97806 294 4.66817C294 7.12092 292.18 9.09894 289.807 9.41542C290.598 12.1055 289.886 15.1121 287.749 17.2484L287.512 17.5649L283.952 14.0044L284.189 13.7671C285.376 12.5803 285.376 10.7605 284.189 9.57366C283.002 8.38685 281.182 8.38685 279.996 9.57366L279.363 10.444L275.802 14.0044L272.004 17.8022L268.444 14.1627Z" fill="#EF8C3F"/>
<path d="M284.506 32.1234C281.736 32.9937 278.651 32.2816 276.514 30.1453L276.198 29.908L279.758 26.3475L279.996 26.5849C281.182 27.7717 283.002 27.7717 284.189 26.5849C285.376 25.3981 285.376 23.5783 284.189 22.3915L283.477 21.6794L279.916 18.1981L276.198 14.4003L279.758 10.8398L283.477 14.5585L287.037 18.119L287.749 18.8311C289.807 20.8882 290.519 23.7365 289.886 26.3475C292.259 26.664 294 28.7212 294 31.0948C294 33.7849 291.864 35.9212 289.174 35.9212C286.879 36.0003 284.901 34.3387 284.506 32.1234Z" fill="#E33E39"/>
<path d="M283.081 22.1537L279.363 25.8724L275.802 29.4328L275.09 30.1449C273.033 32.2021 270.105 32.9141 267.495 32.2812C267.02 34.4174 265.121 35.9999 262.826 35.9999C260.136 35.9999 258 33.8636 258 31.1735C258 28.879 259.582 26.9801 261.719 26.5053C261.007 23.8944 261.719 20.9669 263.776 18.9097L264.013 18.6724L267.574 22.2328L267.336 22.4702C266.149 23.657 266.149 25.4768 267.336 26.6636C268.523 27.8504 270.343 27.8504 271.53 26.6636L272.242 25.9515L275.802 22.3911L279.521 18.5933L283.081 22.1537Z" fill="#2A6DAB"/>
</g>
<path d="M256.992 49.5625L258.018 49.4219C258.045 50.0781 258.168 50.5273 258.387 50.7695C258.605 51.0117 258.908 51.1328 259.295 51.1328C259.58 51.1328 259.826 51.0684 260.033 50.9395C260.24 50.8066 260.383 50.6289 260.461 50.4062C260.539 50.1797 260.578 49.8203 260.578 49.3281V43.4102H261.715V49.2637C261.715 49.9824 261.627 50.5391 261.451 50.9336C261.279 51.3281 261.004 51.6289 260.625 51.8359C260.25 52.043 259.809 52.1465 259.301 52.1465C258.547 52.1465 257.969 51.9297 257.566 51.4961C257.168 51.0625 256.977 50.418 256.992 49.5625ZM263.045 48.8887C263.045 47.7363 263.365 46.8828 264.006 46.3281C264.541 45.8672 265.193 45.6367 265.963 45.6367C266.818 45.6367 267.518 45.918 268.061 46.4805C268.604 47.0391 268.875 47.8125 268.875 48.8008C268.875 49.6016 268.754 50.2324 268.512 50.6934C268.273 51.1504 267.924 51.5059 267.463 51.7598C267.006 52.0137 266.506 52.1406 265.963 52.1406C265.092 52.1406 264.387 51.8613 263.848 51.3027C263.312 50.7441 263.045 49.9395 263.045 48.8887ZM264.129 48.8887C264.129 49.6855 264.303 50.2832 264.65 50.6816C264.998 51.0762 265.436 51.2734 265.963 51.2734C266.486 51.2734 266.922 51.0742 267.27 50.6758C267.617 50.2773 267.791 49.6699 267.791 48.8535C267.791 48.084 267.615 47.502 267.264 47.1074C266.916 46.709 266.482 46.5098 265.963 46.5098C265.436 46.5098 264.998 46.707 264.65 47.1016C264.303 47.4961 264.129 48.0918 264.129 48.8887ZM269.725 48.8887C269.725 47.7363 270.045 46.8828 270.686 46.3281C271.221 45.8672 271.873 45.6367 272.643 45.6367C273.498 45.6367 274.197 45.918 274.74 46.4805C275.283 47.0391 275.555 47.8125 275.555 48.8008C275.555 49.6016 275.434 50.2324 275.191 50.6934C274.953 51.1504 274.604 51.5059 274.143 51.7598C273.686 52.0137 273.186 52.1406 272.643 52.1406C271.771 52.1406 271.066 51.8613 270.527 51.3027C269.992 50.7441 269.725 49.9395 269.725 48.8887ZM270.809 48.8887C270.809 49.6855 270.982 50.2832 271.33 50.6816C271.678 51.0762 272.115 51.2734 272.643 51.2734C273.166 51.2734 273.602 51.0742 273.949 50.6758C274.297 50.2773 274.471 49.6699 274.471 48.8535C274.471 48.084 274.295 47.502 273.943 47.1074C273.596 46.709 273.162 46.5098 272.643 46.5098C272.115 46.5098 271.678 46.707 271.33 47.1016C270.982 47.4961 270.809 48.0918 270.809 48.8887ZM276.797 52V45.7773H277.74V46.6504C277.936 46.3457 278.195 46.1016 278.52 45.918C278.844 45.7305 279.213 45.6367 279.627 45.6367C280.088 45.6367 280.465 45.7324 280.758 45.9238C281.055 46.1152 281.264 46.3828 281.385 46.7266C281.877 46 282.518 45.6367 283.307 45.6367C283.924 45.6367 284.398 45.8086 284.73 46.1523C285.062 46.4922 285.229 47.0176 285.229 47.7285V52H284.18V48.0801C284.18 47.6582 284.145 47.3555 284.074 47.1719C284.008 46.9844 283.885 46.834 283.705 46.7207C283.525 46.6074 283.314 46.5508 283.072 46.5508C282.635 46.5508 282.271 46.6973 281.982 46.9902C281.693 47.2793 281.549 47.7441 281.549 48.3848V52H280.494V47.957C280.494 47.4883 280.408 47.1367 280.236 46.9023C280.064 46.668 279.783 46.5508 279.393 46.5508C279.096 46.5508 278.82 46.6289 278.566 46.7852C278.316 46.9414 278.135 47.1699 278.021 47.4707C277.908 47.7715 277.852 48.2051 277.852 48.7715V52H276.797ZM286.77 52V43.4102H287.824V52H286.77ZM293.525 51.2324C293.135 51.5645 292.758 51.7988 292.395 51.9355C292.035 52.0723 291.648 52.1406 291.234 52.1406C290.551 52.1406 290.025 51.9746 289.658 51.6426C289.291 51.3066 289.107 50.8789 289.107 50.3594C289.107 50.0547 289.176 49.7773 289.312 49.5273C289.453 49.2734 289.635 49.0703 289.857 48.918C290.084 48.7656 290.338 48.6504 290.619 48.5723C290.826 48.5176 291.139 48.4648 291.557 48.4141C292.408 48.3125 293.035 48.1914 293.438 48.0508C293.441 47.9062 293.443 47.8145 293.443 47.7754C293.443 47.3457 293.344 47.043 293.145 46.8672C292.875 46.6289 292.475 46.5098 291.943 46.5098C291.447 46.5098 291.08 46.5977 290.842 46.7734C290.607 46.9453 290.434 47.252 290.32 47.6934L289.289 47.5527C289.383 47.1113 289.537 46.7559 289.752 46.4863C289.967 46.2129 290.277 46.0039 290.684 45.8594C291.09 45.7109 291.561 45.6367 292.096 45.6367C292.627 45.6367 293.059 45.6992 293.391 45.8242C293.723 45.9492 293.967 46.1074 294.123 46.2988C294.279 46.4863 294.389 46.7246 294.451 47.0137C294.486 47.1934 294.504 47.5176 294.504 47.9863V49.3926C294.504 50.373 294.525 50.9941 294.568 51.2559C294.615 51.5137 294.705 51.7617 294.838 52H293.736C293.627 51.7812 293.557 51.5254 293.525 51.2324ZM293.438 48.877C293.055 49.0332 292.48 49.166 291.715 49.2754C291.281 49.3379 290.975 49.4082 290.795 49.4863C290.615 49.5645 290.477 49.6797 290.379 49.832C290.281 49.9805 290.232 50.1465 290.232 50.3301C290.232 50.6113 290.338 50.8457 290.549 51.0332C290.764 51.2207 291.076 51.3145 291.486 51.3145C291.893 51.3145 292.254 51.2266 292.57 51.0508C292.887 50.8711 293.119 50.627 293.268 50.3184C293.381 50.0801 293.438 49.7285 293.438 49.2637V48.877Z" fill="black"/>
<path d="M129.516 52L127.236 43.4102H128.402L129.709 49.041C129.85 49.6309 129.971 50.2168 130.072 50.7988C130.291 49.8809 130.42 49.3516 130.459 49.2109L132.094 43.4102H133.465L134.695 47.7578C135.004 48.8359 135.227 49.8496 135.363 50.7988C135.473 50.2559 135.615 49.6328 135.791 48.9297L137.139 43.4102H138.281L135.926 52H134.83L133.02 45.4551C132.867 44.9082 132.777 44.5723 132.75 44.4473C132.66 44.8418 132.576 45.1777 132.498 45.4551L130.676 52H129.516ZM138.598 48.8887C138.598 47.7363 138.918 46.8828 139.559 46.3281C140.094 45.8672 140.746 45.6367 141.516 45.6367C142.371 45.6367 143.07 45.918 143.613 46.4805C144.156 47.0391 144.428 47.8125 144.428 48.8008C144.428 49.6016 144.307 50.2324 144.064 50.6934C143.826 51.1504 143.477 51.5059 143.016 51.7598C142.559 52.0137 142.059 52.1406 141.516 52.1406C140.645 52.1406 139.939 51.8613 139.4 51.3027C138.865 50.7441 138.598 49.9395 138.598 48.8887ZM139.682 48.8887C139.682 49.6855 139.855 50.2832 140.203 50.6816C140.551 51.0762 140.988 51.2734 141.516 51.2734C142.039 51.2734 142.475 51.0742 142.822 50.6758C143.17 50.2773 143.344 49.6699 143.344 48.8535C143.344 48.084 143.168 47.502 142.816 47.1074C142.469 46.709 142.035 46.5098 141.516 46.5098C140.988 46.5098 140.551 46.707 140.203 47.1016C139.855 47.4961 139.682 48.0918 139.682 48.8887ZM145.658 52V45.7773H146.607V46.7207C146.85 46.2793 147.072 45.9883 147.275 45.8477C147.482 45.707 147.709 45.6367 147.955 45.6367C148.311 45.6367 148.672 45.75 149.039 45.9766L148.676 46.9551C148.418 46.8027 148.16 46.7266 147.902 46.7266C147.672 46.7266 147.465 46.7969 147.281 46.9375C147.098 47.0742 146.967 47.2656 146.889 47.5117C146.771 47.8867 146.713 48.2969 146.713 48.7422V52H145.658ZM153.703 52V51.2148C153.309 51.832 152.729 52.1406 151.963 52.1406C151.467 52.1406 151.01 52.0039 150.592 51.7305C150.178 51.457 149.855 51.0762 149.625 50.5879C149.398 50.0957 149.285 49.5312 149.285 48.8945C149.285 48.2734 149.389 47.7109 149.596 47.207C149.803 46.6992 150.113 46.3105 150.527 46.041C150.941 45.7715 151.404 45.6367 151.916 45.6367C152.291 45.6367 152.625 45.7168 152.918 45.877C153.211 46.0332 153.449 46.2383 153.633 46.4922V43.4102H154.682V52H153.703ZM150.369 48.8945C150.369 49.6914 150.537 50.2871 150.873 50.6816C151.209 51.0762 151.605 51.2734 152.062 51.2734C152.523 51.2734 152.914 51.0859 153.234 50.7109C153.559 50.332 153.721 49.7559 153.721 48.9824C153.721 48.1309 153.557 47.5059 153.229 47.1074C152.9 46.709 152.496 46.5098 152.016 46.5098C151.547 46.5098 151.154 46.7012 150.838 47.084C150.525 47.4668 150.369 48.0703 150.369 48.8945ZM156.346 54.3848V45.7773H157.307V46.5859C157.533 46.2695 157.789 46.0332 158.074 45.877C158.359 45.7168 158.705 45.6367 159.111 45.6367C159.643 45.6367 160.111 45.7734 160.518 46.0469C160.924 46.3203 161.23 46.707 161.438 47.207C161.645 47.7031 161.748 48.248 161.748 48.8418C161.748 49.4785 161.633 50.0527 161.402 50.5645C161.176 51.0723 160.844 51.4629 160.406 51.7363C159.973 52.0059 159.516 52.1406 159.035 52.1406C158.684 52.1406 158.367 52.0664 158.086 51.918C157.809 51.7695 157.58 51.582 157.4 51.3555V54.3848H156.346ZM157.301 48.9238C157.301 49.7246 157.463 50.3164 157.787 50.6992C158.111 51.082 158.504 51.2734 158.965 51.2734C159.434 51.2734 159.834 51.0762 160.166 50.6816C160.502 50.2832 160.67 49.668 160.67 48.8359C160.67 48.043 160.506 47.4492 160.178 47.0547C159.854 46.6602 159.465 46.4629 159.012 46.4629C158.562 46.4629 158.164 46.6738 157.816 47.0957C157.473 47.5137 157.301 48.123 157.301 48.9238ZM163.014 52V45.7773H163.963V46.7207C164.205 46.2793 164.428 45.9883 164.631 45.8477C164.838 45.707 165.064 45.6367 165.311 45.6367C165.666 45.6367 166.027 45.75 166.395 45.9766L166.031 46.9551C165.773 46.8027 165.516 46.7266 165.258 46.7266C165.027 46.7266 164.82 46.7969 164.637 46.9375C164.453 47.0742 164.322 47.2656 164.244 47.5117C164.127 47.8867 164.068 48.2969 164.068 48.7422V52H163.014ZM171.281 49.9961L172.371 50.1309C172.199 50.7676 171.881 51.2617 171.416 51.6133C170.951 51.9648 170.357 52.1406 169.635 52.1406C168.725 52.1406 168.002 51.8613 167.467 51.3027C166.936 50.7402 166.67 49.9531 166.67 48.9414C166.67 47.8945 166.939 47.082 167.479 46.5039C168.018 45.9258 168.717 45.6367 169.576 45.6367C170.408 45.6367 171.088 45.9199 171.615 46.4863C172.143 47.0527 172.406 47.8496 172.406 48.877C172.406 48.9395 172.404 49.0332 172.4 49.1582H167.76C167.799 49.8418 167.992 50.3652 168.34 50.7285C168.688 51.0918 169.121 51.2734 169.641 51.2734C170.027 51.2734 170.357 51.1719 170.631 50.9688C170.904 50.7656 171.121 50.4414 171.281 49.9961ZM167.818 48.291H171.293C171.246 47.7676 171.113 47.375 170.895 47.1133C170.559 46.707 170.123 46.5039 169.588 46.5039C169.104 46.5039 168.695 46.666 168.363 46.9902C168.035 47.3145 167.854 47.748 167.818 48.291ZM173.279 50.1426L174.322 49.9785C174.381 50.3965 174.543 50.7168 174.809 50.9395C175.078 51.1621 175.453 51.2734 175.934 51.2734C176.418 51.2734 176.777 51.1758 177.012 50.9805C177.246 50.7812 177.363 50.5488 177.363 50.2832C177.363 50.0449 177.26 49.8574 177.053 49.7207C176.908 49.627 176.549 49.5078 175.975 49.3633C175.201 49.168 174.664 49 174.363 48.8594C174.066 48.7148 173.84 48.5176 173.684 48.2676C173.531 48.0137 173.455 47.7344 173.455 47.4297C173.455 47.1523 173.518 46.8965 173.643 46.6621C173.771 46.4238 173.945 46.2266 174.164 46.0703C174.328 45.9492 174.551 45.8477 174.832 45.7656C175.117 45.6797 175.422 45.6367 175.746 45.6367C176.234 45.6367 176.662 45.707 177.029 45.8477C177.4 45.9883 177.674 46.1797 177.85 46.4219C178.025 46.6602 178.146 46.9805 178.213 47.3828L177.182 47.5234C177.135 47.2031 176.998 46.9531 176.771 46.7734C176.549 46.5938 176.232 46.5039 175.822 46.5039C175.338 46.5039 174.992 46.584 174.785 46.7441C174.578 46.9043 174.475 47.0918 174.475 47.3066C174.475 47.4434 174.518 47.5664 174.604 47.6758C174.689 47.7891 174.824 47.8828 175.008 47.957C175.113 47.9961 175.424 48.0859 175.939 48.2266C176.686 48.4258 177.205 48.5898 177.498 48.7188C177.795 48.8438 178.027 49.0273 178.195 49.2695C178.363 49.5117 178.447 49.8125 178.447 50.1719C178.447 50.5234 178.344 50.8555 178.137 51.168C177.934 51.4766 177.639 51.7168 177.252 51.8887C176.865 52.0566 176.428 52.1406 175.939 52.1406C175.131 52.1406 174.514 51.9727 174.088 51.6367C173.666 51.3008 173.396 50.8027 173.279 50.1426ZM179.279 50.1426L180.322 49.9785C180.381 50.3965 180.543 50.7168 180.809 50.9395C181.078 51.1621 181.453 51.2734 181.934 51.2734C182.418 51.2734 182.777 51.1758 183.012 50.9805C183.246 50.7812 183.363 50.5488 183.363 50.2832C183.363 50.0449 183.26 49.8574 183.053 49.7207C182.908 49.627 182.549 49.5078 181.975 49.3633C181.201 49.168 180.664 49 180.363 48.8594C180.066 48.7148 179.84 48.5176 179.684 48.2676C179.531 48.0137 179.455 47.7344 179.455 47.4297C179.455 47.1523 179.518 46.8965 179.643 46.6621C179.771 46.4238 179.945 46.2266 180.164 46.0703C180.328 45.9492 180.551 45.8477 180.832 45.7656C181.117 45.6797 181.422 45.6367 181.746 45.6367C182.234 45.6367 182.662 45.707 183.029 45.8477C183.4 45.9883 183.674 46.1797 183.85 46.4219C184.025 46.6602 184.146 46.9805 184.213 47.3828L183.182 47.5234C183.135 47.2031 182.998 46.9531 182.771 46.7734C182.549 46.5938 182.232 46.5039 181.822 46.5039C181.338 46.5039 180.992 46.584 180.785 46.7441C180.578 46.9043 180.475 47.0918 180.475 47.3066C180.475 47.4434 180.518 47.5664 180.604 47.6758C180.689 47.7891 180.824 47.8828 181.008 47.957C181.113 47.9961 181.424 48.0859 181.939 48.2266C182.686 48.4258 183.205 48.5898 183.498 48.7188C183.795 48.8438 184.027 49.0273 184.195 49.2695C184.363 49.5117 184.447 49.8125 184.447 50.1719C184.447 50.5234 184.344 50.8555 184.137 51.168C183.934 51.4766 183.639 51.7168 183.252 51.8887C182.865 52.0566 182.428 52.1406 181.939 52.1406C181.131 52.1406 180.514 51.9727 180.088 51.6367C179.666 51.3008 179.396 50.8027 179.279 50.1426Z" fill="black"/>
<g clip-path="url(#clip3)">
<path d="M156.039 0C165.929 0.0791209 174.158 8.07033 173.999 18.356C173.841 28.0879 165.929 36 155.96 36C146.07 36 137.841 27.9297 137.999 17.644C138.158 7.91209 146.07 0.0791209 156.039 0ZM166.879 6.01319V5.93407C162.448 2.13626 157.305 0.791209 151.608 2.37363C147.731 3.4022 144.725 5.6967 142.43 9.0989C142.588 9.0989 142.668 9.17802 142.747 9.17802C144.013 9.0989 145.358 9.0989 146.624 9.01978C147.019 9.01978 147.494 8.94066 147.89 8.94066C148.285 8.94066 148.522 9.17802 148.522 9.49451C148.522 9.89011 148.364 10.1275 147.969 10.1275C147.731 10.1275 147.573 10.2066 147.336 10.2066C146.94 10.2857 146.544 10.2857 146.07 10.3648C148.048 16.2198 150.026 22.0747 152.004 27.9297H152.083C152.083 27.8505 152.162 27.8505 152.162 27.7714C153.27 24.3692 154.457 20.967 155.564 17.5648C155.643 17.4066 155.564 17.2484 155.564 17.0901C154.773 14.9538 153.982 12.8176 153.191 10.6813C153.111 10.444 152.953 10.3648 152.716 10.3648C152.241 10.3648 151.766 10.2857 151.292 10.2066C151.133 10.2066 150.896 9.96923 150.817 9.81099C150.659 9.33626 150.975 9.01978 151.45 9.01978C151.766 9.01978 152.083 9.0989 152.32 9.0989C152.953 9.17802 153.586 9.17802 154.219 9.17802C155.248 9.17802 156.276 9.17802 157.305 9.17802C158.254 9.17802 159.125 9.0989 159.995 9.01978C160.391 9.01978 160.628 9.25714 160.628 9.57363C160.628 9.89011 160.391 10.1275 160.074 10.2066C159.599 10.2857 159.125 10.2857 158.65 10.3648C158.175 10.3648 158.175 10.3648 158.333 10.8396C160.232 16.378 162.052 21.9165 163.951 27.4549C163.951 27.5341 164.03 27.6923 164.109 27.7714C164.268 27.6132 164.347 27.3758 164.347 27.2176C164.98 25.2396 165.533 23.2615 166.166 21.2835C166.562 20.0967 166.879 18.989 166.958 17.7231C167.116 16.2989 166.799 14.8747 166.166 13.6088C165.692 12.7385 165.217 11.9473 164.742 11.0769C164.268 10.2066 163.951 9.33626 164.109 8.38681C164.268 7.35824 165.059 6.40879 166.087 6.17143C166.325 6.09231 166.641 6.09231 166.879 6.01319ZM156.355 19.4637H156.276C156.197 19.5429 156.197 19.622 156.118 19.7011C154.615 24.211 153.032 28.7209 151.45 33.2308C151.371 33.5473 151.371 33.6264 151.687 33.7055C153.507 34.1802 155.327 34.3385 157.226 34.1802C158.492 34.1011 159.758 33.7846 161.024 33.389C161.261 33.3099 161.34 33.2308 161.261 32.9934C159.837 29.1956 158.492 25.3187 157.068 21.5209C156.83 20.8879 156.593 20.1758 156.355 19.4637ZM148.839 32.5978C148.918 32.5978 148.918 32.5187 148.997 32.5187C146.465 25.4769 143.854 18.4352 141.322 11.3934C141.243 11.3934 141.243 11.3934 141.164 11.3934C139.503 15.3495 139.265 19.3846 140.769 23.4989C142.193 27.6132 144.962 30.6198 148.839 32.5978ZM170.36 10.3648H170.281C170.281 10.444 170.281 10.5231 170.281 10.6022C170.281 11.7099 170.281 12.8176 170.202 13.9253C170.043 15.2703 169.569 16.5363 169.094 17.8813C167.511 22.4703 165.929 27.0593 164.347 31.7275C164.268 31.8066 164.268 31.9648 164.268 32.1231C164.268 32.1231 164.347 32.1231 164.347 32.2022C168.54 29.5912 171.23 25.8725 172.101 21.0462C172.654 17.1692 172.101 13.6088 170.36 10.3648Z" fill="#3478A1"/>
</g>
<path d="M8.37305 52H7.31836V45.2793C7.06445 45.5215 6.73047 45.7637 6.31641 46.0059C5.90625 46.248 5.53711 46.4297 5.20898 46.5508V45.5312C5.79883 45.2539 6.31445 44.918 6.75586 44.5234C7.19727 44.1289 7.50977 43.7461 7.69336 43.375H8.37305V52ZM17.6367 48.9883L18.7734 49.2754C18.5352 50.209 18.1055 50.9219 17.4844 51.4141C16.8672 51.9023 16.1113 52.1465 15.2168 52.1465C14.291 52.1465 13.5371 51.959 12.9551 51.584C12.377 51.2051 11.9355 50.6582 11.6309 49.9434C11.3301 49.2285 11.1797 48.4609 11.1797 47.6406C11.1797 46.7461 11.3496 45.9668 11.6895 45.3027C12.0332 44.6348 12.5195 44.1289 13.1484 43.7852C13.7812 43.4375 14.4766 43.2637 15.2344 43.2637C16.0938 43.2637 16.8164 43.4824 17.4023 43.9199C17.9883 44.3574 18.3965 44.9727 18.627 45.7656L17.5078 46.0293C17.3086 45.4043 17.0195 44.9492 16.6406 44.6641C16.2617 44.3789 15.7852 44.2363 15.2109 44.2363C14.5508 44.2363 13.998 44.3945 13.5527 44.7109C13.1113 45.0273 12.8008 45.4531 12.6211 45.9883C12.4414 46.5195 12.3516 47.0684 12.3516 47.6348C12.3516 48.3652 12.457 49.0039 12.668 49.5508C12.8828 50.0938 13.2148 50.5 13.6641 50.7695C14.1133 51.0391 14.5996 51.1738 15.123 51.1738C15.7598 51.1738 16.2988 50.9902 16.7402 50.623C17.1816 50.2559 17.4805 49.7109 17.6367 48.9883ZM19.6348 49.4219V48.3613H22.875V49.4219H19.6348ZM24.2285 43.4102H29.8008V44.4238H25.3652V47.0723H27.416C28.1738 47.0723 28.7754 47.1445 29.2207 47.2891C29.6699 47.4336 30.0293 47.707 30.2988 48.1094C30.5684 48.5078 30.7031 48.9727 30.7031 49.5039C30.7031 49.9375 30.6055 50.3438 30.4102 50.7227C30.2188 51.0977 29.9316 51.4043 29.5488 51.6426C29.166 51.8809 28.5137 52 27.5918 52H24.2285V43.4102ZM25.3652 51.0332H27.6387C28.252 51.0332 28.7109 50.9082 29.0156 50.6582C29.3242 50.4082 29.4785 50.0332 29.4785 49.5332C29.4785 49.1777 29.3906 48.8809 29.2148 48.6426C29.0391 48.4043 28.7949 48.2461 28.4824 48.168C28.1699 48.0898 27.6367 48.0508 26.8828 48.0508H25.3652V51.0332ZM31.916 45.7773H32.9707V50.5234L35.8945 45.7773H37.0312V52H35.9766V47.2832L33.0527 52H31.916V45.7773ZM38.0508 45.7773H43.1074V46.6504H41.1035V52H40.0547V46.6504H38.0508V45.7773ZM44.1152 54.3848V45.7773H45.0762V46.5859C45.3027 46.2695 45.5586 46.0332 45.8438 45.877C46.1289 45.7168 46.4746 45.6367 46.8809 45.6367C47.4121 45.6367 47.8809 45.7734 48.2871 46.0469C48.6934 46.3203 49 46.707 49.207 47.207C49.4141 47.7031 49.5176 48.248 49.5176 48.8418C49.5176 49.4785 49.4023 50.0527 49.1719 50.5645C48.9453 51.0723 48.6133 51.4629 48.1758 51.7363C47.7422 52.0059 47.2852 52.1406 46.8047 52.1406C46.4531 52.1406 46.1367 52.0664 45.8555 51.918C45.5781 51.7695 45.3496 51.582 45.1699 51.3555V54.3848H44.1152ZM45.0703 48.9238C45.0703 49.7246 45.2324 50.3164 45.5566 50.6992C45.8809 51.082 46.2734 51.2734 46.7344 51.2734C47.2031 51.2734 47.6035 51.0762 47.9355 50.6816C48.2715 50.2832 48.4395 49.668 48.4395 48.8359C48.4395 48.043 48.2754 47.4492 47.9473 47.0547C47.623 46.6602 47.2344 46.4629 46.7812 46.4629C46.332 46.4629 45.9336 46.6738 45.5859 47.0957C45.2422 47.5137 45.0703 48.123 45.0703 48.9238ZM50.7949 45.7773H51.8496V50.5234L54.7734 45.7773H55.9102V52H54.8555V47.2832L51.9316 52H50.7949V45.7773ZM57.4922 45.7773H58.5469V48.4668C58.8828 48.4668 59.1172 48.4023 59.25 48.2734C59.3867 48.1445 59.5859 47.7695 59.8477 47.1484C60.0547 46.6562 60.2227 46.332 60.3516 46.1758C60.4805 46.0195 60.6289 45.9141 60.7969 45.8594C60.9648 45.8047 61.2344 45.7773 61.6055 45.7773H61.8164V46.6504L61.5234 46.6445C61.2461 46.6445 61.0684 46.6855 60.9902 46.7676C60.9082 46.8535 60.7832 47.1094 60.6152 47.5352C60.4551 47.9414 60.3086 48.2227 60.1758 48.3789C60.043 48.5352 59.8379 48.6777 59.5605 48.8066C60.0137 48.9277 60.459 49.3496 60.8965 50.0723L62.0508 52H60.8906L59.7656 50.0723C59.5352 49.6855 59.334 49.4316 59.1621 49.3105C58.9902 49.1855 58.7852 49.123 58.5469 49.123V52H57.4922V45.7773ZM66.9492 49.7207L67.9863 49.8555C67.873 50.5703 67.582 51.1309 67.1133 51.5371C66.6484 51.9395 66.0762 52.1406 65.3965 52.1406C64.5449 52.1406 63.8594 51.8633 63.3398 51.3086C62.8242 50.75 62.5664 49.9512 62.5664 48.9121C62.5664 48.2402 62.6777 47.6523 62.9004 47.1484C63.123 46.6445 63.4609 46.2676 63.9141 46.0176C64.3711 45.7637 64.8672 45.6367 65.4023 45.6367C66.0781 45.6367 66.6309 45.8086 67.0605 46.1523C67.4902 46.4922 67.7656 46.9766 67.8867 47.6055L66.8613 47.7637C66.7637 47.3457 66.5898 47.0312 66.3398 46.8203C66.0938 46.6094 65.7949 46.5039 65.4434 46.5039C64.9121 46.5039 64.4805 46.6953 64.1484 47.0781C63.8164 47.457 63.6504 48.0586 63.6504 48.8828C63.6504 49.7188 63.8105 50.3262 64.1309 50.7051C64.4512 51.084 64.8691 51.2734 65.3848 51.2734C65.7988 51.2734 66.1445 51.1465 66.4219 50.8926C66.6992 50.6387 66.875 50.248 66.9492 49.7207Z" fill="black"/>
<path d="M35.9604 0C34.6154 0 33.3494 0.158242 32.0835 0.395604V17.9604C32.0835 20.0967 33.8242 21.8374 35.9604 21.8374C38.0967 21.8374 39.8374 20.0967 39.8374 17.9604C39.8374 15.9033 38.2549 14.1626 36.1978 14.0835V10.9187C39.9165 11.0769 43.0022 14.1626 43.0022 17.9604C43.0022 21.8374 39.8374 25.0022 35.9604 25.0022C32.0835 25.0022 28.9187 21.8374 28.9187 17.9604V1.34506C28.444 1.5033 28.0484 1.74066 27.6527 1.97802V17.9604C27.6527 22.5495 31.3714 26.2681 35.9604 26.2681C40.5494 26.2681 44.2681 22.5495 44.2681 17.9604C44.2681 13.4506 40.6286 9.73187 36.1978 9.65275V6.48791C42.3692 6.64615 47.433 11.7099 47.433 17.9604C47.433 24.2901 42.2901 29.433 35.9604 29.433C29.6308 29.433 24.4879 24.2901 24.4879 17.9604V4.11429C20.5319 7.43736 18 12.422 18 17.9604C18 27.9297 26.0703 35.9209 35.9604 35.9209C45.9297 35.9209 53.9209 27.8506 53.9209 17.9604C54 8.07033 45.9297 0 35.9604 0Z" fill="#DF242F"/>
<defs>
<linearGradient id="paint0_linear" x1="155.931" y1="193.259" x2="155.931" y2="227.446" gradientUnits="userSpaceOnUse">
<stop stop-color="#5AB0DC"/>
<stop offset="1" stop-color="#2C7CB9"/>
</linearGradient>
<clipPath id="clip0">
<rect width="36" height="36" fill="white" transform="translate(138 192)"/>
</clipPath>
<clipPath id="clip1">
<rect width="36" height="36" fill="white" transform="translate(18 192)"/>
</clipPath>
<clipPath id="clip2">
<rect width="36" height="36" fill="white" transform="translate(258)"/>
</clipPath>
<clipPath id="clip3">
<rect width="36" height="36" fill="white" transform="translate(138)"/>
</clipPath>
</defs>
</svg>
