<svg width="976" height="60" viewBox="0 0 976 60" fill="none" xmlns="http://www.w3.org/2000/svg">
<path d="M915.279 52V43.4102H916.416V46.9375H920.881V43.4102H922.018V52H920.881V47.9512H916.416V52H915.279ZM923.389 48.8887C923.389 47.7363 923.709 46.8828 924.35 46.3281C924.885 45.8672 925.537 45.6367 926.307 45.6367C927.162 45.6367 927.861 45.918 928.404 46.4805C928.947 47.0391 929.219 47.8125 929.219 48.8008C929.219 49.6016 929.098 50.2324 928.855 50.6934C928.617 51.1504 928.268 51.5059 927.807 51.7598C927.35 52.0137 926.85 52.1406 926.307 52.1406C925.436 52.1406 924.73 51.8613 924.191 51.3027C923.656 50.7441 923.389 49.9395 923.389 48.8887ZM924.473 48.8887C924.473 49.6855 924.646 50.2832 924.994 50.6816C925.342 51.0762 925.779 51.2734 926.307 51.2734C926.83 51.2734 927.266 51.0742 927.613 50.6758C927.961 50.2773 928.135 49.6699 928.135 48.8535C928.135 48.084 927.959 47.502 927.607 47.1074C927.26 46.709 926.826 46.5098 926.307 46.5098C925.779 46.5098 925.342 46.707 924.994 47.1016C924.646 47.4961 924.473 48.0918 924.473 48.8887ZM930.039 50.1426L931.082 49.9785C931.141 50.3965 931.303 50.7168 931.568 50.9395C931.838 51.1621 932.213 51.2734 932.693 51.2734C933.178 51.2734 933.537 51.1758 933.771 50.9805C934.006 50.7812 934.123 50.5488 934.123 50.2832C934.123 50.0449 934.02 49.8574 933.812 49.7207C933.668 49.627 933.309 49.5078 932.734 49.3633C931.961 49.168 931.424 49 931.123 48.8594C930.826 48.7148 930.6 48.5176 930.443 48.2676C930.291 48.0137 930.215 47.7344 930.215 47.4297C930.215 47.1523 930.277 46.8965 930.402 46.6621C930.531 46.4238 930.705 46.2266 930.924 46.0703C931.088 45.9492 931.311 45.8477 931.592 45.7656C931.877 45.6797 932.182 45.6367 932.506 45.6367C932.994 45.6367 933.422 45.707 933.789 45.8477C934.16 45.9883 934.434 46.1797 934.609 46.4219C934.785 46.6602 934.906 46.9805 934.973 47.3828L933.941 47.5234C933.895 47.2031 933.758 46.9531 933.531 46.7734C933.309 46.5938 932.992 46.5039 932.582 46.5039C932.098 46.5039 931.752 46.584 931.545 46.7441C931.338 46.9043 931.234 47.0918 931.234 47.3066C931.234 47.4434 931.277 47.5664 931.363 47.6758C931.449 47.7891 931.584 47.8828 931.768 47.957C931.873 47.9961 932.184 48.0859 932.699 48.2266C933.445 48.4258 933.965 48.5898 934.258 48.7188C934.555 48.8438 934.787 49.0273 934.955 49.2695C935.123 49.5117 935.207 49.8125 935.207 50.1719C935.207 50.5234 935.104 50.8555 934.896 51.168C934.693 51.4766 934.398 51.7168 934.012 51.8887C933.625 52.0566 933.188 52.1406 932.699 52.1406C931.891 52.1406 931.273 51.9727 930.848 51.6367C930.426 51.3008 930.156 50.8027 930.039 50.1426ZM938.764 51.0566L938.916 51.9883C938.619 52.0508 938.354 52.082 938.119 52.082C937.736 52.082 937.439 52.0215 937.229 51.9004C937.018 51.7793 936.869 51.6211 936.783 51.4258C936.697 51.2266 936.654 50.8105 936.654 50.1777V46.5977H935.881V45.7773H936.654V44.2363L937.703 43.6035V45.7773H938.764V46.5977H937.703V50.2363C937.703 50.5371 937.721 50.7305 937.756 50.8164C937.795 50.9023 937.855 50.9707 937.938 51.0215C938.023 51.0723 938.145 51.0977 938.301 51.0977C938.418 51.0977 938.572 51.084 938.764 51.0566ZM946.064 48.9883L947.201 49.2754C946.963 50.209 946.533 50.9219 945.912 51.4141C945.295 51.9023 944.539 52.1465 943.645 52.1465C942.719 52.1465 941.965 51.959 941.383 51.584C940.805 51.2051 940.363 50.6582 940.059 49.9434C939.758 49.2285 939.607 48.4609 939.607 47.6406C939.607 46.7461 939.777 45.9668 940.117 45.3027C940.461 44.6348 940.947 44.1289 941.576 43.7852C942.209 43.4375 942.904 43.2637 943.662 43.2637C944.521 43.2637 945.244 43.4824 945.83 43.9199C946.416 44.3574 946.824 44.9727 947.055 45.7656L945.936 46.0293C945.736 45.4043 945.447 44.9492 945.068 44.6641C944.689 44.3789 944.213 44.2363 943.639 44.2363C942.979 44.2363 942.426 44.3945 941.98 44.7109C941.539 45.0273 941.229 45.4531 941.049 45.9883C940.869 46.5195 940.779 47.0684 940.779 47.6348C940.779 48.3652 940.885 49.0039 941.096 49.5508C941.311 50.0938 941.643 50.5 942.092 50.7695C942.541 51.0391 943.027 51.1738 943.551 51.1738C944.188 51.1738 944.727 50.9902 945.168 50.623C945.609 50.2559 945.908 49.7109 946.064 48.9883ZM948.572 52V43.4102H950.283L952.316 49.4922C952.504 50.0586 952.641 50.4824 952.727 50.7637C952.824 50.4512 952.977 49.9922 953.184 49.3867L955.24 43.4102H956.77V52H955.674V44.8105L953.178 52H952.152L949.668 44.6875V52H948.572ZM958.217 49.2402L959.289 49.1465C959.34 49.5762 959.457 49.9297 959.641 50.207C959.828 50.4805 960.117 50.7031 960.508 50.875C960.898 51.043 961.338 51.127 961.826 51.127C962.26 51.127 962.643 51.0625 962.975 50.9336C963.307 50.8047 963.553 50.6289 963.713 50.4062C963.877 50.1797 963.959 49.9336 963.959 49.668C963.959 49.3984 963.881 49.1641 963.725 48.9648C963.568 48.7617 963.311 48.5918 962.951 48.4551C962.721 48.3652 962.211 48.2266 961.422 48.0391C960.633 47.8477 960.08 47.668 959.764 47.5C959.354 47.2852 959.047 47.0195 958.844 46.7031C958.645 46.3828 958.545 46.0254 958.545 45.6309C958.545 45.1973 958.668 44.793 958.914 44.418C959.16 44.0391 959.52 43.752 959.992 43.5566C960.465 43.3613 960.99 43.2637 961.568 43.2637C962.205 43.2637 962.766 43.3672 963.25 43.5742C963.738 43.7773 964.113 44.0781 964.375 44.4766C964.637 44.875 964.777 45.3262 964.797 45.8301L963.707 45.9121C963.648 45.3691 963.449 44.959 963.109 44.6816C962.773 44.4043 962.275 44.2656 961.615 44.2656C960.928 44.2656 960.426 44.3926 960.109 44.6465C959.797 44.8965 959.641 45.1992 959.641 45.5547C959.641 45.8633 959.752 46.1172 959.975 46.3164C960.193 46.5156 960.764 46.7207 961.686 46.9316C962.611 47.1387 963.246 47.3203 963.59 47.4766C964.09 47.707 964.459 48 964.697 48.3555C964.936 48.707 965.055 49.1133 965.055 49.5742C965.055 50.0312 964.924 50.4629 964.662 50.8691C964.4 51.2715 964.023 51.5859 963.531 51.8125C963.043 52.0352 962.492 52.1465 961.879 52.1465C961.102 52.1465 960.449 52.0332 959.922 51.8066C959.398 51.5801 958.986 51.2402 958.686 50.7871C958.389 50.3301 958.232 49.8145 958.217 49.2402Z" fill="black"/>
<path d="M947.905 20.9408L946.238 22.5982C946.11 22.7254 945.96 22.7891 945.786 22.7891C945.611 22.7891 945.461 22.7254 945.333 22.5982L940 17.2645L934.666 22.5982C934.539 22.7254 934.388 22.7891 934.214 22.7891C934.04 22.7891 933.889 22.7254 933.762 22.5982L932.095 20.9408C931.967 20.8136 931.904 20.6629 931.904 20.4888C931.904 20.308 931.967 20.154 932.095 20.0268L939.548 12.5837C939.675 12.4565 939.826 12.3929 940 12.3929C940.174 12.3929 940.325 12.4565 940.452 12.5837L947.905 20.0268C948.032 20.154 948.096 20.308 948.096 20.4888C948.096 20.6629 948.032 20.8136 947.905 20.9408Z" fill="#F55555"/>
<path fill-rule="evenodd" clip-rule="evenodd" d="M940 36C949.941 36 958 27.9411 958 18C958 8.05887 949.941 0 940 0C930.059 0 922 8.05887 922 18C922 27.9411 930.059 36 940 36ZM940 33C948.284 33 955 26.2843 955 18C955 9.71573 948.284 3 940 3C931.716 3 925 9.71573 925 18C925 26.2843 931.716 33 940 33ZM947.905 20.9408L946.238 22.5982C946.11 22.7254 945.96 22.7891 945.786 22.7891C945.611 22.7891 945.461 22.7254 945.333 22.5982L940 17.2645L934.666 22.5982C934.539 22.7254 934.388 22.7891 934.214 22.7891C934.04 22.7891 933.889 22.7254 933.762 22.5982L932.095 20.9408C931.967 20.8136 931.904 20.6629 931.904 20.4888C931.904 20.308 931.967 20.154 932.095 20.0268L939.548 12.5837C939.675 12.4565 939.826 12.3929 940 12.3929C940.174 12.3929 940.325 12.4565 940.452 12.5837L947.905 20.0268C948.032 20.154 948.096 20.308 948.096 20.4888C948.096 20.6629 948.032 20.8136 947.905 20.9408Z" fill="#F55555"/>
<path d="M807.553 43.4102H808.689V48.373C808.689 49.2363 808.592 49.9219 808.396 50.4297C808.201 50.9375 807.848 51.3516 807.336 51.6719C806.828 51.9883 806.16 52.1465 805.332 52.1465C804.527 52.1465 803.869 52.0078 803.357 51.7305C802.846 51.4531 802.48 51.0527 802.262 50.5293C802.043 50.002 801.934 49.2832 801.934 48.373V43.4102H803.07V48.3672C803.07 49.1133 803.139 49.6641 803.275 50.0195C803.416 50.3711 803.654 50.6426 803.99 50.834C804.33 51.0254 804.744 51.1211 805.232 51.1211C806.068 51.1211 806.664 50.9316 807.02 50.5527C807.375 50.1738 807.553 49.4453 807.553 48.3672V43.4102ZM810.553 52V43.4102H812.264L814.297 49.4922C814.484 50.0586 814.621 50.4824 814.707 50.7637C814.805 50.4512 814.957 49.9922 815.164 49.3867L817.221 43.4102H818.75V52H817.654V44.8105L815.158 52H814.133L811.648 44.6875V52H810.553ZM820.777 52V43.4102H821.914V52H820.777ZM824.088 52V50.7988H825.289V52H824.088ZM833.393 48.9883L834.529 49.2754C834.291 50.209 833.861 50.9219 833.24 51.4141C832.623 51.9023 831.867 52.1465 830.973 52.1465C830.047 52.1465 829.293 51.959 828.711 51.584C828.133 51.2051 827.691 50.6582 827.387 49.9434C827.086 49.2285 826.936 48.4609 826.936 47.6406C826.936 46.7461 827.105 45.9668 827.445 45.3027C827.789 44.6348 828.275 44.1289 828.904 43.7852C829.537 43.4375 830.232 43.2637 830.99 43.2637C831.85 43.2637 832.572 43.4824 833.158 43.9199C833.744 44.3574 834.152 44.9727 834.383 45.7656L833.264 46.0293C833.064 45.4043 832.775 44.9492 832.396 44.6641C832.018 44.3789 831.541 44.2363 830.967 44.2363C830.307 44.2363 829.754 44.3945 829.309 44.7109C828.867 45.0273 828.557 45.4531 828.377 45.9883C828.197 46.5195 828.107 47.0684 828.107 47.6348C828.107 48.3652 828.213 49.0039 828.424 49.5508C828.639 50.0938 828.971 50.5 829.42 50.7695C829.869 51.0391 830.355 51.1738 830.879 51.1738C831.516 51.1738 832.055 50.9902 832.496 50.623C832.938 50.2559 833.236 49.7109 833.393 48.9883ZM835.9 52V43.4102H837.611L839.645 49.4922C839.832 50.0586 839.969 50.4824 840.055 50.7637C840.152 50.4512 840.305 49.9922 840.512 49.3867L842.568 43.4102H844.098V52H843.002V44.8105L840.506 52H839.48L836.996 44.6875V52H835.9ZM845.545 49.2402L846.617 49.1465C846.668 49.5762 846.785 49.9297 846.969 50.207C847.156 50.4805 847.445 50.7031 847.836 50.875C848.227 51.043 848.666 51.127 849.154 51.127C849.588 51.127 849.971 51.0625 850.303 50.9336C850.635 50.8047 850.881 50.6289 851.041 50.4062C851.205 50.1797 851.287 49.9336 851.287 49.668C851.287 49.3984 851.209 49.1641 851.053 48.9648C850.896 48.7617 850.639 48.5918 850.279 48.4551C850.049 48.3652 849.539 48.2266 848.75 48.0391C847.961 47.8477 847.408 47.668 847.092 47.5C846.682 47.2852 846.375 47.0195 846.172 46.7031C845.973 46.3828 845.873 46.0254 845.873 45.6309C845.873 45.1973 845.996 44.793 846.242 44.418C846.488 44.0391 846.848 43.752 847.32 43.5566C847.793 43.3613 848.318 43.2637 848.896 43.2637C849.533 43.2637 850.094 43.3672 850.578 43.5742C851.066 43.7773 851.441 44.0781 851.703 44.4766C851.965 44.875 852.105 45.3262 852.125 45.8301L851.035 45.9121C850.977 45.3691 850.777 44.959 850.438 44.6816C850.102 44.4043 849.604 44.2656 848.943 44.2656C848.256 44.2656 847.754 44.3926 847.438 44.6465C847.125 44.8965 846.969 45.1992 846.969 45.5547C846.969 45.8633 847.08 46.1172 847.303 46.3164C847.521 46.5156 848.092 46.7207 849.014 46.9316C849.939 47.1387 850.574 47.3203 850.918 47.4766C851.418 47.707 851.787 48 852.025 48.3555C852.264 48.707 852.383 49.1133 852.383 49.5742C852.383 50.0312 852.252 50.4629 851.99 50.8691C851.729 51.2715 851.352 51.5859 850.859 51.8125C850.371 52.0352 849.82 52.1465 849.207 52.1465C848.43 52.1465 847.777 52.0332 847.25 51.8066C846.727 51.5801 846.314 51.2402 846.014 50.7871C845.717 50.3301 845.561 49.8145 845.545 49.2402Z" fill="black"/>
<g clip-path="url(#clip0)">
<path d="M843.813 9.17809C833.923 9.17809 831.945 12.1847 827.356 15.666C827.356 15.666 827.435 14.4001 826.248 14.2418C825.141 13.9253 824.824 15.033 824.824 15.033C824.824 15.033 824.429 14.4001 824.27 13.7671C823.558 10.9979 820.314 8.07039 816.754 4.50996C813.193 0.949516 809.633 1.266 809.633 1.266L809.317 2.53193C808.446 5.0638 809.317 5.61765 809.317 6.40886C809.317 7.20007 809.554 7.83303 810.108 9.01985C810.82 10.2067 811.136 14.0045 811.374 15.8242C811.611 17.7231 813.035 18.91 813.273 19.1473C813.51 19.3847 811.532 20.3341 811.532 20.5715V21.6792C811.532 21.8374 810.82 22.3913 810.662 22.6286C810.503 22.7869 810.424 23.5781 810.662 26.5847C810.899 29.5913 816.042 32.7561 817.387 32.9935C818.811 33.31 819.998 30.5407 820.789 30.2242C821.659 29.9078 823.717 27.6924 823.717 27.6924C823.717 27.6924 824.349 33.5473 824.349 31.3319C824.349 29.1165 825.695 28.5627 825.695 28.5627L825.853 27.0594C825.853 27.0594 827.277 31.7275 828.938 33.4682C830.6 35.1297 833.844 35.4462 834.16 35.4462C834.477 35.4462 836.613 35.5253 838.433 30.8572C840.332 26.1891 837.325 25.0023 837.958 25.0023C838.591 25.0023 840.807 23.1825 840.49 21.6001C840.174 20.0176 841.677 16.8528 843.18 15.3495C844.684 13.8462 844.921 10.0484 844.921 9.89017C845 9.81105 844.684 9.17809 843.813 9.17809Z" fill="url(#paint0_linear)"/>
</g>
<path d="M696.223 52V43.4102H697.389L701.9 50.1543V43.4102H702.99V52H701.824L697.312 45.25V52H696.223ZM709.031 49.9961L710.121 50.1309C709.949 50.7676 709.631 51.2617 709.166 51.6133C708.701 51.9648 708.107 52.1406 707.385 52.1406C706.475 52.1406 705.752 51.8613 705.217 51.3027C704.686 50.7402 704.42 49.9531 704.42 48.9414C704.42 47.8945 704.689 47.082 705.229 46.5039C705.768 45.9258 706.467 45.6367 707.326 45.6367C708.158 45.6367 708.838 45.9199 709.365 46.4863C709.893 47.0527 710.156 47.8496 710.156 48.877C710.156 48.9395 710.154 49.0332 710.15 49.1582H705.51C705.549 49.8418 705.742 50.3652 706.09 50.7285C706.438 51.0918 706.871 51.2734 707.391 51.2734C707.777 51.2734 708.107 51.1719 708.381 50.9688C708.654 50.7656 708.871 50.4414 709.031 49.9961ZM705.568 48.291H709.043C708.996 47.7676 708.863 47.375 708.645 47.1133C708.309 46.707 707.873 46.5039 707.338 46.5039C706.854 46.5039 706.445 46.666 706.113 46.9902C705.785 47.3145 705.604 47.748 705.568 48.291ZM713.754 51.0566L713.906 51.9883C713.609 52.0508 713.344 52.082 713.109 52.082C712.727 52.082 712.43 52.0215 712.219 51.9004C712.008 51.7793 711.859 51.6211 711.773 51.4258C711.688 51.2266 711.645 50.8105 711.645 50.1777V46.5977H710.871V45.7773H711.645V44.2363L712.693 43.6035V45.7773H713.754V46.5977H712.693V50.2363C712.693 50.5371 712.711 50.7305 712.746 50.8164C712.785 50.9023 712.846 50.9707 712.928 51.0215C713.014 51.0723 713.135 51.0977 713.291 51.0977C713.408 51.0977 713.562 51.084 713.754 51.0566ZM721.055 48.9883L722.191 49.2754C721.953 50.209 721.523 50.9219 720.902 51.4141C720.285 51.9023 719.529 52.1465 718.635 52.1465C717.709 52.1465 716.955 51.959 716.373 51.584C715.795 51.2051 715.354 50.6582 715.049 49.9434C714.748 49.2285 714.598 48.4609 714.598 47.6406C714.598 46.7461 714.768 45.9668 715.107 45.3027C715.451 44.6348 715.938 44.1289 716.566 43.7852C717.199 43.4375 717.895 43.2637 718.652 43.2637C719.512 43.2637 720.234 43.4824 720.82 43.9199C721.406 44.3574 721.814 44.9727 722.045 45.7656L720.926 46.0293C720.727 45.4043 720.438 44.9492 720.059 44.6641C719.68 44.3789 719.203 44.2363 718.629 44.2363C717.969 44.2363 717.416 44.3945 716.971 44.7109C716.529 45.0273 716.219 45.4531 716.039 45.9883C715.859 46.5195 715.77 47.0684 715.77 47.6348C715.77 48.3652 715.875 49.0039 716.086 49.5508C716.301 50.0938 716.633 50.5 717.082 50.7695C717.531 51.0391 718.018 51.1738 718.541 51.1738C719.178 51.1738 719.717 50.9902 720.158 50.623C720.6 50.2559 720.898 49.7109 721.055 48.9883ZM727.523 51.2324C727.133 51.5645 726.756 51.7988 726.393 51.9355C726.033 52.0723 725.646 52.1406 725.232 52.1406C724.549 52.1406 724.023 51.9746 723.656 51.6426C723.289 51.3066 723.105 50.8789 723.105 50.3594C723.105 50.0547 723.174 49.7773 723.311 49.5273C723.451 49.2734 723.633 49.0703 723.855 48.918C724.082 48.7656 724.336 48.6504 724.617 48.5723C724.824 48.5176 725.137 48.4648 725.555 48.4141C726.406 48.3125 727.033 48.1914 727.436 48.0508C727.439 47.9062 727.441 47.8145 727.441 47.7754C727.441 47.3457 727.342 47.043 727.143 46.8672C726.873 46.6289 726.473 46.5098 725.941 46.5098C725.445 46.5098 725.078 46.5977 724.84 46.7734C724.605 46.9453 724.432 47.252 724.318 47.6934L723.287 47.5527C723.381 47.1113 723.535 46.7559 723.75 46.4863C723.965 46.2129 724.275 46.0039 724.682 45.8594C725.088 45.7109 725.559 45.6367 726.094 45.6367C726.625 45.6367 727.057 45.6992 727.389 45.8242C727.721 45.9492 727.965 46.1074 728.121 46.2988C728.277 46.4863 728.387 46.7246 728.449 47.0137C728.484 47.1934 728.502 47.5176 728.502 47.9863V49.3926C728.502 50.373 728.523 50.9941 728.566 51.2559C728.613 51.5137 728.703 51.7617 728.836 52H727.734C727.625 51.7812 727.555 51.5254 727.523 51.2324ZM727.436 48.877C727.053 49.0332 726.479 49.166 725.713 49.2754C725.279 49.3379 724.973 49.4082 724.793 49.4863C724.613 49.5645 724.475 49.6797 724.377 49.832C724.279 49.9805 724.23 50.1465 724.23 50.3301C724.23 50.6113 724.336 50.8457 724.547 51.0332C724.762 51.2207 725.074 51.3145 725.484 51.3145C725.891 51.3145 726.252 51.2266 726.568 51.0508C726.885 50.8711 727.117 50.627 727.266 50.3184C727.379 50.0801 727.436 49.7285 727.436 49.2637V48.877ZM732.445 51.0566L732.598 51.9883C732.301 52.0508 732.035 52.082 731.801 52.082C731.418 52.082 731.121 52.0215 730.91 51.9004C730.699 51.7793 730.551 51.6211 730.465 51.4258C730.379 51.2266 730.336 50.8105 730.336 50.1777V46.5977H729.562V45.7773H730.336V44.2363L731.385 43.6035V45.7773H732.445V46.5977H731.385V50.2363C731.385 50.5371 731.402 50.7305 731.438 50.8164C731.477 50.9023 731.537 50.9707 731.619 51.0215C731.705 51.0723 731.826 51.0977 731.982 51.0977C732.1 51.0977 732.254 51.084 732.445 51.0566Z" fill="black"/>
<g clip-path="url(#clip1)">
<path fill-rule="evenodd" clip-rule="evenodd" d="M731.848 17.1573C731.166 10.6467 727.907 5.28499 722.905 2.52755L721.39 1.68499L720.253 2.98712C720.101 3.14031 719.116 4.44244 718.888 7.42967C715.933 6.51053 712.143 6.51053 709.187 7.42967C708.96 4.44244 707.975 3.14031 707.823 2.98712L706.611 1.6084L705.095 2.45095C700.017 5.28499 696.758 10.6467 696.076 17.1573C695.621 21.2935 696.91 25.1999 699.638 28.2637C706.914 36.4595 721.086 36.4595 728.362 28.2637C731.091 25.1999 732.303 21.2935 731.848 17.1573ZM725.103 25.2765C719.571 31.4807 708.354 31.4807 702.821 25.2765C700.926 23.1318 700.093 20.5275 700.396 17.6169C700.775 13.7105 702.366 10.3403 704.792 8.11904C704.867 8.8084 704.792 9.57436 704.716 10.5701L704.337 14.6297L707.899 12.6382C711.688 10.5701 716.16 10.5701 719.95 12.6382L723.512 14.6297L723.133 10.4935C723.057 9.49776 723.057 8.7318 723.057 8.04244C725.482 10.3403 727.074 13.6339 727.453 17.5403C727.832 20.5275 726.998 23.1318 725.103 25.2765Z" fill="#1F6D96"/>
</g>
<path d="M586.211 52V43.4102H587.922L589.955 49.4922C590.143 50.0586 590.279 50.4824 590.365 50.7637C590.463 50.4512 590.615 49.9922 590.822 49.3867L592.879 43.4102H594.408V52H593.312V44.8105L590.816 52H589.791L587.307 44.6875V52H586.211ZM595.715 48.8887C595.715 47.7363 596.035 46.8828 596.676 46.3281C597.211 45.8672 597.863 45.6367 598.633 45.6367C599.488 45.6367 600.188 45.918 600.73 46.4805C601.273 47.0391 601.545 47.8125 601.545 48.8008C601.545 49.6016 601.424 50.2324 601.182 50.6934C600.943 51.1504 600.594 51.5059 600.133 51.7598C599.676 52.0137 599.176 52.1406 598.633 52.1406C597.762 52.1406 597.057 51.8613 596.518 51.3027C595.982 50.7441 595.715 49.9395 595.715 48.8887ZM596.799 48.8887C596.799 49.6855 596.973 50.2832 597.32 50.6816C597.668 51.0762 598.105 51.2734 598.633 51.2734C599.156 51.2734 599.592 51.0742 599.939 50.6758C600.287 50.2773 600.461 49.6699 600.461 48.8535C600.461 48.084 600.285 47.502 599.934 47.1074C599.586 46.709 599.152 46.5098 598.633 46.5098C598.105 46.5098 597.668 46.707 597.32 47.1016C596.973 47.4961 596.799 48.0918 596.799 48.8887ZM606.824 52V51.2148C606.43 51.832 605.85 52.1406 605.084 52.1406C604.588 52.1406 604.131 52.0039 603.713 51.7305C603.299 51.457 602.977 51.0762 602.746 50.5879C602.52 50.0957 602.406 49.5312 602.406 48.8945C602.406 48.2734 602.51 47.7109 602.717 47.207C602.924 46.6992 603.234 46.3105 603.648 46.041C604.062 45.7715 604.525 45.6367 605.037 45.6367C605.412 45.6367 605.746 45.7168 606.039 45.877C606.332 46.0332 606.57 46.2383 606.754 46.4922V43.4102H607.803V52H606.824ZM603.49 48.8945C603.49 49.6914 603.658 50.2871 603.994 50.6816C604.33 51.0762 604.727 51.2734 605.184 51.2734C605.645 51.2734 606.035 51.0859 606.355 50.7109C606.68 50.332 606.842 49.7559 606.842 48.9824C606.842 48.1309 606.678 47.5059 606.35 47.1074C606.021 46.709 605.617 46.5098 605.137 46.5098C604.668 46.5098 604.275 46.7012 603.959 47.084C603.646 47.4668 603.49 48.0703 603.49 48.8945ZM608.729 52L612.051 47.5234L609.121 43.4102H610.475L612.033 45.6133C612.357 46.0703 612.588 46.4219 612.725 46.668C612.916 46.3555 613.143 46.0293 613.404 45.6895L615.133 43.4102H616.369L613.352 47.459L616.604 52H615.197L613.035 48.9355C612.914 48.7598 612.789 48.5684 612.66 48.3613C612.469 48.6738 612.332 48.8887 612.25 49.0059L610.094 52H608.729Z" fill="black"/>
<path d="M610.815 14.2468L617.484 3.44678H600.432L598.537 6.51061L610.815 14.2468Z" fill="#569CCE"/>
<path d="M586.789 0V17.234L590.427 19.5319L610.36 14.9362L586.789 0Z" fill="#9BC95D"/>
<path d="M613.695 36V18.766L610.739 16.8511L603.084 29.2596L613.695 36Z" fill="#E4473A"/>
<path d="M590.124 21.0639L583 32.5533H600.053L610.057 16.3916L590.124 21.0639Z" fill="#64B652"/>
<path d="M471.236 52V43.4102H474.195C474.863 43.4102 475.373 43.4512 475.725 43.5332C476.217 43.6465 476.637 43.8516 476.984 44.1484C477.438 44.5312 477.775 45.0215 477.998 45.6191C478.225 46.2129 478.338 46.8926 478.338 47.6582C478.338 48.3105 478.262 48.8887 478.109 49.3926C477.957 49.8965 477.762 50.3145 477.523 50.6465C477.285 50.9746 477.023 51.2344 476.738 51.4258C476.457 51.6133 476.115 51.7559 475.713 51.8535C475.314 51.9512 474.855 52 474.336 52H471.236ZM472.373 50.9863H474.207C474.773 50.9863 475.217 50.9336 475.537 50.8281C475.861 50.7227 476.119 50.5742 476.311 50.3828C476.58 50.1133 476.789 49.752 476.938 49.2988C477.09 48.8418 477.166 48.2891 477.166 47.6406C477.166 46.7422 477.018 46.0527 476.721 45.5723C476.428 45.0879 476.07 44.7637 475.648 44.5996C475.344 44.4824 474.854 44.4238 474.178 44.4238H472.373V50.9863ZM479.762 52V45.7773H480.711V46.7207C480.953 46.2793 481.176 45.9883 481.379 45.8477C481.586 45.707 481.812 45.6367 482.059 45.6367C482.414 45.6367 482.775 45.75 483.143 45.9766L482.779 46.9551C482.521 46.8027 482.264 46.7266 482.006 46.7266C481.775 46.7266 481.568 46.7969 481.385 46.9375C481.201 47.0742 481.07 47.2656 480.992 47.5117C480.875 47.8867 480.816 48.2969 480.816 48.7422V52H479.762ZM487.848 52V51.0859C487.363 51.7891 486.705 52.1406 485.873 52.1406C485.506 52.1406 485.162 52.0703 484.842 51.9297C484.525 51.7891 484.289 51.6133 484.133 51.4023C483.98 51.1875 483.873 50.9258 483.811 50.6172C483.768 50.4102 483.746 50.082 483.746 49.6328V45.7773H484.801V49.2285C484.801 49.7793 484.822 50.1504 484.865 50.3418C484.932 50.6191 485.072 50.8379 485.287 50.998C485.502 51.1543 485.768 51.2324 486.084 51.2324C486.4 51.2324 486.697 51.1523 486.975 50.9922C487.252 50.8281 487.447 50.6074 487.561 50.3301C487.678 50.0488 487.736 49.6426 487.736 49.1113V45.7773H488.791V52H487.848ZM490.449 54.3848V45.7773H491.41V46.5859C491.637 46.2695 491.893 46.0332 492.178 45.877C492.463 45.7168 492.809 45.6367 493.215 45.6367C493.746 45.6367 494.215 45.7734 494.621 46.0469C495.027 46.3203 495.334 46.707 495.541 47.207C495.748 47.7031 495.852 48.248 495.852 48.8418C495.852 49.4785 495.736 50.0527 495.506 50.5645C495.279 51.0723 494.947 51.4629 494.51 51.7363C494.076 52.0059 493.619 52.1406 493.139 52.1406C492.787 52.1406 492.471 52.0664 492.189 51.918C491.912 51.7695 491.684 51.582 491.504 51.3555V54.3848H490.449ZM491.404 48.9238C491.404 49.7246 491.566 50.3164 491.891 50.6992C492.215 51.082 492.607 51.2734 493.068 51.2734C493.537 51.2734 493.938 51.0762 494.27 50.6816C494.605 50.2832 494.773 49.668 494.773 48.8359C494.773 48.043 494.609 47.4492 494.281 47.0547C493.957 46.6602 493.568 46.4629 493.115 46.4629C492.666 46.4629 492.268 46.6738 491.92 47.0957C491.576 47.5137 491.404 48.123 491.404 48.9238ZM501.189 51.2324C500.799 51.5645 500.422 51.7988 500.059 51.9355C499.699 52.0723 499.312 52.1406 498.898 52.1406C498.215 52.1406 497.689 51.9746 497.322 51.6426C496.955 51.3066 496.771 50.8789 496.771 50.3594C496.771 50.0547 496.84 49.7773 496.977 49.5273C497.117 49.2734 497.299 49.0703 497.521 48.918C497.748 48.7656 498.002 48.6504 498.283 48.5723C498.49 48.5176 498.803 48.4648 499.221 48.4141C500.072 48.3125 500.699 48.1914 501.102 48.0508C501.105 47.9062 501.107 47.8145 501.107 47.7754C501.107 47.3457 501.008 47.043 500.809 46.8672C500.539 46.6289 500.139 46.5098 499.607 46.5098C499.111 46.5098 498.744 46.5977 498.506 46.7734C498.271 46.9453 498.098 47.252 497.984 47.6934L496.953 47.5527C497.047 47.1113 497.201 46.7559 497.416 46.4863C497.631 46.2129 497.941 46.0039 498.348 45.8594C498.754 45.7109 499.225 45.6367 499.76 45.6367C500.291 45.6367 500.723 45.6992 501.055 45.8242C501.387 45.9492 501.631 46.1074 501.787 46.2988C501.943 46.4863 502.053 46.7246 502.115 47.0137C502.15 47.1934 502.168 47.5176 502.168 47.9863V49.3926C502.168 50.373 502.189 50.9941 502.232 51.2559C502.279 51.5137 502.369 51.7617 502.502 52H501.4C501.291 51.7812 501.221 51.5254 501.189 51.2324ZM501.102 48.877C500.719 49.0332 500.145 49.166 499.379 49.2754C498.945 49.3379 498.639 49.4082 498.459 49.4863C498.279 49.5645 498.141 49.6797 498.043 49.832C497.945 49.9805 497.896 50.1465 497.896 50.3301C497.896 50.6113 498.002 50.8457 498.213 51.0332C498.428 51.2207 498.74 51.3145 499.15 51.3145C499.557 51.3145 499.918 51.2266 500.234 51.0508C500.551 50.8711 500.783 50.627 500.932 50.3184C501.045 50.0801 501.102 49.7285 501.102 49.2637V48.877ZM503.785 52V43.4102H504.84V52H503.785Z" fill="black"/>
<path d="M487.129 33.6159C490.273 33.6159 492.821 31.0897 492.821 27.9735C492.821 24.8573 490.273 22.3311 487.129 22.3311C483.985 22.3311 481.436 24.8573 481.436 27.9735C481.436 31.0897 483.985 33.6159 487.129 33.6159Z" fill="#2D63D7"/>
<path d="M494.184 21.2185C495.868 22.9669 496.91 25.351 496.91 27.9735C496.91 31.3113 495.227 34.2517 492.661 36C497.392 34.5695 501.32 31.0728 503.004 26.7815C505.41 20.9007 503.165 16.4503 499.396 12.4768C499.476 13.0331 499.556 13.5099 499.556 14.0662C499.637 17.404 497.392 20.2649 494.184 21.2185Z" fill="#2D63D7"/>
<path d="M492.1 18.3576C494.535 18.3576 496.51 16.4007 496.51 13.9868C496.51 11.5728 494.535 9.6159 492.1 9.6159C489.664 9.6159 487.69 11.5728 487.69 13.9868C487.69 16.4007 489.664 18.3576 492.1 18.3576Z" fill="#2D63D7"/>
<path d="M479.592 34.2517C478.148 32.5828 477.266 30.3576 477.266 27.9735C477.266 22.9669 481.035 18.8344 485.926 18.2781C485.124 17.0861 484.563 15.5762 484.563 14.0662C484.563 9.93377 487.93 6.59603 492.1 6.59603C492.42 6.59603 492.741 6.59603 493.142 6.6755C490.656 4.5298 488.251 2.38411 486.247 0C487.289 10.2517 476.865 6.51656 473.017 15.9735C470.451 22.3311 472.776 30.1192 479.592 34.2517Z" fill="#2D63D7"/>
<path d="M349.547 47.8164C349.547 46.3906 349.93 45.2754 350.695 44.4707C351.461 43.6621 352.449 43.2578 353.66 43.2578C354.453 43.2578 355.168 43.4473 355.805 43.8262C356.441 44.2051 356.926 44.7344 357.258 45.4141C357.594 46.0898 357.762 46.8574 357.762 47.7168C357.762 48.5879 357.586 49.3672 357.234 50.0547C356.883 50.7422 356.385 51.2637 355.74 51.6191C355.096 51.9707 354.4 52.1465 353.654 52.1465C352.846 52.1465 352.123 51.9512 351.486 51.5605C350.85 51.1699 350.367 50.6367 350.039 49.9609C349.711 49.2852 349.547 48.5703 349.547 47.8164ZM350.719 47.834C350.719 48.8691 350.996 49.6855 351.551 50.2832C352.109 50.877 352.809 51.1738 353.648 51.1738C354.504 51.1738 355.207 50.873 355.758 50.2715C356.312 49.6699 356.59 48.8164 356.59 47.7109C356.59 47.0117 356.471 46.4023 356.232 45.8828C355.998 45.3594 355.652 44.9551 355.195 44.6699C354.742 44.3809 354.232 44.2363 353.666 44.2363C352.861 44.2363 352.168 44.5137 351.586 45.0684C351.008 45.6191 350.719 46.541 350.719 47.834ZM359.098 54.3848V45.7773H360.059V46.5859C360.285 46.2695 360.541 46.0332 360.826 45.877C361.111 45.7168 361.457 45.6367 361.863 45.6367C362.395 45.6367 362.863 45.7734 363.27 46.0469C363.676 46.3203 363.982 46.707 364.189 47.207C364.396 47.7031 364.5 48.248 364.5 48.8418C364.5 49.4785 364.385 50.0527 364.154 50.5645C363.928 51.0723 363.596 51.4629 363.158 51.7363C362.725 52.0059 362.268 52.1406 361.787 52.1406C361.436 52.1406 361.119 52.0664 360.838 51.918C360.561 51.7695 360.332 51.582 360.152 51.3555V54.3848H359.098ZM360.053 48.9238C360.053 49.7246 360.215 50.3164 360.539 50.6992C360.863 51.082 361.256 51.2734 361.717 51.2734C362.186 51.2734 362.586 51.0762 362.918 50.6816C363.254 50.2832 363.422 49.668 363.422 48.8359C363.422 48.043 363.258 47.4492 362.93 47.0547C362.605 46.6602 362.217 46.4629 361.764 46.4629C361.314 46.4629 360.916 46.6738 360.568 47.0957C360.225 47.5137 360.053 48.123 360.053 48.9238ZM370.037 49.9961L371.127 50.1309C370.955 50.7676 370.637 51.2617 370.172 51.6133C369.707 51.9648 369.113 52.1406 368.391 52.1406C367.48 52.1406 366.758 51.8613 366.223 51.3027C365.691 50.7402 365.426 49.9531 365.426 48.9414C365.426 47.8945 365.695 47.082 366.234 46.5039C366.773 45.9258 367.473 45.6367 368.332 45.6367C369.164 45.6367 369.844 45.9199 370.371 46.4863C370.898 47.0527 371.162 47.8496 371.162 48.877C371.162 48.9395 371.16 49.0332 371.156 49.1582H366.516C366.555 49.8418 366.748 50.3652 367.096 50.7285C367.443 51.0918 367.877 51.2734 368.396 51.2734C368.783 51.2734 369.113 51.1719 369.387 50.9688C369.66 50.7656 369.877 50.4414 370.037 49.9961ZM366.574 48.291H370.049C370.002 47.7676 369.869 47.375 369.65 47.1133C369.314 46.707 368.879 46.5039 368.344 46.5039C367.859 46.5039 367.451 46.666 367.119 46.9902C366.791 47.3145 366.609 47.748 366.574 48.291ZM372.457 52V45.7773H373.406V46.6621C373.863 45.9785 374.523 45.6367 375.387 45.6367C375.762 45.6367 376.105 45.7051 376.418 45.8418C376.734 45.9746 376.971 46.1504 377.127 46.3691C377.283 46.5879 377.393 46.8477 377.455 47.1484C377.494 47.3438 377.514 47.6855 377.514 48.1738V52H376.459V48.2148C376.459 47.7852 376.418 47.4648 376.336 47.2539C376.254 47.0391 376.107 46.8691 375.896 46.7441C375.689 46.6152 375.445 46.5508 375.164 46.5508C374.715 46.5508 374.326 46.6934 373.998 46.9785C373.674 47.2637 373.512 47.8047 373.512 48.6016V52H372.457ZM385.4 48.9883L386.537 49.2754C386.299 50.209 385.869 50.9219 385.248 51.4141C384.631 51.9023 383.875 52.1465 382.98 52.1465C382.055 52.1465 381.301 51.959 380.719 51.584C380.141 51.2051 379.699 50.6582 379.395 49.9434C379.094 49.2285 378.943 48.4609 378.943 47.6406C378.943 46.7461 379.113 45.9668 379.453 45.3027C379.797 44.6348 380.283 44.1289 380.912 43.7852C381.545 43.4375 382.24 43.2637 382.998 43.2637C383.857 43.2637 384.58 43.4824 385.166 43.9199C385.752 44.3574 386.16 44.9727 386.391 45.7656L385.271 46.0293C385.072 45.4043 384.783 44.9492 384.404 44.6641C384.025 44.3789 383.549 44.2363 382.975 44.2363C382.314 44.2363 381.762 44.3945 381.316 44.7109C380.875 45.0273 380.564 45.4531 380.385 45.9883C380.205 46.5195 380.115 47.0684 380.115 47.6348C380.115 48.3652 380.221 49.0039 380.432 49.5508C380.646 50.0938 380.979 50.5 381.428 50.7695C381.877 51.0391 382.363 51.1738 382.887 51.1738C383.523 51.1738 384.062 50.9902 384.504 50.623C384.945 50.2559 385.244 49.7109 385.4 48.9883ZM391.869 51.2324C391.479 51.5645 391.102 51.7988 390.738 51.9355C390.379 52.0723 389.992 52.1406 389.578 52.1406C388.895 52.1406 388.369 51.9746 388.002 51.6426C387.635 51.3066 387.451 50.8789 387.451 50.3594C387.451 50.0547 387.52 49.7773 387.656 49.5273C387.797 49.2734 387.979 49.0703 388.201 48.918C388.428 48.7656 388.682 48.6504 388.963 48.5723C389.17 48.5176 389.482 48.4648 389.9 48.4141C390.752 48.3125 391.379 48.1914 391.781 48.0508C391.785 47.9062 391.787 47.8145 391.787 47.7754C391.787 47.3457 391.688 47.043 391.488 46.8672C391.219 46.6289 390.818 46.5098 390.287 46.5098C389.791 46.5098 389.424 46.5977 389.186 46.7734C388.951 46.9453 388.777 47.252 388.664 47.6934L387.633 47.5527C387.727 47.1113 387.881 46.7559 388.096 46.4863C388.311 46.2129 388.621 46.0039 389.027 45.8594C389.434 45.7109 389.904 45.6367 390.439 45.6367C390.971 45.6367 391.402 45.6992 391.734 45.8242C392.066 45.9492 392.311 46.1074 392.467 46.2988C392.623 46.4863 392.732 46.7246 392.795 47.0137C392.83 47.1934 392.848 47.5176 392.848 47.9863V49.3926C392.848 50.373 392.869 50.9941 392.912 51.2559C392.959 51.5137 393.049 51.7617 393.182 52H392.08C391.971 51.7812 391.9 51.5254 391.869 51.2324ZM391.781 48.877C391.398 49.0332 390.824 49.166 390.059 49.2754C389.625 49.3379 389.318 49.4082 389.139 49.4863C388.959 49.5645 388.82 49.6797 388.723 49.832C388.625 49.9805 388.576 50.1465 388.576 50.3301C388.576 50.6113 388.682 50.8457 388.893 51.0332C389.107 51.2207 389.42 51.3145 389.83 51.3145C390.236 51.3145 390.598 51.2266 390.914 51.0508C391.23 50.8711 391.463 50.627 391.611 50.3184C391.725 50.0801 391.781 49.7285 391.781 49.2637V48.877ZM394.477 52V45.7773H395.426V46.7207C395.668 46.2793 395.891 45.9883 396.094 45.8477C396.301 45.707 396.527 45.6367 396.773 45.6367C397.129 45.6367 397.49 45.75 397.857 45.9766L397.494 46.9551C397.236 46.8027 396.979 46.7266 396.721 46.7266C396.49 46.7266 396.283 46.7969 396.1 46.9375C395.916 47.0742 395.785 47.2656 395.707 47.5117C395.59 47.8867 395.531 48.2969 395.531 48.7422V52H394.477ZM400.787 51.0566L400.939 51.9883C400.643 52.0508 400.377 52.082 400.143 52.082C399.76 52.082 399.463 52.0215 399.252 51.9004C399.041 51.7793 398.893 51.6211 398.807 51.4258C398.721 51.2266 398.678 50.8105 398.678 50.1777V46.5977H397.904V45.7773H398.678V44.2363L399.727 43.6035V45.7773H400.787V46.5977H399.727V50.2363C399.727 50.5371 399.744 50.7305 399.779 50.8164C399.818 50.9023 399.879 50.9707 399.961 51.0215C400.047 51.0723 400.168 51.0977 400.324 51.0977C400.441 51.0977 400.596 51.084 400.787 51.0566Z" fill="black"/>
<path fill-rule="evenodd" clip-rule="evenodd" d="M393 18C393 27.9411 384.941 36 375 36C365.059 36 357 27.9411 357 18C357 8.05888 365.059 0 375 0C384.941 0 393 8.05888 393 18ZM379.656 21.9981C380.212 21.5392 381.912 20.1002 383.885 18.2434C384.195 17.9508 384.539 17.6512 384.883 17.3501C386.581 15.8677 388.304 14.4499 386.5 13.5C385.39 12.9158 382.776 12.4832 379.5 12.5C376.367 12.516 372.641 12.8757 369.482 12.3762C365.824 11.9446 363.93 10.2989 363.058 9.54107C362.912 9.41395 362.794 9.31183 362.702 9.24461C362.725 9.283 362.749 9.32281 362.773 9.36309C363.7 10.9157 365.164 13.9809 371 14.5C373.323 14.7066 375.77 14.5825 377.655 14.6153C381.189 14.6769 383.485 14.8968 384 16C384.165 16.6272 382.941 18.015 381.639 19.4341C380.605 20.5602 379.656 21.5951 379.656 21.9981ZM369.129 27.0928C370.126 27.0928 370.934 26.2846 370.934 25.2877C370.934 24.2908 370.126 23.4827 369.129 23.4827C368.132 23.4827 367.324 24.2908 367.324 25.2877C367.324 26.2846 368.132 27.0928 369.129 27.0928ZM376.822 27.0928C377.819 27.0928 378.627 26.2846 378.627 25.2877C378.627 24.2908 377.819 23.4827 376.822 23.4827C375.825 23.4827 375.017 24.2908 375.017 25.2877C375.017 26.2846 375.825 27.0928 376.822 27.0928Z" fill="#29B6F6"/>
<g clip-path="url(#clip2)">
<path d="M250.488 18.1978L249.776 17.4857C247.64 15.3495 246.927 12.2637 247.798 9.57363C245.662 9.01978 244 7.12088 244 4.82637C244 2.13626 246.215 0 248.826 0C251.2 0 253.178 1.74066 253.574 4.03516C256.185 3.4022 259.033 4.11429 261.011 6.17143L261.248 6.40879L257.688 9.96923L257.451 9.65275C256.264 8.46593 254.444 8.46593 253.257 9.65275C252.07 10.8396 252.07 12.6593 253.257 13.8462L253.969 14.5582L257.53 18.1187L261.327 21.9165L257.767 25.4769L253.969 21.6791L250.488 18.1978Z" fill="#5EA131"/>
<path d="M254.444 14.1627L258.242 10.3649L261.802 6.80443L262.514 6.09235C264.651 3.95608 267.736 3.24399 270.426 4.0352C270.743 1.66158 272.8 -0.158203 275.174 -0.158203C277.864 -0.158203 280 1.97806 280 4.66817C280 7.12092 278.18 9.09894 275.807 9.41542C276.598 12.1055 275.886 15.1121 273.749 17.2484L273.512 17.5649L269.952 14.0044L270.189 13.7671C271.376 12.5803 271.376 10.7605 270.189 9.57366C269.002 8.38685 267.182 8.38685 265.996 9.57366L265.363 10.444L261.802 14.0044L258.004 17.8022L254.444 14.1627Z" fill="#EF8C3F"/>
<path d="M270.506 32.1231C267.736 32.9934 264.651 32.2814 262.514 30.1451L262.198 29.9077L265.758 26.3473L265.996 26.5847C267.182 27.7715 269.002 27.7715 270.189 26.5847C271.376 25.3978 271.376 23.5781 270.189 22.3912L269.477 21.6792L265.916 18.1978L262.198 14.4L265.758 10.8396L269.477 14.5583L273.037 18.1187L273.749 18.8308C275.807 20.8879 276.519 23.7363 275.886 26.3473C278.259 26.6638 280 28.7209 280 31.0945C280 33.7847 277.864 35.9209 275.174 35.9209C272.879 36 270.901 34.3385 270.506 32.1231Z" fill="#E33E39"/>
<path d="M269.081 22.1539L265.363 25.8726L261.802 29.4331L261.09 30.1452C259.033 32.2023 256.105 32.9144 253.495 32.2814C253.02 34.4177 251.121 36.0001 248.826 36.0001C246.136 36.0001 244 33.8638 244 31.1737C244 28.8792 245.582 26.9803 247.719 26.5056C247.007 23.8946 247.719 20.9671 249.776 18.91L250.013 18.6726L253.574 22.2331L253.336 22.4704C252.149 23.6572 252.149 25.477 253.336 26.6638C254.523 27.8506 256.343 27.8506 257.53 26.6638L258.242 25.9517L261.802 22.3913L265.521 18.5935L269.081 22.1539Z" fill="#2A6DAB"/>
</g>
<path d="M242.992 49.5625L244.018 49.4219C244.045 50.0781 244.168 50.5273 244.387 50.7695C244.605 51.0117 244.908 51.1328 245.295 51.1328C245.58 51.1328 245.826 51.0684 246.033 50.9395C246.24 50.8066 246.383 50.6289 246.461 50.4062C246.539 50.1797 246.578 49.8203 246.578 49.3281V43.4102H247.715V49.2637C247.715 49.9824 247.627 50.5391 247.451 50.9336C247.279 51.3281 247.004 51.6289 246.625 51.8359C246.25 52.043 245.809 52.1465 245.301 52.1465C244.547 52.1465 243.969 51.9297 243.566 51.4961C243.168 51.0625 242.977 50.418 242.992 49.5625ZM249.045 48.8887C249.045 47.7363 249.365 46.8828 250.006 46.3281C250.541 45.8672 251.193 45.6367 251.963 45.6367C252.818 45.6367 253.518 45.918 254.061 46.4805C254.604 47.0391 254.875 47.8125 254.875 48.8008C254.875 49.6016 254.754 50.2324 254.512 50.6934C254.273 51.1504 253.924 51.5059 253.463 51.7598C253.006 52.0137 252.506 52.1406 251.963 52.1406C251.092 52.1406 250.387 51.8613 249.848 51.3027C249.312 50.7441 249.045 49.9395 249.045 48.8887ZM250.129 48.8887C250.129 49.6855 250.303 50.2832 250.65 50.6816C250.998 51.0762 251.436 51.2734 251.963 51.2734C252.486 51.2734 252.922 51.0742 253.27 50.6758C253.617 50.2773 253.791 49.6699 253.791 48.8535C253.791 48.084 253.615 47.502 253.264 47.1074C252.916 46.709 252.482 46.5098 251.963 46.5098C251.436 46.5098 250.998 46.707 250.65 47.1016C250.303 47.4961 250.129 48.0918 250.129 48.8887ZM255.725 48.8887C255.725 47.7363 256.045 46.8828 256.686 46.3281C257.221 45.8672 257.873 45.6367 258.643 45.6367C259.498 45.6367 260.197 45.918 260.74 46.4805C261.283 47.0391 261.555 47.8125 261.555 48.8008C261.555 49.6016 261.434 50.2324 261.191 50.6934C260.953 51.1504 260.604 51.5059 260.143 51.7598C259.686 52.0137 259.186 52.1406 258.643 52.1406C257.771 52.1406 257.066 51.8613 256.527 51.3027C255.992 50.7441 255.725 49.9395 255.725 48.8887ZM256.809 48.8887C256.809 49.6855 256.982 50.2832 257.33 50.6816C257.678 51.0762 258.115 51.2734 258.643 51.2734C259.166 51.2734 259.602 51.0742 259.949 50.6758C260.297 50.2773 260.471 49.6699 260.471 48.8535C260.471 48.084 260.295 47.502 259.943 47.1074C259.596 46.709 259.162 46.5098 258.643 46.5098C258.115 46.5098 257.678 46.707 257.33 47.1016C256.982 47.4961 256.809 48.0918 256.809 48.8887ZM262.797 52V45.7773H263.74V46.6504C263.936 46.3457 264.195 46.1016 264.52 45.918C264.844 45.7305 265.213 45.6367 265.627 45.6367C266.088 45.6367 266.465 45.7324 266.758 45.9238C267.055 46.1152 267.264 46.3828 267.385 46.7266C267.877 46 268.518 45.6367 269.307 45.6367C269.924 45.6367 270.398 45.8086 270.73 46.1523C271.062 46.4922 271.229 47.0176 271.229 47.7285V52H270.18V48.0801C270.18 47.6582 270.145 47.3555 270.074 47.1719C270.008 46.9844 269.885 46.834 269.705 46.7207C269.525 46.6074 269.314 46.5508 269.072 46.5508C268.635 46.5508 268.271 46.6973 267.982 46.9902C267.693 47.2793 267.549 47.7441 267.549 48.3848V52H266.494V47.957C266.494 47.4883 266.408 47.1367 266.236 46.9023C266.064 46.668 265.783 46.5508 265.393 46.5508C265.096 46.5508 264.82 46.6289 264.566 46.7852C264.316 46.9414 264.135 47.1699 264.021 47.4707C263.908 47.7715 263.852 48.2051 263.852 48.7715V52H262.797ZM272.77 52V43.4102H273.824V52H272.77ZM279.525 51.2324C279.135 51.5645 278.758 51.7988 278.395 51.9355C278.035 52.0723 277.648 52.1406 277.234 52.1406C276.551 52.1406 276.025 51.9746 275.658 51.6426C275.291 51.3066 275.107 50.8789 275.107 50.3594C275.107 50.0547 275.176 49.7773 275.312 49.5273C275.453 49.2734 275.635 49.0703 275.857 48.918C276.084 48.7656 276.338 48.6504 276.619 48.5723C276.826 48.5176 277.139 48.4648 277.557 48.4141C278.408 48.3125 279.035 48.1914 279.438 48.0508C279.441 47.9062 279.443 47.8145 279.443 47.7754C279.443 47.3457 279.344 47.043 279.145 46.8672C278.875 46.6289 278.475 46.5098 277.943 46.5098C277.447 46.5098 277.08 46.5977 276.842 46.7734C276.607 46.9453 276.434 47.252 276.32 47.6934L275.289 47.5527C275.383 47.1113 275.537 46.7559 275.752 46.4863C275.967 46.2129 276.277 46.0039 276.684 45.8594C277.09 45.7109 277.561 45.6367 278.096 45.6367C278.627 45.6367 279.059 45.6992 279.391 45.8242C279.723 45.9492 279.967 46.1074 280.123 46.2988C280.279 46.4863 280.389 46.7246 280.451 47.0137C280.486 47.1934 280.504 47.5176 280.504 47.9863V49.3926C280.504 50.373 280.525 50.9941 280.568 51.2559C280.615 51.5137 280.705 51.7617 280.838 52H279.736C279.627 51.7812 279.557 51.5254 279.525 51.2324ZM279.438 48.877C279.055 49.0332 278.48 49.166 277.715 49.2754C277.281 49.3379 276.975 49.4082 276.795 49.4863C276.615 49.5645 276.477 49.6797 276.379 49.832C276.281 49.9805 276.232 50.1465 276.232 50.3301C276.232 50.6113 276.338 50.8457 276.549 51.0332C276.764 51.2207 277.076 51.3145 277.486 51.3145C277.893 51.3145 278.254 51.2266 278.57 51.0508C278.887 50.8711 279.119 50.627 279.268 50.3184C279.381 50.0801 279.438 49.7285 279.438 49.2637V48.877Z" fill="black"/>
<path d="M122.516 52L120.236 43.4102H121.402L122.709 49.041C122.85 49.6309 122.971 50.2168 123.072 50.7988C123.291 49.8809 123.42 49.3516 123.459 49.2109L125.094 43.4102H126.465L127.695 47.7578C128.004 48.8359 128.227 49.8496 128.363 50.7988C128.473 50.2559 128.615 49.6328 128.791 48.9297L130.139 43.4102H131.281L128.926 52H127.83L126.02 45.4551C125.867 44.9082 125.777 44.5723 125.75 44.4473C125.66 44.8418 125.576 45.1777 125.498 45.4551L123.676 52H122.516ZM131.598 48.8887C131.598 47.7363 131.918 46.8828 132.559 46.3281C133.094 45.8672 133.746 45.6367 134.516 45.6367C135.371 45.6367 136.07 45.918 136.613 46.4805C137.156 47.0391 137.428 47.8125 137.428 48.8008C137.428 49.6016 137.307 50.2324 137.064 50.6934C136.826 51.1504 136.477 51.5059 136.016 51.7598C135.559 52.0137 135.059 52.1406 134.516 52.1406C133.645 52.1406 132.939 51.8613 132.4 51.3027C131.865 50.7441 131.598 49.9395 131.598 48.8887ZM132.682 48.8887C132.682 49.6855 132.855 50.2832 133.203 50.6816C133.551 51.0762 133.988 51.2734 134.516 51.2734C135.039 51.2734 135.475 51.0742 135.822 50.6758C136.17 50.2773 136.344 49.6699 136.344 48.8535C136.344 48.084 136.168 47.502 135.816 47.1074C135.469 46.709 135.035 46.5098 134.516 46.5098C133.988 46.5098 133.551 46.707 133.203 47.1016C132.855 47.4961 132.682 48.0918 132.682 48.8887ZM138.658 52V45.7773H139.607V46.7207C139.85 46.2793 140.072 45.9883 140.275 45.8477C140.482 45.707 140.709 45.6367 140.955 45.6367C141.311 45.6367 141.672 45.75 142.039 45.9766L141.676 46.9551C141.418 46.8027 141.16 46.7266 140.902 46.7266C140.672 46.7266 140.465 46.7969 140.281 46.9375C140.098 47.0742 139.967 47.2656 139.889 47.5117C139.771 47.8867 139.713 48.2969 139.713 48.7422V52H138.658ZM146.703 52V51.2148C146.309 51.832 145.729 52.1406 144.963 52.1406C144.467 52.1406 144.01 52.0039 143.592 51.7305C143.178 51.457 142.855 51.0762 142.625 50.5879C142.398 50.0957 142.285 49.5312 142.285 48.8945C142.285 48.2734 142.389 47.7109 142.596 47.207C142.803 46.6992 143.113 46.3105 143.527 46.041C143.941 45.7715 144.404 45.6367 144.916 45.6367C145.291 45.6367 145.625 45.7168 145.918 45.877C146.211 46.0332 146.449 46.2383 146.633 46.4922V43.4102H147.682V52H146.703ZM143.369 48.8945C143.369 49.6914 143.537 50.2871 143.873 50.6816C144.209 51.0762 144.605 51.2734 145.062 51.2734C145.523 51.2734 145.914 51.0859 146.234 50.7109C146.559 50.332 146.721 49.7559 146.721 48.9824C146.721 48.1309 146.557 47.5059 146.229 47.1074C145.9 46.709 145.496 46.5098 145.016 46.5098C144.547 46.5098 144.154 46.7012 143.838 47.084C143.525 47.4668 143.369 48.0703 143.369 48.8945ZM149.346 54.3848V45.7773H150.307V46.5859C150.533 46.2695 150.789 46.0332 151.074 45.877C151.359 45.7168 151.705 45.6367 152.111 45.6367C152.643 45.6367 153.111 45.7734 153.518 46.0469C153.924 46.3203 154.23 46.707 154.438 47.207C154.645 47.7031 154.748 48.248 154.748 48.8418C154.748 49.4785 154.633 50.0527 154.402 50.5645C154.176 51.0723 153.844 51.4629 153.406 51.7363C152.973 52.0059 152.516 52.1406 152.035 52.1406C151.684 52.1406 151.367 52.0664 151.086 51.918C150.809 51.7695 150.58 51.582 150.4 51.3555V54.3848H149.346ZM150.301 48.9238C150.301 49.7246 150.463 50.3164 150.787 50.6992C151.111 51.082 151.504 51.2734 151.965 51.2734C152.434 51.2734 152.834 51.0762 153.166 50.6816C153.502 50.2832 153.67 49.668 153.67 48.8359C153.67 48.043 153.506 47.4492 153.178 47.0547C152.854 46.6602 152.465 46.4629 152.012 46.4629C151.562 46.4629 151.164 46.6738 150.816 47.0957C150.473 47.5137 150.301 48.123 150.301 48.9238ZM156.014 52V45.7773H156.963V46.7207C157.205 46.2793 157.428 45.9883 157.631 45.8477C157.838 45.707 158.064 45.6367 158.311 45.6367C158.666 45.6367 159.027 45.75 159.395 45.9766L159.031 46.9551C158.773 46.8027 158.516 46.7266 158.258 46.7266C158.027 46.7266 157.82 46.7969 157.637 46.9375C157.453 47.0742 157.322 47.2656 157.244 47.5117C157.127 47.8867 157.068 48.2969 157.068 48.7422V52H156.014ZM164.281 49.9961L165.371 50.1309C165.199 50.7676 164.881 51.2617 164.416 51.6133C163.951 51.9648 163.357 52.1406 162.635 52.1406C161.725 52.1406 161.002 51.8613 160.467 51.3027C159.936 50.7402 159.67 49.9531 159.67 48.9414C159.67 47.8945 159.939 47.082 160.479 46.5039C161.018 45.9258 161.717 45.6367 162.576 45.6367C163.408 45.6367 164.088 45.9199 164.615 46.4863C165.143 47.0527 165.406 47.8496 165.406 48.877C165.406 48.9395 165.404 49.0332 165.4 49.1582H160.76C160.799 49.8418 160.992 50.3652 161.34 50.7285C161.688 51.0918 162.121 51.2734 162.641 51.2734C163.027 51.2734 163.357 51.1719 163.631 50.9688C163.904 50.7656 164.121 50.4414 164.281 49.9961ZM160.818 48.291H164.293C164.246 47.7676 164.113 47.375 163.895 47.1133C163.559 46.707 163.123 46.5039 162.588 46.5039C162.104 46.5039 161.695 46.666 161.363 46.9902C161.035 47.3145 160.854 47.748 160.818 48.291ZM166.279 50.1426L167.322 49.9785C167.381 50.3965 167.543 50.7168 167.809 50.9395C168.078 51.1621 168.453 51.2734 168.934 51.2734C169.418 51.2734 169.777 51.1758 170.012 50.9805C170.246 50.7812 170.363 50.5488 170.363 50.2832C170.363 50.0449 170.26 49.8574 170.053 49.7207C169.908 49.627 169.549 49.5078 168.975 49.3633C168.201 49.168 167.664 49 167.363 48.8594C167.066 48.7148 166.84 48.5176 166.684 48.2676C166.531 48.0137 166.455 47.7344 166.455 47.4297C166.455 47.1523 166.518 46.8965 166.643 46.6621C166.771 46.4238 166.945 46.2266 167.164 46.0703C167.328 45.9492 167.551 45.8477 167.832 45.7656C168.117 45.6797 168.422 45.6367 168.746 45.6367C169.234 45.6367 169.662 45.707 170.029 45.8477C170.4 45.9883 170.674 46.1797 170.85 46.4219C171.025 46.6602 171.146 46.9805 171.213 47.3828L170.182 47.5234C170.135 47.2031 169.998 46.9531 169.771 46.7734C169.549 46.5938 169.232 46.5039 168.822 46.5039C168.338 46.5039 167.992 46.584 167.785 46.7441C167.578 46.9043 167.475 47.0918 167.475 47.3066C167.475 47.4434 167.518 47.5664 167.604 47.6758C167.689 47.7891 167.824 47.8828 168.008 47.957C168.113 47.9961 168.424 48.0859 168.939 48.2266C169.686 48.4258 170.205 48.5898 170.498 48.7188C170.795 48.8438 171.027 49.0273 171.195 49.2695C171.363 49.5117 171.447 49.8125 171.447 50.1719C171.447 50.5234 171.344 50.8555 171.137 51.168C170.934 51.4766 170.639 51.7168 170.252 51.8887C169.865 52.0566 169.428 52.1406 168.939 52.1406C168.131 52.1406 167.514 51.9727 167.088 51.6367C166.666 51.3008 166.396 50.8027 166.279 50.1426ZM172.279 50.1426L173.322 49.9785C173.381 50.3965 173.543 50.7168 173.809 50.9395C174.078 51.1621 174.453 51.2734 174.934 51.2734C175.418 51.2734 175.777 51.1758 176.012 50.9805C176.246 50.7812 176.363 50.5488 176.363 50.2832C176.363 50.0449 176.26 49.8574 176.053 49.7207C175.908 49.627 175.549 49.5078 174.975 49.3633C174.201 49.168 173.664 49 173.363 48.8594C173.066 48.7148 172.84 48.5176 172.684 48.2676C172.531 48.0137 172.455 47.7344 172.455 47.4297C172.455 47.1523 172.518 46.8965 172.643 46.6621C172.771 46.4238 172.945 46.2266 173.164 46.0703C173.328 45.9492 173.551 45.8477 173.832 45.7656C174.117 45.6797 174.422 45.6367 174.746 45.6367C175.234 45.6367 175.662 45.707 176.029 45.8477C176.4 45.9883 176.674 46.1797 176.85 46.4219C177.025 46.6602 177.146 46.9805 177.213 47.3828L176.182 47.5234C176.135 47.2031 175.998 46.9531 175.771 46.7734C175.549 46.5938 175.232 46.5039 174.822 46.5039C174.338 46.5039 173.992 46.584 173.785 46.7441C173.578 46.9043 173.475 47.0918 173.475 47.3066C173.475 47.4434 173.518 47.5664 173.604 47.6758C173.689 47.7891 173.824 47.8828 174.008 47.957C174.113 47.9961 174.424 48.0859 174.939 48.2266C175.686 48.4258 176.205 48.5898 176.498 48.7188C176.795 48.8438 177.027 49.0273 177.195 49.2695C177.363 49.5117 177.447 49.8125 177.447 50.1719C177.447 50.5234 177.344 50.8555 177.137 51.168C176.934 51.4766 176.639 51.7168 176.252 51.8887C175.865 52.0566 175.428 52.1406 174.939 52.1406C174.131 52.1406 173.514 51.9727 173.088 51.6367C172.666 51.3008 172.396 50.8027 172.279 50.1426Z" fill="black"/>
<g clip-path="url(#clip3)">
<path d="M149.039 0C158.929 0.0791209 167.158 8.07033 166.999 18.356C166.841 28.0879 158.929 36 148.96 36C139.07 36 130.841 27.9297 130.999 17.644C131.158 7.91209 139.07 0.0791209 149.039 0ZM159.879 6.01319V5.93407C155.448 2.13626 150.305 0.791209 144.608 2.37363C140.731 3.4022 137.725 5.6967 135.43 9.0989C135.588 9.0989 135.668 9.17802 135.747 9.17802C137.013 9.0989 138.358 9.0989 139.624 9.01978C140.019 9.01978 140.494 8.94066 140.89 8.94066C141.285 8.94066 141.522 9.17802 141.522 9.49451C141.522 9.89011 141.364 10.1275 140.969 10.1275C140.731 10.1275 140.573 10.2066 140.336 10.2066C139.94 10.2857 139.544 10.2857 139.07 10.3648C141.048 16.2198 143.026 22.0747 145.004 27.9297H145.083C145.083 27.8505 145.162 27.8505 145.162 27.7714C146.27 24.3692 147.457 20.967 148.564 17.5648C148.643 17.4066 148.564 17.2484 148.564 17.0901C147.773 14.9538 146.982 12.8176 146.191 10.6813C146.111 10.444 145.953 10.3648 145.716 10.3648C145.241 10.3648 144.766 10.2857 144.292 10.2066C144.133 10.2066 143.896 9.96923 143.817 9.81099C143.659 9.33626 143.975 9.01978 144.45 9.01978C144.766 9.01978 145.083 9.0989 145.32 9.0989C145.953 9.17802 146.586 9.17802 147.219 9.17802C148.248 9.17802 149.276 9.17802 150.305 9.17802C151.254 9.17802 152.125 9.0989 152.995 9.01978C153.391 9.01978 153.628 9.25714 153.628 9.57363C153.628 9.89011 153.391 10.1275 153.074 10.2066C152.599 10.2857 152.125 10.2857 151.65 10.3648C151.175 10.3648 151.175 10.3648 151.333 10.8396C153.232 16.378 155.052 21.9165 156.951 27.4549C156.951 27.5341 157.03 27.6923 157.109 27.7714C157.268 27.6132 157.347 27.3758 157.347 27.2176C157.98 25.2396 158.533 23.2615 159.166 21.2835C159.562 20.0967 159.879 18.989 159.958 17.7231C160.116 16.2989 159.799 14.8747 159.166 13.6088C158.692 12.7385 158.217 11.9473 157.742 11.0769C157.268 10.2066 156.951 9.33626 157.109 8.38681C157.268 7.35824 158.059 6.40879 159.087 6.17143C159.325 6.09231 159.641 6.09231 159.879 6.01319ZM149.355 19.4637H149.276C149.197 19.5429 149.197 19.622 149.118 19.7011C147.615 24.211 146.032 28.7209 144.45 33.2308C144.371 33.5473 144.371 33.6264 144.687 33.7055C146.507 34.1802 148.327 34.3385 150.226 34.1802C151.492 34.1011 152.758 33.7846 154.024 33.389C154.261 33.3099 154.34 33.2308 154.261 32.9934C152.837 29.1956 151.492 25.3187 150.068 21.5209C149.83 20.8879 149.593 20.1758 149.355 19.4637ZM141.839 32.5978C141.918 32.5978 141.918 32.5187 141.997 32.5187C139.465 25.4769 136.854 18.4352 134.322 11.3934C134.243 11.3934 134.243 11.3934 134.164 11.3934C132.503 15.3495 132.265 19.3846 133.769 23.4989C135.193 27.6132 137.962 30.6198 141.839 32.5978ZM163.36 10.3648H163.281C163.281 10.444 163.281 10.5231 163.281 10.6022C163.281 11.7099 163.281 12.8176 163.202 13.9253C163.043 15.2703 162.569 16.5363 162.094 17.8813C160.511 22.4703 158.929 27.0593 157.347 31.7275C157.268 31.8066 157.268 31.9648 157.268 32.1231C157.268 32.1231 157.347 32.1231 157.347 32.2022C161.54 29.5912 164.23 25.8725 165.101 21.0462C165.654 17.1692 165.101 13.6088 163.36 10.3648Z" fill="#3478A1"/>
</g>
<path d="M8.37305 52H7.31836V45.2793C7.06445 45.5215 6.73047 45.7637 6.31641 46.0059C5.90625 46.248 5.53711 46.4297 5.20898 46.5508V45.5312C5.79883 45.2539 6.31445 44.918 6.75586 44.5234C7.19727 44.1289 7.50977 43.7461 7.69336 43.375H8.37305V52ZM17.6367 48.9883L18.7734 49.2754C18.5352 50.209 18.1055 50.9219 17.4844 51.4141C16.8672 51.9023 16.1113 52.1465 15.2168 52.1465C14.291 52.1465 13.5371 51.959 12.9551 51.584C12.377 51.2051 11.9355 50.6582 11.6309 49.9434C11.3301 49.2285 11.1797 48.4609 11.1797 47.6406C11.1797 46.7461 11.3496 45.9668 11.6895 45.3027C12.0332 44.6348 12.5195 44.1289 13.1484 43.7852C13.7812 43.4375 14.4766 43.2637 15.2344 43.2637C16.0938 43.2637 16.8164 43.4824 17.4023 43.9199C17.9883 44.3574 18.3965 44.9727 18.627 45.7656L17.5078 46.0293C17.3086 45.4043 17.0195 44.9492 16.6406 44.6641C16.2617 44.3789 15.7852 44.2363 15.2109 44.2363C14.5508 44.2363 13.998 44.3945 13.5527 44.7109C13.1113 45.0273 12.8008 45.4531 12.6211 45.9883C12.4414 46.5195 12.3516 47.0684 12.3516 47.6348C12.3516 48.3652 12.457 49.0039 12.668 49.5508C12.8828 50.0938 13.2148 50.5 13.6641 50.7695C14.1133 51.0391 14.5996 51.1738 15.123 51.1738C15.7598 51.1738 16.2988 50.9902 16.7402 50.623C17.1816 50.2559 17.4805 49.7109 17.6367 48.9883ZM19.6348 49.4219V48.3613H22.875V49.4219H19.6348ZM24.2285 43.4102H29.8008V44.4238H25.3652V47.0723H27.416C28.1738 47.0723 28.7754 47.1445 29.2207 47.2891C29.6699 47.4336 30.0293 47.707 30.2988 48.1094C30.5684 48.5078 30.7031 48.9727 30.7031 49.5039C30.7031 49.9375 30.6055 50.3438 30.4102 50.7227C30.2188 51.0977 29.9316 51.4043 29.5488 51.6426C29.166 51.8809 28.5137 52 27.5918 52H24.2285V43.4102ZM25.3652 51.0332H27.6387C28.252 51.0332 28.7109 50.9082 29.0156 50.6582C29.3242 50.4082 29.4785 50.0332 29.4785 49.5332C29.4785 49.1777 29.3906 48.8809 29.2148 48.6426C29.0391 48.4043 28.7949 48.2461 28.4824 48.168C28.1699 48.0898 27.6367 48.0508 26.8828 48.0508H25.3652V51.0332ZM31.916 45.7773H32.9707V50.5234L35.8945 45.7773H37.0312V52H35.9766V47.2832L33.0527 52H31.916V45.7773ZM38.0508 45.7773H43.1074V46.6504H41.1035V52H40.0547V46.6504H38.0508V45.7773ZM44.1152 54.3848V45.7773H45.0762V46.5859C45.3027 46.2695 45.5586 46.0332 45.8438 45.877C46.1289 45.7168 46.4746 45.6367 46.8809 45.6367C47.4121 45.6367 47.8809 45.7734 48.2871 46.0469C48.6934 46.3203 49 46.707 49.207 47.207C49.4141 47.7031 49.5176 48.248 49.5176 48.8418C49.5176 49.4785 49.4023 50.0527 49.1719 50.5645C48.9453 51.0723 48.6133 51.4629 48.1758 51.7363C47.7422 52.0059 47.2852 52.1406 46.8047 52.1406C46.4531 52.1406 46.1367 52.0664 45.8555 51.918C45.5781 51.7695 45.3496 51.582 45.1699 51.3555V54.3848H44.1152ZM45.0703 48.9238C45.0703 49.7246 45.2324 50.3164 45.5566 50.6992C45.8809 51.082 46.2734 51.2734 46.7344 51.2734C47.2031 51.2734 47.6035 51.0762 47.9355 50.6816C48.2715 50.2832 48.4395 49.668 48.4395 48.8359C48.4395 48.043 48.2754 47.4492 47.9473 47.0547C47.623 46.6602 47.2344 46.4629 46.7812 46.4629C46.332 46.4629 45.9336 46.6738 45.5859 47.0957C45.2422 47.5137 45.0703 48.123 45.0703 48.9238ZM50.7949 45.7773H51.8496V50.5234L54.7734 45.7773H55.9102V52H54.8555V47.2832L51.9316 52H50.7949V45.7773ZM57.4922 45.7773H58.5469V48.4668C58.8828 48.4668 59.1172 48.4023 59.25 48.2734C59.3867 48.1445 59.5859 47.7695 59.8477 47.1484C60.0547 46.6562 60.2227 46.332 60.3516 46.1758C60.4805 46.0195 60.6289 45.9141 60.7969 45.8594C60.9648 45.8047 61.2344 45.7773 61.6055 45.7773H61.8164V46.6504L61.5234 46.6445C61.2461 46.6445 61.0684 46.6855 60.9902 46.7676C60.9082 46.8535 60.7832 47.1094 60.6152 47.5352C60.4551 47.9414 60.3086 48.2227 60.1758 48.3789C60.043 48.5352 59.8379 48.6777 59.5605 48.8066C60.0137 48.9277 60.459 49.3496 60.8965 50.0723L62.0508 52H60.8906L59.7656 50.0723C59.5352 49.6855 59.334 49.4316 59.1621 49.3105C58.9902 49.1855 58.7852 49.123 58.5469 49.123V52H57.4922V45.7773ZM66.9492 49.7207L67.9863 49.8555C67.873 50.5703 67.582 51.1309 67.1133 51.5371C66.6484 51.9395 66.0762 52.1406 65.3965 52.1406C64.5449 52.1406 63.8594 51.8633 63.3398 51.3086C62.8242 50.75 62.5664 49.9512 62.5664 48.9121C62.5664 48.2402 62.6777 47.6523 62.9004 47.1484C63.123 46.6445 63.4609 46.2676 63.9141 46.0176C64.3711 45.7637 64.8672 45.6367 65.4023 45.6367C66.0781 45.6367 66.6309 45.8086 67.0605 46.1523C67.4902 46.4922 67.7656 46.9766 67.8867 47.6055L66.8613 47.7637C66.7637 47.3457 66.5898 47.0312 66.3398 46.8203C66.0938 46.6094 65.7949 46.5039 65.4434 46.5039C64.9121 46.5039 64.4805 46.6953 64.1484 47.0781C63.8164 47.457 63.6504 48.0586 63.6504 48.8828C63.6504 49.7188 63.8105 50.3262 64.1309 50.7051C64.4512 51.084 64.8691 51.2734 65.3848 51.2734C65.7988 51.2734 66.1445 51.1465 66.4219 50.8926C66.6992 50.6387 66.875 50.248 66.9492 49.7207Z" fill="black"/>
<path d="M35.9604 0C34.6154 0 33.3494 0.158242 32.0835 0.395604V17.9604C32.0835 20.0967 33.8242 21.8374 35.9604 21.8374C38.0967 21.8374 39.8374 20.0967 39.8374 17.9604C39.8374 15.9033 38.2549 14.1626 36.1978 14.0835V10.9187C39.9165 11.0769 43.0022 14.1626 43.0022 17.9604C43.0022 21.8374 39.8374 25.0022 35.9604 25.0022C32.0835 25.0022 28.9187 21.8374 28.9187 17.9604V1.34506C28.444 1.5033 28.0484 1.74066 27.6527 1.97802V17.9604C27.6527 22.5495 31.3714 26.2681 35.9604 26.2681C40.5494 26.2681 44.2681 22.5495 44.2681 17.9604C44.2681 13.4506 40.6286 9.73187 36.1978 9.65275V6.48791C42.3692 6.64615 47.433 11.7099 47.433 17.9604C47.433 24.2901 42.2901 29.433 35.9604 29.433C29.6308 29.433 24.4879 24.2901 24.4879 17.9604V4.11429C20.5319 7.43736 18 12.422 18 17.9604C18 27.9297 26.0703 35.9209 35.9604 35.9209C45.9297 35.9209 53.9209 27.8506 53.9209 17.9604C54 8.07033 45.9297 0 35.9604 0Z" fill="#DF242F"/>
<defs>
<linearGradient id="paint0_linear" x1="826.931" y1="1.25879" x2="826.931" y2="35.4463" gradientUnits="userSpaceOnUse">
<stop stop-color="#5AB0DC"/>
<stop offset="1" stop-color="#2C7CB9"/>
</linearGradient>
<clipPath id="clip0">
<rect width="36" height="36" fill="white" transform="translate(809)"/>
</clipPath>
<clipPath id="clip1">
<rect width="36" height="36" fill="white" transform="translate(696)"/>
</clipPath>
<clipPath id="clip2">
<rect width="36" height="36" fill="white" transform="translate(244)"/>
</clipPath>
<clipPath id="clip3">
<rect width="36" height="36" fill="white" transform="translate(131)"/>
</clipPath>
</defs>
</svg>
