<svg width="96" height="97" viewBox="0 0 96 97" fill="none" xmlns="http://www.w3.org/2000/svg">
<path d="M87.2042 35.1041C87.2042 26.8003 85.7333 19.9401 83.1338 14.3754C81.6567 14.4866 80.1549 14.5534 78.6222 14.5534C66.0416 14.5534 55.0085 10.5646 48.8294 4.58081C42.6491 10.5658 31.6234 14.5534 19.0341 14.5534C17.5051 14.5534 16.0033 14.4878 14.5262 14.3741C11.9243 19.9376 10.4521 26.7978 10.4521 35.1041C10.4521 63.5583 33.789 88.6503 48.8294 88.6503C64.9279 88.6503 87.2054 63.5583 87.2054 35.1041H87.2042Z" fill="#FF8200"/>
<path d="M73.9264 37.0767C73.7236 36.6566 73.3623 36.3342 72.922 36.1803C72.4816 36.0265 71.9982 36.0537 71.5779 36.256L63.2839 40.2522C58.1851 42.3411 51.0494 42.901 48.9925 43.0209C46.895 42.8973 39.4811 42.3164 34.3662 40.1125L26.2329 36.1917C26.0247 36.0914 25.7987 36.0332 25.568 36.0203C25.3372 36.0074 25.1062 36.0401 24.8881 36.1166C24.67 36.1931 24.4691 36.3117 24.2969 36.4659C24.1246 36.62 23.9845 36.8066 23.8844 37.0149C23.7841 37.2228 23.7258 37.4484 23.7129 37.6788C23.7 37.9092 23.7327 38.14 23.8092 38.3577C23.8857 38.5755 24.0044 38.776 24.1586 38.9477C24.3128 39.1194 24.4994 39.259 24.7076 39.3585L32.8965 43.3065C32.8298 45.9269 32.8842 49.6252 33.412 53.504L26.1143 56.7054C25.9029 56.7979 25.7119 56.9312 25.552 57.0975C25.3922 57.2639 25.2667 57.4601 25.1827 57.675C25.013 58.1089 25.0226 58.5925 25.2095 59.0193C25.302 59.2306 25.4352 59.4217 25.6016 59.5815C25.768 59.7414 25.9642 59.8669 26.179 59.9509C26.613 60.1206 27.0966 60.111 27.5234 59.9241L34.0374 57.0663C34.4972 59.18 35.1338 61.2566 35.9941 63.17L28.7211 68.6581C28.5369 68.7969 28.3818 68.9706 28.2647 69.1693C28.1476 69.3681 28.0708 69.5879 28.0386 69.8163C28.0065 70.0447 28.0197 70.2772 28.0774 70.5006C28.1351 70.7239 28.2362 70.9336 28.375 71.1179C28.5138 71.3021 28.6875 71.4572 28.8863 71.5743C29.085 71.6914 29.3048 71.7682 29.5332 71.8004C29.7616 71.8325 29.9941 71.8193 30.2175 71.7616C30.4408 71.7039 30.6506 71.6028 30.8348 71.464L37.711 66.2725C39.8914 69.4566 43.0199 71.7112 47.5006 72.0251V47.3336C47.5006 46.9385 47.6575 46.5597 47.9369 46.2804C48.2162 46.001 48.595 45.8441 48.9901 45.8441C49.3851 45.8441 49.764 46.001 50.0433 46.2804C50.3226 46.5597 50.4795 46.9385 50.4795 47.3336V72.0276C54.9009 71.7186 58.0096 69.5234 60.1876 66.4072L66.9698 71.527C67.1538 71.6662 67.3634 71.7677 67.5866 71.8258C67.8098 71.8839 68.0422 71.8974 68.2707 71.8656C68.4991 71.8338 68.7191 71.7573 68.9179 71.6405C69.1168 71.5236 69.2906 71.3687 69.4296 71.1846C69.5692 71.0007 69.6711 70.791 69.7295 70.5676C69.7879 70.3442 69.8017 70.1114 69.77 69.8827C69.7383 69.654 69.6618 69.4337 69.5448 69.2346C69.4279 69.0355 69.2728 68.8615 69.0884 68.7224L61.9242 63.3158C62.8018 61.4024 63.4483 59.3172 63.918 57.1936L70.2837 59.9871C70.7102 60.1738 71.1932 60.1839 71.6271 60.0152C72.061 59.8466 72.4104 59.5129 72.5989 59.0873C72.7854 58.6605 72.7951 58.1772 72.626 57.7433C72.4568 57.3094 72.1226 56.9601 71.6965 56.7721L64.5558 53.6362C65.0997 49.6994 65.1553 45.9381 65.0873 43.2879L73.1069 39.424C73.5263 39.2212 73.8483 38.8604 74.0021 38.4206C74.1559 37.9808 74.1292 37.498 73.9276 37.078L73.9264 37.0767Z" fill="#F1F1F1"/>
<path d="M37.4403 34.004C37.0072 35.268 36.785 36.5948 36.7827 37.931V38.6232C40.2536 39.8839 44.4587 40.6256 48.9926 40.6256C53.5289 40.6256 57.7315 39.8815 61.2049 38.6232V37.931C61.2049 36.5552 60.9663 35.2364 60.546 34.004C62.9811 32.4688 64.4557 30.4763 64.4557 28.2909C64.4557 25.1266 61.3631 22.3578 56.7377 20.8127V21.0439C57.8415 22.144 58.4855 23.4728 58.4855 24.9004C58.4855 26.265 57.8836 27.5332 56.8663 28.6061C54.6678 26.7414 51.8778 25.7192 48.995 25.7224C45.9914 25.7224 43.2473 26.8101 41.1213 28.6074C40.1028 27.5345 39.4984 26.2663 39.4984 24.8992C39.4984 23.4727 40.1436 22.1452 41.2486 21.0427V20.814C36.6258 22.3591 33.5282 25.1241 33.5282 28.2897C33.5282 30.4775 35.004 32.47 37.4416 34.004H37.4403Z" fill="#F1F1F1"/>
<path opacity="0.2" d="M83.1338 14.3729C81.6567 14.4867 80.1549 14.5522 78.6222 14.5522C66.1095 14.5522 55.1346 10.6067 48.9357 4.67603V88.638C65.2814 88.638 87.2042 63.4273 87.2042 35.1042C87.2042 26.8003 85.7308 19.9402 83.1338 14.3729Z" fill="#010000"/>
</svg>
