<svg width="238" height="84" viewBox="0 0 238 84" fill="none" xmlns="http://www.w3.org/2000/svg">
<g clip-path="url(#clip0)">
<path d="M27 12.6999H14.2V16.4999H23.3C22.9 21.7999 18.4 24.0999 14.2 24.0999C8.8 24.0999 4.2 19.8999 4.2 13.9999C4.2 8.1999 8.7 3.7999 14.2 3.7999C18.5 3.7999 21.1 6.4999 21.1 6.4999L23.8 3.6999C23.8 3.6999 20.4 -0.100098 14.2 -0.100098C6.1 -9.76548e-05 0 6.6999 0 13.8999C0 20.9999 5.8 27.8999 14.3 27.8999C21.8 27.8999 27.3 22.7999 27.3 15.1999C27.2 13.5999 27 12.6999 27 12.6999Z" fill="#4285F4"/>
<path d="M37.5 10C32.2 10 28.5 14.1 28.5 18.9C28.5 23.8 32.2 28 37.6 28C42.5 28 46.5 24.2 46.5 19.1C46.5 13 41.8 10 37.5 10ZM37.5 13.5C40.1 13.5 42.5 15.6 42.5 19C42.5 22.3 40.1 24.4 37.5 24.4C34.6 24.4 32.4 22.1 32.4 18.9C32.4 15.8 34.6 13.5 37.5 13.5Z" fill="#EA4335"/>
<path d="M57.1 10C51.8 10 48.1 14.1 48.1 18.9C48.1 23.8 51.8 28 57.2 28C62.1 28 66.1 24.2 66.1 19.1C66.1 13 61.4 10 57.1 10ZM57.2 13.5C59.8 13.5 62.2 15.6 62.2 19C62.2 22.3 59.8 24.4 57.2 24.4C54.3 24.4 52.1 22.1 52.1 18.9C52 15.8 54.3 13.5 57.2 13.5Z" fill="#FBBC05"/>
<path d="M76.4 10C71.6 10 67.8 14.2 67.8 19C67.8 24.4 72.2 28 76.3 28C78.9 28 80.2 27 81.2 25.8V27.6C81.2 30.7 79.3 32.6 76.5 32.6C73.8 32.6 72.4 30.6 71.9 29.4L68.4 30.8C69.6 33.4 72.1 36.1 76.5 36.1C81.3 36.1 85 33.1 85 26.7V10.5H81.2V12C80.1 10.8 78.5 10 76.4 10ZM76.7 13.5C79.1 13.5 81.5 15.5 81.5 19C81.5 22.5 79.1 24.4 76.7 24.4C74.1 24.4 71.7 22.3 71.7 19C71.7 15.5 74.2 13.5 76.7 13.5Z" fill="#4285F4"/>
<path d="M101.7 9.8999C97.1 9.8999 93.3 13.4999 93.3 18.8999C93.3 24.5999 97.6 27.8999 102.1 27.8999C105.9 27.8999 108.2 25.7999 109.6 23.9999L106.5 21.8999C105.7 23.0999 104.3 24.3999 102.1 24.3999C99.6 24.3999 98.4 22.9999 97.7 21.6999L109.7 16.6999L109.1 15.1999C108 12.2999 105.3 9.8999 101.7 9.8999ZM101.9 13.3999C103.5 13.3999 104.7 14.2999 105.2 15.2999L97.2 18.6999C96.8 16.0999 99.3 13.3999 101.9 13.3999Z" fill="#EA4335"/>
<path d="M87.6 27.3999H91.6V0.899902H87.6V27.3999Z" fill="#34A853"/>
<path opacity="0.54" d="M143.6 8.3C142.7 7.4 141.8 6.7 140.8 6.2C139.8 5.7 138.5 5.5 137 5.5C135.8 5.5 134.7 5.7 133.6 6.1C132.5 6.5 131.6 7.1 130.8 7.9C130 8.7 129.4 9.6 128.9 10.7C128.4 11.8 128.2 13 128.2 14.3C128.2 15.6 128.4 16.8 128.9 17.9C129.4 19 130 19.9 130.8 20.7C131.6 21.5 132.5 22.1 133.6 22.5C134.7 22.9 135.8 23.1 137 23.1C138.3 23.1 139.4 22.9 140.4 22.6C141.4 22.2 142.2 21.7 142.9 21.1C143.4 20.7 143.8 20.2 144.1 19.6C144.5 19 144.7 18.3 145 17.5H136.9V13H150.1C150.2 13.3 150.2 13.7 150.3 14.1C150.4 14.6 150.4 15 150.4 15.4C150.4 17.2 150.1 18.9 149.6 20.4C149.1 21.9 148.2 23.2 147.2 24.4C146 25.7 144.6 26.7 142.9 27.4C141.2 28.1 139.3 28.5 137.1 28.5C135.2 28.5 133.3 28.2 131.6 27.4C129.9 26.7 128.4 25.7 127.1 24.5C125.8 23.3 124.8 21.8 124 20.1C123.2 18.4 122.9 16.5 122.9 14.5C122.9 12.5 123.3 10.6 124 8.9C124.7 7.2 125.8 5.7 127.1 4.5C128.4 3.3 129.9 2.3 131.6 1.6C133.3 0.9 135.2 0.5 137.1 0.5C139.3 0.5 141.3 0.9 143 1.6C144.7 2.3 146.2 3.4 147.4 4.8L143.6 8.3ZM177.4 20.6C177.4 22.9 176.5 24.8 174.8 26.3C173.1 27.7 170.9 28.4 168.4 28.4C166.2 28.4 164.2 27.8 162.5 26.5C160.8 25.2 159.6 23.4 159 21.2L162.3 19.8C162.5 20.6 162.8 21.3 163.2 22C163.6 22.6 164.1 23.2 164.6 23.7C165.1 24.2 165.7 24.5 166.4 24.8C167.1 25.1 167.7 25.2 168.5 25.2C170.1 25.2 171.4 24.8 172.4 24C173.4 23.2 173.9 22.1 173.9 20.8C173.9 19.7 173.5 18.7 172.7 17.9C171.9 17.1 170.5 16.4 168.4 15.6C166.3 14.8 164.9 14.3 164.4 14C161.6 12.5 160.1 10.4 160.1 7.6C160.1 5.6 160.9 4 162.4 2.6C164 1.2 166 0.5 168.3 0.5C170.3 0.5 172.1 1 173.6 2.1C175.1 3.1 176.1 4.4 176.6 6L173.4 7.3C173.1 6.3 172.5 5.5 171.6 4.8C170.7 4.1 169.6 3.8 168.4 3.8C167 3.8 165.9 4.2 165 4.9C164.1 5.6 163.6 6.5 163.6 7.6C163.6 8.5 164 9.3 164.7 10C165.5 10.7 167.2 11.5 169.9 12.4C172.6 13.3 174.6 14.5 175.7 15.8C176.9 17 177.4 18.7 177.4 20.6ZM196.5 27.8H193.2V25.3H193C192.5 26.2 191.7 26.9 190.6 27.6C189.5 28.2 188.4 28.5 187.2 28.5C184.9 28.5 183.2 27.9 182 26.6C180.8 25.3 180.2 23.5 180.2 21.1V9.4H183.6V20.7C183.7 23.7 185.2 25.2 188.1 25.2C189.5 25.2 190.6 24.6 191.5 23.5C192.4 22.4 192.9 21.1 192.9 19.5V9.4H196.3V27.8H196.5ZM204.4 3.1C204.4 3.8 204.2 4.3 203.7 4.8C203.2 5.3 202.6 5.5 202 5.5C201.4 5.5 200.8 5.3 200.3 4.8C199.8 4.3 199.6 3.7 199.6 3.1C199.6 2.5 199.8 1.9 200.3 1.4C200.8 0.9 201.4 0.7 202 0.7C202.6 0.7 203.2 0.9 203.7 1.4C204.2 1.9 204.4 2.5 204.4 3.1ZM203.7 9.4V27.7H200.3V9.4H203.7ZM214.2 28.1C212.7 28.1 211.5 27.6 210.5 26.7C209.5 25.8 209 24.5 209 22.8V12.6H205.8V9.4H209V3.8H212.4V9.4H216.9V12.6H212.4V21.7C212.4 22.9 212.6 23.7 213.1 24.2C213.6 24.6 214.1 24.8 214.7 24.8C215 24.8 215.2 24.8 215.5 24.7C215.8 24.6 216 24.5 216.2 24.5L217.3 27.6C216.5 27.9 215.4 28.1 214.2 28.1ZM227.1 28.4C224.4 28.4 222.2 27.5 220.4 25.6C218.7 23.7 217.8 21.4 217.8 18.6C217.8 15.8 218.6 13.5 220.3 11.6C222 9.7 224.2 8.8 226.8 8.8C229.5 8.8 231.7 9.7 233.3 11.4C234.9 13.1 235.7 15.6 235.7 18.8V19.2H221.3C221.4 21 221.9 22.4 223.1 23.5C224.2 24.6 225.6 25.1 227.2 25.1C229.4 25.1 231.1 24 232.4 21.8L235.5 23.3C234.7 24.8 233.5 26.1 232.1 26.9C230.6 27.9 228.9 28.4 227.1 28.4ZM221.6 16.4H232.1C232 15.1 231.5 14.1 230.6 13.2C229.7 12.4 228.4 11.9 226.8 11.9C225.5 11.9 224.4 12.3 223.5 13.1C222.5 14 221.9 15.1 221.6 16.4Z" fill="black"/>
</g>
<g clip-path="url(#clip1)">
<path d="M78 79.1C78 80.7 76.7 82 75.1 82H44.9C43.3 82 42 80.7 42 79.1V58.9C42 57.3 43.3 56 44.9 56H75.1C76.7 56 78 57.3 78 58.9V79.1Z" fill="#FF3827"/>
<path d="M44.7 56L60 67.2L75.3 56H44.7ZM46.2 82H73.8L46.2 62.5V82Z" fill="#EFEBDE"/>
<path d="M73.8 82H46.2L73.8 62.5V82Z" fill="#EFEBDE"/>
<path opacity="0.26" d="M78 79.1V59.5L60 72.2L73.7 82H75C76.7 82 78 80.7 78 79.1ZM46.3 81.5V81.8L59.8 72.5H59.7C59.7 72.5 53.9 76.3 53.3 76.7C52.7 77.1 46.3 81.5 46.3 81.5Z" fill="#060000"/>
</g>
<g clip-path="url(#clip2)">
<path d="M134.9 74.6999V56.6999C134.9 55.1999 133.7 53.8999 132.1 53.8999H104.8C103.2 53.9999 102 55.1999 102 56.7999V81.2999C102 82.7999 103.2 83.9999 104.8 83.9999H125.7L134.9 74.6999Z" fill="#0084FD"/>
<path d="M125.6 74.7V84L134.9 74.7H125.6Z" fill="#74C4FF"/>
<path d="M113 69.6001H113.6C114 69.6001 114.3 69.5001 114.7 69.4001C115 69.3001 115.3 69.1001 115.6 68.9001C115.9 68.7001 116.1 68.4001 116.2 68.1001C116.4 67.8001 116.4 67.4001 116.4 67.0001C116.4 66.2001 116.2 65.6001 115.6 65.2001C115.1 64.8001 114.5 64.6001 113.7 64.6001C113.2 64.6001 112.8 64.7001 112.5 64.9001C112.1 65.1001 111.9 65.3001 111.6 65.6001C111.4 65.9001 111.2 66.2001 111.1 66.6001C111.1 67.2001 111 67.6001 111 68.0001H109.3C109.3 67.3001 109.4 66.6001 109.6 66.0001C109.8 65.4001 110.1 64.9001 110.5 64.5001C110.9 64.1001 111.3 63.7001 111.9 63.5001C112.5 63.3001 113.1 63.1001 113.8 63.1001C114.4 63.1001 115 63.2001 115.6 63.3001C116.1 63.5001 116.6 63.7001 117 64.0001C117.4 64.3001 117.7 64.7001 117.9 65.3001C118.1 65.8001 118.2 66.4001 118.2 67.1001C118.2 67.8001 118 68.4001 117.6 68.9001C117.2 69.4001 116.7 69.8001 116.1 70.1001C117 70.3001 117.7 70.7001 118.1 71.4001C118.5 72.1001 118.8 72.9001 118.8 73.8001C118.8 74.6001 118.7 75.2001 118.4 75.8001C118.1 76.4001 117.8 76.9001 117.3 77.2001C116.8 77.6001 116.3 77.9001 115.7 78.1001C115.1 78.3001 114.4 78.4001 113.7 78.4001C112.9 78.4001 112.3 78.3001 111.7 78.1001C111.1 77.9001 110.6 77.6001 110.1 77.2001C109.7 76.8001 109.3 76.3001 109.1 75.7001C109 75.0001 108.9 74.4001 108.9 73.6001H110.7C110.7 74.6001 111 75.4001 111.5 76.0001C112 76.6001 112.8 76.9001 113.8 76.9001C114.2 76.9001 114.6 76.8001 115 76.7001C115.4 76.6001 115.7 76.4001 116 76.1001C116.3 75.9001 116.5 75.5001 116.7 75.2001C116.9 74.8001 117 74.4001 117 74.0001C117 73.5001 116.9 73.1001 116.8 72.8001C116.6 72.4001 116.4 72.1001 116.1 71.9001C115.8 71.7001 115.5 71.5001 115.1 71.3001C114.7 71.2001 114.3 71.1001 113.9 71.1001C113.5 71.1001 113.2 71.1001 112.8 71.2001V69.7001C112.9 69.6001 113 69.6001 113 69.6001ZM123.9 78.2001V67.4001H120V66.0001C120.5 66.0001 121 66.0001 121.5 65.9001C122 65.8001 122.4 65.7001 122.8 65.5001C123.2 65.3001 123.5 65.0001 123.8 64.6001C124.1 64.2001 124.2 63.8001 124.3 63.2001H125.7V78.3001C125.6 78.2001 123.9 78.2001 123.9 78.2001Z" fill="white"/>
<path opacity="0.25" d="M125.6 84V74.7L116.3 84H125.6Z" fill="#010000"/>
<path d="M108.5 60.4001C109.273 60.4001 109.9 59.7733 109.9 59.0001C109.9 58.2269 109.273 57.6001 108.5 57.6001C107.727 57.6001 107.1 58.2269 107.1 59.0001C107.1 59.7733 107.727 60.4001 108.5 60.4001Z" fill="white"/>
<path d="M128.4 60.4001C129.173 60.4001 129.8 59.7733 129.8 59.0001C129.8 58.2269 129.173 57.6001 128.4 57.6001C127.627 57.6001 127 58.2269 127 59.0001C127 59.7733 127.627 60.4001 128.4 60.4001Z" fill="white"/>
</g>
<path d="M165.4 84H187.8L194.3 73.3H171.9L165.4 84Z" fill="#0084FF"/>
<path d="M194.3 73.3L182.8 54.1L170.2 54L181.8 73.3H194.3Z" fill="#FFCE12"/>
<path d="M170.3 54L159 73.2L165.4 84L176.9 65.2L170.3 54Z" fill="#00AB54"/>
<path opacity="0.27" d="M170.3 54L174.1 69.9L176.9 65.2L170.3 54ZM194.3 73.3L179 68.6L181.8 73.3H194.3ZM165.4 84L177.4 73.2H172.1L165.4 84Z" fill="black"/>
<defs>
<clipPath id="clip0">
<rect width="238" height="36" fill="white"/>
</clipPath>
<clipPath id="clip1">
<rect width="36" height="30" fill="white" transform="translate(42 54)"/>
</clipPath>
<clipPath id="clip2">
<rect width="33" height="30" fill="white" transform="translate(102 54)"/>
</clipPath>
</defs>
</svg>
