<svg width="96" height="97" viewBox="0 0 96 97" fill="none" xmlns="http://www.w3.org/2000/svg">
<path d="M49.0469 89.0077C54.7403 89.0077 59.3557 84.3923 59.3557 78.6989C59.3557 73.0055 54.7403 68.3901 49.0469 68.3901C43.3536 68.3901 38.7382 73.0055 38.7382 78.6989C38.7382 84.3923 43.3536 89.0077 49.0469 89.0077Z" fill="#4B4B4B"/>
<path d="M49.0457 27.113C52.8618 27.113 55.9553 22.4971 55.9553 16.803C55.9553 11.109 52.8618 6.49304 49.0457 6.49304C45.2297 6.49304 42.1361 11.109 42.1361 16.803C42.1361 22.4971 45.2297 27.113 49.0457 27.113Z" fill="#4B4B4B"/>
<path d="M85.7259 71.568C85.2833 63.1047 72.1663 63.3939 69.8177 35.3922C67.9303 12.8958 53.2051 12.5967 49.0494 12.97C44.8938 12.5955 30.1698 12.8934 28.2799 35.3922C25.9276 63.3927 12.8106 63.1047 12.3656 71.5692H12.3557V78.349C12.3557 79.7038 13.4372 80.8014 14.7709 80.8014H83.323C84.6579 80.8014 85.7394 79.7013 85.7394 78.3478V71.568H85.7271H85.7259Z" fill="#FF5046"/>
<path d="M46.4574 36.6035C46.6725 38.3266 46.9518 40.7381 47.2954 43.8394C47.6415 46.9419 48.0692 51.1792 48.5896 56.561H48.6106C48.6162 56.8173 48.7234 57.061 48.9086 57.2383C49.0938 57.4156 49.3419 57.5121 49.5982 57.5066C49.8546 57.501 50.0982 57.3938 50.2756 57.2086C50.4529 57.0234 50.5494 56.7753 50.5438 56.5189C50.5438 56.5016 50.5376 56.488 50.5352 56.4732C51.1779 51.1334 51.7094 46.9185 52.1396 43.837C52.5685 40.7344 52.9059 38.3241 53.1408 36.601C53.3781 34.8829 53.5388 33.5875 53.6265 32.726C53.7131 31.8694 53.7576 30.9831 53.7576 30.0808C53.7576 26.9387 52.4399 25.3652 49.8145 25.3652C47.1879 25.3652 45.8789 26.9387 45.8789 30.0808C45.8789 30.9831 45.916 31.8682 46.0062 32.726C46.089 33.5863 46.2374 34.8829 46.4574 36.601V36.6035ZM49.5562 61.7252C46.5859 61.7252 45.1002 63.1282 45.1002 65.9229C45.1002 68.7251 46.5859 70.1218 49.5562 70.1218C52.3534 70.1218 53.7539 68.7251 53.7539 65.9229C53.7539 63.1294 52.3522 61.7252 49.5562 61.7252Z" fill="white"/>
<path opacity="0.25" d="M85.7258 71.5679C85.2833 63.1046 72.1662 63.3939 69.8177 35.3921C67.9884 13.6424 54.1754 12.6412 49.5018 12.9329V80.8013H83.3205C84.6579 80.8013 85.7394 79.7012 85.7394 78.349V71.5704H85.7271L85.7258 71.5679Z" fill="#010000"/>
</svg>
