<svg width="16" height="17" viewBox="0 0 16 17" fill="none" xmlns="http://www.w3.org/2000/svg">
<path d="M12.2143 9.21429V7.92857C12.2143 7.75446 12.1507 7.60379 12.0234 7.47656C11.8962 7.34933 11.7455 7.28571 11.5714 7.28571H9V4.71429C9 4.54018 8.93638 4.38951 8.80915 4.26228C8.68192 4.13504 8.53125 4.07143 8.35714 4.07143H7.07143C6.89732 4.07143 6.74665 4.13504 6.61942 4.26228C6.49219 4.38951 6.42857 4.54018 6.42857 4.71429V7.28571H3.85714C3.68304 7.28571 3.53237 7.34933 3.40513 7.47656C3.2779 7.60379 3.21429 7.75446 3.21429 7.92857V9.21429C3.21429 9.38839 3.2779 9.53906 3.40513 9.66629C3.53237 9.79353 3.68304 9.85714 3.85714 9.85714H6.42857V12.4286C6.42857 12.6027 6.49219 12.7533 6.61942 12.8806C6.74665 13.0078 6.89732 13.0714 7.07143 13.0714H8.35714C8.53125 13.0714 8.68192 13.0078 8.80915 12.8806C8.93638 12.7533 9 12.6027 9 12.4286V9.85714H11.5714C11.7455 9.85714 11.8962 9.79353 12.0234 9.66629C12.1507 9.53906 12.2143 9.38839 12.2143 9.21429ZM14.394 4.70424C15.0837 5.88281 15.4286 7.17187 15.4286 8.57143C15.4286 9.97098 15.0837 11.2634 14.394 12.4487C13.7042 13.6272 12.7667 14.5614 11.5815 15.2511C10.4029 15.9408 9.11384 16.2857 7.71429 16.2857C6.31473 16.2857 5.02232 15.9408 3.83705 15.2511C2.65848 14.5614 1.72433 13.6272 1.0346 12.4487C0.344866 11.2634 0 9.97098 0 8.57143C0 7.17187 0.344866 5.88281 1.0346 4.70424C1.72433 3.51897 2.65848 2.58147 3.83705 1.89174C5.02232 1.20201 6.31473 0.857142 7.71429 0.857142C9.11384 0.857142 10.4029 1.20201 11.5815 1.89174C12.7667 2.58147 13.7042 3.51897 14.394 4.70424Z" fill="#00C084"/>
</svg>
