<svg width="72" height="60" viewBox="0 0 72 60" fill="none" xmlns="http://www.w3.org/2000/svg">
<path d="M9.51562 52L7.23633 43.4102H8.40234L9.70898 49.041C9.84961 49.6309 9.9707 50.2168 10.0723 50.7988C10.291 49.8809 10.4199 49.3516 10.459 49.2109L12.0938 43.4102H13.4648L14.6953 47.7578C15.0039 48.8359 15.2266 49.8496 15.3633 50.7988C15.4727 50.2559 15.6152 49.6328 15.791 48.9297L17.1387 43.4102H18.2812L15.9258 52H14.8301L13.0195 45.4551C12.8672 44.9082 12.7773 44.5723 12.75 44.4473C12.6602 44.8418 12.5762 45.1777 12.498 45.4551L10.6758 52H9.51562ZM18.5977 48.8887C18.5977 47.7363 18.918 46.8828 19.5586 46.3281C20.0938 45.8672 20.7461 45.6367 21.5156 45.6367C22.3711 45.6367 23.0703 45.918 23.6133 46.4805C24.1562 47.0391 24.4277 47.8125 24.4277 48.8008C24.4277 49.6016 24.3066 50.2324 24.0645 50.6934C23.8262 51.1504 23.4766 51.5059 23.0156 51.7598C22.5586 52.0137 22.0586 52.1406 21.5156 52.1406C20.6445 52.1406 19.9395 51.8613 19.4004 51.3027C18.8652 50.7441 18.5977 49.9395 18.5977 48.8887ZM19.6816 48.8887C19.6816 49.6855 19.8555 50.2832 20.2031 50.6816C20.5508 51.0762 20.9883 51.2734 21.5156 51.2734C22.0391 51.2734 22.4746 51.0742 22.8223 50.6758C23.1699 50.2773 23.3438 49.6699 23.3438 48.8535C23.3438 48.084 23.168 47.502 22.8164 47.1074C22.4688 46.709 22.0352 46.5098 21.5156 46.5098C20.9883 46.5098 20.5508 46.707 20.2031 47.1016C19.8555 47.4961 19.6816 48.0918 19.6816 48.8887ZM25.6582 52V45.7773H26.6074V46.7207C26.8496 46.2793 27.0723 45.9883 27.2754 45.8477C27.4824 45.707 27.709 45.6367 27.9551 45.6367C28.3105 45.6367 28.6719 45.75 29.0391 45.9766L28.6758 46.9551C28.418 46.8027 28.1602 46.7266 27.9023 46.7266C27.6719 46.7266 27.4648 46.7969 27.2812 46.9375C27.0977 47.0742 26.9668 47.2656 26.8887 47.5117C26.7715 47.8867 26.7129 48.2969 26.7129 48.7422V52H25.6582ZM33.7031 52V51.2148C33.3086 51.832 32.7285 52.1406 31.9629 52.1406C31.4668 52.1406 31.0098 52.0039 30.5918 51.7305C30.1777 51.457 29.8555 51.0762 29.625 50.5879C29.3984 50.0957 29.2852 49.5312 29.2852 48.8945C29.2852 48.2734 29.3887 47.7109 29.5957 47.207C29.8027 46.6992 30.1133 46.3105 30.5273 46.041C30.9414 45.7715 31.4043 45.6367 31.916 45.6367C32.291 45.6367 32.625 45.7168 32.918 45.877C33.2109 46.0332 33.4492 46.2383 33.6328 46.4922V43.4102H34.6816V52H33.7031ZM30.3691 48.8945C30.3691 49.6914 30.5371 50.2871 30.873 50.6816C31.209 51.0762 31.6055 51.2734 32.0625 51.2734C32.5234 51.2734 32.9141 51.0859 33.2344 50.7109C33.5586 50.332 33.7207 49.7559 33.7207 48.9824C33.7207 48.1309 33.5566 47.5059 33.2285 47.1074C32.9004 46.709 32.4961 46.5098 32.0156 46.5098C31.5469 46.5098 31.1543 46.7012 30.8379 47.084C30.5254 47.4668 30.3691 48.0703 30.3691 48.8945ZM36.3457 54.3848V45.7773H37.3066V46.5859C37.5332 46.2695 37.7891 46.0332 38.0742 45.877C38.3594 45.7168 38.7051 45.6367 39.1113 45.6367C39.6426 45.6367 40.1113 45.7734 40.5176 46.0469C40.9238 46.3203 41.2305 46.707 41.4375 47.207C41.6445 47.7031 41.748 48.248 41.748 48.8418C41.748 49.4785 41.6328 50.0527 41.4023 50.5645C41.1758 51.0723 40.8438 51.4629 40.4062 51.7363C39.9727 52.0059 39.5156 52.1406 39.0352 52.1406C38.6836 52.1406 38.3672 52.0664 38.0859 51.918C37.8086 51.7695 37.5801 51.582 37.4004 51.3555V54.3848H36.3457ZM37.3008 48.9238C37.3008 49.7246 37.4629 50.3164 37.7871 50.6992C38.1113 51.082 38.5039 51.2734 38.9648 51.2734C39.4336 51.2734 39.834 51.0762 40.166 50.6816C40.502 50.2832 40.6699 49.668 40.6699 48.8359C40.6699 48.043 40.5059 47.4492 40.1777 47.0547C39.8535 46.6602 39.4648 46.4629 39.0117 46.4629C38.5625 46.4629 38.1641 46.6738 37.8164 47.0957C37.4727 47.5137 37.3008 48.123 37.3008 48.9238ZM43.0137 52V45.7773H43.9629V46.7207C44.2051 46.2793 44.4277 45.9883 44.6309 45.8477C44.8379 45.707 45.0645 45.6367 45.3105 45.6367C45.666 45.6367 46.0273 45.75 46.3945 45.9766L46.0312 46.9551C45.7734 46.8027 45.5156 46.7266 45.2578 46.7266C45.0273 46.7266 44.8203 46.7969 44.6367 46.9375C44.4531 47.0742 44.3223 47.2656 44.2441 47.5117C44.127 47.8867 44.0684 48.2969 44.0684 48.7422V52H43.0137ZM51.2812 49.9961L52.3711 50.1309C52.1992 50.7676 51.8809 51.2617 51.416 51.6133C50.9512 51.9648 50.3574 52.1406 49.6348 52.1406C48.7246 52.1406 48.002 51.8613 47.4668 51.3027C46.9355 50.7402 46.6699 49.9531 46.6699 48.9414C46.6699 47.8945 46.9395 47.082 47.4785 46.5039C48.0176 45.9258 48.7168 45.6367 49.5762 45.6367C50.4082 45.6367 51.0879 45.9199 51.6152 46.4863C52.1426 47.0527 52.4062 47.8496 52.4062 48.877C52.4062 48.9395 52.4043 49.0332 52.4004 49.1582H47.7598C47.7988 49.8418 47.9922 50.3652 48.3398 50.7285C48.6875 51.0918 49.1211 51.2734 49.6406 51.2734C50.0273 51.2734 50.3574 51.1719 50.6309 50.9688C50.9043 50.7656 51.1211 50.4414 51.2812 49.9961ZM47.8184 48.291H51.293C51.2461 47.7676 51.1133 47.375 50.8945 47.1133C50.5586 46.707 50.123 46.5039 49.5879 46.5039C49.1035 46.5039 48.6953 46.666 48.3633 46.9902C48.0352 47.3145 47.8535 47.748 47.8184 48.291ZM53.2793 50.1426L54.3223 49.9785C54.3809 50.3965 54.543 50.7168 54.8086 50.9395C55.0781 51.1621 55.4531 51.2734 55.9336 51.2734C56.418 51.2734 56.7773 51.1758 57.0117 50.9805C57.2461 50.7812 57.3633 50.5488 57.3633 50.2832C57.3633 50.0449 57.2598 49.8574 57.0527 49.7207C56.9082 49.627 56.5488 49.5078 55.9746 49.3633C55.2012 49.168 54.6641 49 54.3633 48.8594C54.0664 48.7148 53.8398 48.5176 53.6836 48.2676C53.5312 48.0137 53.4551 47.7344 53.4551 47.4297C53.4551 47.1523 53.5176 46.8965 53.6426 46.6621C53.7715 46.4238 53.9453 46.2266 54.1641 46.0703C54.3281 45.9492 54.5508 45.8477 54.832 45.7656C55.1172 45.6797 55.4219 45.6367 55.7461 45.6367C56.2344 45.6367 56.6621 45.707 57.0293 45.8477C57.4004 45.9883 57.6738 46.1797 57.8496 46.4219C58.0254 46.6602 58.1465 46.9805 58.2129 47.3828L57.1816 47.5234C57.1348 47.2031 56.998 46.9531 56.7715 46.7734C56.5488 46.5938 56.2324 46.5039 55.8223 46.5039C55.3379 46.5039 54.9922 46.584 54.7852 46.7441C54.5781 46.9043 54.4746 47.0918 54.4746 47.3066C54.4746 47.4434 54.5176 47.5664 54.6035 47.6758C54.6895 47.7891 54.8242 47.8828 55.0078 47.957C55.1133 47.9961 55.4238 48.0859 55.9395 48.2266C56.6855 48.4258 57.2051 48.5898 57.498 48.7188C57.7949 48.8438 58.0273 49.0273 58.1953 49.2695C58.3633 49.5117 58.4473 49.8125 58.4473 50.1719C58.4473 50.5234 58.3438 50.8555 58.1367 51.168C57.9336 51.4766 57.6387 51.7168 57.252 51.8887C56.8652 52.0566 56.4277 52.1406 55.9395 52.1406C55.1309 52.1406 54.5137 51.9727 54.0879 51.6367C53.666 51.3008 53.3965 50.8027 53.2793 50.1426ZM59.2793 50.1426L60.3223 49.9785C60.3809 50.3965 60.543 50.7168 60.8086 50.9395C61.0781 51.1621 61.4531 51.2734 61.9336 51.2734C62.418 51.2734 62.7773 51.1758 63.0117 50.9805C63.2461 50.7812 63.3633 50.5488 63.3633 50.2832C63.3633 50.0449 63.2598 49.8574 63.0527 49.7207C62.9082 49.627 62.5488 49.5078 61.9746 49.3633C61.2012 49.168 60.6641 49 60.3633 48.8594C60.0664 48.7148 59.8398 48.5176 59.6836 48.2676C59.5312 48.0137 59.4551 47.7344 59.4551 47.4297C59.4551 47.1523 59.5176 46.8965 59.6426 46.6621C59.7715 46.4238 59.9453 46.2266 60.1641 46.0703C60.3281 45.9492 60.5508 45.8477 60.832 45.7656C61.1172 45.6797 61.4219 45.6367 61.7461 45.6367C62.2344 45.6367 62.6621 45.707 63.0293 45.8477C63.4004 45.9883 63.6738 46.1797 63.8496 46.4219C64.0254 46.6602 64.1465 46.9805 64.2129 47.3828L63.1816 47.5234C63.1348 47.2031 62.998 46.9531 62.7715 46.7734C62.5488 46.5938 62.2324 46.5039 61.8223 46.5039C61.3379 46.5039 60.9922 46.584 60.7852 46.7441C60.5781 46.9043 60.4746 47.0918 60.4746 47.3066C60.4746 47.4434 60.5176 47.5664 60.6035 47.6758C60.6895 47.7891 60.8242 47.8828 61.0078 47.957C61.1133 47.9961 61.4238 48.0859 61.9395 48.2266C62.6855 48.4258 63.2051 48.5898 63.498 48.7188C63.7949 48.8438 64.0273 49.0273 64.1953 49.2695C64.3633 49.5117 64.4473 49.8125 64.4473 50.1719C64.4473 50.5234 64.3438 50.8555 64.1367 51.168C63.9336 51.4766 63.6387 51.7168 63.252 51.8887C62.8652 52.0566 62.4277 52.1406 61.9395 52.1406C61.1309 52.1406 60.5137 51.9727 60.0879 51.6367C59.666 51.3008 59.3965 50.8027 59.2793 50.1426Z" fill="#364364"/>
<g clip-path="url(#clip0)">
<path d="M36.0251 0C42.6185 0.0527473 48.1042 5.38022 47.9987 12.2374C47.8932 18.7253 42.6185 24 35.9723 24C29.3789 24 23.8932 18.6198 23.9987 11.7626C24.1042 5.27472 29.3789 0.0527473 36.0251 0ZM43.2514 4.00879V3.95604C40.2976 1.42418 36.869 0.527473 33.0712 1.58242C30.4866 2.26813 28.4822 3.7978 26.9525 6.06593C27.058 6.06593 27.1108 6.11868 27.1635 6.11868C28.0075 6.06593 28.9042 6.06593 29.7481 6.01319C30.0119 6.01319 30.3284 5.96044 30.5921 5.96044C30.8558 5.96044 31.0141 6.11868 31.0141 6.32967C31.0141 6.59341 30.9086 6.75165 30.6448 6.75165C30.4866 6.75165 30.3811 6.8044 30.2229 6.8044C29.9591 6.85714 29.6954 6.85714 29.3789 6.90989C30.6976 10.8132 32.0163 14.7165 33.335 18.6198H33.3877C33.3877 18.567 33.4404 18.567 33.4404 18.5143C34.1789 16.2462 34.9701 13.978 35.7086 11.7099C35.7613 11.6044 35.7086 11.4989 35.7086 11.3934C35.1811 9.96923 34.6536 8.54506 34.1262 7.12088C34.0734 6.96264 33.9679 6.90989 33.8097 6.90989C33.4932 6.90989 33.1767 6.85714 32.8602 6.8044C32.7547 6.8044 32.5965 6.64615 32.5437 6.54066C32.4383 6.22418 32.6492 6.01319 32.9657 6.01319C33.1767 6.01319 33.3877 6.06593 33.5459 6.06593C33.9679 6.11868 34.3899 6.11868 34.8119 6.11868C35.4976 6.11868 36.1833 6.11868 36.869 6.11868C37.502 6.11868 38.0822 6.06593 38.6624 6.01319C38.9262 6.01319 39.0844 6.17143 39.0844 6.38242C39.0844 6.59341 38.9262 6.75165 38.7152 6.8044C38.3987 6.85714 38.0822 6.85714 37.7657 6.90989C37.4492 6.90989 37.4492 6.90989 37.5547 7.22637C38.8207 10.9187 40.0339 14.611 41.2998 18.3033C41.2998 18.356 41.3525 18.4615 41.4053 18.5143C41.5108 18.4088 41.5635 18.2506 41.5635 18.1451C41.9855 16.8264 42.3547 15.5077 42.7767 14.189C43.0404 13.3978 43.2514 12.6593 43.3042 11.8154C43.4097 10.8659 43.1987 9.91648 42.7767 9.07253C42.4602 8.49231 42.1437 7.96484 41.8273 7.38462C41.5108 6.8044 41.2998 6.22418 41.4053 5.59121C41.5108 4.9055 42.0382 4.27253 42.724 4.11429C42.8822 4.06154 43.0932 4.06154 43.2514 4.00879ZM36.2361 12.9758H36.1833C36.1306 13.0286 36.1306 13.0813 36.0778 13.1341C35.0756 16.1407 34.0207 19.1473 32.9657 22.1538C32.913 22.3648 32.913 22.4176 33.124 22.4703C34.3372 22.7868 35.5503 22.8923 36.8163 22.7868C37.6602 22.7341 38.5042 22.5231 39.3481 22.2593C39.5064 22.2066 39.5591 22.1538 39.5064 21.9956C38.5569 19.4637 37.6602 16.8791 36.7108 14.3473C36.5525 13.9253 36.3943 13.4506 36.2361 12.9758ZM31.2251 21.7319C31.2778 21.7319 31.2778 21.6791 31.3306 21.6791C29.6426 16.9846 27.902 12.2901 26.2141 7.5956C26.1613 7.5956 26.1613 7.5956 26.1086 7.5956C25.0009 10.233 24.8426 12.9231 25.8448 15.6659C26.7943 18.4088 28.6404 20.4132 31.2251 21.7319ZM45.5723 6.90989H45.5196C45.5196 6.96264 45.5196 7.01538 45.5196 7.06813C45.5196 7.80659 45.5196 8.54506 45.4668 9.28352C45.3613 10.1802 45.0448 11.0242 44.7284 11.9209C43.6734 14.9802 42.6185 18.0396 41.5635 21.1516C41.5108 21.2044 41.5108 21.3099 41.5108 21.4154C41.5108 21.4154 41.5635 21.4154 41.5635 21.4681C44.3591 19.7275 46.1525 17.2484 46.7328 14.0308C47.102 11.4462 46.7328 9.07253 45.5723 6.90989Z" fill="#B3B9CB"/>
</g>
<defs>
<clipPath id="clip0">
<rect width="24" height="24" fill="white" transform="translate(24)"/>
</clipPath>
</defs>
</svg>
