<svg width="16" height="17" viewBox="0 0 16 17" fill="none" xmlns="http://www.w3.org/2000/svg">
<path opacity="0.55" d="M15.5753 12.2232C15.8253 12.4732 15.9503 12.7768 15.9503 13.1339C15.9503 13.4911 15.8253 13.7946 15.5753 14.0446L13.7539 15.8661C13.5039 16.1161 13.2003 16.2411 12.8432 16.2411C12.4861 16.2411 12.1825 16.1161 11.9325 15.8661L7.99498 11.9286L4.05748 15.8661C3.80748 16.1161 3.50391 16.2411 3.14676 16.2411C2.78962 16.2411 2.48605 16.1161 2.23605 15.8661L0.414621 14.0446C0.164621 13.7946 0.0396206 13.4911 0.0396206 13.1339C0.0396206 12.7768 0.164621 12.4732 0.414621 12.2232L4.35212 8.28571L0.414621 4.34821C0.164621 4.09821 0.0396206 3.79464 0.0396206 3.4375C0.0396206 3.08036 0.164621 2.77678 0.414621 2.52678L2.23605 0.705356C2.48605 0.455356 2.78962 0.330356 3.14676 0.330356C3.50391 0.330356 3.80748 0.455356 4.05748 0.705356L7.99498 4.64286L11.9325 0.705356C12.1825 0.455356 12.4861 0.330356 12.8432 0.330356C13.2003 0.330356 13.5039 0.455356 13.7539 0.705356L15.5753 2.52678C15.8253 2.77678 15.9503 3.08036 15.9503 3.4375C15.9503 3.79464 15.8253 4.09821 15.5753 4.34821L11.6378 8.28571L15.5753 12.2232Z" fill="#A2A9B4"/>
</svg>
