<svg width="72" height="60" viewBox="0 0 72 60" fill="none" xmlns="http://www.w3.org/2000/svg">
<path d="M11.2793 52V43.4102H12.416V46.9375H16.8809V43.4102H18.0176V52H16.8809V47.9512H12.416V52H11.2793ZM19.3887 48.8887C19.3887 47.7363 19.709 46.8828 20.3496 46.3281C20.8848 45.8672 21.5371 45.6367 22.3066 45.6367C23.1621 45.6367 23.8613 45.918 24.4043 46.4805C24.9473 47.0391 25.2188 47.8125 25.2188 48.8008C25.2188 49.6016 25.0977 50.2324 24.8555 50.6934C24.6172 51.1504 24.2676 51.5059 23.8066 51.7598C23.3496 52.0137 22.8496 52.1406 22.3066 52.1406C21.4355 52.1406 20.7305 51.8613 20.1914 51.3027C19.6562 50.7441 19.3887 49.9395 19.3887 48.8887ZM20.4727 48.8887C20.4727 49.6855 20.6465 50.2832 20.9941 50.6816C21.3418 51.0762 21.7793 51.2734 22.3066 51.2734C22.8301 51.2734 23.2656 51.0742 23.6133 50.6758C23.9609 50.2773 24.1348 49.6699 24.1348 48.8535C24.1348 48.084 23.959 47.502 23.6074 47.1074C23.2598 46.709 22.8262 46.5098 22.3066 46.5098C21.7793 46.5098 21.3418 46.707 20.9941 47.1016C20.6465 47.4961 20.4727 48.0918 20.4727 48.8887ZM26.0391 50.1426L27.082 49.9785C27.1406 50.3965 27.3027 50.7168 27.5684 50.9395C27.8379 51.1621 28.2129 51.2734 28.6934 51.2734C29.1777 51.2734 29.5371 51.1758 29.7715 50.9805C30.0059 50.7812 30.123 50.5488 30.123 50.2832C30.123 50.0449 30.0195 49.8574 29.8125 49.7207C29.668 49.627 29.3086 49.5078 28.7344 49.3633C27.9609 49.168 27.4238 49 27.123 48.8594C26.8262 48.7148 26.5996 48.5176 26.4434 48.2676C26.291 48.0137 26.2148 47.7344 26.2148 47.4297C26.2148 47.1523 26.2773 46.8965 26.4023 46.6621C26.5312 46.4238 26.7051 46.2266 26.9238 46.0703C27.0879 45.9492 27.3105 45.8477 27.5918 45.7656C27.877 45.6797 28.1816 45.6367 28.5059 45.6367C28.9941 45.6367 29.4219 45.707 29.7891 45.8477C30.1602 45.9883 30.4336 46.1797 30.6094 46.4219C30.7852 46.6602 30.9062 46.9805 30.9727 47.3828L29.9414 47.5234C29.8945 47.2031 29.7578 46.9531 29.5312 46.7734C29.3086 46.5938 28.9922 46.5039 28.582 46.5039C28.0977 46.5039 27.752 46.584 27.5449 46.7441C27.3379 46.9043 27.2344 47.0918 27.2344 47.3066C27.2344 47.4434 27.2773 47.5664 27.3633 47.6758C27.4492 47.7891 27.584 47.8828 27.7676 47.957C27.873 47.9961 28.1836 48.0859 28.6992 48.2266C29.4453 48.4258 29.9648 48.5898 30.2578 48.7188C30.5547 48.8438 30.7871 49.0273 30.9551 49.2695C31.123 49.5117 31.207 49.8125 31.207 50.1719C31.207 50.5234 31.1035 50.8555 30.8965 51.168C30.6934 51.4766 30.3984 51.7168 30.0117 51.8887C29.625 52.0566 29.1875 52.1406 28.6992 52.1406C27.8906 52.1406 27.2734 51.9727 26.8477 51.6367C26.4258 51.3008 26.1562 50.8027 26.0391 50.1426ZM34.7637 51.0566L34.916 51.9883C34.6191 52.0508 34.3535 52.082 34.1191 52.082C33.7363 52.082 33.4395 52.0215 33.2285 51.9004C33.0176 51.7793 32.8691 51.6211 32.7832 51.4258C32.6973 51.2266 32.6543 50.8105 32.6543 50.1777V46.5977H31.8809V45.7773H32.6543V44.2363L33.7031 43.6035V45.7773H34.7637V46.5977H33.7031V50.2363C33.7031 50.5371 33.7207 50.7305 33.7559 50.8164C33.7949 50.9023 33.8555 50.9707 33.9375 51.0215C34.0234 51.0723 34.1445 51.0977 34.3008 51.0977C34.418 51.0977 34.5723 51.084 34.7637 51.0566ZM42.0645 48.9883L43.2012 49.2754C42.9629 50.209 42.5332 50.9219 41.9121 51.4141C41.2949 51.9023 40.5391 52.1465 39.6445 52.1465C38.7188 52.1465 37.9648 51.959 37.3828 51.584C36.8047 51.2051 36.3633 50.6582 36.0586 49.9434C35.7578 49.2285 35.6074 48.4609 35.6074 47.6406C35.6074 46.7461 35.7773 45.9668 36.1172 45.3027C36.4609 44.6348 36.9473 44.1289 37.5762 43.7852C38.209 43.4375 38.9043 43.2637 39.6621 43.2637C40.5215 43.2637 41.2441 43.4824 41.8301 43.9199C42.416 44.3574 42.8242 44.9727 43.0547 45.7656L41.9355 46.0293C41.7363 45.4043 41.4473 44.9492 41.0684 44.6641C40.6895 44.3789 40.2129 44.2363 39.6387 44.2363C38.9785 44.2363 38.4258 44.3945 37.9805 44.7109C37.5391 45.0273 37.2285 45.4531 37.0488 45.9883C36.8691 46.5195 36.7793 47.0684 36.7793 47.6348C36.7793 48.3652 36.8848 49.0039 37.0957 49.5508C37.3105 50.0938 37.6426 50.5 38.0918 50.7695C38.541 51.0391 39.0273 51.1738 39.5508 51.1738C40.1875 51.1738 40.7266 50.9902 41.168 50.623C41.6094 50.2559 41.9082 49.7109 42.0645 48.9883ZM44.5723 52V43.4102H46.2832L48.3164 49.4922C48.5039 50.0586 48.6406 50.4824 48.7266 50.7637C48.8242 50.4512 48.9766 49.9922 49.1836 49.3867L51.2402 43.4102H52.7695V52H51.6738V44.8105L49.1777 52H48.1523L45.668 44.6875V52H44.5723ZM54.2168 49.2402L55.2891 49.1465C55.3398 49.5762 55.457 49.9297 55.6406 50.207C55.8281 50.4805 56.1172 50.7031 56.5078 50.875C56.8984 51.043 57.3379 51.127 57.8262 51.127C58.2598 51.127 58.6426 51.0625 58.9746 50.9336C59.3066 50.8047 59.5527 50.6289 59.7129 50.4062C59.877 50.1797 59.959 49.9336 59.959 49.668C59.959 49.3984 59.8809 49.1641 59.7246 48.9648C59.5684 48.7617 59.3105 48.5918 58.9512 48.4551C58.7207 48.3652 58.2109 48.2266 57.4219 48.0391C56.6328 47.8477 56.0801 47.668 55.7637 47.5C55.3535 47.2852 55.0469 47.0195 54.8438 46.7031C54.6445 46.3828 54.5449 46.0254 54.5449 45.6309C54.5449 45.1973 54.668 44.793 54.9141 44.418C55.1602 44.0391 55.5195 43.752 55.9922 43.5566C56.4648 43.3613 56.9902 43.2637 57.5684 43.2637C58.2051 43.2637 58.7656 43.3672 59.25 43.5742C59.7383 43.7773 60.1133 44.0781 60.375 44.4766C60.6367 44.875 60.7773 45.3262 60.7969 45.8301L59.707 45.9121C59.6484 45.3691 59.4492 44.959 59.1094 44.6816C58.7734 44.4043 58.2754 44.2656 57.6152 44.2656C56.9277 44.2656 56.4258 44.3926 56.1094 44.6465C55.7969 44.8965 55.6406 45.1992 55.6406 45.5547C55.6406 45.8633 55.752 46.1172 55.9746 46.3164C56.1934 46.5156 56.7637 46.7207 57.6855 46.9316C58.6113 47.1387 59.2461 47.3203 59.5898 47.4766C60.0898 47.707 60.459 48 60.6973 48.3555C60.9355 48.707 61.0547 49.1133 61.0547 49.5742C61.0547 50.0312 60.9238 50.4629 60.6621 50.8691C60.4004 51.2715 60.0234 51.5859 59.5312 51.8125C59.043 52.0352 58.4922 52.1465 57.8789 52.1465C57.1016 52.1465 56.4492 52.0332 55.9219 51.8066C55.3984 51.5801 54.9863 51.2402 54.6855 50.7871C54.3887 50.3301 54.2324 49.8145 54.2168 49.2402Z" fill="#364364"/>
<path d="M41.27 13.9606L40.1583 15.0655C40.0735 15.1503 39.9731 15.1927 39.857 15.1927C39.7409 15.1927 39.6405 15.1503 39.5557 15.0655L35.9999 11.5097L32.4441 15.0655C32.3592 15.1503 32.2588 15.1927 32.1427 15.1927C32.0266 15.1927 31.9262 15.1503 31.8414 15.0655L30.7298 13.9606C30.6449 13.8757 30.6025 13.7753 30.6025 13.6592C30.6025 13.5387 30.6449 13.436 30.7298 13.3512L35.6985 8.38913C35.7833 8.30431 35.8838 8.2619 35.9999 8.2619C36.1159 8.2619 36.2164 8.30431 36.3012 8.38913L41.27 13.3512C41.3548 13.436 41.3972 13.5387 41.3972 13.6592C41.3972 13.7753 41.3548 13.8757 41.27 13.9606Z" fill="#B3B9CB"/>
<path fill-rule="evenodd" clip-rule="evenodd" d="M36 24C42.6274 24 48 18.6274 48 12C48 5.37258 42.6274 0 36 0C29.3726 0 24 5.37258 24 12C24 18.6274 29.3726 24 36 24ZM36 22C41.5228 22 46 17.5228 46 12C46 6.47715 41.5228 2 36 2C30.4772 2 26 6.47715 26 12C26 17.5228 30.4772 22 36 22ZM41.27 13.9606L40.1583 15.0655C40.0735 15.1503 39.9731 15.1927 39.857 15.1927C39.7409 15.1927 39.6405 15.1503 39.5557 15.0655L35.9999 11.5097L32.4441 15.0655C32.3592 15.1503 32.2588 15.1927 32.1427 15.1927C32.0266 15.1927 31.9262 15.1503 31.8414 15.0655L30.7298 13.9606C30.6449 13.8757 30.6025 13.7753 30.6025 13.6592C30.6025 13.5387 30.6449 13.436 30.7298 13.3512L35.6985 8.38913C35.7833 8.30431 35.8838 8.2619 35.9999 8.2619C36.1159 8.2619 36.2164 8.30431 36.3012 8.38913L41.27 13.3512C41.3548 13.436 41.3972 13.5387 41.3972 13.6592C41.3972 13.7753 41.3548 13.8757 41.27 13.9606Z" fill="#B3B9CB"/>
</svg>
