<svg width="72" height="60" viewBox="0 0 72 60" fill="none" xmlns="http://www.w3.org/2000/svg">
<path d="M8.37305 52H7.31836V45.2793C7.06445 45.5215 6.73047 45.7637 6.31641 46.0059C5.90625 46.248 5.53711 46.4297 5.20898 46.5508V45.5312C5.79883 45.2539 6.31445 44.918 6.75586 44.5234C7.19727 44.1289 7.50977 43.7461 7.69336 43.375H8.37305V52ZM17.6367 48.9883L18.7734 49.2754C18.5352 50.209 18.1055 50.9219 17.4844 51.4141C16.8672 51.9023 16.1113 52.1465 15.2168 52.1465C14.291 52.1465 13.5371 51.959 12.9551 51.584C12.377 51.2051 11.9355 50.6582 11.6309 49.9434C11.3301 49.2285 11.1797 48.4609 11.1797 47.6406C11.1797 46.7461 11.3496 45.9668 11.6895 45.3027C12.0332 44.6348 12.5195 44.1289 13.1484 43.7852C13.7812 43.4375 14.4766 43.2637 15.2344 43.2637C16.0938 43.2637 16.8164 43.4824 17.4023 43.9199C17.9883 44.3574 18.3965 44.9727 18.627 45.7656L17.5078 46.0293C17.3086 45.4043 17.0195 44.9492 16.6406 44.6641C16.2617 44.3789 15.7852 44.2363 15.2109 44.2363C14.5508 44.2363 13.998 44.3945 13.5527 44.7109C13.1113 45.0273 12.8008 45.4531 12.6211 45.9883C12.4414 46.5195 12.3516 47.0684 12.3516 47.6348C12.3516 48.3652 12.457 49.0039 12.668 49.5508C12.8828 50.0938 13.2148 50.5 13.6641 50.7695C14.1133 51.0391 14.5996 51.1738 15.123 51.1738C15.7598 51.1738 16.2988 50.9902 16.7402 50.623C17.1816 50.2559 17.4805 49.7109 17.6367 48.9883ZM19.6348 49.4219V48.3613H22.875V49.4219H19.6348ZM24.2285 43.4102H29.8008V44.4238H25.3652V47.0723H27.416C28.1738 47.0723 28.7754 47.1445 29.2207 47.2891C29.6699 47.4336 30.0293 47.707 30.2988 48.1094C30.5684 48.5078 30.7031 48.9727 30.7031 49.5039C30.7031 49.9375 30.6055 50.3438 30.4102 50.7227C30.2188 51.0977 29.9316 51.4043 29.5488 51.6426C29.166 51.8809 28.5137 52 27.5918 52H24.2285V43.4102ZM25.3652 51.0332H27.6387C28.252 51.0332 28.7109 50.9082 29.0156 50.6582C29.3242 50.4082 29.4785 50.0332 29.4785 49.5332C29.4785 49.1777 29.3906 48.8809 29.2148 48.6426C29.0391 48.4043 28.7949 48.2461 28.4824 48.168C28.1699 48.0898 27.6367 48.0508 26.8828 48.0508H25.3652V51.0332ZM31.916 45.7773H32.9707V50.5234L35.8945 45.7773H37.0312V52H35.9766V47.2832L33.0527 52H31.916V45.7773ZM38.0508 45.7773H43.1074V46.6504H41.1035V52H40.0547V46.6504H38.0508V45.7773ZM44.1152 54.3848V45.7773H45.0762V46.5859C45.3027 46.2695 45.5586 46.0332 45.8438 45.877C46.1289 45.7168 46.4746 45.6367 46.8809 45.6367C47.4121 45.6367 47.8809 45.7734 48.2871 46.0469C48.6934 46.3203 49 46.707 49.207 47.207C49.4141 47.7031 49.5176 48.248 49.5176 48.8418C49.5176 49.4785 49.4023 50.0527 49.1719 50.5645C48.9453 51.0723 48.6133 51.4629 48.1758 51.7363C47.7422 52.0059 47.2852 52.1406 46.8047 52.1406C46.4531 52.1406 46.1367 52.0664 45.8555 51.918C45.5781 51.7695 45.3496 51.582 45.1699 51.3555V54.3848H44.1152ZM45.0703 48.9238C45.0703 49.7246 45.2324 50.3164 45.5566 50.6992C45.8809 51.082 46.2734 51.2734 46.7344 51.2734C47.2031 51.2734 47.6035 51.0762 47.9355 50.6816C48.2715 50.2832 48.4395 49.668 48.4395 48.8359C48.4395 48.043 48.2754 47.4492 47.9473 47.0547C47.623 46.6602 47.2344 46.4629 46.7812 46.4629C46.332 46.4629 45.9336 46.6738 45.5859 47.0957C45.2422 47.5137 45.0703 48.123 45.0703 48.9238ZM50.7949 45.7773H51.8496V50.5234L54.7734 45.7773H55.9102V52H54.8555V47.2832L51.9316 52H50.7949V45.7773ZM57.4922 45.7773H58.5469V48.4668C58.8828 48.4668 59.1172 48.4023 59.25 48.2734C59.3867 48.1445 59.5859 47.7695 59.8477 47.1484C60.0547 46.6562 60.2227 46.332 60.3516 46.1758C60.4805 46.0195 60.6289 45.9141 60.7969 45.8594C60.9648 45.8047 61.2344 45.7773 61.6055 45.7773H61.8164V46.6504L61.5234 46.6445C61.2461 46.6445 61.0684 46.6855 60.9902 46.7676C60.9082 46.8535 60.7832 47.1094 60.6152 47.5352C60.4551 47.9414 60.3086 48.2227 60.1758 48.3789C60.043 48.5352 59.8379 48.6777 59.5605 48.8066C60.0137 48.9277 60.459 49.3496 60.8965 50.0723L62.0508 52H60.8906L59.7656 50.0723C59.5352 49.6855 59.334 49.4316 59.1621 49.3105C58.9902 49.1855 58.7852 49.123 58.5469 49.123V52H57.4922V45.7773ZM66.9492 49.7207L67.9863 49.8555C67.873 50.5703 67.582 51.1309 67.1133 51.5371C66.6484 51.9395 66.0762 52.1406 65.3965 52.1406C64.5449 52.1406 63.8594 51.8633 63.3398 51.3086C62.8242 50.75 62.5664 49.9512 62.5664 48.9121C62.5664 48.2402 62.6777 47.6523 62.9004 47.1484C63.123 46.6445 63.4609 46.2676 63.9141 46.0176C64.3711 45.7637 64.8672 45.6367 65.4023 45.6367C66.0781 45.6367 66.6309 45.8086 67.0605 46.1523C67.4902 46.4922 67.7656 46.9766 67.8867 47.6055L66.8613 47.7637C66.7637 47.3457 66.5898 47.0312 66.3398 46.8203C66.0938 46.6094 65.7949 46.5039 65.4434 46.5039C64.9121 46.5039 64.4805 46.6953 64.1484 47.0781C63.8164 47.457 63.6504 48.0586 63.6504 48.8828C63.6504 49.7188 63.8105 50.3262 64.1309 50.7051C64.4512 51.084 64.8691 51.2734 65.3848 51.2734C65.7988 51.2734 66.1445 51.1465 66.4219 50.8926C66.6992 50.6387 66.875 50.248 66.9492 49.7207Z" fill="#364364"/>
<path d="M35.9736 0C35.0769 0 34.233 0.105495 33.389 0.263736V11.9736C33.389 13.3978 34.5494 14.5582 35.9736 14.5582C37.3978 14.5582 38.5582 13.3978 38.5582 11.9736C38.5582 10.6022 37.5033 9.44176 36.1319 9.38901V7.27912C38.611 7.38462 40.6681 9.44176 40.6681 11.9736C40.6681 14.5582 38.5582 16.6681 35.9736 16.6681C33.389 16.6681 31.2791 14.5582 31.2791 11.9736V0.896703C30.9626 1.0022 30.6989 1.16044 30.4352 1.31868V11.9736C30.4352 15.033 32.9143 17.5121 35.9736 17.5121C39.033 17.5121 41.5121 15.033 41.5121 11.9736C41.5121 8.96703 39.0857 6.48791 36.1319 6.43516V4.32527C40.2462 4.43077 43.622 7.80659 43.622 11.9736C43.622 16.1934 40.1934 19.622 35.9736 19.622C31.7538 19.622 28.3253 16.1934 28.3253 11.9736V2.74286C25.6879 4.95824 24 8.28132 24 11.9736C24 18.6198 29.3802 23.9473 35.9736 23.9473C42.6198 23.9473 47.9473 18.567 47.9473 11.9736C48 5.38022 42.6198 0 35.9736 0Z" fill="#B3B9CB"/>
</svg>
