<svg width="72" height="60" viewBox="0 0 72 60" fill="none" xmlns="http://www.w3.org/2000/svg">
<path d="M21.2109 52V43.4102H22.9219L24.9551 49.4922C25.1426 50.0586 25.2793 50.4824 25.3652 50.7637C25.4629 50.4512 25.6152 49.9922 25.8223 49.3867L27.8789 43.4102H29.4082V52H28.3125V44.8105L25.8164 52H24.791L22.3066 44.6875V52H21.2109ZM30.7148 48.8887C30.7148 47.7363 31.0352 46.8828 31.6758 46.3281C32.2109 45.8672 32.8633 45.6367 33.6328 45.6367C34.4883 45.6367 35.1875 45.918 35.7305 46.4805C36.2734 47.0391 36.5449 47.8125 36.5449 48.8008C36.5449 49.6016 36.4238 50.2324 36.1816 50.6934C35.9434 51.1504 35.5938 51.5059 35.1328 51.7598C34.6758 52.0137 34.1758 52.1406 33.6328 52.1406C32.7617 52.1406 32.0566 51.8613 31.5176 51.3027C30.9824 50.7441 30.7148 49.9395 30.7148 48.8887ZM31.7988 48.8887C31.7988 49.6855 31.9727 50.2832 32.3203 50.6816C32.668 51.0762 33.1055 51.2734 33.6328 51.2734C34.1562 51.2734 34.5918 51.0742 34.9395 50.6758C35.2871 50.2773 35.4609 49.6699 35.4609 48.8535C35.4609 48.084 35.2852 47.502 34.9336 47.1074C34.5859 46.709 34.1523 46.5098 33.6328 46.5098C33.1055 46.5098 32.668 46.707 32.3203 47.1016C31.9727 47.4961 31.7988 48.0918 31.7988 48.8887ZM41.8242 52V51.2148C41.4297 51.832 40.8496 52.1406 40.084 52.1406C39.5879 52.1406 39.1309 52.0039 38.7129 51.7305C38.2988 51.457 37.9766 51.0762 37.7461 50.5879C37.5195 50.0957 37.4062 49.5312 37.4062 48.8945C37.4062 48.2734 37.5098 47.7109 37.7168 47.207C37.9238 46.6992 38.2344 46.3105 38.6484 46.041C39.0625 45.7715 39.5254 45.6367 40.0371 45.6367C40.4121 45.6367 40.7461 45.7168 41.0391 45.877C41.332 46.0332 41.5703 46.2383 41.7539 46.4922V43.4102H42.8027V52H41.8242ZM38.4902 48.8945C38.4902 49.6914 38.6582 50.2871 38.9941 50.6816C39.3301 51.0762 39.7266 51.2734 40.1836 51.2734C40.6445 51.2734 41.0352 51.0859 41.3555 50.7109C41.6797 50.332 41.8418 49.7559 41.8418 48.9824C41.8418 48.1309 41.6777 47.5059 41.3496 47.1074C41.0215 46.709 40.6172 46.5098 40.1367 46.5098C39.668 46.5098 39.2754 46.7012 38.959 47.084C38.6465 47.4668 38.4902 48.0703 38.4902 48.8945ZM43.7285 52L47.0508 47.5234L44.1211 43.4102H45.4746L47.0332 45.6133C47.3574 46.0703 47.5879 46.4219 47.7246 46.668C47.916 46.3555 48.1426 46.0293 48.4043 45.6895L50.1328 43.4102H51.3691L48.3516 47.459L51.6035 52H50.1973L48.0352 48.9355C47.9141 48.7598 47.7891 48.5684 47.6602 48.3613C47.4688 48.6738 47.332 48.8887 47.25 49.0059L45.0938 52H43.7285Z" fill="#364364"/>
<path d="M42.5432 9.49788L46.9895 2.29788H35.6211L34.3579 4.34044L42.5432 9.49788Z" fill="#B3B9CB"/>
<path d="M26.5262 0V11.4894L28.9515 13.0213L42.2399 9.95745L26.5262 0Z" fill="#B3B9CB"/>
<path d="M44.4632 24V12.5106L42.4927 11.234L37.3895 19.5064L44.4632 24Z" fill="#B3B9CB"/>
<path d="M28.7495 14.0426L24 21.7021H35.3684L42.0379 10.9277L28.7495 14.0426Z" fill="#B3B9CB"/>
</svg>

