<svg width="72" height="60" viewBox="0 0 72 60" fill="none" xmlns="http://www.w3.org/2000/svg">
<path d="M16.9922 49.5625L18.0176 49.4219C18.0449 50.0781 18.168 50.5273 18.3867 50.7695C18.6055 51.0117 18.9082 51.1328 19.2949 51.1328C19.5801 51.1328 19.8262 51.0684 20.0332 50.9395C20.2402 50.8066 20.3828 50.6289 20.4609 50.4062C20.5391 50.1797 20.5781 49.8203 20.5781 49.3281V43.4102H21.7148V49.2637C21.7148 49.9824 21.627 50.5391 21.4512 50.9336C21.2793 51.3281 21.0039 51.6289 20.625 51.8359C20.25 52.043 19.8086 52.1465 19.3008 52.1465C18.5469 52.1465 17.9688 51.9297 17.5664 51.4961C17.168 51.0625 16.9766 50.418 16.9922 49.5625ZM23.0449 48.8887C23.0449 47.7363 23.3652 46.8828 24.0059 46.3281C24.541 45.8672 25.1934 45.6367 25.9629 45.6367C26.8184 45.6367 27.5176 45.918 28.0605 46.4805C28.6035 47.0391 28.875 47.8125 28.875 48.8008C28.875 49.6016 28.7539 50.2324 28.5117 50.6934C28.2734 51.1504 27.9238 51.5059 27.4629 51.7598C27.0059 52.0137 26.5059 52.1406 25.9629 52.1406C25.0918 52.1406 24.3867 51.8613 23.8477 51.3027C23.3125 50.7441 23.0449 49.9395 23.0449 48.8887ZM24.1289 48.8887C24.1289 49.6855 24.3027 50.2832 24.6504 50.6816C24.998 51.0762 25.4355 51.2734 25.9629 51.2734C26.4863 51.2734 26.9219 51.0742 27.2695 50.6758C27.6172 50.2773 27.791 49.6699 27.791 48.8535C27.791 48.084 27.6152 47.502 27.2637 47.1074C26.916 46.709 26.4824 46.5098 25.9629 46.5098C25.4355 46.5098 24.998 46.707 24.6504 47.1016C24.3027 47.4961 24.1289 48.0918 24.1289 48.8887ZM29.7246 48.8887C29.7246 47.7363 30.0449 46.8828 30.6855 46.3281C31.2207 45.8672 31.873 45.6367 32.6426 45.6367C33.498 45.6367 34.1973 45.918 34.7402 46.4805C35.2832 47.0391 35.5547 47.8125 35.5547 48.8008C35.5547 49.6016 35.4336 50.2324 35.1914 50.6934C34.9531 51.1504 34.6035 51.5059 34.1426 51.7598C33.6855 52.0137 33.1855 52.1406 32.6426 52.1406C31.7715 52.1406 31.0664 51.8613 30.5273 51.3027C29.9922 50.7441 29.7246 49.9395 29.7246 48.8887ZM30.8086 48.8887C30.8086 49.6855 30.9824 50.2832 31.3301 50.6816C31.6777 51.0762 32.1152 51.2734 32.6426 51.2734C33.166 51.2734 33.6016 51.0742 33.9492 50.6758C34.2969 50.2773 34.4707 49.6699 34.4707 48.8535C34.4707 48.084 34.2949 47.502 33.9434 47.1074C33.5957 46.709 33.1621 46.5098 32.6426 46.5098C32.1152 46.5098 31.6777 46.707 31.3301 47.1016C30.9824 47.4961 30.8086 48.0918 30.8086 48.8887ZM36.7969 52V45.7773H37.7402V46.6504C37.9355 46.3457 38.1953 46.1016 38.5195 45.918C38.8438 45.7305 39.2129 45.6367 39.627 45.6367C40.0879 45.6367 40.4648 45.7324 40.7578 45.9238C41.0547 46.1152 41.2637 46.3828 41.3848 46.7266C41.877 46 42.5176 45.6367 43.3066 45.6367C43.9238 45.6367 44.3984 45.8086 44.7305 46.1523C45.0625 46.4922 45.2285 47.0176 45.2285 47.7285V52H44.1797V48.0801C44.1797 47.6582 44.1445 47.3555 44.0742 47.1719C44.0078 46.9844 43.8848 46.834 43.7051 46.7207C43.5254 46.6074 43.3145 46.5508 43.0723 46.5508C42.6348 46.5508 42.2715 46.6973 41.9824 46.9902C41.6934 47.2793 41.5488 47.7441 41.5488 48.3848V52H40.4941V47.957C40.4941 47.4883 40.4082 47.1367 40.2363 46.9023C40.0645 46.668 39.7832 46.5508 39.3926 46.5508C39.0957 46.5508 38.8203 46.6289 38.5664 46.7852C38.3164 46.9414 38.1348 47.1699 38.0215 47.4707C37.9082 47.7715 37.8516 48.2051 37.8516 48.7715V52H36.7969ZM46.7695 52V43.4102H47.8242V52H46.7695ZM53.5254 51.2324C53.1348 51.5645 52.7578 51.7988 52.3945 51.9355C52.0352 52.0723 51.6484 52.1406 51.2344 52.1406C50.5508 52.1406 50.0254 51.9746 49.6582 51.6426C49.291 51.3066 49.1074 50.8789 49.1074 50.3594C49.1074 50.0547 49.1758 49.7773 49.3125 49.5273C49.4531 49.2734 49.6348 49.0703 49.8574 48.918C50.084 48.7656 50.3379 48.6504 50.6191 48.5723C50.8262 48.5176 51.1387 48.4648 51.5566 48.4141C52.4082 48.3125 53.0352 48.1914 53.4375 48.0508C53.4414 47.9062 53.4434 47.8145 53.4434 47.7754C53.4434 47.3457 53.3438 47.043 53.1445 46.8672C52.875 46.6289 52.4746 46.5098 51.9434 46.5098C51.4473 46.5098 51.0801 46.5977 50.8418 46.7734C50.6074 46.9453 50.4336 47.252 50.3203 47.6934L49.2891 47.5527C49.3828 47.1113 49.5371 46.7559 49.752 46.4863C49.9668 46.2129 50.2773 46.0039 50.6836 45.8594C51.0898 45.7109 51.5605 45.6367 52.0957 45.6367C52.627 45.6367 53.0586 45.6992 53.3906 45.8242C53.7227 45.9492 53.9668 46.1074 54.123 46.2988C54.2793 46.4863 54.3887 46.7246 54.4512 47.0137C54.4863 47.1934 54.5039 47.5176 54.5039 47.9863V49.3926C54.5039 50.373 54.5254 50.9941 54.5684 51.2559C54.6152 51.5137 54.7051 51.7617 54.8379 52H53.7363C53.627 51.7812 53.5566 51.5254 53.5254 51.2324ZM53.4375 48.877C53.0547 49.0332 52.4805 49.166 51.7148 49.2754C51.2812 49.3379 50.9746 49.4082 50.7949 49.4863C50.6152 49.5645 50.4766 49.6797 50.3789 49.832C50.2812 49.9805 50.2324 50.1465 50.2324 50.3301C50.2324 50.6113 50.3379 50.8457 50.5488 51.0332C50.7637 51.2207 51.0762 51.3145 51.4863 51.3145C51.8926 51.3145 52.2539 51.2266 52.5703 51.0508C52.8867 50.8711 53.1191 50.627 53.2676 50.3184C53.3809 50.0801 53.4375 49.7285 53.4375 49.2637V48.877Z" fill="#364364"/>
<g clip-path="url(#clip0)">
<path d="M28.3253 12.1319L27.8505 11.6571C26.4264 10.233 25.9516 8.17582 26.5319 6.38242C25.1077 6.01319 24 4.74725 24 3.21758C24 1.42418 25.4769 0 27.2176 0C28.8 0 30.1187 1.16044 30.3824 2.69011C32.1231 2.26813 34.022 2.74286 35.3407 4.11429L35.4989 4.27253L33.1253 6.64615L32.967 6.43516C32.1758 5.64396 30.9626 5.64396 30.1714 6.43516C29.3802 7.22637 29.3802 8.43956 30.1714 9.23077L30.6462 9.70549L33.0198 12.0791L35.5516 14.611L33.178 16.9846L30.6462 14.4527L28.3253 12.1319Z" fill="#B3B9CB"/>
<path d="M30.9626 9.44175L33.4945 6.90988L35.8681 4.53626L36.3429 4.06153C37.767 2.63736 39.8242 2.16263 41.6176 2.6901C41.8286 1.10769 43.2 -0.105499 44.7824 -0.105499C46.5758 -0.105499 48 1.31868 48 3.11208C48 4.74725 46.7868 6.06593 45.2044 6.27692C45.7319 8.07032 45.2572 10.0747 43.833 11.4989L43.6747 11.7099L41.3011 9.33626L41.4594 9.17802C42.2506 8.38681 42.2506 7.17362 41.4594 6.38241C40.6681 5.5912 39.455 5.5912 38.6637 6.38241L38.2418 6.96263L35.8681 9.33626L33.3363 11.8681L30.9626 9.44175Z" fill="#B3B9CB"/>
<path d="M41.6704 21.4154C39.8243 21.9956 37.7671 21.5209 36.3429 20.0967L36.132 19.9385L38.5056 17.5648L38.6638 17.7231C39.455 18.5143 40.6682 18.5143 41.4594 17.7231C42.2506 16.9319 42.2506 15.7187 41.4594 14.9275L40.9847 14.4528L38.6111 12.1319L36.132 9.60001L38.5056 7.22638L40.9847 9.7055L43.3583 12.0791L43.8331 12.5539C45.2045 13.9253 45.6792 15.8242 45.2572 17.5648C46.8396 17.7758 48.0001 19.1473 48.0001 20.7297C48.0001 22.5231 46.5759 23.9473 44.7825 23.9473C43.2528 24 41.9342 22.8923 41.6704 21.4154Z" fill="#B3B9CB"/>
<path d="M40.7209 14.7692L38.2418 17.2483L35.8681 19.622L35.3934 20.0967C34.022 21.4681 32.0703 21.9429 30.3297 21.5209C30.0132 22.945 28.7473 24 27.2176 24C25.4242 24 24 22.5758 24 20.7824C24 19.2527 25.0549 17.9868 26.4791 17.6703C26.0044 15.9297 26.4791 13.978 27.8505 12.6066L28.0088 12.4483L30.3824 14.822L30.2242 14.9802C29.433 15.7714 29.433 16.9846 30.2242 17.7758C31.0154 18.567 32.2286 18.567 33.0198 17.7758L33.4945 17.3011L35.8681 14.9275L38.3473 12.3956L40.7209 14.7692Z" fill="#B3B9CB"/>
</g>
<defs>
<clipPath id="clip0">
<rect width="24" height="24" fill="white" transform="translate(24)"/>
</clipPath>
</defs>
</svg>
