<svg width="56" height="60" viewBox="0 0 56 60" fill="none" xmlns="http://www.w3.org/2000/svg">
<g clip-path="url(#clip0)">
<path d="M55.5 21.8C55.5 15.9 54.4 11 52.6 7C51.5 7.1 50.4 7.1 49.3 7.1C40.2 7.1 32.2 4.3 27.8 0C23.3 4.3 15.3 7.1 6.2 7.1C5.1 7.1 4 7.1 2.9 7C1.1 11 0 15.9 0 21.8C0 42.1 16.9 60 27.8 60C39.4 60 55.5 42.1 55.5 21.8Z" fill="#069DFA"/>
<path opacity="0.1" d="M52.5 7.0001C51.4 7.1001 50.3 7.1001 49.2 7.1001C40.2 7.1001 32.2 4.3001 27.7 0.100098V60.0001C39.5 60.0001 55.4 42.0001 55.4 21.8001C55.5 15.9001 54.4 11.0001 52.5 7.0001Z" fill="#010000"/>
<path opacity="0.2" d="M40.2 19.8999L43.4 16.6999L40.5 13.7999L37.3 16.9999C31.7 12.6999 23.8 12.6999 18.2 16.9999L15 13.8999L12.1 16.7999L15.3 19.9999C11 25.5999 11 33.3999 15.3 38.9999L12.1 42.1999L15 44.9999L18.2 41.7999C23.8 46.0999 31.6 46.0999 37.2 41.7999L40.4 44.9999L43.3 42.0999L40.1 38.8999C44.5 33.2999 44.5 25.4999 40.2 19.8999Z" fill="black"/>
<path d="M38.7122 38.3717C44.8043 32.2795 44.8043 22.4021 38.7122 16.31C32.62 10.2178 22.7426 10.2178 16.6504 16.31C10.5583 22.4021 10.5583 32.2795 16.6504 38.3717C22.7426 44.4639 32.62 44.4639 38.7122 38.3717Z" fill="#FC2C38"/>
<path d="M15.046 11.75L43.33 40.034L40.43 42.934L12.147 14.649L15.046 11.75Z" fill="#FC2C38"/>
<path d="M12.125 40.0682L40.41 11.7842L43.308 14.6842L15.024 42.9672L12.125 40.0682Z" fill="#FC2C38"/>
<path d="M23.036 19.7402L35.34 32.0442L32.44 34.9442L20.137 22.6392L23.036 19.7402Z" fill="white"/>
<path d="M20.115 32.0779L32.42 19.7739L35.318 22.6739L23.015 34.9769L20.115 32.0779Z" fill="white"/>
</g>
<defs>
<clipPath id="clip0">
<rect width="56" height="60" fill="white"/>
</clipPath>
</defs>
</svg>
