<svg width="56" height="60" viewBox="0 0 56 60" fill="none" xmlns="http://www.w3.org/2000/svg">
<g clip-path="url(#clip0)">
<path d="M54.8 21.8C54.8 15.9 53.8 11 51.9 7C50.8 7.1 49.8 7.1 48.7 7.1C39.7 7.1 31.8 4.3 27.4 0C23 4.3 15.1 7.1 6.1 7.1C5 7.1 4 7.1 2.9 7C1.1 11 0 15.9 0 21.8C0 42.1 16.7 60 27.4 60C38.9 60 54.8 42.1 54.8 21.8Z" fill="#FFCE12"/>
<path d="M44 45.5C44 46.5 43.2 47.3 42.2 47.3H12.7C11.7 47.3 10.9 46.5 10.9 45.5C10.9 44.5 11.7 43.7 12.7 43.7H42.2C43.2 43.6 44 44.5 44 45.5Z" fill="#36875A"/>
<path d="M35.6 47.0001C35.6 47.7001 35 48.3001 34.3 48.3001H20.6C19.9 48.3001 19.3 47.7001 19.3 47.0001V43.9001C19.3 43.2001 19.9 42.6001 20.6 42.6001H34.2C34.9 42.6001 35.5 43.2001 35.5 43.9001V47.0001H35.6Z" fill="#31D880"/>
<path d="M29 38.7002C29.7 38.7002 30.3 39.3002 30.3 40.0002V45.7002C30.3 46.4002 29.7 47.0002 29 47.0002H25.9C25.2 47.0002 24.6 46.4002 24.6 45.7002V40.0002C24.6 39.3002 25.2 38.7002 25.9 38.7002H29Z" fill="#31D880"/>
<path opacity="0.2" d="M51.9 7.0001C50.8 7.1001 49.8 7.1001 48.7 7.1001C39.8 7.1001 31.9 4.3001 27.5 0.100098V60.0001C39.2 60.0001 54.8 42.0001 54.8 21.8001C54.8 15.9001 53.7 11.0001 51.9 7.0001Z" fill="#010000"/>
<path d="M41.5 14.6C41.3 13.2 40.1 12 38.7 12H16.2C14.8 12 13.5 13.1 13.4 14.6L10.6 35.1C10.4 37.2 11.6 39 13.3 39H41.5C43.3 39 44.5 37.2 44.2 35.1L41.5 14.6Z" fill="#36875A"/>
<path d="M44.4 36.3001C44.4 38.1001 43 39.5001 41.2 39.5001H13.7C11.9 39.5001 10.5 38.1001 10.5 36.3001C10.5 34.5001 11.9 33.1001 13.7 33.1001H41.3C43 33.1001 44.4 34.5001 44.4 36.3001Z" fill="#31D880"/>
<path d="M14.6 38.1002C15.5389 38.1002 16.3 37.3391 16.3 36.4002C16.3 35.4613 15.5389 34.7002 14.6 34.7002C13.6611 34.7002 12.9 35.4613 12.9 36.4002C12.9 37.3391 13.6611 38.1002 14.6 38.1002Z" fill="#36875A"/>
<path opacity="0.25" d="M44.3 35.4V35.1L41.5 14.6C41.3 13.2 40.1 12 38.7 12H27.5V33.1L23.5 39.5H41.3C43.1 39.5 44.5 38.1 44.5 36.3C44.4 36 44.4 35.7 44.3 35.4Z" fill="#010000"/>
</g>
<defs>
<clipPath id="clip0">
<rect width="56" height="60" fill="white"/>
</clipPath>
</defs>
</svg>
