<svg width="36" height="36" viewBox="0 0 36 36" fill="none" xmlns="http://www.w3.org/2000/svg">
<path fill-rule="evenodd" clip-rule="evenodd" d="M30.5 36H5.5C2.4625 36 0 33.5375 0 30.5V5.5C0 2.4625 2.4625 0 5.5 0H30.5C33.5375 0 36 2.4625 36 5.5V30.5C36 33.5375 33.5375 36 30.5 36Z" fill="#DC3171"/>
<path fill-rule="evenodd" clip-rule="evenodd" d="M30.95 23.4C30.9 24.75 30.65 25.7 30.35 26.55C30 27.4 29.55 28.15 28.85 28.85C28.15 29.55 27.35 30 26.5 30.35C25.65 30.65 24.75 30.9 23.35 30.95C21.95 31 21.55 31 18 31C14.45 31 14.05 31 12.6 30.95C11.25 30.9 10.3 30.65 9.45 30.35C8.6 30 7.85 29.55 7.15 28.85C6.45 28.15 6 27.35 5.65 26.5C5.35 25.65 5.1 24.75 5.05 23.35C5 21.95 5 21.55 5 18C5 14.45 5 14.05 5.05 12.6C5.1 11.25 5.35 10.3 5.65 9.45C6 8.6 6.45 7.85 7.15 7.15C7.85 6.45 8.65 6 9.5 5.65C10.35 5.35 11.25 5.1 12.65 5.05C14.05 5 14.45 5 18 5C21.55 5 21.95 5 23.4 5.05C24.75 5.1 25.7 5.35 26.55 5.65C27.4 6 28.15 6.45 28.85 7.15C29.55 7.85 30 8.65 30.35 9.5C30.65 10.35 30.9 11.25 30.95 12.65C31 14.05 31 14.45 31 18C31 21.55 31 21.95 30.95 23.4ZM28.1 10.3C27.85 9.7 27.6 9.3 27.1 8.8C26.65 8.35 26.25 8.1 25.6 7.8C25.15 7.6 24.4501 7.45 23.2001 7.35C21.8501 7.3 21.4501 7.3 17.9502 7.3C14.4502 7.3 14.05 7.3 12.7 7.4C11.45 7.45 10.75 7.65 10.3 7.85C9.70005 8.1 9.30005 8.35 8.80005 8.85C8.35005 9.3 8.10005 9.7 7.80005 10.35C7.60005 10.8 7.45005 11.5 7.35005 12.75C7.30005 14.1 7.30005 14.5 7.30005 17.9999C7.30005 21.4999 7.30005 21.9 7.40005 23.2C7.45005 24.45 7.65005 25.15 7.85005 25.6C8.10005 26.2 8.35005 26.6 8.85005 27.1C9.30005 27.55 9.70005 27.8 10.35 28.1C10.8 28.3 11.5 28.45 12.75 28.55C14.1 28.6 14.5 28.6 18 28.6C21.5 28.6 21.85 28.6 23.25 28.55C24.5 28.5 25.2 28.3 25.65 28.1C26.25 27.85 26.65 27.6 27.15 27.1C27.6 26.65 27.85 26.25 28.15 25.6C28.35 25.15 28.5 24.45 28.6 23.2C28.65 21.85 28.65 21.45 28.65 17.95C28.65 14.5 28.65 14.1 28.6 12.7C28.5 11.45 28.3 10.8 28.1 10.3ZM18 24.7C14.3 24.7 11.3 21.7 11.3 18C11.3 14.3 14.3 11.3 18 11.3C21.7 11.3 24.7001 14.3 24.7001 18C24.7001 21.7 21.7 24.7 18 24.7ZM24.9501 12.6C24.1 12.6 23.4 11.9 23.4 11.05C23.4 10.2 24.1 9.5 24.9501 9.5C25.8001 9.5 26.5 10.2 26.5 11.05C26.5 11.9 25.8001 12.6 24.9501 12.6ZM17.9999 13.65C15.5999 13.65 13.6499 15.6 13.6499 18C13.6499 20.4 15.5999 22.35 17.9999 22.35C20.3999 22.35 22.3499 20.4 22.3499 18C22.3499 15.6 20.3999 13.65 17.9999 13.65Z" fill="white"/>
</svg>
