<svg width="36" height="36" viewBox="0 0 36 36" fill="none" xmlns="http://www.w3.org/2000/svg">
<path fill-rule="evenodd" clip-rule="evenodd" d="M30.5 36H5.5C2.4625 36 0 33.5375 0 30.5V5.5C0 2.4625 2.4625 0 5.5 0H30.5C33.5375 0 36 2.4625 36 5.5V30.5C36 33.5375 33.5375 36 30.5 36Z" fill="white"/>
<path d="M7.9649 8.88734C7.7849 9.02234 7.6499 13.2973 7.6499 18.3373V27.4723H10.3499H13.0499V22.1623V16.8973L15.3449 20.3623C16.6499 22.2973 17.7749 23.8723 17.9549 23.8723C18.0899 23.8723 19.2599 22.2973 20.4749 20.4073L22.7249 16.9423L22.8599 22.2073L22.9949 27.4723H25.6949H28.3499L28.2599 18.1123L28.1249 8.79734L25.3799 8.66234L22.5899 8.52734L20.4299 12.1273C19.2149 14.1073 18.1349 15.7273 17.9999 15.7273C17.8649 15.7273 16.7849 14.1523 15.6149 12.1723L13.4099 8.57234H10.8449C9.4049 8.57234 8.0999 8.70734 7.9649 8.88734Z" fill="black"/>
</svg>
