<svg width="36" height="36" viewBox="0 0 36 36" fill="none" xmlns="http://www.w3.org/2000/svg">
<path fill-rule="evenodd" clip-rule="evenodd" d="M30.5 36H5.5C2.4625 36 0 33.5375 0 30.5V5.5C0 2.4625 2.4625 0 5.5 0H30.5C33.5375 0 36 2.4625 36 5.5V30.5C36 33.5375 33.5375 36 30.5 36Z" fill="#F48420"/>
<path d="M17.9454 18.1688C21.7904 18.1808 24.9329 15.0983 24.9544 11.2933C24.9719 7.39883 21.8804 4.24783 18.0299 4.23733C14.1864 4.22633 11.0614 7.33233 11.0404 11.1883C11.0169 15.0003 14.1384 18.1543 17.9454 18.1688ZM18.0014 7.79433C19.8904 7.79633 21.3984 9.30383 21.4054 11.1968C21.4109 13.0898 19.9079 14.6068 18.0189 14.6118C16.1244 14.6208 14.6039 13.1233 14.5899 11.2373C14.5739 9.32833 16.0959 7.79233 18.0014 7.79433Z" fill="white"/>
<path d="M25.8309 20.9057C26.3859 20.3342 26.3914 19.6172 25.9399 18.8842C25.5444 18.2412 24.8609 17.9702 24.1244 18.1602C23.7464 18.2552 23.4199 18.4487 23.1139 18.6802C20.0329 20.7542 15.8149 20.6947 12.7464 18.5852C12.5954 18.4817 12.4389 18.3852 12.2734 18.3057C11.4224 17.9052 10.6019 18.0932 10.1149 18.7927C9.54392 19.6082 9.61592 20.4012 10.3364 21.0937C10.5244 21.2727 10.7354 21.4277 10.9394 21.5892C12.5859 22.8772 14.5109 23.4012 16.6444 23.6247C16.4949 23.7862 16.3984 23.8967 16.2929 24.0007C14.7284 25.5702 13.1644 27.1392 11.5969 28.7057C11.2719 29.0307 11.0399 29.3907 11.0169 29.8637C10.9834 30.5627 11.4159 31.2572 12.0964 31.5877C12.7394 31.8987 13.3949 31.8002 13.9489 31.2557C15.1789 30.0427 16.4004 28.8232 17.6044 27.5837C17.9049 27.2727 18.0699 27.2062 18.4094 27.5642C19.5814 28.7892 20.7994 29.9702 21.9959 31.1742C22.3089 31.4867 22.6589 31.7117 23.1104 31.7432C23.8219 31.7927 24.5479 31.3372 24.8714 30.6452C25.1684 30.0127 25.0539 29.3377 24.5164 28.7927C22.9364 27.1967 21.3459 25.6102 19.7609 24.0177C19.6504 23.9067 19.5674 23.8132 19.3914 23.6202C20.5584 23.4812 21.7379 23.2702 22.8154 22.8542C23.9539 22.4117 24.9784 21.7807 25.8309 20.9057Z" fill="white"/>
</svg>
