<svg width="36" height="36" viewBox="0 0 36 36" fill="none" xmlns="http://www.w3.org/2000/svg">
<path fill-rule="evenodd" clip-rule="evenodd" d="M30.4493 35.9406H5.49085C2.4584 35.9406 0 33.4822 0 30.4497V5.49092C0 2.45844 2.4584 0 5.49085 0H30.4493C33.4817 0 35.9401 2.45844 35.9401 5.49092V30.4497C35.9401 33.4822 33.4817 35.9406 30.4493 35.9406Z" fill="#B70912"/>
<path fill-rule="evenodd" clip-rule="evenodd" d="M27 25.5191H9C7.32779 25.4108 6 23.6602 6 18.0095C6 12.5076 7.32978 10.6203 9 10.502H27C28.6712 10.6103 30 12.3609 30 18.0115C30 23.5124 28.6702 25.4003 27 25.5191ZM14.9999 22.5001L22.4999 18.0001L14.9999 13.4985V22.5001Z" fill="white"/>
</svg>
