<svg width="72" height="60" viewBox="0 0 72 60" fill="none" xmlns="http://www.w3.org/2000/svg">
<path d="M16.5527 43.4102H17.6895V48.373C17.6895 49.2363 17.5918 49.9219 17.3965 50.4297C17.2012 50.9375 16.8477 51.3516 16.3359 51.6719C15.8281 51.9883 15.1602 52.1465 14.332 52.1465C13.5273 52.1465 12.8691 52.0078 12.3574 51.7305C11.8457 51.4531 11.4805 51.0527 11.2617 50.5293C11.043 50.002 10.9336 49.2832 10.9336 48.373V43.4102H12.0703V48.3672C12.0703 49.1133 12.1387 49.6641 12.2754 50.0195C12.416 50.3711 12.6543 50.6426 12.9902 50.834C13.3301 51.0254 13.7441 51.1211 14.2324 51.1211C15.0684 51.1211 15.6641 50.9316 16.0195 50.5527C16.375 50.1738 16.5527 49.4453 16.5527 48.3672V43.4102ZM19.5527 52V43.4102H21.2637L23.2969 49.4922C23.4844 50.0586 23.6211 50.4824 23.707 50.7637C23.8047 50.4512 23.957 49.9922 24.1641 49.3867L26.2207 43.4102H27.75V52H26.6543V44.8105L24.1582 52H23.1328L20.6484 44.6875V52H19.5527ZM29.7773 52V43.4102H30.9141V52H29.7773ZM33.0879 52V50.7988H34.2891V52H33.0879ZM42.3926 48.9883L43.5293 49.2754C43.291 50.209 42.8613 50.9219 42.2402 51.4141C41.623 51.9023 40.8672 52.1465 39.9727 52.1465C39.0469 52.1465 38.293 51.959 37.7109 51.584C37.1328 51.2051 36.6914 50.6582 36.3867 49.9434C36.0859 49.2285 35.9355 48.4609 35.9355 47.6406C35.9355 46.7461 36.1055 45.9668 36.4453 45.3027C36.7891 44.6348 37.2754 44.1289 37.9043 43.7852C38.5371 43.4375 39.2324 43.2637 39.9902 43.2637C40.8496 43.2637 41.5723 43.4824 42.1582 43.9199C42.7441 44.3574 43.1523 44.9727 43.3828 45.7656L42.2637 46.0293C42.0645 45.4043 41.7754 44.9492 41.3965 44.6641C41.0176 44.3789 40.541 44.2363 39.9668 44.2363C39.3066 44.2363 38.7539 44.3945 38.3086 44.7109C37.8672 45.0273 37.5566 45.4531 37.377 45.9883C37.1973 46.5195 37.1074 47.0684 37.1074 47.6348C37.1074 48.3652 37.2129 49.0039 37.4238 49.5508C37.6387 50.0938 37.9707 50.5 38.4199 50.7695C38.8691 51.0391 39.3555 51.1738 39.8789 51.1738C40.5156 51.1738 41.0547 50.9902 41.4961 50.623C41.9375 50.2559 42.2363 49.7109 42.3926 48.9883ZM44.9004 52V43.4102H46.6113L48.6445 49.4922C48.832 50.0586 48.9688 50.4824 49.0547 50.7637C49.1523 50.4512 49.3047 49.9922 49.5117 49.3867L51.5684 43.4102H53.0977V52H52.002V44.8105L49.5059 52H48.4805L45.9961 44.6875V52H44.9004ZM54.5449 49.2402L55.6172 49.1465C55.668 49.5762 55.7852 49.9297 55.9688 50.207C56.1562 50.4805 56.4453 50.7031 56.8359 50.875C57.2266 51.043 57.666 51.127 58.1543 51.127C58.5879 51.127 58.9707 51.0625 59.3027 50.9336C59.6348 50.8047 59.8809 50.6289 60.041 50.4062C60.2051 50.1797 60.2871 49.9336 60.2871 49.668C60.2871 49.3984 60.209 49.1641 60.0527 48.9648C59.8965 48.7617 59.6387 48.5918 59.2793 48.4551C59.0488 48.3652 58.5391 48.2266 57.75 48.0391C56.9609 47.8477 56.4082 47.668 56.0918 47.5C55.6816 47.2852 55.375 47.0195 55.1719 46.7031C54.9727 46.3828 54.873 46.0254 54.873 45.6309C54.873 45.1973 54.9961 44.793 55.2422 44.418C55.4883 44.0391 55.8477 43.752 56.3203 43.5566C56.793 43.3613 57.3184 43.2637 57.8965 43.2637C58.5332 43.2637 59.0938 43.3672 59.5781 43.5742C60.0664 43.7773 60.4414 44.0781 60.7031 44.4766C60.9648 44.875 61.1055 45.3262 61.125 45.8301L60.0352 45.9121C59.9766 45.3691 59.7773 44.959 59.4375 44.6816C59.1016 44.4043 58.6035 44.2656 57.9434 44.2656C57.2559 44.2656 56.7539 44.3926 56.4375 44.6465C56.125 44.8965 55.9688 45.1992 55.9688 45.5547C55.9688 45.8633 56.0801 46.1172 56.3027 46.3164C56.5215 46.5156 57.0918 46.7207 58.0137 46.9316C58.9395 47.1387 59.5742 47.3203 59.918 47.4766C60.418 47.707 60.7871 48 61.0254 48.3555C61.2637 48.707 61.3828 49.1133 61.3828 49.5742C61.3828 50.0312 61.252 50.4629 60.9902 50.8691C60.7285 51.2715 60.3516 51.5859 59.8594 51.8125C59.3711 52.0352 58.8203 52.1465 58.207 52.1465C57.4297 52.1465 56.7773 52.0332 56.25 51.8066C55.7266 51.5801 55.3145 51.2402 55.0137 50.7871C54.7168 50.3301 54.5605 49.8145 54.5449 49.2402Z" fill="#364364"/>
<g clip-path="url(#clip0)">
<path d="M47.2088 6.11867C40.6154 6.11867 39.2967 8.12307 36.2374 10.4439C36.2374 10.4439 36.2901 9.59999 35.4989 9.4945C34.7605 9.28351 34.5495 10.022 34.5495 10.022C34.5495 10.022 34.2857 9.59999 34.1802 9.17801C33.7055 7.33186 31.5429 5.38021 29.1692 3.00659C26.7956 0.63296 24.422 0.843949 24.422 0.843949L24.211 1.68791C23.6308 3.37582 24.211 3.74505 24.211 4.27252C24.211 4.79999 24.3692 5.22197 24.7385 6.01318C25.2132 6.80439 25.4242 9.33626 25.5824 10.5494C25.7407 11.8154 26.6901 12.6066 26.8484 12.7648C27.0066 12.9231 25.6879 13.556 25.6879 13.7143V14.4527C25.6879 14.5582 25.2132 14.9275 25.1077 15.0857C25.0022 15.1912 24.9495 15.7187 25.1077 17.7231C25.2659 19.7275 28.6945 21.8374 29.5912 21.9956C30.5407 22.2066 31.3319 20.3604 31.8594 20.1494C32.4396 19.9385 33.811 18.4615 33.811 18.4615C33.811 18.4615 34.233 22.3648 34.233 20.8879C34.233 19.411 35.1297 19.0417 35.1297 19.0417L35.2352 18.0396C35.2352 18.0396 36.1846 21.1516 37.2923 22.3121C38.4 23.4198 40.5626 23.6308 40.7736 23.6308C40.9846 23.6308 42.4088 23.6835 43.622 20.5714C44.8879 17.4593 42.8835 16.6681 43.3055 16.6681C43.7275 16.6681 45.2044 15.4549 44.9934 14.4C44.7824 13.345 45.7846 11.2352 46.7868 10.233C47.789 9.23076 47.9473 6.69889 47.9473 6.5934C48 6.54065 47.789 6.11867 47.2088 6.11867Z" fill="#B3B9CB"/>
</g>
<defs>
<clipPath id="clip0">
<rect width="24" height="24" fill="white" transform="translate(24)"/>
</clipPath>
</defs>
</svg>

