<svg width="72" height="60" viewBox="0 0 72 60" fill="none" xmlns="http://www.w3.org/2000/svg">
<path d="M19.2363 52V43.4102H22.1953C22.8633 43.4102 23.373 43.4512 23.7246 43.5332C24.2168 43.6465 24.6367 43.8516 24.9844 44.1484C25.4375 44.5312 25.7754 45.0215 25.998 45.6191C26.2246 46.2129 26.3379 46.8926 26.3379 47.6582C26.3379 48.3105 26.2617 48.8887 26.1094 49.3926C25.957 49.8965 25.7617 50.3145 25.5234 50.6465C25.2852 50.9746 25.0234 51.2344 24.7383 51.4258C24.457 51.6133 24.1152 51.7559 23.7129 51.8535C23.3145 51.9512 22.8555 52 22.3359 52H19.2363ZM20.373 50.9863H22.207C22.7734 50.9863 23.2168 50.9336 23.5371 50.8281C23.8613 50.7227 24.1191 50.5742 24.3105 50.3828C24.5801 50.1133 24.7891 49.752 24.9375 49.2988C25.0898 48.8418 25.166 48.2891 25.166 47.6406C25.166 46.7422 25.0176 46.0527 24.7207 45.5723C24.4277 45.0879 24.0703 44.7637 23.6484 44.5996C23.3438 44.4824 22.8535 44.4238 22.1777 44.4238H20.373V50.9863ZM27.7617 52V45.7773H28.7109V46.7207C28.9531 46.2793 29.1758 45.9883 29.3789 45.8477C29.5859 45.707 29.8125 45.6367 30.0586 45.6367C30.4141 45.6367 30.7754 45.75 31.1426 45.9766L30.7793 46.9551C30.5215 46.8027 30.2637 46.7266 30.0059 46.7266C29.7754 46.7266 29.5684 46.7969 29.3848 46.9375C29.2012 47.0742 29.0703 47.2656 28.9922 47.5117C28.875 47.8867 28.8164 48.2969 28.8164 48.7422V52H27.7617ZM35.8477 52V51.0859C35.3633 51.7891 34.7051 52.1406 33.873 52.1406C33.5059 52.1406 33.1621 52.0703 32.8418 51.9297C32.5254 51.7891 32.2891 51.6133 32.1328 51.4023C31.9805 51.1875 31.873 50.9258 31.8105 50.6172C31.7676 50.4102 31.7461 50.082 31.7461 49.6328V45.7773H32.8008V49.2285C32.8008 49.7793 32.8223 50.1504 32.8652 50.3418C32.9316 50.6191 33.0723 50.8379 33.2871 50.998C33.502 51.1543 33.7676 51.2324 34.084 51.2324C34.4004 51.2324 34.6973 51.1523 34.9746 50.9922C35.252 50.8281 35.4473 50.6074 35.5605 50.3301C35.6777 50.0488 35.7363 49.6426 35.7363 49.1113V45.7773H36.791V52H35.8477ZM38.4492 54.3848V45.7773H39.4102V46.5859C39.6367 46.2695 39.8926 46.0332 40.1777 45.877C40.4629 45.7168 40.8086 45.6367 41.2148 45.6367C41.7461 45.6367 42.2148 45.7734 42.6211 46.0469C43.0273 46.3203 43.334 46.707 43.541 47.207C43.748 47.7031 43.8516 48.248 43.8516 48.8418C43.8516 49.4785 43.7363 50.0527 43.5059 50.5645C43.2793 51.0723 42.9473 51.4629 42.5098 51.7363C42.0762 52.0059 41.6191 52.1406 41.1387 52.1406C40.7871 52.1406 40.4707 52.0664 40.1895 51.918C39.9121 51.7695 39.6836 51.582 39.5039 51.3555V54.3848H38.4492ZM39.4043 48.9238C39.4043 49.7246 39.5664 50.3164 39.8906 50.6992C40.2148 51.082 40.6074 51.2734 41.0684 51.2734C41.5371 51.2734 41.9375 51.0762 42.2695 50.6816C42.6055 50.2832 42.7734 49.668 42.7734 48.8359C42.7734 48.043 42.6094 47.4492 42.2812 47.0547C41.957 46.6602 41.5684 46.4629 41.1152 46.4629C40.666 46.4629 40.2676 46.6738 39.9199 47.0957C39.5762 47.5137 39.4043 48.123 39.4043 48.9238ZM49.1895 51.2324C48.7988 51.5645 48.4219 51.7988 48.0586 51.9355C47.6992 52.0723 47.3125 52.1406 46.8984 52.1406C46.2148 52.1406 45.6895 51.9746 45.3223 51.6426C44.9551 51.3066 44.7715 50.8789 44.7715 50.3594C44.7715 50.0547 44.8398 49.7773 44.9766 49.5273C45.1172 49.2734 45.2988 49.0703 45.5215 48.918C45.748 48.7656 46.002 48.6504 46.2832 48.5723C46.4902 48.5176 46.8027 48.4648 47.2207 48.4141C48.0723 48.3125 48.6992 48.1914 49.1016 48.0508C49.1055 47.9062 49.1074 47.8145 49.1074 47.7754C49.1074 47.3457 49.0078 47.043 48.8086 46.8672C48.5391 46.6289 48.1387 46.5098 47.6074 46.5098C47.1113 46.5098 46.7441 46.5977 46.5059 46.7734C46.2715 46.9453 46.0977 47.252 45.9844 47.6934L44.9531 47.5527C45.0469 47.1113 45.2012 46.7559 45.416 46.4863C45.6309 46.2129 45.9414 46.0039 46.3477 45.8594C46.7539 45.7109 47.2246 45.6367 47.7598 45.6367C48.291 45.6367 48.7227 45.6992 49.0547 45.8242C49.3867 45.9492 49.6309 46.1074 49.7871 46.2988C49.9434 46.4863 50.0527 46.7246 50.1152 47.0137C50.1504 47.1934 50.168 47.5176 50.168 47.9863V49.3926C50.168 50.373 50.1895 50.9941 50.2324 51.2559C50.2793 51.5137 50.3691 51.7617 50.502 52H49.4004C49.291 51.7812 49.2207 51.5254 49.1895 51.2324ZM49.1016 48.877C48.7188 49.0332 48.1445 49.166 47.3789 49.2754C46.9453 49.3379 46.6387 49.4082 46.459 49.4863C46.2793 49.5645 46.1406 49.6797 46.043 49.832C45.9453 49.9805 45.8965 50.1465 45.8965 50.3301C45.8965 50.6113 46.002 50.8457 46.2129 51.0332C46.4277 51.2207 46.7402 51.3145 47.1504 51.3145C47.5566 51.3145 47.918 51.2266 48.2344 51.0508C48.5508 50.8711 48.7832 50.627 48.9316 50.3184C49.0449 50.0801 49.1016 49.7285 49.1016 49.2637V48.877ZM51.7852 52V43.4102H52.8398V52H51.7852Z" fill="#364364"/>
<path d="M35.4191 22.4106C37.5151 22.4106 39.2143 20.7265 39.2143 18.649C39.2143 16.5715 37.5151 14.8874 35.4191 14.8874C33.3231 14.8874 31.6239 16.5715 31.6239 18.649C31.6239 20.7265 33.3231 22.4106 35.4191 22.4106Z" fill="#B3B9CB"/>
<path d="M40.1229 14.1457C41.2455 15.3113 41.9404 16.9007 41.9404 18.649C41.9404 20.8742 40.8178 22.8344 39.1073 24C42.2611 23.0464 44.8803 20.7152 46.0028 17.8543C47.6064 13.9338 46.1097 10.9669 43.5974 8.31788C43.6509 8.68874 43.7043 9.00662 43.7043 9.37748C43.7578 11.6026 42.2611 13.5099 40.1229 14.1457Z" fill="#B3B9CB"/>
<path d="M38.7331 12.2384C40.3568 12.2384 41.6731 10.9338 41.6731 9.3245C41.6731 7.7152 40.3568 6.4106 38.7331 6.4106C37.1095 6.4106 35.7932 7.7152 35.7932 9.3245C35.7932 10.9338 37.1095 12.2384 38.7331 12.2384Z" fill="#B3B9CB"/>
<path d="M30.3944 22.8344C29.4323 21.7219 28.8443 20.2384 28.8443 18.649C28.8443 15.3113 31.3566 12.5563 34.6173 12.1854C34.0827 11.3907 33.7086 10.3841 33.7086 9.37748C33.7086 6.62252 35.9536 4.39735 38.7332 4.39735C38.947 4.39735 39.1608 4.39735 39.4281 4.45033C37.771 3.01987 36.1674 1.5894 34.8311 0C35.526 6.83444 28.577 4.34437 26.0113 10.649C24.3008 14.8874 25.8509 20.0795 30.3944 22.8344Z" fill="#B3B9CB"/>
</svg>
