<svg width="72" height="60" viewBox="0 0 72 60" fill="none" xmlns="http://www.w3.org/2000/svg">
<path d="M10.5469 47.8164C10.5469 46.3906 10.9297 45.2754 11.6953 44.4707C12.4609 43.6621 13.4492 43.2578 14.6602 43.2578C15.4531 43.2578 16.168 43.4473 16.8047 43.8262C17.4414 44.2051 17.9258 44.7344 18.2578 45.4141C18.5938 46.0898 18.7617 46.8574 18.7617 47.7168C18.7617 48.5879 18.5859 49.3672 18.2344 50.0547C17.8828 50.7422 17.3848 51.2637 16.7402 51.6191C16.0957 51.9707 15.4004 52.1465 14.6543 52.1465C13.8457 52.1465 13.123 51.9512 12.4863 51.5605C11.8496 51.1699 11.3672 50.6367 11.0391 49.9609C10.7109 49.2852 10.5469 48.5703 10.5469 47.8164ZM11.7188 47.834C11.7188 48.8691 11.9961 49.6855 12.5508 50.2832C13.1094 50.877 13.8086 51.1738 14.6484 51.1738C15.5039 51.1738 16.207 50.873 16.7578 50.2715C17.3125 49.6699 17.5898 48.8164 17.5898 47.7109C17.5898 47.0117 17.4707 46.4023 17.2324 45.8828C16.998 45.3594 16.6523 44.9551 16.1953 44.6699C15.7422 44.3809 15.2324 44.2363 14.666 44.2363C13.8613 44.2363 13.168 44.5137 12.5859 45.0684C12.0078 45.6191 11.7188 46.541 11.7188 47.834ZM20.0977 54.3848V45.7773H21.0586V46.5859C21.2852 46.2695 21.541 46.0332 21.8262 45.877C22.1113 45.7168 22.457 45.6367 22.8633 45.6367C23.3945 45.6367 23.8633 45.7734 24.2695 46.0469C24.6758 46.3203 24.9824 46.707 25.1895 47.207C25.3965 47.7031 25.5 48.248 25.5 48.8418C25.5 49.4785 25.3848 50.0527 25.1543 50.5645C24.9277 51.0723 24.5957 51.4629 24.1582 51.7363C23.7246 52.0059 23.2676 52.1406 22.7871 52.1406C22.4355 52.1406 22.1191 52.0664 21.8379 51.918C21.5605 51.7695 21.332 51.582 21.1523 51.3555V54.3848H20.0977ZM21.0527 48.9238C21.0527 49.7246 21.2148 50.3164 21.5391 50.6992C21.8633 51.082 22.2559 51.2734 22.7168 51.2734C23.1855 51.2734 23.5859 51.0762 23.918 50.6816C24.2539 50.2832 24.4219 49.668 24.4219 48.8359C24.4219 48.043 24.2578 47.4492 23.9297 47.0547C23.6055 46.6602 23.2168 46.4629 22.7637 46.4629C22.3145 46.4629 21.916 46.6738 21.5684 47.0957C21.2246 47.5137 21.0527 48.123 21.0527 48.9238ZM31.0371 49.9961L32.127 50.1309C31.9551 50.7676 31.6367 51.2617 31.1719 51.6133C30.707 51.9648 30.1133 52.1406 29.3906 52.1406C28.4805 52.1406 27.7578 51.8613 27.2227 51.3027C26.6914 50.7402 26.4258 49.9531 26.4258 48.9414C26.4258 47.8945 26.6953 47.082 27.2344 46.5039C27.7734 45.9258 28.4727 45.6367 29.332 45.6367C30.1641 45.6367 30.8438 45.9199 31.3711 46.4863C31.8984 47.0527 32.1621 47.8496 32.1621 48.877C32.1621 48.9395 32.1602 49.0332 32.1562 49.1582H27.5156C27.5547 49.8418 27.748 50.3652 28.0957 50.7285C28.4434 51.0918 28.877 51.2734 29.3965 51.2734C29.7832 51.2734 30.1133 51.1719 30.3867 50.9688C30.6602 50.7656 30.877 50.4414 31.0371 49.9961ZM27.5742 48.291H31.0488C31.002 47.7676 30.8691 47.375 30.6504 47.1133C30.3145 46.707 29.8789 46.5039 29.3438 46.5039C28.8594 46.5039 28.4512 46.666 28.1191 46.9902C27.791 47.3145 27.6094 47.748 27.5742 48.291ZM33.457 52V45.7773H34.4062V46.6621C34.8633 45.9785 35.5234 45.6367 36.3867 45.6367C36.7617 45.6367 37.1055 45.7051 37.418 45.8418C37.7344 45.9746 37.9707 46.1504 38.127 46.3691C38.2832 46.5879 38.3926 46.8477 38.4551 47.1484C38.4941 47.3438 38.5137 47.6855 38.5137 48.1738V52H37.459V48.2148C37.459 47.7852 37.418 47.4648 37.3359 47.2539C37.2539 47.0391 37.1074 46.8691 36.8965 46.7441C36.6895 46.6152 36.4453 46.5508 36.1641 46.5508C35.7148 46.5508 35.3262 46.6934 34.998 46.9785C34.6738 47.2637 34.5117 47.8047 34.5117 48.6016V52H33.457ZM46.4004 48.9883L47.5371 49.2754C47.2988 50.209 46.8691 50.9219 46.248 51.4141C45.6309 51.9023 44.875 52.1465 43.9805 52.1465C43.0547 52.1465 42.3008 51.959 41.7188 51.584C41.1406 51.2051 40.6992 50.6582 40.3945 49.9434C40.0938 49.2285 39.9434 48.4609 39.9434 47.6406C39.9434 46.7461 40.1133 45.9668 40.4531 45.3027C40.7969 44.6348 41.2832 44.1289 41.9121 43.7852C42.5449 43.4375 43.2402 43.2637 43.998 43.2637C44.8574 43.2637 45.5801 43.4824 46.166 43.9199C46.752 44.3574 47.1602 44.9727 47.3906 45.7656L46.2715 46.0293C46.0723 45.4043 45.7832 44.9492 45.4043 44.6641C45.0254 44.3789 44.5488 44.2363 43.9746 44.2363C43.3145 44.2363 42.7617 44.3945 42.3164 44.7109C41.875 45.0273 41.5645 45.4531 41.3848 45.9883C41.2051 46.5195 41.1152 47.0684 41.1152 47.6348C41.1152 48.3652 41.2207 49.0039 41.4316 49.5508C41.6465 50.0938 41.9785 50.5 42.4277 50.7695C42.877 51.0391 43.3633 51.1738 43.8867 51.1738C44.5234 51.1738 45.0625 50.9902 45.5039 50.623C45.9453 50.2559 46.2441 49.7109 46.4004 48.9883ZM52.8691 51.2324C52.4785 51.5645 52.1016 51.7988 51.7383 51.9355C51.3789 52.0723 50.9922 52.1406 50.5781 52.1406C49.8945 52.1406 49.3691 51.9746 49.002 51.6426C48.6348 51.3066 48.4512 50.8789 48.4512 50.3594C48.4512 50.0547 48.5195 49.7773 48.6562 49.5273C48.7969 49.2734 48.9785 49.0703 49.2012 48.918C49.4277 48.7656 49.6816 48.6504 49.9629 48.5723C50.1699 48.5176 50.4824 48.4648 50.9004 48.4141C51.752 48.3125 52.3789 48.1914 52.7812 48.0508C52.7852 47.9062 52.7871 47.8145 52.7871 47.7754C52.7871 47.3457 52.6875 47.043 52.4883 46.8672C52.2188 46.6289 51.8184 46.5098 51.2871 46.5098C50.791 46.5098 50.4238 46.5977 50.1855 46.7734C49.9512 46.9453 49.7773 47.252 49.6641 47.6934L48.6328 47.5527C48.7266 47.1113 48.8809 46.7559 49.0957 46.4863C49.3105 46.2129 49.6211 46.0039 50.0273 45.8594C50.4336 45.7109 50.9043 45.6367 51.4395 45.6367C51.9707 45.6367 52.4023 45.6992 52.7344 45.8242C53.0664 45.9492 53.3105 46.1074 53.4668 46.2988C53.623 46.4863 53.7324 46.7246 53.7949 47.0137C53.8301 47.1934 53.8477 47.5176 53.8477 47.9863V49.3926C53.8477 50.373 53.8691 50.9941 53.9121 51.2559C53.959 51.5137 54.0488 51.7617 54.1816 52H53.0801C52.9707 51.7812 52.9004 51.5254 52.8691 51.2324ZM52.7812 48.877C52.3984 49.0332 51.8242 49.166 51.0586 49.2754C50.625 49.3379 50.3184 49.4082 50.1387 49.4863C49.959 49.5645 49.8203 49.6797 49.7227 49.832C49.625 49.9805 49.5762 50.1465 49.5762 50.3301C49.5762 50.6113 49.6816 50.8457 49.8926 51.0332C50.1074 51.2207 50.4199 51.3145 50.8301 51.3145C51.2363 51.3145 51.5977 51.2266 51.9141 51.0508C52.2305 50.8711 52.4629 50.627 52.6113 50.3184C52.7246 50.0801 52.7812 49.7285 52.7812 49.2637V48.877ZM55.4766 52V45.7773H56.4258V46.7207C56.668 46.2793 56.8906 45.9883 57.0938 45.8477C57.3008 45.707 57.5273 45.6367 57.7734 45.6367C58.1289 45.6367 58.4902 45.75 58.8574 45.9766L58.4941 46.9551C58.2363 46.8027 57.9785 46.7266 57.7207 46.7266C57.4902 46.7266 57.2832 46.7969 57.0996 46.9375C56.916 47.0742 56.7852 47.2656 56.707 47.5117C56.5898 47.8867 56.5312 48.2969 56.5312 48.7422V52H55.4766ZM61.7871 51.0566L61.9395 51.9883C61.6426 52.0508 61.377 52.082 61.1426 52.082C60.7598 52.082 60.4629 52.0215 60.252 51.9004C60.041 51.7793 59.8926 51.6211 59.8066 51.4258C59.7207 51.2266 59.6777 50.8105 59.6777 50.1777V46.5977H58.9043V45.7773H59.6777V44.2363L60.7266 43.6035V45.7773H61.7871V46.5977H60.7266V50.2363C60.7266 50.5371 60.7441 50.7305 60.7793 50.8164C60.8184 50.9023 60.8789 50.9707 60.9609 51.0215C61.0469 51.0723 61.168 51.0977 61.3242 51.0977C61.4414 51.0977 61.5957 51.084 61.7871 51.0566Z" fill="#364364"/>
<path fill-rule="evenodd" clip-rule="evenodd" d="M48 12C48 18.6274 42.6274 24 36 24C29.3726 24 24 18.6274 24 12C24 5.37258 29.3726 0 36 0C42.6274 0 48 5.37258 48 12ZM39.104 14.6654C39.4744 14.3595 40.6079 13.4001 41.9231 12.1623C42.1303 11.9672 42.359 11.7675 42.589 11.5667C43.7208 10.5785 44.8692 9.63324 43.6667 9C42.927 8.61051 41.1842 8.32216 39 8.33333C36.9116 8.34402 34.4273 8.58379 32.3214 8.2508C29.883 7.9631 28.6202 6.8659 28.0387 6.36071C27.9412 6.27597 27.8628 6.20789 27.8013 6.16307C27.8167 6.18867 27.8325 6.21521 27.8486 6.24206C28.467 7.27713 29.443 9.32057 33.3333 9.66667C34.8817 9.80441 36.5135 9.72166 37.7701 9.74356C40.1257 9.7846 41.6566 9.93119 42 10.6667C42.1097 11.0848 41.2937 12.01 40.4258 12.956C39.737 13.7068 39.104 14.3967 39.104 14.6654ZM32.0862 18.0619C32.7508 18.0619 33.2896 17.5231 33.2896 16.8585C33.2896 16.1939 32.7508 15.6551 32.0862 15.6551C31.4216 15.6551 30.8828 16.1939 30.8828 16.8585C30.8828 17.5231 31.4216 18.0619 32.0862 18.0619ZM37.2146 18.0619C37.8792 18.0619 38.418 17.5231 38.418 16.8585C38.418 16.1939 37.8792 15.6551 37.2146 15.6551C36.55 15.6551 36.0112 16.1939 36.0112 16.8585C36.0112 17.5231 36.55 18.0619 37.2146 18.0619Z" fill="#B3B9CB"/>
</svg>
