<svg width="502" height="511" viewBox="0 0 502 511" fill="none" xmlns="http://www.w3.org/2000/svg">
<path d="M247.273 510.861C252.004 491.559 257.034 474.214 262.164 461.523C265.792 452.546 271.203 433.841 280.887 433.569C293.238 433.221 302.174 456.022 309.788 475.867C314.276 487.376 318.055 499.043 321.211 510.861H374.28C380.506 454.767 383.281 400.512 385.946 370.217L177.7 371.864C177.051 399.13 178.576 454.169 181.391 510.861H247.273Z" fill="#FF7600"/>
<path d="M483.138 194.938C434.453 144.032 358.428 138.934 289.108 135.526C287.581 135.454 286.041 135.475 284.493 135.563C282.946 135.475 281.396 135.334 279.879 135.526C183.923 147.681 116.322 153.981 66.4735 198.43C51.865 211.456 39.8398 231.46 55.0384 254.446C61.2951 263.945 92.4646 289.47 112.392 276.145C121.431 270.625 126.207 268.622 131.773 263.861C143.585 253.757 172.098 249.367 181.741 248.212C182.077 248.172 176.851 251.471 177.157 251.648C177.157 251.648 182.365 282.744 180.371 325.146C179.229 349.546 173.522 413.301 175.628 424.955C176.336 428.925 284.744 415.765 303.313 413.668C345.054 408.954 371.117 414.783 371.443 414.764C375.265 414.539 385.891 431.044 386.569 427.239C388.676 415.586 389.758 349.546 388.616 325.146C386.621 282.744 395.965 254.747 395.965 254.747C396.271 254.571 388.489 251.083 388.822 251.139C404.614 253.812 401.433 252.718 414.22 261.558C426.057 269.74 417.438 266.963 437.22 274.18C474.533 282.45 488.317 261.981 494.574 252.481C509.772 229.496 496.632 209.115 483.138 194.938Z" fill="#EB4444"/>
<path d="M331.696 69.5838L324.815 100.43C331.569 101.923 338.479 96.247 340.445 87.7432C342.247 79.0728 338.285 71.0763 331.696 69.5838Z" fill="#ECBB87"/>
<path d="M274.142 8.82253C246.205 8.85488 223.219 35.2373 220.478 68.8765C213.632 69.4388 208.602 76.7392 209.282 85.5576C209.99 94.2567 216 100.876 222.9 100.381L222.279 91.9382C229.702 121.06 255.567 142.532 274.297 142.51C296.201 142.485 328.279 112.442 328.236 75.6034C328.193 38.764 304.114 8.95398 274.142 8.82253Z" fill="#ECBB87"/>
<path d="M311.898 85.2908C306.625 82.6297 300.04 84.3042 297.246 88.9751C294.451 93.6457 296.27 99.6449 301.543 102.306C306.816 104.967 313.401 103.292 316.196 98.6211C318.99 93.9506 317.006 87.9518 311.898 85.2908Z" fill="#D3856C"/>
<path d="M249.632 85.3616C244.36 82.7005 237.774 84.3751 234.98 89.046C232.185 93.7165 234.004 99.7153 239.277 102.376C244.55 105.037 251.135 103.363 253.929 98.692C256.889 94.0211 254.905 88.0227 249.632 85.3616Z" fill="#D3856C"/>
<path d="M275.197 58.4951L274.703 58.4955C269.927 58.5012 266.309 62.5059 266.314 67.1732L266.335 85.5094C266.341 90.3437 283.468 90.3234 283.463 85.4895L283.441 67.1533C283.435 62.3194 279.808 58.4898 275.197 58.4951Z" fill="#D3856C"/>
<path d="M329.555 123.942C329.051 115.442 329.865 106.606 329.854 98.1044C329.852 95.9433 328.743 94.5814 326.688 93.7704C328.361 86.4878 329.883 79.3241 331.926 72.2644C334.714 62.2596 337.502 52.9218 334.032 42.5907C332.71 38.9249 332.213 35.7586 331.385 32.092C330.061 26.2595 327.751 23.0948 323.629 18.4324C318.352 12.6047 307.142 2.94942 298.744 3.12577C299.731 2.45798 300.553 0.956559 301.376 0.288767C291.494 -0.533132 281.614 0.478467 272.064 2.32329C268.442 2.99432 264.984 3.83159 261.362 4.66966C235.02 10.8679 221.865 27.5526 219.097 54.7266C217.858 67.2759 220.464 82.1785 222.206 95.2525C221.419 96.0064 220.997 96.978 220.999 98.231L221.063 153.74C221.082 169.575 234.442 187.729 249.436 193.546C249.926 190.045 253.385 191.208 256.514 191.204C270.018 191.022 283.028 191.007 296.042 194.492C304.265 185.314 312.983 176.636 321.042 167.459C322.193 166.124 333.216 156.276 332.72 154.943C332.555 154.61 332.39 154.11 332.389 153.61C332.223 152.444 332.057 151.277 331.562 150.444C332.385 150.443 333.209 150.276 333.867 150.275C332.705 141.608 330.06 132.777 329.555 123.942ZM275.835 95.0001C250.159 95.03 229.536 90.7518 223.103 94.5839C223.465 80.4223 224.77 51.5248 226.171 48.5506C226.991 45.3828 232.908 35.0407 236.371 38.8707C243.626 46.8632 284.797 47.1487 284.962 47.1487C296.818 46.1351 304.232 49.627 309.176 52.1214C308.844 50.2883 307.853 47.4557 301.589 42.1287C311.309 44.9516 314.609 50.9488 317.25 55.7795C317.083 53.946 313.778 43.6148 313.778 43.6148C313.778 43.6148 324.025 66.31 325.479 93.391C317.415 91.2991 298.892 94.9734 275.835 95.0001Z" fill="#76513B"/>
<path d="M245.456 70.4693C243.315 70.4717 241.505 72.141 241.507 74.1411C241.51 76.1413 243.323 77.8061 245.464 77.8037C247.605 77.8012 249.415 76.132 249.412 74.1318C249.41 72.1317 247.596 70.4669 245.456 70.4693ZM300.42 69.8589C298.279 69.8613 296.469 71.5306 296.472 73.5308C296.474 75.5313 298.288 77.1957 300.428 77.1933C302.569 77.1909 304.379 75.522 304.376 73.5215C304.374 71.5213 302.561 69.8565 300.42 69.8589ZM255.759 60.6846L239.949 60.7032C238.631 60.7048 237.48 61.7063 237.481 62.8728C237.482 64.0397 238.637 65.0384 239.954 65.0371L255.763 65.0185C257.081 65.0169 258.233 64.0154 258.231 62.8485C258.23 61.682 257.076 60.6829 255.759 60.6846ZM309.18 60.6223L293.371 60.6409C292.054 60.6425 290.902 61.644 290.903 62.8109C290.905 63.9778 292.058 64.9765 293.376 64.9749L309.186 64.9562C310.503 64.9546 311.655 63.9531 311.653 62.7862C311.652 61.6197 310.663 60.6207 309.18 60.6223Z" fill="#402C13"/>
<path d="M250.989 108.866C267.291 107.013 288.201 103.821 304.505 103.969C302.704 112.806 294.148 119.651 285.257 120.661C266.486 122.85 251.981 112.532 250.989 108.866Z" fill="white"/>
<path d="M442.23 186.508C442.23 186.508 443.445 190.061 445.435 195.522C445.44 195.543 445.446 195.57 445.457 195.592C452.911 216.088 471.133 263.174 476.851 250.483C484.096 234.39 481.277 194.554 479.669 190.631C478.056 186.707 467.181 180.074 465.174 178.864C463.168 177.66 463.824 164.136 465.427 152.693C467.681 136.551 448.324 134.396 445.043 149.134C443.214 157.353 443.08 166.668 442.832 173.887C442.784 175.285 442.736 176.602 442.666 177.822C442.365 183.057 442.23 186.508 442.23 186.508Z" fill="#EDBB87"/>
<path d="M470.487 190.633L427.631 195.928C427.631 195.928 430.469 250.349 441.484 254.018L472.84 249.035L470.487 190.633Z" fill="#DB975D"/>
<path d="M442.233 186.509C442.233 186.509 443.448 190.062 445.438 195.523C453.764 192.905 466.065 188.6 460.348 187.611C454.958 186.675 447.466 179.123 442.836 173.888C442.787 175.285 442.739 176.602 442.669 177.823C442.368 183.058 442.233 186.509 442.233 186.509Z" fill="#DB975D"/>
<path d="M426.978 203.305H474.697C478.956 203.305 482.409 199.855 482.409 195.598V194.87C482.409 190.613 478.956 187.163 474.697 187.163H426.978C422.719 187.163 419.266 190.613 419.266 194.87V195.598C419.266 199.855 422.719 203.305 426.978 203.305Z" fill="#EDBB87"/>
<path d="M475.483 221.404C479.807 221.404 483.313 217.589 483.313 213.333C483.313 209.076 479.807 205.261 475.483 205.261H427.197C422.873 205.261 419.367 209.076 419.367 213.333C419.367 217.589 422.872 221.404 427.197 221.404H475.483Z" fill="#EDBB87"/>
<path d="M471.761 241.46H438.727C434.468 241.46 431.015 244.91 431.015 249.167V249.895C431.015 254.152 434.468 257.602 438.727 257.602H471.761C476.02 257.602 479.473 254.152 479.473 249.895V249.167C479.473 244.91 476.02 241.46 471.761 241.46Z" fill="#EDBB87"/>
<path d="M474.695 223.361H432.85C428.591 223.361 425.138 226.811 425.138 231.068V231.796C425.138 236.053 428.591 239.504 432.85 239.504H474.695C478.954 239.504 482.407 236.053 482.407 231.796V231.068C482.407 226.811 478.954 223.361 474.695 223.361Z" fill="#EDBB87"/>
<path d="M478.593 201.46C478.593 201.46 473.747 204.58 478.593 207.13C483.439 209.681 459.29 205.859 459.29 205.859L473.312 199.887L478.593 201.46Z" fill="#EDBB87"/>
<path d="M479.818 219.736C479.818 219.736 476.739 221.268 479.347 226.081C481.46 229.979 460.515 224.135 460.515 224.135L474.537 218.163L479.818 219.736Z" fill="#EDBB87"/>
<path d="M476.591 238.551C476.591 238.551 473.512 240.083 476.121 244.896C478.233 248.794 457.288 242.95 457.288 242.95L471.31 236.978L476.591 238.551Z" fill="#EDBB87"/>
<path d="M119.688 218.171L170.852 399.977L335.303 353.697L284.138 171.891L119.688 218.171Z" fill="#3A383A"/>
<path d="M114.638 216.486C115.788 220.77 120.386 223.278 124.671 222.129L285.603 176.775C285.603 176.775 284.663 173.327 283.409 168.937L277.452 147.724C276.303 143.439 275.258 139.886 275.258 139.886L114.325 185.24C110.04 186.389 107.532 190.987 108.682 195.272L114.638 216.486Z" fill="#5E5E5E"/>
<path d="M235.184 166.093C234.919 165.15 233.939 164.601 232.996 164.866C232.054 165.131 231.504 166.111 231.77 167.053C232.035 167.996 233.014 168.545 233.957 168.28C234.9 168.015 235.449 167.035 235.184 166.093Z" fill="white"/>
<path d="M241.325 164.348C241.06 163.405 240.081 162.856 239.138 163.121C238.195 163.387 237.646 164.366 237.911 165.309C238.176 166.252 239.156 166.801 240.099 166.536C241.041 166.27 241.591 165.291 241.325 164.348Z" fill="white"/>
<path d="M247.464 162.601C247.199 161.658 246.219 161.109 245.276 161.374C244.334 161.64 243.784 162.619 244.05 163.562C244.315 164.505 245.294 165.054 246.237 164.788C247.18 164.523 247.729 163.544 247.464 162.601Z" fill="white"/>
<path d="M253.601 160.853C253.336 159.91 252.357 159.361 251.414 159.626C250.471 159.891 249.922 160.871 250.187 161.813C250.453 162.756 251.432 163.305 252.375 163.04C253.318 162.775 253.867 161.795 253.601 160.853Z" fill="white"/>
<path d="M259.781 159.249C259.516 158.306 258.536 157.757 257.593 158.022C256.651 158.287 256.101 159.267 256.367 160.209C256.632 161.152 257.611 161.701 258.554 161.436C259.497 161.171 260.046 160.191 259.781 159.249Z" fill="white"/>
<path d="M266.063 157.462C265.797 156.52 264.818 155.97 263.875 156.236C262.932 156.501 262.383 157.48 262.649 158.423C262.914 159.366 263.893 159.915 264.836 159.65C265.779 159.385 266.328 158.405 266.063 157.462Z" fill="white"/>
<path d="M272.202 155.716C271.937 154.773 270.957 154.223 270.014 154.489C269.072 154.754 268.522 155.734 268.788 156.676C269.053 157.619 270.032 158.168 270.975 157.903C271.918 157.638 272.467 156.658 272.202 155.716Z" fill="white"/>
<path d="M278.341 153.968C278.075 153.026 277.096 152.476 276.153 152.742C275.21 153.007 274.661 153.986 274.927 154.929C275.192 155.872 276.171 156.421 277.114 156.156C278.057 155.891 278.606 154.911 278.341 153.968Z" fill="white"/>
<path d="M239.868 169.76C239.603 168.817 238.623 168.268 237.681 168.533C236.738 168.799 236.189 169.778 236.454 170.721C236.719 171.664 237.699 172.213 238.641 171.948C239.584 171.682 240.133 170.703 239.868 169.76Z" fill="white"/>
<path d="M246.007 168.013C245.742 167.071 244.763 166.521 243.82 166.787C242.877 167.052 242.328 168.031 242.593 168.974C242.859 169.917 243.838 170.466 244.781 170.201C245.724 169.936 246.273 168.956 246.007 168.013Z" fill="white"/>
<path d="M252.148 166.268C251.883 165.325 250.903 164.776 249.961 165.042C249.018 165.307 248.468 166.286 248.734 167.229C248.999 168.172 249.979 168.721 250.921 168.456C251.864 168.19 252.413 167.211 252.148 166.268Z" fill="white"/>
<path d="M258.327 164.663C258.061 163.721 257.082 163.171 256.139 163.437C255.196 163.702 254.647 164.681 254.912 165.624C255.178 166.567 256.157 167.116 257.1 166.851C258.043 166.586 258.592 165.606 258.327 164.663Z" fill="white"/>
<path d="M264.609 162.877C264.343 161.934 263.364 161.385 262.421 161.65C261.478 161.916 260.929 162.895 261.194 163.838C261.46 164.781 262.439 165.33 263.382 165.065C264.325 164.799 264.874 163.82 264.609 162.877Z" fill="white"/>
<path d="M270.748 161.131C270.483 160.188 269.504 159.639 268.561 159.904C267.618 160.17 267.069 161.149 267.334 162.092C267.6 163.035 268.579 163.584 269.522 163.319C270.465 163.053 271.014 162.074 270.748 161.131Z" fill="white"/>
<path d="M276.887 159.384C276.622 158.441 275.642 157.892 274.7 158.157C273.757 158.423 273.208 159.402 273.473 160.345C273.738 161.288 274.718 161.837 275.66 161.571C276.603 161.306 277.152 160.327 276.887 159.384Z" fill="white"/>
<path d="M242.366 179.08C242.101 178.137 241.121 177.588 240.178 177.853C239.236 178.119 238.686 179.098 238.952 180.041C239.217 180.984 240.196 181.533 241.139 181.268C242.082 181.002 242.631 180.023 242.366 179.08Z" fill="white"/>
<path d="M248.647 177.293C248.382 176.35 247.403 175.801 246.46 176.067C245.517 176.332 244.968 177.311 245.233 178.254C245.499 179.197 246.478 179.746 247.421 179.481C248.364 179.215 248.913 178.236 248.647 177.293Z" fill="white"/>
<path d="M254.788 175.548C254.523 174.605 253.543 174.056 252.601 174.321C251.658 174.587 251.109 175.566 251.374 176.509C251.639 177.452 252.619 178.001 253.561 177.736C254.504 177.47 255.053 176.491 254.788 175.548Z" fill="white"/>
<path d="M260.927 173.801C260.662 172.858 259.682 172.309 258.739 172.574C257.796 172.839 257.247 173.819 257.513 174.762C257.778 175.704 258.757 176.254 259.7 175.988C260.643 175.723 261.192 174.744 260.927 173.801Z" fill="white"/>
<path d="M267.106 172.197C266.841 171.254 265.862 170.705 264.919 170.97C263.976 171.236 263.427 172.215 263.692 173.158C263.958 174.101 264.937 174.65 265.88 174.385C266.823 174.119 267.372 173.14 267.106 172.197Z" fill="white"/>
<path d="M273.388 170.411C273.123 169.468 272.144 168.919 271.201 169.184C270.258 169.45 269.709 170.429 269.974 171.372C270.24 172.315 271.219 172.864 272.162 172.598C273.105 172.333 273.654 171.354 273.388 170.411Z" fill="white"/>
<path d="M279.527 168.664C279.262 167.721 278.282 167.172 277.34 167.437C276.397 167.702 275.848 168.682 276.113 169.625C276.378 170.567 277.358 171.117 278.3 170.851C279.243 170.586 279.792 169.607 279.527 168.664Z" fill="white"/>
<path d="M237.681 175.413C237.416 174.47 236.436 173.921 235.494 174.186C234.551 174.452 234.002 175.431 234.267 176.374C234.532 177.317 235.512 177.866 236.454 177.601C237.397 177.335 237.946 176.356 237.681 175.413Z" fill="white"/>
<path d="M243.965 173.628C243.699 172.686 242.72 172.136 241.777 172.402C240.834 172.667 240.285 173.646 240.551 174.589C240.816 175.532 241.795 176.081 242.738 175.816C243.681 175.551 244.23 174.571 243.965 173.628Z" fill="white"/>
<path d="M250.103 171.881C249.838 170.938 248.859 170.389 247.916 170.655C246.973 170.92 246.424 171.899 246.689 172.842C246.955 173.785 247.934 174.334 248.877 174.069C249.82 173.803 250.369 172.824 250.103 171.881Z" fill="white"/>
<path d="M256.241 170.133C255.976 169.19 254.996 168.641 254.054 168.906C253.111 169.172 252.562 170.151 252.827 171.094C253.092 172.037 254.072 172.586 255.014 172.321C255.957 172.055 256.506 171.076 256.241 170.133Z" fill="white"/>
<path d="M262.381 168.387C262.115 167.444 261.136 166.895 260.193 167.16C259.25 167.425 258.701 168.405 258.966 169.347C259.232 170.29 260.211 170.839 261.154 170.574C262.097 170.309 262.646 169.329 262.381 168.387Z" fill="white"/>
<path d="M268.703 166.743C268.437 165.8 267.458 165.251 266.515 165.516C265.572 165.781 265.023 166.761 265.289 167.704C265.554 168.646 266.533 169.196 267.476 168.93C268.419 168.665 268.968 167.686 268.703 166.743Z" fill="white"/>
<path d="M274.842 164.996C274.576 164.053 273.597 163.504 272.654 163.769C271.711 164.035 271.162 165.014 271.427 165.957C271.693 166.899 272.672 167.449 273.615 167.183C274.558 166.918 275.107 165.939 274.842 164.996Z" fill="white"/>
<path d="M280.981 163.249C280.715 162.306 279.736 161.757 278.793 162.022C277.85 162.288 277.301 163.267 277.566 164.21C277.832 165.153 278.811 165.702 279.754 165.436C280.697 165.171 281.246 164.192 280.981 163.249Z" fill="white"/>
<path d="M162.035 190.075L162.875 193.063L223.477 176.008L222.637 173.02L162.035 190.075Z" fill="white"/>
<path d="M164.006 196.963L164.847 199.95L225.449 182.896L224.608 179.908L164.006 196.963Z" fill="white"/>
<path d="M125.089 202.065C126.97 208.544 133.658 212.306 140.137 210.425C146.616 208.544 150.378 201.856 148.497 195.376C146.616 188.897 139.928 185.135 133.449 187.016C127.074 188.793 123.207 195.585 125.089 202.065Z" fill="#EB6159"/>
<path d="M145.754 196.288C144.383 191.417 139.323 188.579 134.452 189.95C129.581 191.321 126.743 196.381 128.114 201.252C129.485 206.123 134.545 208.961 139.416 207.59C144.288 206.219 147.125 201.159 145.754 196.288Z" fill="#3A383A"/>
<path d="M125.82 256.51C126.97 260.795 131.568 263.303 135.852 262.153L296.785 216.799C296.785 216.799 295.74 213.246 294.59 208.962L288.634 187.748C287.484 183.463 286.439 179.91 286.439 179.91L125.507 225.264C121.222 226.413 118.714 231.012 119.864 235.296L125.82 256.51Z" fill="#5E5E5E"/>
<path d="M248.446 200.586C248.181 199.643 247.202 199.094 246.259 199.359C245.316 199.624 244.767 200.604 245.032 201.546C245.297 202.489 246.277 203.039 247.22 202.773C248.162 202.508 248.712 201.528 248.446 200.586Z" fill="white"/>
<path d="M254.585 198.839C254.32 197.896 253.341 197.347 252.398 197.612C251.455 197.878 250.906 198.857 251.171 199.8C251.437 200.743 252.416 201.292 253.359 201.026C254.302 200.761 254.851 199.782 254.585 198.839Z" fill="white"/>
<path d="M260.868 197.054C260.603 196.111 259.624 195.562 258.681 195.827C257.738 196.092 257.189 197.072 257.454 198.015C257.719 198.957 258.699 199.507 259.642 199.241C260.584 198.976 261.134 197.996 260.868 197.054Z" fill="white"/>
<path d="M267.007 195.307C266.742 194.364 265.762 193.815 264.82 194.08C263.877 194.345 263.327 195.325 263.593 196.267C263.858 197.21 264.838 197.759 265.78 197.494C266.723 197.229 267.272 196.249 267.007 195.307Z" fill="white"/>
<path d="M273.147 193.56C272.881 192.618 271.902 192.068 270.959 192.334C270.016 192.599 269.467 193.578 269.733 194.521C269.998 195.464 270.977 196.013 271.92 195.748C272.863 195.483 273.412 194.503 273.147 193.56Z" fill="white"/>
<path d="M279.326 191.957C279.061 191.014 278.082 190.465 277.139 190.73C276.196 190.995 275.647 191.975 275.912 192.917C276.178 193.86 277.157 194.409 278.1 194.144C279.043 193.879 279.592 192.899 279.326 191.957Z" fill="white"/>
<path d="M285.607 190.169C285.342 189.227 284.363 188.677 283.42 188.943C282.477 189.208 281.928 190.187 282.193 191.13C282.459 192.073 283.438 192.622 284.381 192.357C285.324 192.091 285.873 191.112 285.607 190.169Z" fill="white"/>
<path d="M246.403 206.197C246.138 205.254 245.158 204.705 244.216 204.97C243.273 205.235 242.724 206.215 242.989 207.158C243.254 208.1 244.234 208.65 245.176 208.384C246.119 208.119 246.668 207.14 246.403 206.197Z" fill="white"/>
<path d="M252.545 204.452C252.279 203.51 251.3 202.96 250.357 203.226C249.414 203.491 248.865 204.47 249.13 205.413C249.396 206.356 250.375 206.905 251.318 206.64C252.261 206.374 252.81 205.395 252.545 204.452Z" fill="white"/>
<path d="M258.683 202.705C258.418 201.762 257.439 201.213 256.496 201.478C255.553 201.744 255.004 202.723 255.269 203.666C255.534 204.609 256.514 205.158 257.457 204.893C258.399 204.627 258.949 203.648 258.683 202.705Z" fill="white"/>
<path d="M264.963 200.917C264.698 199.974 263.718 199.425 262.776 199.69C261.833 199.955 261.284 200.935 261.549 201.878C261.814 202.82 262.794 203.37 263.736 203.104C264.679 202.839 265.228 201.86 264.963 200.917Z" fill="white"/>
<path d="M271.103 199.17C270.837 198.228 269.858 197.678 268.915 197.944C267.972 198.209 267.423 199.188 267.688 200.131C267.954 201.074 268.933 201.623 269.876 201.358C270.819 201.093 271.368 200.113 271.103 199.17Z" fill="white"/>
<path d="M277.242 197.424C276.977 196.481 275.998 195.932 275.055 196.198C274.112 196.463 273.563 197.442 273.828 198.385C274.093 199.328 275.073 199.877 276.016 199.612C276.958 199.346 277.508 198.367 277.242 197.424Z" fill="white"/>
<path d="M283.381 195.677C283.116 194.735 282.136 194.185 281.194 194.451C280.251 194.716 279.702 195.695 279.967 196.638C280.232 197.581 281.212 198.13 282.154 197.865C283.097 197.6 283.646 196.62 283.381 195.677Z" fill="white"/>
<path d="M289.702 194.033C289.437 193.09 288.458 192.541 287.515 192.806C286.572 193.071 286.023 194.051 286.288 194.993C286.553 195.936 287.533 196.485 288.476 196.22C289.418 195.955 289.968 194.975 289.702 194.033Z" fill="white"/>
<path d="M251.085 209.867C250.819 208.924 249.84 208.375 248.897 208.64C247.954 208.906 247.405 209.885 247.67 210.828C247.936 211.771 248.915 212.32 249.858 212.055C250.801 211.789 251.35 210.81 251.085 209.867Z" fill="white"/>
<path d="M257.224 208.12C256.959 207.178 255.979 206.628 255.037 206.894C254.094 207.159 253.545 208.138 253.81 209.081C254.075 210.024 255.055 210.573 255.997 210.308C256.94 210.043 257.489 209.063 257.224 208.12Z" fill="white"/>
<path d="M263.507 206.335C263.241 205.392 262.262 204.843 261.319 205.108C260.376 205.374 259.827 206.353 260.093 207.296C260.358 208.239 261.337 208.788 262.28 208.523C263.223 208.257 263.772 207.278 263.507 206.335Z" fill="white"/>
<path d="M269.645 204.588C269.38 203.645 268.401 203.096 267.458 203.361C266.515 203.627 265.966 204.606 266.231 205.549C266.497 206.492 267.476 207.041 268.419 206.775C269.362 206.51 269.911 205.531 269.645 204.588Z" fill="white"/>
<path d="M275.785 202.842C275.52 201.899 274.541 201.35 273.598 201.615C272.655 201.881 272.106 202.86 272.371 203.803C272.636 204.746 273.616 205.295 274.559 205.029C275.501 204.764 276.051 203.785 275.785 202.842Z" fill="white"/>
<path d="M281.925 201.096C281.66 200.153 280.68 199.604 279.738 199.869C278.795 200.134 278.246 201.114 278.511 202.057C278.776 202.999 279.756 203.549 280.698 203.283C281.641 203.018 282.19 202.039 281.925 201.096Z" fill="white"/>
<path d="M288.246 199.451C287.981 198.508 287.001 197.959 286.058 198.224C285.116 198.49 284.566 199.469 284.832 200.412C285.097 201.355 286.076 201.904 287.019 201.638C287.962 201.373 288.511 200.394 288.246 199.451Z" fill="white"/>
<path d="M250.282 220.039C250.595 220.979 251.536 221.502 252.476 221.188C253.417 220.875 253.939 219.934 253.626 218.994C253.312 218.053 252.372 217.531 251.431 217.844C250.491 218.158 249.968 219.098 250.282 220.039Z" fill="white"/>
<path d="M256.447 218.262C256.761 219.203 257.701 219.725 258.642 219.412C259.582 219.098 260.105 218.158 259.791 217.217C259.478 216.277 258.537 215.754 257.597 216.068C256.656 216.381 256.238 217.426 256.447 218.262Z" fill="white"/>
<path d="M262.613 216.486C262.926 217.426 263.867 217.949 264.807 217.635C265.748 217.322 266.27 216.381 265.957 215.441C265.643 214.5 264.703 213.978 263.762 214.291C262.926 214.709 262.404 215.65 262.613 216.486Z" fill="white"/>
<path d="M268.883 214.814C269.197 215.754 270.137 216.277 271.078 215.963C272.018 215.65 272.541 214.709 272.227 213.769C271.914 212.828 270.973 212.306 270.033 212.619C269.092 212.933 268.57 213.873 268.883 214.814Z" fill="white"/>
<path d="M274.944 213.142C275.258 214.082 276.198 214.605 277.139 214.291C278.079 213.978 278.602 213.037 278.288 212.097C277.975 211.156 277.034 210.634 276.094 210.947C275.258 211.156 274.735 212.097 274.944 213.142Z" fill="white"/>
<path d="M281.11 211.365C281.423 212.306 282.364 212.828 283.304 212.515C284.245 212.201 284.767 211.261 284.454 210.32C284.14 209.38 283.2 208.857 282.259 209.171C281.423 209.38 280.901 210.32 281.11 211.365Z" fill="white"/>
<path d="M287.275 209.589C287.589 210.529 288.529 211.052 289.47 210.738C290.41 210.425 290.933 209.484 290.619 208.544C290.306 207.603 289.365 207.081 288.425 207.394C287.693 207.708 287.066 208.753 287.275 209.589Z" fill="white"/>
<path d="M249.043 215.477C248.777 214.534 247.798 213.985 246.855 214.25C245.912 214.516 245.363 215.495 245.628 216.438C245.894 217.381 246.873 217.93 247.816 217.665C248.759 217.399 249.308 216.42 249.043 215.477Z" fill="white"/>
<path d="M255.184 213.733C254.919 212.79 253.939 212.241 252.997 212.506C252.054 212.771 251.505 213.751 251.77 214.693C252.035 215.636 253.015 216.185 253.957 215.92C254.9 215.655 255.449 214.675 255.184 213.733Z" fill="white"/>
<path d="M261.323 211.985C261.057 211.043 260.078 210.493 259.135 210.759C258.192 211.024 257.643 212.003 257.909 212.946C258.174 213.889 259.153 214.438 260.096 214.173C261.039 213.908 261.588 212.928 261.323 211.985Z" fill="white"/>
<path d="M267.46 210.237C267.195 209.294 266.215 208.745 265.273 209.011C264.33 209.276 263.781 210.255 264.046 211.198C264.311 212.141 265.291 212.69 266.233 212.425C267.176 212.159 267.725 211.18 267.46 210.237Z" fill="white"/>
<path d="M273.742 208.451C273.477 207.508 272.497 206.959 271.555 207.224C270.612 207.489 270.063 208.469 270.328 209.412C270.593 210.354 271.573 210.904 272.515 210.638C273.458 210.373 274.007 209.394 273.742 208.451Z" fill="white"/>
<path d="M279.882 206.705C279.616 205.762 278.637 205.213 277.694 205.478C276.751 205.743 276.202 206.723 276.468 207.665C276.733 208.608 277.712 209.157 278.655 208.892C279.598 208.627 280.147 207.647 279.882 206.705Z" fill="white"/>
<path d="M286.021 204.958C285.755 204.015 284.776 203.466 283.833 203.731C282.89 203.996 282.341 204.976 282.607 205.919C282.872 206.861 283.851 207.411 284.794 207.145C285.737 206.88 286.286 205.901 286.021 204.958Z" fill="white"/>
<path d="M292.16 203.211C291.894 202.268 290.915 201.719 289.972 201.984C289.029 202.249 288.48 203.229 288.745 204.172C289.011 205.114 289.99 205.664 290.933 205.398C291.876 205.133 292.425 204.154 292.16 203.211Z" fill="white"/>
<path d="M171.411 223.158L172.252 226.146L232.854 209.091L232.013 206.103L171.411 223.158Z" fill="white"/>
<path d="M173.4 230.135L174.241 233.123L234.843 216.068L234.002 213.081L173.4 230.135Z" fill="white"/>
<path d="M175.37 237.026L176.21 240.013L236.812 222.958L235.972 219.971L175.37 237.026Z" fill="white"/>
<path d="M136.375 242.193C138.256 248.672 144.944 252.434 151.423 250.553C157.902 248.672 161.664 241.984 159.783 235.505C157.902 229.026 151.214 225.264 144.735 227.145C138.36 228.921 134.598 235.61 136.375 242.193Z" fill="#EB6159"/>
<path d="M156.973 236.393C155.602 231.522 150.542 228.684 145.67 230.055C140.799 231.426 137.962 236.486 139.333 241.357C140.703 246.228 145.764 249.066 150.635 247.695C155.506 246.324 158.343 241.264 156.973 236.393Z" fill="#3A383A"/>
<path d="M137.106 296.43C138.256 300.714 142.854 303.222 147.138 302.073L308.071 256.719C308.071 256.719 307.131 253.27 305.877 248.881L299.92 227.667C298.77 223.383 297.725 219.83 297.725 219.83L136.793 265.184C132.508 266.333 130 270.931 131.15 275.216L137.106 296.43Z" fill="#5E5E5E"/>
<path d="M259.668 240.503C259.403 239.56 258.424 239.011 257.481 239.276C256.538 239.542 255.989 240.521 256.254 241.464C256.519 242.407 257.499 242.956 258.442 242.691C259.384 242.425 259.934 241.446 259.668 240.503Z" fill="white"/>
<path d="M265.95 238.716C265.684 237.774 264.705 237.224 263.762 237.49C262.819 237.755 262.27 238.735 262.535 239.677C262.801 240.62 263.78 241.169 264.723 240.904C265.666 240.639 266.215 239.659 265.95 238.716Z" fill="white"/>
<path d="M272.131 237.113C271.865 236.171 270.886 235.621 269.943 235.887C269 236.152 268.451 237.132 268.716 238.074C268.982 239.017 269.961 239.566 270.904 239.301C271.847 239.036 272.396 238.056 272.131 237.113Z" fill="white"/>
<path d="M278.269 235.366C278.004 234.423 277.024 233.874 276.081 234.14C275.139 234.405 274.589 235.384 274.855 236.327C275.12 237.27 276.1 237.819 277.042 237.554C277.985 237.288 278.534 236.309 278.269 235.366Z" fill="white"/>
<path d="M284.409 233.62C284.143 232.677 283.164 232.128 282.221 232.394C281.278 232.659 280.729 233.638 280.995 234.581C281.26 235.524 282.239 236.073 283.182 235.808C284.125 235.542 284.674 234.563 284.409 233.62Z" fill="white"/>
<path d="M290.691 231.834C290.425 230.891 289.446 230.342 288.503 230.607C287.56 230.873 287.011 231.852 287.277 232.795C287.542 233.738 288.521 234.287 289.464 234.021C290.407 233.756 290.956 232.777 290.691 231.834Z" fill="white"/>
<path d="M296.829 230.087C296.564 229.144 295.585 228.595 294.642 228.86C293.699 229.125 293.15 230.105 293.415 231.048C293.681 231.99 294.66 232.54 295.603 232.274C296.546 232.009 297.095 231.03 296.829 230.087Z" fill="white"/>
<path d="M257.623 246.117C257.358 245.174 256.378 244.625 255.435 244.89C254.493 245.155 253.943 246.135 254.209 247.077C254.474 248.02 255.453 248.569 256.396 248.304C257.339 248.039 257.888 247.059 257.623 246.117Z" fill="white"/>
<path d="M263.764 244.372C263.499 243.429 262.52 242.88 261.577 243.145C260.634 243.411 260.085 244.39 260.35 245.333C260.616 246.276 261.595 246.825 262.538 246.56C263.481 246.294 264.03 245.315 263.764 244.372Z" fill="white"/>
<path d="M270.045 242.585C269.78 241.642 268.801 241.093 267.858 241.358C266.915 241.624 266.366 242.603 266.631 243.546C266.896 244.489 267.876 245.038 268.819 244.772C269.761 244.507 270.311 243.528 270.045 242.585Z" fill="white"/>
<path d="M276.183 240.837C275.917 239.894 274.938 239.345 273.995 239.61C273.052 239.875 272.503 240.855 272.769 241.797C273.034 242.74 274.013 243.289 274.956 243.024C275.899 242.759 276.448 241.779 276.183 240.837Z" fill="white"/>
<path d="M282.362 239.232C282.097 238.29 281.118 237.74 280.175 238.006C279.232 238.271 278.683 239.251 278.948 240.193C279.213 241.136 280.193 241.685 281.136 241.42C282.078 241.155 282.628 240.175 282.362 239.232Z" fill="white"/>
<path d="M288.502 237.486C288.237 236.544 287.257 235.994 286.315 236.26C285.372 236.525 284.823 237.504 285.088 238.447C285.353 239.39 286.333 239.939 287.275 239.674C288.218 239.409 288.767 238.429 288.502 237.486Z" fill="white"/>
<path d="M294.641 235.74C294.376 234.797 293.396 234.247 292.453 234.513C291.511 234.778 290.961 235.758 291.227 236.7C291.492 237.643 292.471 238.192 293.414 237.927C294.357 237.662 294.906 236.682 294.641 235.74Z" fill="white"/>
<path d="M300.922 233.953C300.657 233.01 299.678 232.461 298.735 232.726C297.792 232.991 297.243 233.971 297.508 234.913C297.773 235.856 298.753 236.405 299.696 236.14C300.638 235.875 301.188 234.895 300.922 233.953Z" fill="white"/>
<path d="M262.308 249.784C262.042 248.841 261.063 248.292 260.12 248.557C259.177 248.822 258.628 249.802 258.894 250.744C259.159 251.687 260.138 252.236 261.081 251.971C262.024 251.706 262.573 250.726 262.308 249.784Z" fill="white"/>
<path d="M268.447 248.037C268.182 247.094 267.202 246.545 266.259 246.81C265.317 247.075 264.767 248.055 265.033 248.998C265.298 249.94 266.277 250.49 267.22 250.224C268.163 249.959 268.712 248.98 268.447 248.037Z" fill="white"/>
<path d="M274.73 246.252C274.465 245.309 273.485 244.76 272.542 245.025C271.6 245.29 271.05 246.27 271.316 247.212C271.581 248.155 272.56 248.704 273.503 248.439C274.446 248.174 274.995 247.194 274.73 246.252Z" fill="white"/>
<path d="M280.909 244.647C280.643 243.704 279.664 243.155 278.721 243.42C277.778 243.685 277.229 244.665 277.494 245.608C277.76 246.55 278.739 247.1 279.682 246.834C280.625 246.569 281.174 245.59 280.909 244.647Z" fill="white"/>
<path d="M287.048 242.901C286.783 241.958 285.804 241.409 284.861 241.674C283.918 241.939 283.369 242.919 283.634 243.861C283.9 244.804 284.879 245.353 285.822 245.088C286.765 244.823 287.314 243.843 287.048 242.901Z" fill="white"/>
<path d="M293.188 241.154C292.923 240.212 291.943 239.662 291.001 239.928C290.058 240.193 289.509 241.172 289.774 242.115C290.039 243.058 291.019 243.607 291.961 243.342C292.904 243.077 293.454 242.097 293.188 241.154Z" fill="white"/>
<path d="M299.469 239.367C299.204 238.425 298.224 237.875 297.281 238.141C296.339 238.406 295.789 239.385 296.055 240.328C296.32 241.271 297.299 241.82 298.242 241.555C299.185 241.29 299.734 240.31 299.469 239.367Z" fill="white"/>
<path d="M264.947 259.064C264.682 258.121 263.703 257.572 262.76 257.837C261.817 258.103 261.268 259.082 261.533 260.025C261.798 260.968 262.778 261.517 263.721 261.251C264.663 260.986 265.213 260.007 264.947 259.064Z" fill="white"/>
<path d="M271.086 257.317C270.821 256.374 269.842 255.825 268.899 256.091C267.956 256.356 267.407 257.335 267.672 258.278C267.938 259.221 268.917 259.77 269.86 259.505C270.803 259.239 271.352 258.26 271.086 257.317Z" fill="white"/>
<path d="M277.227 255.572C276.962 254.629 275.982 254.08 275.04 254.345C274.097 254.611 273.548 255.59 273.813 256.533C274.078 257.476 275.058 258.025 276 257.76C276.943 257.494 277.492 256.515 277.227 255.572Z" fill="white"/>
<path d="M283.508 253.785C283.243 252.842 282.263 252.293 281.321 252.558C280.378 252.823 279.829 253.803 280.094 254.746C280.359 255.689 281.339 256.238 282.281 255.972C283.224 255.707 283.773 254.728 283.508 253.785Z" fill="white"/>
<path d="M289.688 252.181C289.423 251.238 288.443 250.689 287.5 250.954C286.558 251.22 286.008 252.199 286.274 253.142C286.539 254.085 287.518 254.634 288.461 254.368C289.404 254.103 289.953 253.124 289.688 252.181Z" fill="white"/>
<path d="M295.828 250.435C295.562 249.492 294.583 248.943 293.64 249.208C292.697 249.473 292.148 250.453 292.413 251.396C292.679 252.338 293.658 252.888 294.601 252.622C295.544 252.357 296.093 251.378 295.828 250.435Z" fill="white"/>
<path d="M301.966 248.688C301.701 247.745 300.722 247.196 299.779 247.461C298.836 247.726 298.287 248.706 298.552 249.649C298.817 250.591 299.797 251.141 300.74 250.875C301.682 250.61 302.232 249.631 301.966 248.688Z" fill="white"/>
<path d="M260.263 255.396C259.998 254.454 259.018 253.904 258.076 254.17C257.133 254.435 256.584 255.414 256.849 256.357C257.114 257.3 258.094 257.849 259.036 257.584C259.979 257.319 260.528 256.339 260.263 255.396Z" fill="white"/>
<path d="M266.404 253.652C266.139 252.709 265.16 252.16 264.217 252.425C263.274 252.69 262.725 253.67 262.99 254.613C263.256 255.555 264.235 256.105 265.178 255.839C266.121 255.574 266.67 254.595 266.404 253.652Z" fill="white"/>
<path d="M272.543 251.905C272.278 250.962 271.298 250.413 270.356 250.678C269.413 250.943 268.864 251.923 269.129 252.866C269.394 253.808 270.374 254.358 271.316 254.092C272.259 253.827 272.808 252.848 272.543 251.905Z" fill="white"/>
<path d="M278.823 250.116C278.557 249.174 277.578 248.624 276.635 248.89C275.693 249.155 275.143 250.134 275.409 251.077C275.674 252.02 276.653 252.569 277.596 252.304C278.539 252.039 279.088 251.059 278.823 250.116Z" fill="white"/>
<path d="M284.962 248.37C284.697 247.427 283.718 246.878 282.775 247.143C281.832 247.409 281.283 248.388 281.548 249.331C281.813 250.274 282.793 250.823 283.736 250.558C284.678 250.292 285.228 249.313 284.962 248.37Z" fill="white"/>
<path d="M291.142 246.766C290.877 245.823 289.897 245.274 288.955 245.54C288.012 245.805 287.463 246.784 287.728 247.727C287.993 248.67 288.973 249.219 289.915 248.954C290.858 248.688 291.407 247.709 291.142 246.766Z" fill="white"/>
<path d="M297.281 245.019C297.016 244.076 296.036 243.527 295.094 243.793C294.151 244.058 293.602 245.037 293.867 245.98C294.132 246.923 295.112 247.472 296.055 247.207C296.997 246.941 297.547 245.962 297.281 245.019Z" fill="white"/>
<path d="M303.562 243.232C303.297 242.29 302.318 241.74 301.375 242.006C300.432 242.271 299.883 243.25 300.148 244.193C300.413 245.136 301.393 245.685 302.336 245.42C303.278 245.155 303.828 244.175 303.562 243.232Z" fill="white"/>
<path d="M182.631 263.077L183.472 266.065L244.074 249.01L243.233 246.023L182.631 263.077Z" fill="white"/>
<path d="M184.657 270.2L185.498 273.188L246.1 256.133L245.259 253.146L184.657 270.2Z" fill="white"/>
<path d="M186.593 276.941L187.434 279.929L248.036 262.874L247.195 259.887L186.593 276.941Z" fill="white"/>
<path d="M147.661 282.113C149.542 288.592 156.23 292.354 162.709 290.473C169.188 288.592 172.95 281.904 171.069 275.425C169.188 268.946 162.5 265.184 156.021 267.065C149.646 268.841 145.78 275.634 147.661 282.113Z" fill="#EB6159"/>
<path d="M168.192 276.313C166.822 271.442 161.761 268.604 156.89 269.975C152.019 271.346 149.182 276.406 150.552 281.277C151.923 286.148 156.983 288.986 161.855 287.615C166.726 286.244 169.563 281.184 168.192 276.313Z" fill="#3A383A"/>
<path d="M148.392 336.349C149.542 340.634 154.14 343.142 158.425 341.992L319.357 296.639C319.357 296.639 318.417 293.19 317.163 288.801L311.206 267.587C310.057 263.303 309.012 259.749 309.012 259.749L147.974 305.208C143.69 306.357 141.182 310.955 142.331 315.24L148.392 336.349Z" fill="#5E5E5E"/>
<path d="M270.976 280.516C270.71 279.573 269.731 279.024 268.788 279.289C267.845 279.555 267.296 280.534 267.561 281.477C267.827 282.42 268.806 282.969 269.749 282.703C270.692 282.438 271.241 281.459 270.976 280.516Z" fill="white"/>
<path d="M277.115 278.769C276.849 277.826 275.87 277.277 274.927 277.542C273.984 277.808 273.435 278.787 273.701 279.73C273.966 280.673 274.945 281.222 275.888 280.957C276.831 280.691 277.38 279.712 277.115 278.769Z" fill="white"/>
<path d="M283.398 276.984C283.132 276.041 282.153 275.492 281.21 275.757C280.267 276.023 279.718 277.002 279.984 277.945C280.249 278.888 281.228 279.437 282.171 279.171C283.114 278.906 283.663 277.927 283.398 276.984Z" fill="white"/>
<path d="M289.536 275.237C289.271 274.294 288.292 273.745 287.349 274.01C286.406 274.275 285.857 275.255 286.122 276.198C286.387 277.14 287.367 277.69 288.31 277.424C289.252 277.159 289.802 276.18 289.536 275.237Z" fill="white"/>
<path d="M295.676 273.491C295.411 272.548 294.432 271.999 293.489 272.264C292.546 272.529 291.997 273.509 292.262 274.452C292.527 275.394 293.507 275.944 294.45 275.678C295.392 275.413 295.942 274.434 295.676 273.491Z" fill="white"/>
<path d="M301.816 271.745C301.551 270.802 300.571 270.252 299.628 270.518C298.686 270.783 298.136 271.763 298.402 272.705C298.667 273.648 299.647 274.197 300.589 273.932C301.532 273.667 302.081 272.687 301.816 271.745Z" fill="white"/>
<path d="M307.954 269.997C307.689 269.055 306.71 268.505 305.767 268.771C304.824 269.036 304.275 270.015 304.54 270.958C304.806 271.901 305.785 272.45 306.728 272.185C307.671 271.92 308.22 270.94 307.954 269.997Z" fill="white"/>
<path d="M268.893 285.985C268.627 285.042 267.648 284.493 266.705 284.758C265.762 285.023 265.213 286.003 265.478 286.946C265.744 287.888 266.723 288.438 267.666 288.172C268.609 287.907 269.158 286.928 268.893 285.985Z" fill="white"/>
<path d="M275.034 284.24C274.769 283.297 273.789 282.748 272.846 283.014C271.904 283.279 271.354 284.258 271.62 285.201C271.885 286.144 272.865 286.693 273.807 286.428C274.75 286.162 275.299 285.183 275.034 284.24Z" fill="white"/>
<path d="M281.213 282.635C280.947 281.693 279.968 281.143 279.025 281.409C278.082 281.674 277.533 282.654 277.798 283.596C278.064 284.539 279.043 285.088 279.986 284.823C280.929 284.558 281.478 283.578 281.213 282.635Z" fill="white"/>
<path d="M287.35 280.887C287.085 279.944 286.105 279.395 285.163 279.66C284.22 279.926 283.671 280.905 283.936 281.848C284.201 282.791 285.181 283.34 286.123 283.075C287.066 282.809 287.615 281.83 287.35 280.887Z" fill="white"/>
<path d="M293.632 279.101C293.366 278.158 292.387 277.609 291.444 277.874C290.501 278.139 289.952 279.119 290.218 280.062C290.483 281.004 291.462 281.554 292.405 281.288C293.348 281.023 293.897 280.044 293.632 279.101Z" fill="white"/>
<path d="M299.772 277.355C299.506 276.412 298.527 275.863 297.584 276.128C296.641 276.393 296.092 277.373 296.357 278.316C296.623 279.258 297.602 279.808 298.545 279.542C299.488 279.277 300.037 278.297 299.772 277.355Z" fill="white"/>
<path d="M305.91 275.608C305.645 274.665 304.666 274.116 303.723 274.381C302.78 274.646 302.231 275.626 302.496 276.568C302.762 277.511 303.741 278.06 304.684 277.795C305.627 277.53 306.176 276.55 305.91 275.608Z" fill="white"/>
<path d="M312.05 273.861C311.784 272.918 310.805 272.369 309.862 272.634C308.919 272.899 308.37 273.879 308.635 274.822C308.901 275.764 309.88 276.314 310.823 276.048C311.766 275.783 312.315 274.804 312.05 273.861Z" fill="white"/>
<path d="M273.575 289.654C273.31 288.711 272.331 288.162 271.388 288.427C270.445 288.693 269.896 289.672 270.161 290.615C270.426 291.558 271.406 292.107 272.349 291.842C273.291 291.576 273.841 290.597 273.575 289.654Z" fill="white"/>
<path d="M279.754 288.05C279.489 287.107 278.51 286.558 277.567 286.823C276.624 287.088 276.075 288.068 276.34 289.01C276.606 289.953 277.585 290.502 278.528 290.237C279.471 289.972 280.02 288.992 279.754 288.05Z" fill="white"/>
<path d="M285.895 286.304C285.63 285.361 284.65 284.812 283.708 285.078C282.765 285.343 282.216 286.322 282.481 287.265C282.746 288.208 283.726 288.757 284.668 288.492C285.611 288.226 286.16 287.247 285.895 286.304Z" fill="white"/>
<path d="M292.176 284.517C291.911 283.574 290.931 283.025 289.989 283.29C289.046 283.556 288.497 284.535 288.762 285.478C289.027 286.421 290.007 286.97 290.949 286.705C291.892 286.439 292.441 285.46 292.176 284.517Z" fill="white"/>
<path d="M298.316 282.771C298.05 281.828 297.071 281.279 296.128 281.544C295.185 281.81 294.636 282.789 294.902 283.732C295.167 284.675 296.146 285.224 297.089 284.959C298.032 284.693 298.581 283.714 298.316 282.771Z" fill="white"/>
<path d="M304.456 281.025C304.19 280.082 303.211 279.533 302.268 279.798C301.325 280.064 300.776 281.043 301.041 281.986C301.307 282.929 302.286 283.478 303.229 283.212C304.172 282.947 304.721 281.968 304.456 281.025Z" fill="white"/>
<path d="M310.594 279.278C310.329 278.335 309.349 277.786 308.407 278.051C307.464 278.316 306.915 279.296 307.18 280.239C307.445 281.181 308.425 281.731 309.367 281.465C310.31 281.2 310.86 280.221 310.594 279.278Z" fill="white"/>
<path d="M276.216 298.933C275.95 297.99 274.971 297.441 274.028 297.707C273.085 297.972 272.536 298.951 272.802 299.894C273.067 300.837 274.046 301.386 274.989 301.121C275.932 300.855 276.481 299.876 276.216 298.933Z" fill="white"/>
<path d="M282.355 297.187C282.09 296.244 281.11 295.695 280.168 295.96C279.225 296.225 278.676 297.205 278.941 298.147C279.206 299.09 280.186 299.639 281.128 299.374C282.071 299.109 282.62 298.129 282.355 297.187Z" fill="white"/>
<path d="M288.536 295.584C288.27 294.641 287.291 294.092 286.348 294.357C285.405 294.622 284.856 295.602 285.122 296.544C285.387 297.487 286.366 298.036 287.309 297.771C288.252 297.506 288.801 296.526 288.536 295.584Z" fill="white"/>
<path d="M294.674 293.836C294.409 292.894 293.43 292.344 292.487 292.61C291.544 292.875 290.995 293.854 291.26 294.797C291.525 295.74 292.505 296.289 293.448 296.024C294.39 295.759 294.94 294.779 294.674 293.836Z" fill="white"/>
<path d="M300.956 292.05C300.691 291.107 299.712 290.558 298.769 290.824C297.826 291.089 297.277 292.068 297.542 293.011C297.807 293.954 298.787 294.503 299.73 294.238C300.672 293.972 301.222 292.993 300.956 292.05Z" fill="white"/>
<path d="M307.096 290.304C306.831 289.361 305.851 288.812 304.909 289.077C303.966 289.343 303.417 290.322 303.682 291.265C303.947 292.208 304.927 292.757 305.869 292.492C306.812 292.226 307.361 291.247 307.096 290.304Z" fill="white"/>
<path d="M313.235 288.557C312.969 287.614 311.99 287.065 311.047 287.33C310.104 287.596 309.555 288.575 309.82 289.518C310.086 290.461 311.065 291.01 312.008 290.745C312.951 290.479 313.5 289.5 313.235 288.557Z" fill="white"/>
<path d="M271.531 295.266C271.266 294.323 270.286 293.774 269.343 294.04C268.401 294.305 267.851 295.284 268.117 296.227C268.382 297.17 269.361 297.719 270.304 297.454C271.247 297.188 271.796 296.209 271.531 295.266Z" fill="white"/>
<path d="M277.672 293.522C277.407 292.579 276.428 292.03 275.485 292.295C274.542 292.56 273.993 293.54 274.258 294.483C274.524 295.425 275.503 295.975 276.446 295.709C277.389 295.444 277.938 294.465 277.672 293.522Z" fill="white"/>
<path d="M283.811 291.775C283.546 290.832 282.567 290.283 281.624 290.548C280.681 290.813 280.132 291.793 280.397 292.736C280.662 293.678 281.642 294.228 282.585 293.962C283.527 293.697 284.077 292.717 283.811 291.775Z" fill="white"/>
<path d="M289.989 290.169C289.723 289.226 288.744 288.677 287.801 288.942C286.858 289.207 286.309 290.187 286.574 291.13C286.84 292.072 287.819 292.622 288.762 292.356C289.705 292.091 290.254 291.111 289.989 290.169Z" fill="white"/>
<path d="M296.27 288.382C296.005 287.439 295.026 286.89 294.083 287.156C293.14 287.421 292.591 288.4 292.856 289.343C293.121 290.286 294.101 290.835 295.044 290.57C295.986 290.304 296.536 289.325 296.27 288.382Z" fill="white"/>
<path d="M302.41 286.636C302.145 285.693 301.165 285.144 300.223 285.409C299.28 285.675 298.731 286.654 298.996 287.597C299.261 288.54 300.241 289.089 301.183 288.824C302.126 288.558 302.675 287.579 302.41 286.636Z" fill="white"/>
<path d="M308.549 284.889C308.284 283.946 307.304 283.397 306.361 283.662C305.419 283.928 304.869 284.907 305.135 285.85C305.4 286.793 306.379 287.342 307.322 287.077C308.265 286.811 308.814 285.832 308.549 284.889Z" fill="white"/>
<path d="M314.688 283.142C314.423 282.199 313.443 281.65 312.5 281.916C311.558 282.181 311.008 283.16 311.274 284.103C311.539 285.046 312.518 285.595 313.461 285.33C314.404 285.064 314.953 284.085 314.688 283.142Z" fill="white"/>
<path d="M193.938 303.091L194.778 306.079L255.38 289.024L254.54 286.036L193.938 303.091Z" fill="white"/>
<path d="M195.925 310.071L196.765 313.058L257.367 296.003L256.527 293.016L195.925 310.071Z" fill="white"/>
<path d="M197.715 316.855L198.556 319.843L259.158 302.788L258.317 299.801L197.715 316.855Z" fill="white"/>
<path d="M158.843 321.928C160.724 328.407 167.412 332.169 173.891 330.288C180.37 328.407 184.132 321.719 182.251 315.24C180.37 308.761 173.682 304.999 167.203 306.88C160.828 308.865 157.066 315.553 158.843 321.928Z" fill="#EB6159"/>
<path d="M179.461 316.182C178.09 311.311 173.03 308.473 168.159 309.844C163.288 311.215 160.45 316.275 161.821 321.146C163.192 326.018 168.252 328.855 173.123 327.484C177.994 326.113 180.832 321.053 179.461 316.182Z" fill="#3A383A"/>
<path d="M159.574 376.373C160.828 380.762 165.322 383.166 169.606 382.016L330.539 336.663L320.089 299.878L159.156 345.232C154.872 346.381 152.364 350.979 153.513 355.264L159.574 376.373Z" fill="#5E5E5E"/>
<path d="M282.158 320.475C281.892 319.532 280.913 318.983 279.97 319.248C279.027 319.514 278.478 320.493 278.744 321.436C279.009 322.379 279.988 322.928 280.931 322.663C281.874 322.397 282.423 321.418 282.158 320.475Z" fill="white"/>
<path d="M288.439 318.688C288.174 317.745 287.194 317.196 286.252 317.462C285.309 317.727 284.76 318.706 285.025 319.649C285.29 320.592 286.27 321.141 287.212 320.876C288.155 320.61 288.704 319.631 288.439 318.688Z" fill="white"/>
<path d="M294.58 316.943C294.314 316 293.335 315.451 292.392 315.716C291.449 315.982 290.9 316.961 291.166 317.904C291.431 318.847 292.41 319.396 293.353 319.13C294.296 318.865 294.845 317.886 294.58 316.943Z" fill="white"/>
<path d="M300.758 315.338C300.493 314.395 299.514 313.846 298.571 314.111C297.628 314.377 297.079 315.356 297.344 316.299C297.61 317.242 298.589 317.791 299.532 317.526C300.475 317.26 301.024 316.281 300.758 315.338Z" fill="white"/>
<path d="M306.898 313.592C306.633 312.649 305.653 312.1 304.711 312.365C303.768 312.631 303.219 313.61 303.484 314.553C303.749 315.496 304.729 316.045 305.671 315.779C306.614 315.514 307.163 314.535 306.898 313.592Z" fill="white"/>
<path d="M313.18 311.806C312.915 310.863 311.936 310.314 310.993 310.579C310.05 310.844 309.501 311.824 309.766 312.767C310.031 313.709 311.011 314.259 311.954 313.993C312.896 313.728 313.446 312.749 313.18 311.806Z" fill="white"/>
<path d="M319.319 310.059C319.054 309.116 318.074 308.567 317.131 308.832C316.189 309.097 315.639 310.077 315.905 311.019C316.17 311.962 317.149 312.512 318.092 312.246C319.035 311.981 319.584 311.001 319.319 310.059Z" fill="white"/>
<path d="M280.112 326.089C279.847 325.146 278.867 324.597 277.924 324.862C276.982 325.128 276.432 326.107 276.698 327.05C276.963 327.993 277.942 328.542 278.885 328.276C279.828 328.011 280.377 327.032 280.112 326.089Z" fill="white"/>
<path d="M286.253 324.344C285.988 323.402 285.009 322.852 284.066 323.118C283.123 323.383 282.574 324.362 282.839 325.305C283.104 326.248 284.084 326.797 285.027 326.532C285.969 326.267 286.519 325.287 286.253 324.344Z" fill="white"/>
<path d="M292.534 322.557C292.269 321.614 291.29 321.065 290.347 321.33C289.404 321.596 288.855 322.575 289.12 323.518C289.385 324.461 290.365 325.01 291.308 324.745C292.25 324.479 292.8 323.5 292.534 322.557Z" fill="white"/>
<path d="M298.672 320.809C298.406 319.866 297.427 319.317 296.484 319.582C295.541 319.848 294.992 320.827 295.257 321.77C295.523 322.713 296.502 323.262 297.445 322.996C298.388 322.731 298.937 321.752 298.672 320.809Z" fill="white"/>
<path d="M304.811 319.063C304.546 318.12 303.567 317.571 302.624 317.836C301.681 318.101 301.132 319.081 301.397 320.023C301.662 320.966 302.642 321.515 303.585 321.25C304.527 320.985 305.077 320.005 304.811 319.063Z" fill="white"/>
<path d="M310.991 317.459C310.726 316.516 309.746 315.967 308.804 316.232C307.861 316.497 307.312 317.477 307.577 318.419C307.842 319.362 308.822 319.912 309.764 319.646C310.707 319.381 311.256 318.401 310.991 317.459Z" fill="white"/>
<path d="M317.272 315.672C317.007 314.729 316.027 314.18 315.085 314.445C314.142 314.71 313.593 315.69 313.858 316.633C314.123 317.575 315.103 318.125 316.045 317.859C316.988 317.594 317.537 316.615 317.272 315.672Z" fill="white"/>
<path d="M323.411 313.925C323.146 312.982 322.166 312.433 321.223 312.698C320.281 312.963 319.731 313.943 319.997 314.886C320.262 315.828 321.241 316.378 322.184 316.112C323.127 315.847 323.676 314.868 323.411 313.925Z" fill="white"/>
<path d="M284.795 329.758C284.529 328.815 283.55 328.266 282.607 328.531C281.664 328.797 281.115 329.776 281.38 330.719C281.646 331.662 282.625 332.211 283.568 331.946C284.511 331.68 285.06 330.701 284.795 329.758Z" fill="white"/>
<path d="M291.076 327.971C290.811 327.029 289.831 326.479 288.888 326.745C287.946 327.01 287.396 327.989 287.662 328.932C287.927 329.875 288.906 330.424 289.849 330.159C290.792 329.894 291.341 328.914 291.076 327.971Z" fill="white"/>
<path d="M297.217 326.226C296.951 325.283 295.972 324.734 295.029 325C294.086 325.265 293.537 326.244 293.802 327.187C294.068 328.13 295.047 328.679 295.99 328.414C296.933 328.148 297.482 327.169 297.217 326.226Z" fill="white"/>
<path d="M303.355 324.479C303.09 323.536 302.11 322.987 301.168 323.252C300.225 323.518 299.676 324.497 299.941 325.44C300.206 326.383 301.186 326.932 302.128 326.666C303.071 326.401 303.62 325.422 303.355 324.479Z" fill="white"/>
<path d="M309.535 322.875C309.27 321.932 308.29 321.383 307.348 321.648C306.405 321.914 305.856 322.893 306.121 323.836C306.386 324.779 307.366 325.328 308.308 325.063C309.251 324.797 309.8 323.818 309.535 322.875Z" fill="white"/>
<path d="M315.675 321.129C315.41 320.186 314.43 319.637 313.487 319.902C312.545 320.168 311.995 321.147 312.261 322.09C312.526 323.033 313.505 323.582 314.448 323.317C315.391 323.051 315.94 322.072 315.675 321.129Z" fill="white"/>
<path d="M321.956 319.342C321.69 318.399 320.711 317.85 319.768 318.115C318.825 318.381 318.276 319.36 318.541 320.303C318.807 321.246 319.786 321.795 320.729 321.529C321.672 321.264 322.221 320.285 321.956 319.342Z" fill="white"/>
<path d="M287.434 339.038C287.169 338.096 286.189 337.546 285.247 337.812C284.304 338.077 283.755 339.056 284.02 339.999C284.285 340.942 285.265 341.491 286.207 341.226C287.15 340.961 287.699 339.981 287.434 339.038Z" fill="white"/>
<path d="M293.573 337.292C293.308 336.349 292.328 335.8 291.386 336.065C290.443 336.33 289.894 337.31 290.159 338.253C290.424 339.195 291.404 339.745 292.346 339.479C293.289 339.214 293.838 338.235 293.573 337.292Z" fill="white"/>
<path d="M299.856 335.507C299.591 334.564 298.611 334.015 297.669 334.28C296.726 334.545 296.177 335.525 296.442 336.467C296.707 337.41 297.687 337.959 298.629 337.694C299.572 337.429 300.121 336.449 299.856 335.507Z" fill="white"/>
<path d="M305.995 333.759C305.73 332.817 304.75 332.267 303.807 332.533C302.865 332.798 302.315 333.777 302.581 334.72C302.846 335.663 303.825 336.212 304.768 335.947C305.711 335.682 306.26 334.702 305.995 333.759Z" fill="white"/>
<path d="M312.135 332.013C311.869 331.07 310.89 330.521 309.947 330.787C309.004 331.052 308.455 332.031 308.72 332.974C308.986 333.917 309.965 334.466 310.908 334.201C311.851 333.935 312.4 332.956 312.135 332.013Z" fill="white"/>
<path d="M318.274 330.267C318.009 329.324 317.03 328.775 316.087 329.04C315.144 329.306 314.595 330.285 314.86 331.228C315.125 332.171 316.105 332.72 317.048 332.455C317.99 332.189 318.54 331.21 318.274 330.267Z" fill="white"/>
<path d="M324.595 328.622C324.33 327.679 323.351 327.13 322.408 327.396C321.465 327.661 320.916 328.64 321.181 329.583C321.447 330.526 322.426 331.075 323.369 330.81C324.312 330.544 324.861 329.565 324.595 328.622Z" fill="white"/>
<path d="M282.75 335.371C282.484 334.428 281.505 333.879 280.562 334.144C279.619 334.41 279.07 335.389 279.335 336.332C279.601 337.275 280.58 337.824 281.523 337.559C282.466 337.293 283.015 336.314 282.75 335.371Z" fill="white"/>
<path d="M288.891 333.626C288.626 332.684 287.646 332.134 286.704 332.4C285.761 332.665 285.212 333.644 285.477 334.587C285.742 335.53 286.722 336.079 287.664 335.814C288.607 335.549 289.156 334.569 288.891 333.626Z" fill="white"/>
<path d="M295.03 331.879C294.765 330.937 293.785 330.387 292.842 330.653C291.9 330.918 291.35 331.897 291.616 332.84C291.881 333.783 292.86 334.332 293.803 334.067C294.746 333.802 295.295 332.822 295.03 331.879Z" fill="white"/>
<path d="M301.31 330.091C301.044 329.148 300.065 328.599 299.122 328.864C298.179 329.13 297.63 330.109 297.895 331.052C298.161 331.995 299.14 332.544 300.083 332.279C301.026 332.013 301.575 331.034 301.31 330.091Z" fill="white"/>
<path d="M307.449 328.345C307.184 327.402 306.204 326.853 305.262 327.118C304.319 327.383 303.77 328.363 304.035 329.305C304.3 330.248 305.28 330.797 306.222 330.532C307.165 330.267 307.714 329.287 307.449 328.345Z" fill="white"/>
<path d="M313.589 326.599C313.323 325.656 312.344 325.107 311.401 325.372C310.458 325.637 309.909 326.617 310.175 327.559C310.44 328.502 311.419 329.051 312.362 328.786C313.305 328.521 313.854 327.541 313.589 326.599Z" fill="white"/>
<path d="M319.768 324.994C319.502 324.051 318.523 323.502 317.58 323.767C316.637 324.033 316.088 325.012 316.354 325.955C316.619 326.898 317.598 327.447 318.541 327.181C319.484 326.916 320.033 325.937 319.768 324.994Z" fill="white"/>
<path d="M326.049 323.207C325.784 322.264 324.804 321.715 323.862 321.98C322.919 322.246 322.37 323.225 322.635 324.168C322.9 325.111 323.88 325.66 324.822 325.394C325.765 325.129 326.314 324.15 326.049 323.207Z" fill="white"/>
<path d="M205.117 343.053L205.958 346.04L266.56 328.985L265.719 325.998L205.117 343.053Z" fill="white"/>
<path d="M207.105 350.031L207.946 353.018L268.548 335.964L267.707 332.976L207.105 350.031Z" fill="white"/>
<path d="M209.078 356.918L209.919 359.905L270.521 342.85L269.68 339.863L209.078 356.918Z" fill="white"/>
<path d="M170.129 362.057C172.01 368.536 178.698 372.298 185.177 370.417C191.656 368.536 195.418 361.848 193.537 355.369C191.656 348.889 184.968 345.127 178.489 347.008C172.114 348.785 168.352 355.473 170.129 362.057Z" fill="#EB6159"/>
<path d="M190.68 356.286C189.309 351.415 184.249 348.578 179.378 349.948C174.507 351.319 171.669 356.379 173.04 361.251C174.411 366.122 179.471 368.959 184.342 367.588C189.213 366.218 192.051 361.157 190.68 356.286Z" fill="#3A383A"/>
<path d="M170.86 416.293C172.114 420.682 176.608 423.086 180.892 421.936L341.721 376.687C341.721 376.687 340.78 373.238 339.526 368.849L333.57 347.635C332.316 343.246 331.375 339.798 331.375 339.798L170.547 385.256C166.262 386.406 163.754 391.004 164.904 395.288L170.86 416.293Z" fill="#5E5E5E"/>
<path d="M293.56 360.497C293.295 359.554 292.316 359.004 291.373 359.27C290.43 359.535 289.881 360.515 290.146 361.457C290.411 362.4 291.391 362.949 292.334 362.684C293.276 362.419 293.826 361.439 293.56 360.497Z" fill="white"/>
<path d="M299.7 358.75C299.434 357.807 298.455 357.258 297.512 357.523C296.569 357.788 296.02 358.768 296.285 359.711C296.551 360.653 297.53 361.203 298.473 360.937C299.416 360.672 299.965 359.693 299.7 358.75Z" fill="white"/>
<path d="M305.84 357.005C305.575 356.062 304.596 355.513 303.653 355.778C302.71 356.043 302.161 357.023 302.426 357.965C302.691 358.908 303.671 359.457 304.614 359.192C305.556 358.927 306.106 357.947 305.84 357.005Z" fill="white"/>
<path d="M311.979 355.257C311.713 354.315 310.734 353.765 309.791 354.031C308.848 354.296 308.299 355.276 308.565 356.218C308.83 357.161 309.809 357.71 310.752 357.445C311.695 357.18 312.244 356.2 311.979 355.257Z" fill="white"/>
<path d="M318.118 353.511C317.853 352.568 316.874 352.019 315.931 352.285C314.988 352.55 314.439 353.529 314.704 354.472C314.97 355.415 315.949 355.964 316.892 355.699C317.835 355.433 318.384 354.454 318.118 353.511Z" fill="white"/>
<path d="M324.401 351.725C324.135 350.782 323.156 350.233 322.213 350.499C321.27 350.764 320.721 351.743 320.987 352.686C321.252 353.629 322.231 354.178 323.174 353.913C324.117 353.647 324.666 352.668 324.401 351.725Z" fill="white"/>
<path d="M330.539 349.978C330.274 349.035 329.294 348.486 328.352 348.751C327.409 349.017 326.86 349.996 327.125 350.939C327.39 351.882 328.37 352.431 329.312 352.166C330.255 351.9 330.804 350.921 330.539 349.978Z" fill="white"/>
<path d="M291.333 366.008C291.067 365.065 290.088 364.516 289.145 364.781C288.203 365.046 287.653 366.026 287.919 366.968C288.184 367.911 289.163 368.46 290.106 368.195C291.049 367.93 291.598 366.95 291.333 366.008Z" fill="white"/>
<path d="M297.617 364.223C297.351 363.28 296.372 362.731 295.429 362.996C294.486 363.262 293.937 364.241 294.202 365.184C294.468 366.127 295.447 366.676 296.39 366.411C297.333 366.145 297.882 365.166 297.617 364.223Z" fill="white"/>
<path d="M303.795 362.618C303.53 361.675 302.551 361.126 301.608 361.391C300.665 361.657 300.116 362.636 300.381 363.579C300.646 364.522 301.626 365.071 302.569 364.806C303.511 364.54 304.061 363.561 303.795 362.618Z" fill="white"/>
<path d="M309.933 360.87C309.667 359.927 308.688 359.378 307.745 359.643C306.802 359.908 306.253 360.888 306.518 361.831C306.784 362.773 307.763 363.323 308.706 363.057C309.649 362.792 310.198 361.813 309.933 360.87Z" fill="white"/>
<path d="M316.072 359.124C315.807 358.181 314.827 357.632 313.885 357.897C312.942 358.162 312.393 359.142 312.658 360.084C312.923 361.027 313.903 361.576 314.845 361.311C315.788 361.046 316.337 360.066 316.072 359.124Z" fill="white"/>
<path d="M322.212 357.377C321.947 356.435 320.967 355.885 320.024 356.151C319.082 356.416 318.532 357.395 318.798 358.338C319.063 359.281 320.042 359.83 320.985 359.565C321.928 359.3 322.477 358.32 322.212 357.377Z" fill="white"/>
<path d="M328.493 355.59C328.228 354.648 327.248 354.098 326.305 354.364C325.363 354.629 324.813 355.609 325.079 356.551C325.344 357.494 326.323 358.043 327.266 357.778C328.209 357.513 328.758 356.533 328.493 355.59Z" fill="white"/>
<path d="M334.632 353.843C334.366 352.901 333.387 352.351 332.444 352.617C331.501 352.882 330.952 353.862 331.218 354.804C331.483 355.747 332.462 356.296 333.405 356.031C334.348 355.766 334.897 354.786 334.632 353.843Z" fill="white"/>
<path d="M296.015 369.677C295.75 368.734 294.771 368.185 293.828 368.45C292.885 368.716 292.336 369.695 292.601 370.638C292.867 371.58 293.846 372.13 294.789 371.864C295.732 371.599 296.281 370.62 296.015 369.677Z" fill="white"/>
<path d="M302.337 368.033C302.072 367.09 301.092 366.541 300.149 366.806C299.207 367.071 298.657 368.051 298.923 368.993C299.188 369.936 300.167 370.485 301.11 370.22C302.053 369.955 302.602 368.975 302.337 368.033Z" fill="white"/>
<path d="M308.477 366.287C308.212 365.344 307.233 364.795 306.29 365.06C305.347 365.326 304.798 366.305 305.063 367.248C305.329 368.191 306.308 368.74 307.251 368.475C308.194 368.209 308.743 367.23 308.477 366.287Z" fill="white"/>
<path d="M314.616 364.54C314.351 363.597 313.371 363.048 312.429 363.313C311.486 363.579 310.936 364.558 311.202 365.501C311.467 366.444 312.447 366.993 313.389 366.728C314.332 366.462 314.881 365.483 314.616 364.54Z" fill="white"/>
<path d="M320.756 362.794C320.491 361.851 319.511 361.302 318.569 361.567C317.626 361.833 317.077 362.812 317.342 363.755C317.607 364.698 318.587 365.247 319.529 364.981C320.472 364.716 321.021 363.737 320.756 362.794Z" fill="white"/>
<path d="M327.038 361.008C326.773 360.065 325.793 359.516 324.85 359.781C323.908 360.046 323.358 361.026 323.624 361.969C323.889 362.911 324.868 363.461 325.811 363.195C326.754 362.93 327.303 361.951 327.038 361.008Z" fill="white"/>
<path d="M333.177 359.261C332.911 358.318 331.932 357.769 330.989 358.034C330.046 358.299 329.497 359.279 329.763 360.221C330.028 361.164 331.007 361.713 331.95 361.448C332.893 361.183 333.442 360.203 333.177 359.261Z" fill="white"/>
<path d="M298.655 378.957C298.39 378.014 297.411 377.465 296.468 377.73C295.525 377.995 294.976 378.975 295.241 379.918C295.507 380.86 296.486 381.41 297.429 381.144C298.372 380.879 298.921 379.9 298.655 378.957Z" fill="white"/>
<path d="M304.795 377.21C304.529 376.267 303.55 375.718 302.607 375.983C301.664 376.249 301.115 377.228 301.38 378.171C301.646 379.114 302.625 379.663 303.568 379.398C304.511 379.132 305.06 378.153 304.795 377.21Z" fill="white"/>
<path d="M311.118 375.567C310.852 374.624 309.873 374.075 308.93 374.34C307.987 374.606 307.438 375.585 307.703 376.528C307.969 377.471 308.948 378.02 309.891 377.755C310.834 377.489 311.383 376.51 311.118 375.567Z" fill="white"/>
<path d="M317.256 373.82C316.991 372.877 316.012 372.328 315.069 372.593C314.126 372.858 313.577 373.838 313.842 374.781C314.107 375.723 315.087 376.273 316.03 376.007C316.972 375.742 317.522 374.763 317.256 373.82Z" fill="white"/>
<path d="M323.396 372.074C323.131 371.131 322.151 370.582 321.209 370.847C320.266 371.112 319.717 372.092 319.982 373.035C320.247 373.977 321.227 374.527 322.169 374.261C323.112 373.996 323.661 373.017 323.396 372.074Z" fill="white"/>
<path d="M329.536 370.328C329.27 369.385 328.291 368.836 327.348 369.101C326.405 369.366 325.856 370.346 326.122 371.289C326.387 372.231 327.366 372.781 328.309 372.515C329.252 372.25 329.801 371.27 329.536 370.328Z" fill="white"/>
<path d="M335.817 368.54C335.551 367.598 334.572 367.048 333.629 367.314C332.686 367.579 332.137 368.558 332.403 369.501C332.668 370.444 333.647 370.993 334.59 370.728C335.533 370.463 336.082 369.483 335.817 368.54Z" fill="white"/>
<path d="M293.971 375.289C293.706 374.346 292.726 373.797 291.784 374.062C290.841 374.328 290.292 375.307 290.557 376.25C290.822 377.193 291.802 377.742 292.744 377.477C293.687 377.211 294.236 376.232 293.971 375.289Z" fill="white"/>
<path d="M300.113 373.545C299.847 372.602 298.868 372.053 297.925 372.318C296.982 372.583 296.433 373.563 296.698 374.505C296.964 375.448 297.943 375.997 298.886 375.732C299.829 375.467 300.378 374.487 300.113 373.545Z" fill="white"/>
<path d="M306.394 371.757C306.128 370.815 305.149 370.265 304.206 370.531C303.263 370.796 302.714 371.776 302.979 372.718C303.245 373.661 304.224 374.21 305.167 373.945C306.11 373.68 306.659 372.7 306.394 371.757Z" fill="white"/>
<path d="M312.571 370.151C312.306 369.209 311.327 368.659 310.384 368.925C309.441 369.19 308.892 370.169 309.157 371.112C309.422 372.055 310.402 372.604 311.345 372.339C312.287 372.074 312.837 371.094 312.571 370.151Z" fill="white"/>
<path d="M318.711 368.405C318.445 367.462 317.466 366.913 316.523 367.178C315.58 367.444 315.031 368.423 315.296 369.366C315.562 370.309 316.541 370.858 317.484 370.593C318.427 370.327 318.976 369.348 318.711 368.405Z" fill="white"/>
<path d="M324.851 366.659C324.585 365.716 323.606 365.167 322.663 365.432C321.72 365.698 321.171 366.677 321.436 367.62C321.702 368.563 322.681 369.112 323.624 368.846C324.567 368.581 325.116 367.602 324.851 366.659Z" fill="white"/>
<path d="M331.131 364.872C330.866 363.929 329.887 363.38 328.944 363.645C328.001 363.911 327.452 364.89 327.717 365.833C327.983 366.776 328.962 367.325 329.905 367.06C330.848 366.794 331.397 365.815 331.131 364.872Z" fill="white"/>
<path d="M337.27 363.125C337.005 362.182 336.026 361.633 335.083 361.898C334.14 362.164 333.591 363.143 333.856 364.086C334.122 365.029 335.101 365.578 336.044 365.313C336.987 365.047 337.536 364.068 337.27 363.125Z" fill="white"/>
<path d="M216.379 383.113L217.22 386.1L277.822 369.046L276.981 366.058L216.379 383.113Z" fill="white"/>
<path d="M218.365 390.094L219.205 393.081L279.807 376.026L278.967 373.039L218.365 390.094Z" fill="white"/>
<path d="M220.3 396.836L221.141 399.823L281.743 382.768L280.902 379.781L220.3 396.836Z" fill="white"/>
<path d="M181.415 401.976C183.296 408.455 189.984 412.217 196.463 410.336C202.942 408.455 206.704 401.767 204.823 395.288C202.942 388.809 196.254 385.047 189.775 386.928C183.296 388.809 179.534 395.497 181.415 401.976Z" fill="#EB6159"/>
<path d="M201.901 396.206C200.53 391.335 195.47 388.497 190.598 389.868C185.727 391.239 182.89 396.299 184.261 401.17C185.631 406.041 190.692 408.879 195.563 407.508C200.434 406.137 203.271 401.077 201.901 396.206Z" fill="#3A383A"/>
<path d="M141.057 197.61C140.416 195.331 138.049 194.004 135.771 194.645C133.492 195.287 132.165 197.653 132.806 199.932C133.448 202.21 135.814 203.538 138.093 202.896C140.371 202.255 141.699 199.888 141.057 197.61Z" fill="#14CAF4"/>
<path d="M152.283 237.523C151.642 235.245 149.275 233.918 146.997 234.559C144.718 235.2 143.391 237.567 144.032 239.845C144.673 242.124 147.04 243.451 149.319 242.81C151.597 242.169 152.924 239.802 152.283 237.523Z" fill="#14CAF4"/>
<path d="M163.519 277.611C162.878 275.332 160.511 274.005 158.232 274.646C155.954 275.287 154.627 277.654 155.268 279.933C155.909 282.211 158.276 283.538 160.554 282.897C162.833 282.256 164.16 279.889 163.519 277.611Z" fill="#14CAF4"/>
<path d="M174.745 317.524C174.104 315.246 171.737 313.918 169.458 314.56C167.18 315.201 165.853 317.568 166.494 319.846C167.135 322.125 169.502 323.452 171.78 322.811C174.059 322.169 175.386 319.803 174.745 317.524Z" fill="#14CAF4"/>
<path d="M186.083 357.613C185.442 355.334 183.075 354.007 180.796 354.648C178.518 355.289 177.191 357.656 177.832 359.935C178.473 362.213 180.84 363.54 183.118 362.899C185.397 362.258 186.724 359.891 186.083 357.613Z" fill="#14CAF4"/>
<path d="M197.312 397.522C196.671 395.244 194.304 393.916 192.026 394.558C189.747 395.199 188.42 397.566 189.061 399.844C189.703 402.123 192.069 403.45 194.348 402.809C196.626 402.167 197.954 399.801 197.312 397.522Z" fill="#14CAF4"/>
<path opacity="0.2" d="M262.09 411.799L247.774 415.875L266.27 133.198L272.75 131.317L279.124 153.994L262.09 411.799Z" fill="white"/>
<path opacity="0.1" d="M109.4 181.135L179.501 430.23L343.951 383.95L273.85 134.855L109.4 181.135Z" fill="white"/>
<path opacity="0.3" d="M124.044 169.042L126.656 178.343L99.9037 185.867L170.129 435.208L196.881 427.684L130.523 192.032L281.005 149.605L274.526 126.823L124.044 169.042Z" fill="black"/>
<path opacity="0.2" d="M235.024 419.428L171.278 437.402L190.193 154.516L254.044 136.646L235.024 419.428Z" fill="white"/>
<path d="M341.512 375.642L183.923 419.951L118.191 186.598L275.78 142.289L271.287 126.301L95.3056 175.835L169.92 441.06L346.005 391.631L341.512 375.642Z" fill="#D8D8D8"/>
<path d="M274.735 142.498L340.467 375.851L182.774 420.264L171.278 440.746L363.248 386.719L288.634 121.494L112.653 171.027L274.735 142.498Z" fill="#D8D8D8"/>
<path opacity="0.1" d="M274.735 142.498L340.467 375.851L182.774 420.264L171.278 440.746L363.248 386.719L288.634 121.494L274.735 142.498Z" fill="black"/>
<path opacity="0.4" d="M160.062 257.237L159.986 256.625C159.538 253.048 156.273 250.511 152.693 250.959L129.234 253.894C128.762 253.953 128.329 253.629 128.246 253.162C128.244 253.155 128.244 253.15 128.242 253.144C128.157 252.647 128.51 252.179 129.011 252.117L165.383 247.566C168.963 247.119 171.501 243.856 171.053 240.278L170.977 239.666C170.529 236.089 167.264 233.552 163.684 234L126.972 238.593C126.486 238.653 126.04 238.309 125.978 237.823C125.978 237.817 125.977 237.812 125.976 237.806C125.916 237.32 126.263 236.876 126.749 236.815L171.801 231.179C175.435 230.724 177.98 227.15 177.531 223.572C177.083 219.995 173.736 217.158 170.102 217.612L124.73 223.289C124.249 223.349 123.807 223.012 123.738 222.532C123.737 222.526 123.736 222.52 123.735 222.514C123.667 222.024 124.016 221.573 124.507 221.512L162.088 216.81C165.667 216.362 168.206 213.099 167.758 209.522L167.681 208.91C167.233 205.332 163.968 202.796 160.389 203.243L130.715 206.956L103.413 209.794L119.045 202.366C123.335 200.568 125.607 197.573 123.819 192.245C121.584 185.585 115.655 186.175 111.365 187.973C111.365 187.973 91.9965 195.307 90.3695 196.08C79.3605 201.308 74.2837 211.912 72.9315 215.199C69.1959 220.633 67.0925 227.237 67.8275 233.103L69.4856 246.342C71.0066 258.483 82.8869 273.471 95.0359 271.951L111.269 269.92L138.181 266.553L154.392 264.525C157.972 264.078 160.51 260.815 160.062 257.237Z" fill="#3C3C3B"/>
<path d="M163.483 256.305L163.372 255.679C162.727 252.02 159.235 249.577 155.574 250.222L131.578 254.451C131.095 254.535 130.632 254.225 130.523 253.747C130.522 253.741 130.52 253.735 130.519 253.729C130.405 253.222 130.745 252.723 131.257 252.632L168.462 246.076C172.123 245.431 174.568 241.942 173.922 238.282L173.812 237.657C173.166 233.997 169.675 231.554 166.013 232.199L128.462 238.817C127.965 238.904 127.488 238.573 127.399 238.076C127.398 238.07 127.397 238.064 127.396 238.058C127.309 237.561 127.644 237.086 128.141 236.999L174.223 228.878C177.94 228.223 180.375 224.413 179.73 220.753C179.084 217.094 175.492 214.346 171.774 215.001L125.365 223.179C124.872 223.266 124.401 222.941 124.305 222.451C124.303 222.445 124.302 222.439 124.301 222.433C124.205 221.933 124.542 221.45 125.044 221.361L163.485 214.588C167.146 213.943 169.591 210.453 168.945 206.794L168.835 206.168C168.189 202.509 164.698 200.066 161.036 200.711L130.684 206.06L102.727 210.386L118.435 201.936C122.758 199.864 124.942 196.665 122.827 191.272C120.184 184.532 114.111 185.445 109.788 187.516C109.788 187.516 90.2292 196.062 88.5941 196.941C77.5317 202.89 72.8527 214.067 71.63 217.519C68.0648 223.305 66.2403 230.211 67.2991 236.212L69.6882 249.753C71.8794 262.172 84.8807 276.988 97.3074 274.798L113.911 271.872L141.439 267.021L158.021 264.099C161.684 263.454 164.128 259.965 163.483 256.305Z" fill="#EDBB87"/>
</svg>
