<svg width="36" height="36" viewBox="0 0 36 36" fill="none" xmlns="http://www.w3.org/2000/svg">
<path fill-rule="evenodd" clip-rule="evenodd" d="M30.4497 35.9406H5.49092C2.45844 35.9406 0 33.4822 0 30.4497V5.49092C0 2.45844 2.45844 0 5.49092 0H30.4497C33.4822 0 35.9406 2.45844 35.9406 5.49092V30.4497C35.9406 33.4822 33.4822 35.9406 30.4497 35.9406Z" fill="#3D5A9B"/>
<path fill-rule="evenodd" clip-rule="evenodd" d="M22.5921 18.0061H19.5875V28.4768H15.1334V18.0061H13.541V14.3072H15.1334V11.9152C15.1334 10.203 15.969 7.52246 19.6295 7.52246L22.5396 7.53394V11.127H20.5345C20.1436 11.127 19.587 11.3167 19.587 12.1338V14.3077H22.9834L22.5921 18.0061Z" fill="white"/>
</svg>
