<svg width="36" height="36" viewBox="0 0 36 36" fill="none" xmlns="http://www.w3.org/2000/svg">
<path fill-rule="evenodd" clip-rule="evenodd" d="M30.4497 35.9406H5.49092C2.45844 35.9406 0 33.4822 0 30.4497V5.49092C0 2.45844 2.45844 0 5.49092 0H30.4497C33.4822 0 35.9406 2.45844 35.9406 5.49092V30.4497C35.9406 33.4822 33.4822 35.9406 30.4497 35.9406Z" fill="#0098E1"/>
<path fill-rule="evenodd" clip-rule="evenodd" d="M26.6703 14.8081C26.6703 14.6479 26.6673 14.4887 26.6593 14.3314L26.6583 14.3309C27.3805 13.8092 28.0037 13.1627 28.4988 12.4221C27.8247 12.7208 27.1096 12.9163 26.3773 13.0021C27.1486 12.5405 27.7261 11.8147 28.0026 10.9595C27.2878 11.3823 26.4966 11.6893 25.6555 11.855C24.9816 11.1397 24.0242 10.6904 22.96 10.6904C22.4033 10.6898 21.8537 10.8151 21.3523 11.057C20.8509 11.2988 20.4107 11.651 20.0647 12.087C19.7186 12.5231 19.4757 13.0318 19.3541 13.575C19.2325 14.1183 19.2353 14.682 19.3624 15.2239C17.8939 15.1504 16.4573 14.7689 15.1459 14.1041C13.8344 13.4394 12.6774 12.5063 11.75 11.3653C11.4224 11.9293 11.2501 12.57 11.2508 13.2222C11.2499 13.8306 11.3995 14.4298 11.6863 14.9663C11.9731 15.5028 12.3882 15.96 12.8946 16.2972C12.3074 16.2785 11.7331 16.12 11.2194 15.8349V15.8809C11.2194 17.6684 12.4953 19.1634 14.1825 19.5019C13.8735 19.5847 13.5485 19.6307 13.2121 19.6307C12.971 19.6307 12.7413 19.6087 12.5157 19.5638C12.751 20.2979 13.2101 20.94 13.8287 21.4001C14.4472 21.8602 15.1942 22.1153 15.965 22.1295C14.6567 23.1558 13.0414 23.7124 11.3786 23.7099C11.0816 23.7099 10.7881 23.6924 10.4976 23.6575C12.1324 24.7063 14.0731 25.3173 16.1607 25.3173C22.9535 25.3173 26.6703 19.6901 26.6703 14.8081Z" fill="white"/>
</svg>
