<svg width="36" height="36" viewBox="0 0 36 36" fill="none" xmlns="http://www.w3.org/2000/svg">
<path fill-rule="evenodd" clip-rule="evenodd" d="M30.5 36H5.5C2.4625 36 0 33.5375 0 30.5V5.5C0 2.4625 2.4625 0 5.5 0H30.5C33.5375 0 36 2.4625 36 5.5V30.5C36 33.5375 33.5375 36 30.5 36Z" fill="#4D75A3"/>
<path fill-rule="evenodd" clip-rule="evenodd" d="M26.5 25.4002H29.55C29.85 25.4002 30.15 25.2502 30.15 24.7502C30.15 24.0502 29.25 22.8502 27.9 21.4002C27.5333 20.9002 27.0111 20.378 26.6148 19.9817C26.4167 19.7835 26.25 19.6169 26.15 19.5002C25.75 19.0002 25.85 18.7502 26.15 18.3002C26.15 18.3002 29.25 13.9002 29.55 12.4502C29.65 11.9502 29.45 11.6502 28.9 11.6502H26.2C25.6 11.6502 25.35 11.9002 25.15 12.3002C25.15 12.3002 23.7 15.4002 21.9 17.3502C21.35 18.0002 21.05 18.1502 20.75 18.1502C20.5 18.1502 20.4 17.9502 20.4 17.3502V12.3502C20.4 11.6502 20.3 11.4502 19.75 11.4502H15.4C15.05 11.4502 14.85 11.6502 14.85 11.9002C14.85 12.1442 14.9909 12.3177 15.1669 12.5345C15.4598 12.8953 15.85 13.3758 15.85 14.5002V18.2002C15.85 18.9502 15.8 19.2502 15.45 19.2502C14.5 19.2502 12.3 16.0502 11.1 12.4502C10.85 11.7002 10.6 11.5002 9.9 11.5002H7.2C6.8 11.5002 6.5 11.7502 6.5 12.1502C6.5 12.8502 7.35 16.2002 10.65 20.7002C12.85 23.7002 15.8 25.3502 18.45 25.3502C20.05 25.3502 20.45 25.1002 20.45 24.4002V22.1002C20.45 21.5002 20.7 21.3002 21 21.3002C21.35 21.3002 22.05 21.4002 23.55 22.9502C24.1325 23.5165 24.5422 23.9729 24.8638 24.3311C25.5361 25.0799 25.8236 25.4002 26.5 25.4002Z" fill="white"/>
</svg>
