<svg width="96" height="97" viewBox="0 0 96 97" fill="none" xmlns="http://www.w3.org/2000/svg">
<path d="M51.943 82.7705C51.9432 83.6705 51.7661 84.5618 51.4218 85.3933C51.0775 86.2249 50.5727 86.9804 49.9364 87.6169C49.3 88.2534 48.5445 88.7582 47.713 89.1027C46.8815 89.4472 45.9903 89.6245 45.0903 89.6245H12.5955C11.6953 89.6248 10.8039 89.4477 9.9722 89.1034C9.14049 88.7591 8.38479 88.2542 7.74827 87.6177C7.11176 86.9812 6.60691 86.2255 6.26258 85.3938C5.91825 84.5621 5.74119 83.6707 5.74152 82.7705V10.5622C5.74152 9.66193 5.91888 8.77047 6.26348 7.93875C6.60808 7.10702 7.11316 6.35134 7.74987 5.71486C8.38658 5.07838 9.14245 4.57357 9.9743 4.22927C10.8061 3.88497 11.6977 3.70793 12.598 3.70825H45.0916C46.9089 3.70891 48.6516 4.43131 49.9364 5.71661C51.2213 7.0019 51.943 8.74486 51.943 10.5622V82.7705Z" fill="#5B5B5B"/>
<path d="M10.1679 15.4878H47.5217V77.8471H10.1666L10.1679 15.4878Z" fill="#00CE93"/>
<path d="M28.9189 86.9532C30.732 86.9532 32.2019 85.4833 32.2019 83.6702C32.2019 81.857 30.732 80.3872 28.9189 80.3872C27.1058 80.3872 25.6359 81.857 25.6359 83.6702C25.6359 85.4833 27.1058 86.9532 28.9189 86.9532Z" fill="white"/>
<path d="M61.1047 75.7818C78.1207 75.7818 91.9148 61.9876 91.9148 44.9717C91.9148 27.9558 78.1207 14.1616 61.1047 14.1616C44.0888 14.1616 30.2946 27.9558 30.2946 44.9717C30.2946 61.9876 44.0888 75.7818 61.1047 75.7818Z" fill="#0084FD"/>
<path d="M33.9831 56.2903L47.555 69.9859L28.9115 74.8893L33.9831 56.2903Z" fill="#0084FD"/>
<path d="M82.5529 34.4219C82.5529 35.831 81.4071 36.9718 79.9992 36.9718H42.2091C41.5326 36.9722 40.8838 36.7039 40.4051 36.2259C39.9265 35.748 39.6572 35.0995 39.6566 34.4231C39.6566 33.0115 40.8012 31.8694 42.2091 31.8694H79.9979C81.4071 31.8694 82.5529 33.0115 82.5529 34.4231V34.4219ZM82.5529 44.9766C82.5529 46.3857 81.4071 47.5278 79.9992 47.5278H42.2091C41.5455 47.5072 40.9161 47.2291 40.454 46.7524C39.992 46.2758 39.7336 45.638 39.7336 44.9741C39.7336 44.3103 39.992 43.6725 40.454 43.1958C40.9161 42.7192 41.5455 42.4411 42.2091 42.4204H79.9979C81.4071 42.4204 82.5529 43.565 82.5529 44.9791V44.9766ZM82.5529 55.5202C82.5529 56.9293 81.4071 58.0714 79.9992 58.0714H42.2091C41.5458 58.0508 40.9167 57.7728 40.4549 57.2964C39.9931 56.82 39.7348 56.1825 39.7348 55.519C39.7348 54.8554 39.9931 54.218 40.4549 53.7415C40.9167 53.2651 41.5458 52.9871 42.2091 52.9665H79.9979C80.6753 52.9675 81.3245 53.237 81.8035 53.7159C82.2824 54.1948 82.5519 54.8441 82.5529 55.5214V55.5202Z" fill="white"/>
<path opacity="0.2" d="M81.6023 21.9746L28.9918 74.5839L28.9115 74.8892L44.3573 70.8263C49.178 73.9535 54.9257 75.7804 61.106 75.7804C78.1216 75.7804 91.9161 61.9859 91.9161 44.9715C91.9161 35.8272 87.9285 27.6197 81.6023 21.9746Z" fill="#060000"/>
</svg>
