<svg width="96" height="97" viewBox="0 0 96 97" fill="none" xmlns="http://www.w3.org/2000/svg">
<path d="M85.91 35.0486C85.91 26.7892 84.4465 19.9686 81.8632 14.4311C80.3704 14.5491 78.8737 14.6093 77.3763 14.6115C64.8648 14.6115 53.8948 10.6462 47.7528 4.69336C41.6071 10.6462 30.6383 14.6128 18.1207 14.6128C16.6028 14.6128 15.1096 14.546 13.6375 14.4335C11.0541 19.9711 9.59186 26.7917 9.59186 35.051C9.59186 63.3445 32.7965 88.2882 47.754 88.2882C63.761 88.2882 85.9113 63.3445 85.9113 35.051L85.91 35.0486Z" fill="#0084FD"/>
<path d="M47.754 22.2812C34.3798 22.2812 23.5396 33.1215 23.5396 46.4908C23.5396 59.86 34.3798 70.699 47.754 70.699C61.122 70.699 71.9623 59.8588 71.9623 46.4908C71.9623 33.119 61.122 22.2812 47.7528 22.2812H47.754ZM26.9981 47.974H35.4676C35.5391 50.3782 35.812 52.7722 36.2834 55.1308H28.825C27.7908 52.8746 27.1727 50.45 27.0005 47.974H26.9981ZM49.4425 34.2018V26.3652C51.6921 27.3318 53.6488 30.197 54.9726 34.2018H49.4425ZM55.8799 37.5812C56.3434 39.732 56.6364 42.1015 56.7377 44.5984H49.4425V37.5825H55.8799V37.5812ZM46.0656 26.3677V34.2018H40.528C41.8531 30.197 43.811 27.333 46.0656 26.3677ZM46.0656 37.5812V44.5984H38.7654C38.8667 42.1015 39.1609 39.7344 39.622 37.5825H46.0656V37.5812ZM35.4849 44.5984H27.0277C27.2564 42.104 27.9177 39.7406 28.9412 37.5825H36.3365C35.8605 39.8941 35.576 42.2411 35.4861 44.5996L35.4849 44.5984ZM38.7481 47.9753H46.0656V55.1321H39.5663C39.0919 52.7739 38.8189 50.3797 38.7505 47.9753H38.7481ZM46.0656 58.5065V66.6151C43.7628 65.6262 41.7665 62.6523 40.4415 58.5065H46.0656ZM49.4425 66.6151V58.5065H55.0629C53.7341 62.6523 51.744 65.6262 49.4425 66.6151ZM49.4425 55.1321V47.9753H56.7476C56.6824 50.3796 56.4115 52.7739 55.938 55.1321H49.4425ZM60.0331 47.9753H68.505C68.3313 50.4507 67.7141 52.8749 66.6831 55.1321H59.2197C59.6897 52.7733 59.9617 50.3794 60.0331 47.9753ZM60.0207 44.6008C59.9262 42.2422 59.641 39.8951 59.1678 37.5825H66.5595C67.6103 39.789 68.259 42.1652 68.4754 44.5996H60.0207V44.6008ZM64.5422 34.2018H58.2927C57.3854 31.2971 56.1667 28.8002 54.7254 26.8782C58.6573 28.2805 62.0773 30.8315 64.5422 34.2006V34.2018ZM40.7814 26.8794C39.3377 28.8002 38.1164 31.2971 37.2055 34.2018H30.9572C33.4245 30.832 36.8471 28.281 40.7814 26.8794ZM30.7656 58.5065H37.1264C38.0448 61.5262 39.2932 64.1207 40.7777 66.0997C36.7392 64.6579 33.2431 62.0065 30.7656 58.5065ZM54.7254 66.0997C56.2124 64.122 57.4608 61.5262 58.3755 58.5065H64.7388C62.2619 62.0072 58.7657 64.6588 54.7267 66.0997H54.7254Z" fill="#ACEEFF"/>
<path opacity="0.2" d="M81.8644 14.431C80.3717 14.5491 78.8749 14.6093 77.3775 14.6115C64.934 14.6115 54.0221 10.687 47.8603 4.79224V88.2783C64.1108 88.2783 85.91 63.2135 85.91 35.0498C85.91 26.7904 84.4465 19.9698 81.8632 14.4323L81.8644 14.431Z" fill="#010000"/>
</svg>
