<svg width="96" height="97" viewBox="0 0 96 97" fill="none" xmlns="http://www.w3.org/2000/svg">
<path d="M89.1609 48.0902C89.1609 70.9005 70.6719 89.392 47.864 89.392C25.0562 89.392 6.5672 70.9005 6.5672 48.0902C6.56596 25.2849 25.055 6.79834 47.8628 6.79834C70.6706 6.79834 89.1596 25.2849 89.1596 48.0902H89.1609Z" fill="#FF8200"/>
<path opacity="0.3" d="M47.864 6.7984C38.8916 6.78337 30.1607 9.70494 23.0044 15.1171V44.7504C23.0044 44.7504 21.4828 72.1366 47.8653 72.2825C62.4162 72.4271 70.1465 65.2184 71.1193 62.3483C72.8968 59.2779 72.7262 48.4994 72.7262 44.7517V15.1171C65.5686 9.70466 56.8364 6.7831 47.8628 6.7984H47.864Z" fill="#100030"/>
<path d="M57.0121 54.1073C56.7797 54.9009 56.6623 55.4818 56.6623 55.8502C56.6623 56.97 57.3384 57.5312 58.6895 57.5312C59.6697 57.5312 60.6672 57.1678 61.6931 56.4459C62.7153 55.7266 63.6337 54.734 64.4495 53.4769C65.2653 52.2223 65.9402 50.7699 66.4766 49.1161C67.0131 47.4598 67.2801 45.7046 67.2801 43.8406C67.2801 41.094 66.7906 38.6615 65.8092 36.5441C64.8352 34.4267 63.5076 32.632 61.8291 31.1672C60.1567 29.6988 58.2111 28.5814 55.9986 27.815C53.786 27.0487 51.4498 26.663 48.9827 26.663C46.0038 26.663 43.2535 27.223 40.7406 28.3379C38.2265 29.4565 36.0596 30.9831 34.2451 32.9113C32.4281 34.8457 31.0091 37.1139 29.9869 39.722C28.9609 42.3301 28.448 45.1434 28.448 48.1705C28.448 51.2421 28.9857 54.0838 30.0598 56.6919C31.1315 59.3 32.611 61.5447 34.501 63.4322C36.4026 65.325 38.6625 66.8197 41.1485 67.8288C43.6898 68.8795 46.429 69.4011 49.3683 69.4011C52.7279 69.4011 55.8614 68.7954 58.7785 67.5841C61.6956 66.3752 63.9909 64.6274 65.672 62.3481H71.1168C70.1153 64.1493 68.8298 65.7771 67.3098 67.1688C65.7283 68.6253 63.9545 69.858 62.0379 70.8325C60.0825 71.8337 58.0084 72.6124 55.8243 73.1711C53.6364 73.731 51.4239 74.0116 49.1891 74.0116C45.5093 74.0116 42.078 73.3355 38.8877 71.9845C35.6987 70.6372 32.9299 68.7855 30.5789 66.4346C28.2304 64.086 26.3763 61.3123 25.0265 58.1233C23.6792 54.9342 23.0031 51.5227 23.0031 47.8936C23.0031 44.309 23.6867 40.9432 25.0612 37.8024C26.4357 34.6591 28.2972 31.9237 30.6482 29.595C32.9991 27.2675 35.7469 25.4294 38.8877 24.0784C42.0298 22.7262 45.3734 22.0513 48.9122 22.0513C52.1705 22.0513 55.2408 22.5865 58.1295 23.6581C61.0145 24.7298 63.541 26.2044 65.7066 28.0919C67.854 29.9558 69.6001 32.2368 70.8387 34.7963C72.0958 37.3821 72.7212 40.2103 72.7212 43.2819C72.7212 46.2657 72.1749 48.9641 71.0797 51.3843C69.9883 53.8045 68.6138 55.8786 66.9612 57.5967C65.3073 59.321 63.5286 60.6498 61.6189 61.5805C59.7092 62.5101 57.9404 62.9723 56.3125 62.9723C55.1012 62.9723 54.0777 62.5916 53.2409 61.8228C52.4053 61.0564 51.9616 59.9489 51.9158 58.5065H51.6353C50.5648 59.6214 49.2843 60.6486 47.7948 61.5793C46.355 62.4937 44.6835 62.9767 42.9779 62.9711C41.4822 62.9711 40.1473 62.6868 38.9607 62.1009C37.8049 61.5432 36.7811 60.746 35.957 59.7623C35.1412 58.7833 34.5146 57.6288 34.072 56.3038C33.6295 54.9763 33.4095 53.5449 33.4095 52.0109C33.4095 49.7267 33.7803 47.4697 34.5269 45.2336C35.271 42.9988 36.3167 41.01 37.6665 39.2634C38.9994 37.5313 40.676 36.0933 42.591 35.0398C44.5192 33.9669 46.6774 33.4329 49.0506 33.4329C50.6798 33.4329 52.1692 33.8408 53.5215 34.6542C54.8713 35.47 55.87 36.8321 56.5251 38.7381H56.6611L57.7785 34.758H62.8785L57.0121 54.1048V54.1073ZM49.4005 38.8864C47.7689 38.8864 46.3301 39.2449 45.0718 39.9618C43.808 40.6928 42.7222 41.695 41.8926 42.8962C41.0335 44.1323 40.3797 45.529 39.9396 47.0865C39.4941 48.6663 39.2703 50.3003 39.2746 51.9417C39.2746 53.666 39.6578 55.0269 40.4279 56.0269C41.1942 57.0281 42.4649 57.5324 44.2325 57.5324C45.6292 57.5324 46.9209 57.1221 48.11 56.3087C49.2995 55.491 50.3286 54.4616 51.1458 53.2717C51.9957 52.039 52.6557 50.6857 53.1037 49.257C53.5672 47.7886 53.8008 46.3794 53.8008 45.0297C53.8008 43.3981 53.4399 41.9679 52.718 40.7319C51.9949 39.502 50.8887 38.8852 49.4005 38.8852V38.8864Z" fill="white"/>
</svg>
