<svg width="96" height="96" viewBox="0 0 96 96" fill="none" xmlns="http://www.w3.org/2000/svg">
<path d="M42.528 88.032C64.6901 88.032 82.656 70.0661 82.656 47.904C82.656 25.7419 64.6901 7.776 42.528 7.776C20.3659 7.776 2.39999 25.7419 2.39999 47.904C2.39999 70.0661 20.3659 88.032 42.528 88.032Z" fill="#EFEBDE"/>
<path d="M75.072 41.184L71.28 40.8C70.6187 38.2763 69.6175 35.8541 68.304 33.6L70.704 30.696C71.1124 30.374 71.3787 29.905 71.446 29.3893C71.5133 28.8736 71.3762 28.352 71.064 27.936L63.096 19.968C62.6741 19.6602 62.1502 19.526 61.6322 19.593C61.1143 19.66 60.6418 19.923 60.312 20.328L57.432 22.728C55.167 21.4365 52.7478 20.4366 50.232 19.752L49.92 16.032C49.9815 15.5141 49.8375 14.9928 49.5189 14.58C49.2003 14.1672 48.7325 13.8957 48.216 13.824H36.84C36.3261 13.9014 35.862 14.1744 35.5445 14.5858C35.2271 14.9972 35.0807 15.5153 35.136 16.032L34.824 19.848C32.3019 20.514 29.8803 21.5149 27.624 22.824L24.744 20.424C24.4184 20.0207 23.95 19.7583 23.4361 19.6912C22.9221 19.6242 22.4021 19.7577 21.984 20.064L13.92 28.032C13.6205 28.4626 13.503 28.9939 13.5929 29.5106C13.6827 30.0273 13.9727 30.4878 14.4 30.792L16.8 33.6C15.4909 35.8563 14.49 38.2778 13.824 40.8L10.032 41.088C9.51251 41.0322 8.99142 41.1778 8.57614 41.4948C8.16086 41.8119 7.88305 42.2762 7.79999 42.792V54.192C7.88305 54.7078 8.16086 55.1721 8.57614 55.4891C8.99142 55.8062 9.51251 55.9518 10.032 55.896L13.824 56.184C14.4962 58.704 15.4968 61.1248 16.8 63.384L14.4 66.384C13.9915 66.706 13.7252 67.1749 13.658 67.6907C13.5907 68.2064 13.7278 68.728 14.04 69.144L22.08 77.208C22.4961 77.4807 22.9984 77.5899 23.4902 77.5146C23.982 77.4392 24.4285 77.1847 24.744 76.8L27.648 74.4C29.9072 75.7032 32.328 76.7038 34.848 77.376L35.136 81.168C35.0807 81.6847 35.2271 82.2028 35.5445 82.6142C35.862 83.0256 36.3261 83.2985 36.84 83.376H48.216C48.7298 83.2985 49.1939 83.0256 49.5114 82.6142C49.8289 82.2028 49.9753 81.6847 49.92 81.168L50.208 77.376C52.7283 76.6936 55.1488 75.685 57.408 74.376L60.288 76.776C60.6144 77.1847 61.0852 77.4524 61.6033 77.5238C62.1214 77.5953 62.6472 77.465 63.072 77.16L71.112 69.096C71.4242 68.68 71.5613 68.1584 71.494 67.6427C71.4267 67.1269 71.1604 66.658 70.752 66.336L68.352 63.432C69.6611 61.1756 70.662 58.7541 71.328 56.232L75.12 55.944C75.6395 55.9998 76.1606 55.8542 76.5758 55.5371C76.9911 55.2201 77.2689 54.7558 77.352 54.24V42.888C77.2689 42.3629 76.9841 41.8909 76.5583 41.5726C76.1324 41.2543 75.5991 41.1149 75.072 41.184Z" fill="#004A54"/>
<path d="M42.528 59.664C49.0229 59.664 54.288 54.3989 54.288 47.904C54.288 41.4092 49.0229 36.144 42.528 36.144C36.0331 36.144 30.768 41.4092 30.768 47.904C30.768 54.3989 36.0331 59.664 42.528 59.664Z" fill="#EFEBDE"/>
<path d="M42.528 54.48C46.1598 54.48 49.104 51.5358 49.104 47.904C49.104 44.2722 46.1598 41.328 42.528 41.328C38.8962 41.328 35.952 44.2722 35.952 47.904C35.952 51.5358 38.8962 54.48 42.528 54.48Z" fill="#FF5046"/>
<path opacity="0.3" d="M42.528 7.776H42.168V88.032H42.528C53.1706 88.032 63.3773 83.8042 70.9028 76.2788C78.4282 68.7533 82.656 58.5466 82.656 47.904C82.656 37.2614 78.4282 27.0547 70.9028 19.5292C63.3773 12.0038 53.1706 7.776 42.528 7.776Z" fill="black"/>
<path d="M93 45.744L78.6 20.52C78.3169 19.954 77.8818 19.478 77.3435 19.1453C76.8052 18.8127 76.1848 18.6365 75.552 18.6365C74.9192 18.6365 74.2988 18.8127 73.7605 19.1453C73.2222 19.478 72.7871 19.954 72.504 20.52L57.984 45.6C57.5716 46.1727 57.353 46.8622 57.36 47.568C57.3568 48.0207 57.4433 48.4695 57.6143 48.8887C57.7854 49.3079 58.0377 49.689 58.3567 50.0103C58.6757 50.3315 59.0551 50.5865 59.4731 50.7604C59.891 50.9344 60.3393 51.024 60.792 51.024H90.144C91.042 51.0306 91.9068 50.685 92.5529 50.0613C93.199 49.4377 93.5749 48.5856 93.6 47.688C93.6041 46.9938 93.3947 46.3151 93 45.744Z" fill="#FF5046"/>
<path d="M67.608 33.264C69.9223 40.2021 70.1261 47.6708 68.1936 54.7248C66.261 61.7788 62.2791 68.1008 56.7518 72.8906C51.2245 77.6804 44.4004 80.7226 37.1433 81.6321C29.8862 82.5417 22.5224 81.2776 15.984 78C23.1043 84.2752 32.2182 87.8235 41.7071 88.0148C51.196 88.2061 60.4456 85.0279 67.813 79.0448C75.1804 73.0617 80.1886 64.6609 81.9482 55.3346C83.7078 46.0084 82.1048 36.3603 77.424 28.104L67.608 33.264Z" fill="#FF5046"/>
</svg>
