<svg width="300" height="411" viewBox="0 0 300 411" fill="none" xmlns="http://www.w3.org/2000/svg">
<path d="M153.251 276.649L111.997 239.094C101.07 229.136 94.5464 215.249 93.8615 200.486C93.1757 185.723 98.3848 171.292 108.343 160.366C108.381 160.32 108.415 160.283 108.451 160.236L32.5855 103.773C-16.484 165.69 -9.61357 255.859 49.6765 309.888L160.025 410.157L153.855 276.109L153.251 276.649Z" fill="#1D89AA"/>
<path d="M153.816 276.623L112.883 239.097C107.484 234.157 103.111 228.202 100.016 221.574C96.9202 214.945 95.1619 207.771 94.8401 200.463C94.5193 193.155 95.6426 185.856 98.1451 178.981C100.648 172.107 104.481 165.792 109.426 160.399C109.436 160.387 109.505 160.371 109.515 160.359L50.5093 116.347C7.84075 169.691 12.7901 247.686 64.0084 294.358L158.687 381.183L153.852 276.111L153.816 276.623Z" fill="#289CC9"/>
<path d="M154.272 276.601L113.115 239.085C107.708 234.153 103.327 228.206 100.221 221.581C97.1159 214.957 95.3464 207.787 95.0143 200.479C94.6822 193.172 95.7942 185.87 98.2863 178.992C100.779 172.114 104.603 165.794 109.54 160.393L109.572 160.357L86.9472 143.466C72.957 160.325 65.9972 181.918 67.509 203.768C69.0218 225.618 78.8914 246.048 95.0707 260.822L156.653 317.06L154.762 276.071L154.272 276.601Z" fill="#35C3EF"/>
<path d="M88.5427 49.33C72.0887 60.4506 68.8383 84.3792 81.2988 102.752C93.7386 121.122 117.166 126.997 133.632 115.852L155.348 101.156C171.798 90.0255 164.977 73.7155 152.525 55.3429C140.073 36.9703 149.609 4.55344 133.153 15.6872L88.5427 49.33Z" fill="#E9B980"/>
<path opacity="0.15" d="M137.367 98.7489C137.367 98.7489 76.0842 65.1935 76.6261 63.9648C77.168 62.7361 118.182 22.5303 130.673 18.8799C143.165 15.2295 151.812 66.3254 151.812 66.3254L137.367 98.7489Z" fill="black"/>
<path d="M197.431 44.3078C214.835 53.8707 220.27 77.3998 209.556 96.8412C198.858 116.272 176.065 124.277 158.642 114.685L153.17 109.797C135.765 100.223 116.836 87.4956 140.728 47.3011C152.063 28.2169 157.042 22.0742 174.453 31.654L197.431 44.3078Z" fill="#FDDBA4"/>
<path d="M91.3177 48.1314C89.1022 46.9732 86.5207 46.7278 84.1265 47.4489C81.7322 48.1699 79.7162 49.7991 78.5101 51.9887C77.305 54.1772 77.0048 56.7513 77.6756 59.1582C78.3464 61.5654 79.9335 63.6142 82.0982 64.8654L139.874 98.9369C140.974 99.5632 142.189 99.9644 143.447 100.117C144.704 100.27 145.98 100.172 147.198 99.8275C148.418 99.4834 149.556 98.9003 150.548 98.1125C151.539 97.3246 152.364 96.3474 152.975 95.2381C153.585 94.1287 153.968 92.9091 154.103 91.6503C154.236 90.3915 154.119 89.1185 153.757 87.9055C153.394 86.6925 152.793 85.5637 151.991 84.5847C151.187 83.6057 150.198 82.7961 149.078 82.2029L91.3177 48.1314ZM101.736 30.4968C99.5156 29.2746 96.9002 28.9851 94.4655 29.6902C92.0308 30.3952 89.9762 32.0386 88.7532 34.2572C87.5302 36.4759 87.2404 39.0894 87.946 41.5224C88.6516 43.9554 90.296 46.0086 92.5162 47.2308L142.664 76.551C144.883 77.747 147.485 78.0187 149.904 77.3071C152.323 76.5953 154.362 74.9578 155.579 72.7508C156.795 70.5439 157.09 67.9462 156.399 65.523C155.709 63.0998 154.088 61.0474 151.89 59.8123L101.736 30.4968ZM117.645 15.6928C115.448 14.4876 112.867 14.1915 110.454 14.8693C108.042 15.5481 105.993 17.1453 104.747 19.3179C103.502 21.4905 103.16 24.0655 103.795 26.4881C104.43 28.9099 105.992 30.9866 108.143 32.2698L157.268 61.6521C158.358 62.2756 159.559 62.6785 160.804 62.8379C162.049 62.9975 163.314 62.9103 164.525 62.5815C165.736 62.2526 166.871 61.6886 167.864 60.9216C168.858 60.1546 169.689 59.1996 170.314 58.1111C170.938 57.023 171.34 55.8224 171.5 54.5777C171.66 53.334 171.573 52.0705 171.244 50.8596C170.914 49.6497 170.35 48.515 169.583 47.5231C168.815 46.5304 167.86 45.6984 166.77 45.0751L117.645 15.6928ZM136.683 4.32127C135.649 3.74874 134.511 3.38585 133.336 3.25235C132.161 3.1198 130.972 3.21945 129.836 3.54661C128.699 3.87377 127.638 4.42186 126.714 5.15985C125.789 5.89689 125.02 6.80879 124.45 7.84386C123.879 8.87892 123.517 10.0165 123.387 11.1907C123.256 12.3658 123.358 13.5541 123.689 14.6888C124.018 15.8235 124.568 16.883 125.309 17.8043C126.048 18.7266 126.963 19.4937 127.999 20.0625L172.61 44.9115C174.701 46.0613 177.162 46.3339 179.454 45.6702C181.745 45.0065 183.679 43.46 184.83 41.372C185.981 39.2831 186.254 36.8228 185.589 34.5327C184.925 32.2435 183.378 30.3106 181.287 29.1609L136.683 4.32127Z" fill="#FDDBA4"/>
<path d="M137.713 89.9668L169.016 35.0175L148.551 23.3761L117.248 78.3248L137.713 89.9668Z" fill="#FDDBA4"/>
<path d="M150.136 35.2332L156.958 23.2599L136.498 11.6157L129.675 23.589L150.136 35.2332ZM138.682 108.998C138.556 106.324 140.198 104.076 142.351 103.976L179.19 102.284C181.339 102.185 183.18 104.277 183.304 106.95L183.607 113.53C183.73 116.207 182.09 118.458 179.938 118.552L143.102 120.245C140.95 120.339 139.11 118.254 138.987 115.578L138.682 108.998Z" fill="#FDDBA4"/>
<path d="M171.341 23.2999C171.905 22.3278 172.656 21.4761 173.55 20.7935C174.444 20.111 175.464 19.6118 176.552 19.3232C177.639 19.0355 178.773 18.9641 179.887 19.1145C181.002 19.264 182.077 19.6325 183.049 20.1975C185.013 21.3369 186.443 23.2087 187.025 25.402C187.607 27.5952 187.294 29.9295 186.154 31.8916L175.192 50.7624C174.052 52.7244 172.179 54.1534 169.984 54.7353C167.789 55.3172 165.453 55.0042 163.49 53.8648C161.526 52.7253 160.097 50.8536 159.514 48.6603C158.932 46.467 159.245 44.1327 160.385 42.1707L171.341 23.2999Z" fill="#E9B980"/>
<path opacity="0.15" d="M146.296 117.869C147.261 117.826 148.22 117.711 149.168 117.525C151.156 117.831 153.191 117.531 155.006 116.664C156.821 115.796 158.333 114.402 159.342 112.663L168.185 97.0366C168.847 95.8983 169.277 94.641 169.452 93.3365C169.627 92.032 169.544 90.7057 169.206 89.4336C168.868 88.1614 168.283 86.9681 167.483 85.922C166.684 84.8758 165.686 83.9973 164.547 83.3364C163.408 82.6755 162.15 82.2453 160.844 82.0703C159.54 81.8954 158.212 81.9791 156.939 82.3167C155.665 82.6542 154.472 83.2391 153.425 84.0378C152.378 84.8365 151.499 85.8335 150.837 86.9718L145.428 96.5233C145.39 96.526 145.352 96.526 145.314 96.5233L135.753 96.9708C135.753 96.9708 141.131 109.106 144.855 117.935L146.296 117.869Z" fill="black"/>
<path d="M156.213 12.4394C156.777 11.4664 157.527 10.6147 158.421 9.93122C159.315 9.24871 160.335 8.74856 161.421 8.45995C162.509 8.17134 163.642 8.09894 164.757 8.24842C165.873 8.3979 166.947 8.76454 167.92 9.32954C169.883 10.4699 171.314 12.3417 171.897 14.5349C172.48 16.7282 172.168 19.0625 171.03 21.0264L160.065 39.8954C159.502 40.8684 158.751 41.7201 157.857 42.4027C156.964 43.0852 155.944 43.5853 154.857 43.8739C153.77 44.1625 152.636 44.2349 151.521 44.0855C150.407 43.936 149.332 43.5684 148.359 43.0043C146.396 41.864 144.966 39.9903 144.384 37.797C143.801 35.6028 144.115 33.2676 145.255 31.3046L156.213 12.4394ZM139.516 4.26046C140.081 3.28839 140.831 2.43759 141.725 1.75508C142.619 1.0735 143.639 0.57429 144.725 0.285678C145.813 -0.00199619 146.945 -0.0734377 148.06 0.0760375C149.175 0.22552 150.249 0.593105 151.221 1.15811C152.194 1.72218 153.045 2.47238 153.727 3.36548C154.41 4.25859 154.909 5.27673 155.198 6.36256C155.486 7.44933 155.557 8.58121 155.408 9.6943C155.258 10.8083 154.89 11.8819 154.326 12.8531L146.782 26.1933C146.217 27.1653 145.467 28.0161 144.573 28.6977C143.679 29.3793 142.66 29.8785 141.574 30.1671C140.486 30.4548 139.353 30.5262 138.24 30.3767C137.125 30.2273 136.05 29.8597 135.079 29.2956C134.106 28.7316 133.254 27.9814 132.571 27.0883C131.889 26.1951 131.389 25.1761 131.101 24.0893C130.812 23.0035 130.742 21.8706 130.891 20.7566C131.041 19.6426 131.409 18.5699 131.974 17.5978L139.516 4.26046ZM186.092 33.653C186.656 32.681 187.407 31.8292 188.301 31.1467C189.195 30.4651 190.215 29.965 191.303 29.6773C192.389 29.3887 193.523 29.3182 194.638 29.4677C195.753 29.6181 196.827 29.9857 197.8 30.5507C198.772 31.1147 199.624 31.865 200.307 32.7581C200.989 33.6512 201.488 34.6702 201.777 35.7561C202.065 36.8428 202.137 37.9747 201.987 39.0888C201.837 40.2028 201.47 41.2755 200.904 42.2475L193.358 55.5868C192.218 57.5489 190.345 58.978 188.15 59.5599C185.955 60.1417 183.619 59.8285 181.656 58.6891C179.693 57.5498 178.263 55.678 177.68 53.4847C177.098 51.2914 177.411 48.9571 178.552 46.9951L186.092 33.653ZM150.92 88.8235C151.581 87.684 152.46 86.6859 153.507 85.8863C154.554 85.0866 155.749 84.5009 157.023 84.1629C158.296 83.8248 159.624 83.7409 160.93 83.9161C162.237 84.0911 163.495 84.5218 164.635 85.1833C166.935 86.5195 168.609 88.7136 169.292 91.2833C169.974 93.853 169.606 96.588 168.271 98.8873L159.434 114.52C158.098 116.819 155.903 118.493 153.331 119.175C150.76 119.857 148.024 119.491 145.722 118.158C143.421 116.822 141.746 114.627 141.064 112.056C140.382 109.486 140.75 106.75 142.086 104.45L150.92 88.8235Z" fill="#E9B980"/>
<path d="M97.9344 111.255C97.6634 105.363 103.948 100.286 111.966 99.9148L145.403 98.3778C153.417 98.0121 160.143 102.493 160.412 108.385C160.683 114.279 154.399 119.354 146.385 119.721L112.948 121.258C104.93 121.626 98.2053 117.15 97.9344 111.255Z" fill="#E9B980"/>
<path opacity="0.15" d="M123.751 122.982C125.044 121.838 126.454 120.834 127.958 119.985L129.664 120.493L74.2655 72.1187C74.2655 72.1187 71.636 76.8756 76.2194 92.7917C80.8028 108.708 123.751 122.982 123.751 122.982Z" fill="black"/>
<path d="M103.247 156.356L129.48 121.127L65.8831 73.8358L39.6498 109.065L103.247 156.356Z" fill="#FFB6B6"/>
<path opacity="0.15" d="M168.67 120.917C167.458 119.812 164.295 120.171 164.295 120.171L162.554 118.979L213.273 65.7291C213.273 65.7291 216.72 71.2062 213.222 86.4933C209.528 102.634 168.67 120.917 168.67 120.917Z" fill="black"/>
<path d="M192.148 152.269L251.135 99.3484L221.78 66.6731L162.793 119.594L192.148 152.269Z" fill="#BDDDFF"/>
<path d="M182.075 56.8808C181.395 56.4756 180.802 55.9379 180.333 55.3005C179.863 54.6631 179.525 53.9383 179.341 53.1683C179.157 52.3984 179.128 51.5993 179.256 50.8181C179.386 50.0368 179.67 49.2894 180.093 48.6201C181.9 45.9445 185.267 46.8508 188.17 48.7348C191.073 50.6188 192.427 52.7772 190.616 55.4528C189.661 56.7586 188.233 57.6387 186.637 57.9056C185.04 58.1725 183.403 57.8047 182.075 56.8808ZM164.294 52.1229C163.613 51.7177 163.022 51.18 162.552 50.5426C162.083 49.9052 161.746 49.1804 161.561 48.4104C161.376 47.6414 161.347 46.8423 161.476 46.062C161.605 45.2808 161.889 44.5334 162.311 43.8641C164.123 41.1876 167.486 42.0966 170.389 43.9769C173.292 45.8571 174.645 48.0193 172.835 50.694C171.88 51.9998 170.452 52.8797 168.855 53.1467C167.26 53.4137 165.622 53.0461 164.294 52.1229ZM149.44 41.291C148.76 40.8839 148.17 40.3462 147.701 39.7078C147.233 39.0695 146.897 38.3447 146.712 37.5747C146.529 36.8057 146.5 36.0066 146.63 35.2263C146.759 34.4451 147.043 33.6977 147.464 33.0283C149.269 30.35 152.632 31.26 155.536 33.1449C158.44 35.0298 159.796 37.1874 157.982 39.8648C157.024 41.1678 155.596 42.0459 154.001 42.3119C152.405 42.578 150.769 42.2123 149.44 41.291ZM135.227 27.1169C134.546 26.7108 133.955 26.173 133.485 25.5357C133.016 24.8973 132.679 24.1725 132.494 23.4025C132.308 22.6326 132.279 21.8335 132.408 21.0523C132.537 20.271 132.82 19.5236 133.242 18.8533C135.049 16.1815 138.411 17.0878 141.313 18.9718C144.216 20.8558 145.576 23.0143 143.765 25.687C142.811 26.9928 141.383 27.8728 139.787 28.1398C138.192 28.4077 136.555 28.0401 135.227 27.1169Z" fill="#FDDBA4"/>
<path opacity="0.15" d="M224.381 83.2605C221.419 83.3966 219.128 85.9091 219.264 88.8721C219.401 91.8352 221.913 94.1269 224.875 93.9908C227.838 93.8547 230.129 91.3422 229.993 88.3791C229.856 85.416 227.344 83.1243 224.381 83.2605Z" fill="black"/>
<path d="M219.347 90.7258C219.299 89.6654 219.566 88.6147 220.116 87.7062C220.665 86.7978 221.471 86.0725 222.434 85.622C223.395 85.1715 224.469 85.016 225.519 85.1752C226.569 85.3343 227.549 85.8011 228.333 86.5163C229.118 87.2316 229.673 88.1633 229.928 89.1937C230.183 90.224 230.126 91.3068 229.766 92.3052C229.406 93.3035 228.757 94.1726 227.901 94.8027C227.047 95.4326 226.025 95.7952 224.963 95.8447C224.258 95.8778 223.553 95.7715 222.889 95.5321C222.225 95.2926 221.614 94.9247 221.093 94.4492C220.571 93.9738 220.149 93.4001 219.849 92.7612C219.549 92.1223 219.379 91.4307 219.347 90.7258Z" fill="#2679B2"/>
<path opacity="0.15" d="M67.1221 84.141C67.2698 83.9443 67.4551 83.7787 67.6677 83.6538C67.8803 83.5287 68.1146 83.4469 68.3592 83.4128C68.6028 83.3788 68.8512 83.3932 69.0892 83.4552C69.3272 83.5173 69.5511 83.6258 69.7477 83.7744L76.5627 88.9083C76.7602 89.0553 76.9277 89.2398 77.0538 89.4514C77.1798 89.6631 77.2626 89.8976 77.2974 90.1415C77.3322 90.3853 77.3191 90.6336 77.257 90.8721C77.1958 91.1107 77.0876 91.3347 76.939 91.5312L71.8061 98.3508C71.6575 98.5476 71.4722 98.7132 71.2596 98.8383C71.0479 98.9633 70.8127 99.0453 70.5681 99.0795C70.3244 99.1137 70.0761 99.0995 69.8371 99.0376C69.5981 98.9759 69.3742 98.8677 69.1776 98.7193L62.3542 93.5901C62.1576 93.442 61.992 93.2567 61.8669 93.0446C61.7418 92.8325 61.6599 92.5979 61.6251 92.3541C61.5913 92.1103 61.6054 91.8622 61.6665 91.6238C61.7286 91.3855 61.8368 91.1618 61.9855 90.9653L67.1221 84.141Z" fill="black"/>
<path d="M67.2028 85.9948C67.3505 85.7975 67.5358 85.6313 67.7485 85.5059C67.9601 85.3804 68.1953 85.2981 68.4399 85.2638C68.6836 85.2295 68.9329 85.2438 69.1709 85.3058C69.4099 85.3679 69.6338 85.4764 69.8304 85.6253L76.6491 90.7583C76.8466 90.9057 77.0132 91.0904 77.1383 91.3021C77.2643 91.5137 77.3471 91.7481 77.3819 91.9918C77.4168 92.2354 77.4036 92.4835 77.3424 92.722C77.2813 92.9605 77.1731 93.1845 77.0254 93.3813L71.8907 100.2C71.5906 100.596 71.1456 100.858 70.6536 100.927C70.1615 100.997 69.6611 100.869 69.2631 100.571L62.4397 95.4401C62.0408 95.1402 61.7784 94.6944 61.7087 94.2008C61.6391 93.7072 61.768 93.2061 62.0681 92.8078L67.2028 85.9948Z" fill="#FFDE76"/>
<path opacity="0.15" d="M192.147 152.269L251.135 99.3479L246.108 93.7505L191.205 151.221L192.147 152.269ZM103.251 156.354L105.162 153.784L44.7092 102.274L39.6479 109.069L103.251 156.354Z" fill="black"/>
<path d="M154.163 276.609L191.627 235.433C201.582 224.503 206.786 210.07 206.096 195.307C205.405 180.544 198.877 166.66 187.946 156.705C187.901 156.664 187.83 156.629 187.788 156.59L258.131 93.4054C284.617 121.197 299.575 157.989 299.991 196.365C300.407 234.741 286.249 271.848 260.372 300.206L160.025 410.157L153.856 276.109L154.163 276.609Z" fill="#FFF2A2"/>
<path d="M154.163 276.609L191.627 235.432C201.582 224.502 206.786 210.07 206.095 195.307C205.405 180.544 198.877 166.659 187.946 156.705C187.926 156.691 187.891 156.677 187.876 156.663L242.562 107.474C289.955 156.676 291.953 234.83 245.237 286.006L158.686 381.171L153.851 276.108L154.163 276.609Z" fill="#FFD645"/>
<path d="M154.163 276.609L191.627 235.433C201.581 224.503 206.786 210.07 206.095 195.307C205.405 180.544 198.877 166.66 187.946 156.705C187.926 156.691 187.888 156.675 187.875 156.663L208.807 137.819C240.761 169.859 242.53 221.652 211.692 255.441L155.741 317.092L153.854 276.108L154.163 276.609Z" fill="#D6B13C"/>
</svg>
