<svg width="155" height="44" viewBox="0 0 155 44" fill="none" xmlns="http://www.w3.org/2000/svg">
<ellipse cx="32.3528" cy="31.8927" rx="12.0588" ry="12.1074" fill="#97CF26"/>
<ellipse cx="9.70588" cy="9.74497" rx="9.70588" ry="9.74497" fill="#00AAFF"/>
<ellipse cx="9.55882" cy="32.0402" rx="5.58824" ry="5.61074" fill="#A169F7"/>
<ellipse cx="31.9117" cy="9.74499" rx="7.64706" ry="7.67785" fill="#FF6163"/>
<path d="M72.353 31.5973L61.9119 31.6858L59.706 37.6658L53.3824 37.651L64.853 6.49665H69.4119L80.7494 37.6658H74.5639L72.353 31.5973ZM63.5295 27.0201H70.7354L67.0589 17.4228L63.5295 27.0201Z" fill="#111111"/>
<path d="M90.3307 31.5846L95.9223 16.2721H101.747L93.9963 37.6658H86.6651L78.7676 16.2721H84.592L90.3307 31.5846Z" fill="#111111"/>
<path d="M109.912 37.6658H104.195V16.2721H109.912V37.6658Z" fill="#111111"/>
<path d="M123.51 10.4294V16.2721H130.38V20.9586H123.363L123.51 30.2685C123.51 31.1249 124.132 31.9703 124.706 32.3356C125.28 32.7009 126.27 32.9984 127.191 32.9984C127.87 32.9984 129.06 32.8008 129.584 32.7009L130.466 37.242C129.263 37.6131 126.554 38.094 125.28 38.094C120.976 38.094 117.752 35.4601 117.668 31.0782V20.9586H113.136V16.2721H117.668V10.4294H123.51Z" fill="#111111"/>
<path d="M110.735 10.0403C110.735 12.0789 109.089 13.7315 107.059 13.7315C105.028 13.7315 103.382 12.0789 103.382 10.0403C103.382 8.00164 105.028 6.349 107.059 6.349C109.089 6.349 110.735 8.00164 110.735 10.0403Z" fill="#111111"/>
<path fill-rule="evenodd" clip-rule="evenodd" d="M143.603 38.094C149.897 38.094 155 33.103 155 26.9463C155 20.7896 149.897 15.7987 143.603 15.7987C137.309 15.7987 132.206 20.7896 132.206 26.9463C132.206 33.103 137.309 38.094 143.603 38.094ZM143.603 32.7785C146.811 32.7785 149.412 30.2004 149.412 27.0201C149.412 23.8399 146.811 21.2618 143.603 21.2618C140.395 21.2618 137.794 23.8399 137.794 27.0201C137.794 30.2004 140.395 32.7785 143.603 32.7785Z" fill="#111111"/>
</svg>
