<svg width="240" height="120" viewBox="0 0 240 120" fill="none" xmlns="http://www.w3.org/2000/svg">
<path fill-rule="evenodd" clip-rule="evenodd" d="M50 80.9994L58.8895 39H70.3189L79.093 80.9994H70.4921L68.6955 72.2022H60.5884L58.7741 80.9994H50ZM67.1887 64.8239L64.662 52.4512L62.1102 64.8239H67.1887Z" fill="#C60C31"/>
<path fill-rule="evenodd" clip-rule="evenodd" d="M80.8248 80.9994V39L96.6412 39.1135C96.6412 39.1135 106.397 39 106.397 49.6701C106.397 57.1619 100.566 59.2051 100.566 59.2051C100.566 59.2051 106.397 60.0564 106.166 69.7617C106.166 81.2832 96.2371 80.9994 96.2371 80.9994H80.8248ZM90.811 46.2648V55.743H94.3322C94.3322 55.743 96.6412 55.743 96.6412 51.089C96.6412 46.435 93.8704 46.2648 93.8704 46.2648H90.811ZM90.811 73.7914V63.178H93.8704C93.8704 63.178 96.9298 62.724 96.9298 68.1158C96.9298 73.5076 94.3322 73.7914 94.3322 73.7914H90.811Z" fill="#C60C31"/>
<path fill-rule="evenodd" clip-rule="evenodd" d="M108.994 80.9994V39L124.811 39.1135C124.811 39.1135 134.566 39 134.566 49.6701C134.566 57.1619 128.736 59.2051 128.736 59.2051C128.736 59.2051 134.566 60.0564 134.335 69.7617C134.335 81.2832 124.407 80.9994 124.407 80.9994H108.994ZM118.98 46.2648V55.743H122.502C122.502 55.743 124.811 55.743 124.811 51.089C124.811 46.435 122.04 46.2648 122.04 46.2648H118.98ZM118.98 73.7914V63.178H122.04C122.04 63.178 125.099 62.724 125.099 68.1158C125.099 73.5076 122.502 73.7914 122.502 73.7914H118.98Z" fill="#C60C31"/>
<path d="M160.946 39.1135L152.634 66.6401V80.9994H142.532V66.6401L134.335 39L143.109 39.0374L147.785 55.743L152.028 39.0755L160.946 39.1135Z" fill="#C60C31"/>
<path d="M189 39.1135L180.688 66.6401V80.9994H170.586V66.6401L162.389 39L171.163 39.0374L175.839 55.743L180.082 39.0755L189 39.1135Z" fill="#C60C31"/>
<path fill-rule="evenodd" clip-rule="evenodd" d="M50 80.9994L58.8895 39H70.3189L79.093 80.9994H70.4921L68.6955 72.2022H60.5884L58.7741 80.9994H50ZM67.1887 64.8239L64.662 52.4512L62.1102 64.8239H67.1887Z" fill="#C60C31"/>
<path fill-rule="evenodd" clip-rule="evenodd" d="M80.8248 80.9994V39L96.6412 39.1135C96.6412 39.1135 106.397 39 106.397 49.6701C106.397 57.1619 100.566 59.2051 100.566 59.2051C100.566 59.2051 106.397 60.0564 106.166 69.7617C106.166 81.2832 96.2371 80.9994 96.2371 80.9994H80.8248ZM90.811 46.2648V55.743H94.3322C94.3322 55.743 96.6412 55.743 96.6412 51.089C96.6412 46.435 93.8704 46.2648 93.8704 46.2648H90.811ZM90.811 73.7914V63.178H93.8704C93.8704 63.178 96.9298 62.724 96.9298 68.1158C96.9298 73.5076 94.3322 73.7914 94.3322 73.7914H90.811Z" fill="#C60C31"/>
<path fill-rule="evenodd" clip-rule="evenodd" d="M108.994 80.9994V39L124.811 39.1135C124.811 39.1135 134.566 39 134.566 49.6701C134.566 57.1619 128.736 59.2051 128.736 59.2051C128.736 59.2051 134.566 60.0564 134.335 69.7617C134.335 81.2832 124.407 80.9994 124.407 80.9994H108.994ZM118.98 46.2648V55.743H122.502C122.502 55.743 124.811 55.743 124.811 51.089C124.811 46.435 122.04 46.2648 122.04 46.2648H118.98ZM118.98 73.7914V63.178H122.04C122.04 63.178 125.099 62.724 125.099 68.1158C125.099 73.5076 122.502 73.7914 122.502 73.7914H118.98Z" fill="#C60C31"/>
<path d="M160.946 39.1135L152.634 66.6401V80.9994H142.532V66.6401L134.335 39L143.109 39.0374L147.785 55.743L152.028 39.0755L160.946 39.1135Z" fill="#C60C31"/>
<path d="M189 39.1135L180.688 66.6401V80.9994H170.586V66.6401L162.389 39L171.163 39.0374L175.839 55.743L180.082 39.0755L189 39.1135Z" fill="#C60C31"/>
</svg>
