<svg width="160" height="33" viewBox="0 0 160 33" fill="none" xmlns="http://www.w3.org/2000/svg">
<path d="M97.3991 3.07084C97.3991 3.95716 96.505 4.68506 95.2195 4.68506C93.9237 4.68506 93.1163 3.80464 93.1163 2.97424L93.1172 1.832C93.1324 0.967676 93.8933 -0.000244141 95.2075 -0.000244141C96.6455 -0.000244141 97.3991 0.925708 97.3991 1.832V3.07084Z" fill="#134785"/>
<path d="M58.6769 6.33711C56.0468 6.29907 54.0329 7.81472 52.7902 8.82297C51.4102 7.35664 49.6451 6.46123 47.8298 6.34945C45.9164 6.23178 44.1219 6.87163 42.9809 7.79168C42.5816 6.87163 42.0546 6.33016 41.1518 6.33016C40.1638 6.33016 39.1118 7.16984 39.1118 8.53705C39.1118 9.90413 39.1237 26.2785 39.1237 26.2785C39.1237 27.2991 40.0003 28.3304 41.2518 28.3304C42.6318 28.3304 43.3946 27.2839 43.3946 26.2719V13.1124C43.3946 11.8317 45.6004 10.3156 47.465 10.3397C48.6566 10.3565 50.0726 11.5214 50.0726 13.3615L50.0832 26.3044C50.0832 27.4473 51.2435 28.3238 52.2955 28.3238C53.5465 28.3238 54.494 27.3848 54.494 26.316V13.237C54.494 11.633 56.9473 10.2904 58.6271 10.3767C59.9431 10.4461 61.108 11.8694 61.108 13.237V26.2978C61.108 27.4277 62.1771 28.3238 63.3309 28.3238C64.3438 28.3238 65.5161 27.6577 65.5161 26.2785V13.274C65.5304 8.50066 60.781 6.27425 58.6769 6.33711Z" fill="#134785"/>
<path d="M95.2379 6.32536C93.9542 6.33016 93.126 7.37433 93.1242 8.43455L93.1283 26.2588C93.1195 27.4428 94.0634 28.3238 95.2301 28.3238C96.5604 28.3238 97.4106 27.2916 97.4106 26.1668L97.4199 8.46527C97.4199 7.41717 96.3549 6.32106 95.2379 6.32536Z" fill="#134785"/>
<path d="M78.7542 24.2578C74.8942 24.2578 71.7667 21.1546 71.7667 17.3258C71.7667 13.4968 74.8942 10.394 78.7542 10.394C82.6132 10.394 85.7422 13.4968 85.7422 17.3258C85.7422 21.1546 82.6132 24.2578 78.7542 24.2578ZM87.7827 6.33015C86.5768 6.3291 85.7238 7.28628 85.7238 8.21973V8.94764C83.8214 7.3395 81.3567 6.3414 78.6943 6.33711C72.8381 6.32911 67.6515 11.2249 67.6515 17.3508C67.6515 22.9676 72.5935 28.3304 78.6943 28.3304C81.1623 28.3304 83.8168 27.3893 85.703 25.7906L85.7086 26.3106C85.7086 27.3076 86.5045 28.3304 87.8118 28.3304C89.2968 28.3304 89.9614 27.1526 89.9614 26.2237V8.33421C89.9766 7.49343 89.0476 6.33176 87.7827 6.33015Z" fill="#134785"/>
<path d="M109.942 24.0721C107.223 24.0699 104.799 21.9943 104.799 18.9352L104.802 1.98992C104.799 0.819471 103.837 -0.000235914 102.66 -0.000235914C101.293 0.00461009 100.505 1.00252 100.505 1.98992V18.9522C100.489 24.215 104.875 28.3411 109.866 28.3411C111.349 28.3411 112.063 27.1487 112.063 26.1365C112.063 25.1722 111.297 24.0721 109.942 24.0721Z" fill="#134785"/>
<path fill-rule="evenodd" clip-rule="evenodd" d="M23.3122 16.3426C23.1152 12.5399 20.2709 10.253 16.8366 10.253H16.7067C12.7432 10.253 10.545 13.3467 10.545 16.861C10.545 20.7953 13.2044 23.2812 16.6916 23.2812C20.5793 23.2812 23.1357 20.4546 23.3209 17.1106L23.3122 16.3426ZM16.7263 6.85025C19.3749 6.85025 21.8652 8.01192 23.6931 9.83132V9.83827C23.6931 8.96502 24.2852 8.30638 25.1077 8.30638L25.3155 8.30533C26.6013 8.30533 26.8654 9.51235 26.8654 9.89505L26.8719 23.4745C26.781 24.3638 27.796 24.8227 28.359 24.2521C30.5561 22.0115 33.184 12.7327 26.9932 7.3567C21.2233 2.34443 13.4815 3.17022 9.3642 5.98734C4.98742 8.98322 2.18651 15.6149 4.90737 21.8436C7.87295 28.6372 16.3594 30.6633 21.403 28.6413C23.9572 27.619 25.1368 31.0454 22.4842 32.1647C18.4763 33.859 7.3209 33.6881 2.1095 24.729C-1.41118 18.6792 -1.22403 8.03514 8.11422 2.52017C15.2575 -1.69937 24.6759 -0.531807 30.355 5.35517C36.2913 11.5098 35.945 23.0339 30.1545 27.5136C27.5312 29.5489 23.6348 27.5684 23.6595 24.6022L23.6325 23.6325C21.8055 25.4317 19.3749 26.4814 16.7263 26.4814C11.4933 26.4814 6.88908 21.9124 6.88908 16.7187C6.88908 11.4734 11.4933 6.85025 16.7263 6.85025Z" fill="#F89C0E"/>
<path fill-rule="evenodd" clip-rule="evenodd" d="M119.048 26.6389C119.038 27.4801 118.151 28.3408 116.867 28.3408C115.57 28.3408 114.762 27.402 114.762 26.5702L114.764 25.1331C114.779 24.2691 115.585 23.3714 116.9 23.3714C118.338 23.3714 119.053 24.3339 119.053 25.2385L119.048 26.6389Z" fill="#F89C0E"/>
<path fill-rule="evenodd" clip-rule="evenodd" d="M133.083 6.32164C127.101 6.3472 121.998 11.5796 122.028 17.3389V26.3157C122.028 27.4845 122.992 28.3408 124.008 28.3408C125.217 28.3408 126.155 27.4556 126.155 26.3769V17.2634C126.152 14.0003 129.024 10.399 133.057 10.4183C134.369 10.4233 135.232 9.43561 135.224 8.34142C135.219 7.468 134.587 6.31629 133.083 6.32164Z" fill="#F89C0E"/>
<path fill-rule="evenodd" clip-rule="evenodd" d="M157.928 6.32165C156.656 6.32165 155.836 7.35636 155.836 8.30983L155.837 17.3437C155.837 20.8297 152.878 24.2348 148.765 24.2348C145.402 24.2348 141.839 21.3386 141.839 17.4077V8.35839C141.839 7.40958 141.122 6.32165 139.697 6.32165C138.692 6.32165 137.664 7.15923 137.664 8.31875V17.3372C137.664 23.178 142.922 28.3203 148.752 28.3203C155.116 28.3203 160 22.9053 160 17.3643V8.31518C160 7.30031 159.157 6.32165 157.928 6.32165Z" fill="#F89C0E"/>
</svg>
