<svg width="184" height="73" viewBox="0 0 184 73" fill="none" xmlns="http://www.w3.org/2000/svg">
<path d="M3.13809 14.2848H0.333496V58.2181H3.13809V14.2848Z" fill="#4481C3"/>
<path d="M183.667 14.2848H180.862V58.2181H183.667V14.2848Z" fill="#4481C3"/>
<path d="M141.974 0H139.169V72.5H141.974V0Z" fill="#4481C3"/>
<path d="M18.9335 38.548V36.3406H30.5458C30.5458 36.519 30.5458 36.6856 30.5458 36.8523C30.5458 37.0189 30.5458 37.1768 30.5458 37.3288V38.3258C30.5458 41.4189 30.1901 43.7052 29.4728 45.17C28.7555 46.6347 26.9181 47.3802 23.9371 47.3802L19.5479 47.4095H18.813C18.5543 47.4095 18.2897 47.4095 18.0251 47.4445H16.4699C13.1519 47.4387 10.9313 46.8354 9.8083 45.6348C8.68529 44.4342 8.12378 41.7493 8.12378 37.5802V36.3318C8.12378 32.5428 8.47558 29.7313 9.17918 27.8972C9.88277 26.0631 11.9279 25.147 15.3146 25.149L19.8125 25.0496C19.9891 25.0706 20.1668 25.0813 20.3446 25.0817C20.5303 25.0806 20.7157 25.0699 20.9003 25.0496H22.867C23.161 25.0496 23.455 25.0496 23.7489 25.0817C24.0429 25.1139 24.3369 25.1227 24.6309 25.1314C24.9263 25.1417 25.2209 25.17 25.5128 25.2162C27.2767 25.3722 28.4977 25.9569 29.1759 26.9704C29.854 27.9839 30.2117 29.5588 30.2489 31.695L28.1058 31.6628C28.1058 29.6163 27.7206 28.3942 26.9592 28.0288C26.1978 27.6633 25.0924 27.4616 23.6666 27.4148H23.4256L19.789 27.3476C19.6105 27.3697 19.4309 27.3804 19.251 27.3797C19.0809 27.3812 18.911 27.3705 18.7424 27.3476H16.8021C16.5082 27.3476 16.2142 27.3476 15.9202 27.3797C15.6262 27.4119 15.3322 27.4206 15.0382 27.4294C14.7429 27.4408 14.4484 27.4691 14.1563 27.5142C14.1162 27.5104 14.0759 27.5104 14.0358 27.5142C13.9968 27.5266 13.9561 27.5325 13.9152 27.5317C13.0608 27.5992 12.2371 27.8787 11.5193 28.3445C10.9019 28.7772 10.5433 30.0285 10.4345 32.1043C10.4168 32.5662 10.3992 33.034 10.3845 33.5018C10.3698 33.9696 10.3551 34.449 10.3551 34.9314C10.3551 35.4138 10.3286 35.8875 10.3286 36.3582V37.7556C10.3286 40.4239 10.5246 42.2902 10.9166 43.3544C11.3086 44.4186 12.6903 44.9712 15.0618 45.0121L19.6097 45.0442C19.7693 45.0674 19.9305 45.0792 20.0918 45.0793H20.6063C20.7671 45.1001 20.9291 45.1109 21.0913 45.1115H22.3702C22.6289 45.1115 22.8905 45.1115 23.161 45.0793L23.9459 45.0121L24.7397 44.9478C26.4154 44.7226 27.409 44.1584 27.7206 43.2404C28.081 42.0331 28.2661 40.7808 28.2704 39.5215C28.2704 39.3666 28.2704 39.2058 28.2851 39.0391C28.2998 38.8725 28.2851 38.7029 28.2851 38.5275L18.9335 38.548Z" fill="#000201"/>
<path d="M50.1666 25.2718C52.3225 25.2952 53.9462 25.7172 55.0379 26.5377C56.1295 27.3583 56.6705 29.1183 56.6607 31.8178C56.6607 33.7474 56.4069 35.0913 55.8993 35.8495C55.3907 36.6067 54.2882 37.1271 52.5802 37.4107C53.5466 37.5114 54.4739 37.8446 55.2819 38.3813C55.9698 38.8725 56.3167 39.8431 56.3167 41.3049V47.2136H54.0178V42.3458C54.0178 40.6793 53.6963 39.5985 53.0535 39.1035C52.4126 38.6094 51.3807 38.3667 49.9667 38.3667H36.8904V47.2136H34.562V25.2718H50.1666ZM49.7344 36.1272C51.3631 36.1486 52.5224 35.8748 53.2123 35.3057C53.9021 34.7365 54.2471 33.5193 54.2471 31.6541C54.2471 29.8122 53.8551 28.6661 53.0711 28.2159C52.2872 27.7656 51.1573 27.5415 49.6815 27.5435H36.8933V36.1272H49.7344Z" fill="#000201"/>
<path d="M60.0618 36.3903V35.3086C60.0618 34.9363 60.0706 34.5738 60.0882 34.221C60.0882 33.4813 60.1147 32.7358 60.1676 31.9902C60.2171 31.2649 60.3054 30.5427 60.4322 29.8268C60.781 27.8777 61.4944 26.6186 62.5724 26.0494C63.7244 25.4628 64.9971 25.1486 66.2913 25.1314C66.938 25.108 67.5848 25.0934 68.2345 25.0817C68.8842 25.07 69.5309 25.0642 70.1777 25.0642H74.0406C77.686 25.0642 80.0202 25.6664 81.0433 26.871C82.0663 28.0755 82.5798 30.9095 82.5838 35.3729C82.5838 36.3581 82.5838 37.3405 82.5573 38.3257C82.5308 39.311 82.4867 40.2933 82.3986 41.2815C82.2222 43.3807 81.7048 44.8581 80.8463 45.7137C79.9879 46.5694 78.714 47.0722 77.0246 47.2223C76.3044 47.3086 75.5802 47.3583 74.855 47.3714C74.1298 47.3714 73.4076 47.3763 72.6883 47.386H68.7872C68.1757 47.386 67.5554 47.386 66.9351 47.3539C66.3148 47.3217 65.6945 47.2749 65.08 47.1902C64.9902 47.165 64.8971 47.1532 64.8037 47.1551C64.7116 47.1546 64.6199 47.1439 64.5303 47.1229C63.8573 46.9894 63.2095 46.7516 62.6106 46.4183C61.9601 46.0377 61.4398 45.4713 61.1172 44.7928C60.7929 44.1297 60.57 43.4222 60.4557 42.6936C60.3147 41.8787 60.2166 41.057 60.1617 40.2319C60.1088 39.5537 60.0794 38.8812 60.0676 38.2293C60.0559 37.5773 60.0676 36.9692 60.0676 36.4254L60.0618 36.3903ZM62.2696 37.9193C62.2696 40.3323 62.4705 42.107 62.8722 43.2433C63.274 44.3796 64.5636 44.9711 66.741 45.0179L71.2596 45.0822H72.8853C73.2351 45.1056 73.5908 45.1173 73.9495 45.1173C74.3082 45.1173 74.6727 45.1173 75.0402 45.0822L76.1073 45.0179C76.466 44.9974 76.8188 44.9682 77.1686 44.9185C78.5719 44.747 79.447 44.1554 79.7939 43.1439C80.1776 41.9142 80.3554 40.6302 80.3201 39.3432C80.3201 38.9719 80.3201 38.5976 80.3348 38.2263C80.3495 37.855 80.3495 37.4691 80.3495 37.0744C80.3495 36.6797 80.376 36.3318 80.376 35.9576V34.8174C80.376 34.487 80.376 34.1333 80.3613 33.7503C80.3466 33.3673 80.3407 32.9872 80.3201 32.613C80.2878 31.8674 80.2201 31.1512 80.1261 30.4758C80.0618 29.9051 79.8976 29.3501 79.641 28.8357C79.5211 28.6015 79.3552 28.3937 79.153 28.2246C78.9665 28.07 78.7586 27.9429 78.5356 27.8475C78.517 27.8255 78.494 27.8075 78.468 27.7948C78.4378 27.7911 78.4071 27.7911 78.3769 27.7948C78.0927 27.6852 77.7968 27.6087 77.4949 27.5668C77.1804 27.5259 76.8629 27.4879 76.5512 27.4703C76.3681 27.4454 76.1834 27.4327 75.9986 27.4323H75.4341L71.3184 27.368L67.2438 27.4703C65.3525 27.5113 64.0785 27.8338 63.422 28.438C62.7664 29.0403 62.4077 30.5781 62.3578 33.0544L62.2784 36.3114L62.2696 37.9193Z" fill="#000201"/>
<path d="M108.319 25.2718V40.4483C108.319 43.7813 107.718 45.7566 106.517 46.3745C105.315 46.9924 103.431 47.3422 100.863 47.4241H100.722C100.103 47.4475 99.4797 47.4592 98.8526 47.4592H96.9535C96.0715 47.4592 95.1896 47.4592 94.2841 47.4387C93.3786 47.4182 92.482 47.4007 91.5824 47.3568C89.746 47.2691 88.3966 46.776 87.5343 45.8775C86.6719 44.979 86.2398 43.4421 86.2378 41.2669V25.2718H88.5162V40.957C88.5162 42.8632 88.8866 44.021 89.6392 44.4274C90.3918 44.8338 91.506 45.0589 92.9876 45.1027L97.0064 45.1349L101.369 45.0355C102.918 45.015 104.088 44.7958 104.87 44.3806C105.652 43.9654 106.046 42.7521 106.046 40.7582V25.2718H108.319Z" fill="#000201"/>
<path d="M128.442 25.2689C130.537 25.2922 132.029 25.7415 132.919 26.6166C133.809 27.4918 134.254 29.1368 134.254 31.5517C134.254 31.9026 134.254 32.2855 134.225 32.7036C134.195 33.1217 134.175 33.5369 134.133 33.9549C134.058 34.5723 133.937 35.1831 133.769 35.7822C133.631 36.308 133.374 36.7958 133.019 37.2089C132.618 37.6714 132.104 38.0229 131.526 38.2293C130.955 38.4284 130.363 38.5618 129.762 38.6269C129.509 38.6269 129.262 38.6269 129.015 38.6415C128.768 38.6561 128.53 38.659 128.298 38.659H114.598V47.2136H112.223V25.2689H128.442ZM126.86 36.4225C128.677 36.442 129.951 36.2061 130.682 35.715C131.413 35.2238 131.779 33.8799 131.779 31.6833C131.779 30.1922 131.53 29.129 131.032 28.4936C130.534 27.8582 129.591 27.5405 128.204 27.5405H114.598V36.4225H126.86Z" fill="#000201"/>
<path d="M170.123 25.266C171.76 25.2893 173.063 25.7074 174.003 26.5319C174.944 27.3563 175.429 28.7772 175.429 30.7945C175.429 32.4844 175.2 33.6392 174.744 34.2678C174.289 34.8964 173.327 35.3437 171.863 35.6302C173.515 35.7218 174.632 36.1438 175.215 36.8961C175.797 37.6485 176.091 38.9709 176.097 40.8635C176.097 43.3193 175.583 44.9916 174.556 45.8804C173.527 46.7575 171.972 47.2077 169.879 47.2077H154.045V25.2806L170.123 25.266ZM169.211 34.6771C170.467 34.7005 171.416 34.4724 172.063 34.0017C172.71 33.531 173.033 32.5399 173.033 31.0226C173.033 29.5763 172.739 28.634 172.151 28.1954C171.563 27.7569 170.705 27.5347 169.544 27.5347H156.344V34.6771H169.211ZM169.408 45.0063C170.765 45.0296 171.815 44.8113 172.56 44.3514C173.313 43.8865 173.689 42.8574 173.689 41.2552V40.7144C173.689 40.5273 173.689 40.3343 173.659 40.1297C173.621 39.6152 173.523 39.1069 173.365 38.6152C173.222 38.1456 172.92 37.7397 172.51 37.4662C172.194 37.2704 171.845 37.1309 171.481 37.054C171.124 36.9766 170.761 36.9278 170.396 36.9078H156.353V44.9975L169.408 45.0063Z" fill="#000201"/>
<path d="M149.929 25.2689H147.245V47.2106H149.929V25.2689Z" fill="#000201"/>
<path d="M150.673 19.3865H146.501V23.5352H150.673V19.3865Z" fill="#000201"/>
<path d="M150.673 19.3865H146.501V23.5352H150.673V19.3865Z" fill="#F04A42"/>
</svg>
